<mxfile host="Electron" agent="Mozilla/5.0 (Windows NT 10.0; Win64; x64) AppleWebKit/537.36 (KHTML, like Gecko) draw.io/28.0.6 Chrome/138.0.7204.100 Electron/37.2.3 Safari/537.36" version="28.0.6">
  <diagram name="Page-1" id="jLwhwWAElRTiUyy183vF">
    <mxGraphModel dx="1426" dy="849" grid="1" gridSize="10" guides="1" tooltips="1" connect="1" arrows="1" fold="1" page="1" pageScale="1" pageWidth="1169" pageHeight="827" math="0" shadow="0">
      <root>
        <mxCell id="0" />
        <mxCell id="1" parent="0" />
        <mxCell id="eFz6Z1lDjVqoyxP0B4Vr-1" value="Pharmacy OTC Sales Data (2022) Ingestion Process" style="text;html=1;align=center;verticalAlign=middle;whiteSpace=wrap;rounded=0;fontStyle=1;fontSize=20;" parent="1" vertex="1">
          <mxGeometry x="310" y="70" width="525" height="30" as="geometry" />
        </mxCell>
        <mxCell id="eFz6Z1lDjVqoyxP0B4Vr-2" value="pharmacy_sales_bronze (raw data)" style="shape=image;verticalLabelPosition=bottom;labelBackgroundColor=default;verticalAlign=top;aspect=fixed;imageAspect=0;image=data:image/png,iVBORw0KGgoAAAANSUhEUgAAAMgAAADICAYAAACtWK6eAAAABHNCSVQICAgIfAhkiAAAAAlwSFlzAAALEwAACxMBAJqcGAAACyxJREFUeJzt3d2PXVUdh/GnWIGWKdCGt0gTozZQrGhLudMmCBcGRSov4UX+BBPkRYmJIagkBkGFG++MgSuCvBQx4TUpUEAvFBKgJJSEAgIWKOgMBVqonePFmolDnVmz1jl77b3OOc8nWXd79v7uvddvzn5be4MkSZIkSZIkSZIkSRrMZuAx4AOgZxvpthfYBpyHktxA9zvN1k27EUVtpvudZOu2bWbMHJIx7ZXFUmhYXNV1gLYtyZj2A+CIUkE0FD5izPpAToH0iqXQMMnpM0Mv5xBLGjsWiBRhgUgRFogUsbTAPLs6iUu9iGC++XkRZh7+gkgRFogUYYFIERaIFGGBSBEWiBRhgUgRFogUYYFIERaIFGGBSBEWiBRhgUgRFogUYYFIERaIFGGBSBEWiBRhgUgRFogUYYFIERaIFGGBSBEWiBRhgUgRFogUYYFIERaIFGGBSBF+gk25/ASbpMACkSIsECnCApEiLBApwgKRIiwQKcICkSIsECnC76S3Z1TyjRV/QaQIC0SKsECkCAtEirBApAgLRIqwQKQIC0SKsECkCAtEirBApAgLRIqwQKQIC0SKsECkCAtEirBApAgLRIqwQKQIC0SKsECkCAtEirBApAgLRIqwQKQIC0SKsECkCAtEirBApAi/k65cfiddUmCBSBEWiBRhgUgRFogUYYFIERaIFGGBSBEWiBRR4k567d/5Nt/8UvP9FTgeWAlMAJ8F9gN75rQp4GVgx0Ftf7ORy7NA2jMq+fr1IfAksHWmPQNMF15mq3qJrSvm69/XM/I11d4GbgFOa2H9WlHzDiYhl/k+7UjgKuDFjGyl2vMzWSaKrnFhte3gg5kvzbHAjYTzhK4L4+D2HnAd4fxm6NSygxdivrgJ4HrCSXTXhbBYex/4BbCsyJYopOsdvBjzLexS4M2MDLW0V4BzC2yPIuyAg+ki34nAAxnLrrXdB6xueNs0zg44mLbzXQxMZiy39vYu8J0Gt0/j7ICDaSvfocDvMpY3TG0auAlY2sB2SuKNwva0ke8YYAvwjQHmcbAesB14mnBJeAewk3AVbA/wwcx0E8AK4CjgS8DJM+10YB3NbvcnCecm/25wngPzP/RgSudbQ3i8o4n/1JPA74GLCJeFB3Uc4ZDvDzR3eXk74RyrGuPeAQdVMt9XgF0Zy1jo8OV+QlEc3meOFMuAS4AHB8zbA14D1hbMmmWcO2ATSuVbRziB7beTHQBuB07tb7UG8jXgjpkM/ebfTSVFMq4dsCkl8q1hsF+OBwjnCV07BXiYwX5JOj/cGscO2KSm8x1D/+ccrwMXDLpCBVwEvEF/67Sdjh9RGbcO2LQm8x0KPJExz7ntTsKVplodTbgS18+6PU6Ll4APNk4dsIQm8/Vzn2Mf8INmVqUVlwMfk7+eN3QRloyAXRmXfBdnzGu2TQKbmluV1pxB/mXhaeDsDrKOTQcspYl8J5L/+Mgu4KvNrkqr1gNvkbfOu+ngpH0cOmBJTeTLffBwF+GudgkXAk8RDt32Ee5un19oWWvIL5J7C2VZ0Dh0wJIGzXdpxjx6hF+aUr8cN0eWe1OhZW4g/3DrnEJZ5jXqHbC0QfKtIG88xz7KnXNcmLD87xVa9jfJO3HfSYuDrka5A7ZhkHzXZ/x9j7JXq55KWP62gsu/ImH5c9vPCmb5lFHugG3oN9+x5A2TvavkShB+nRbL8FHhDPcmZJhtU4R7K8WNagdsS7/5bsz429cpfxOwhu28krxDzmsL54GMMF0ZxXxHkndi2sbjI7Vs50sysrxLC68UqmXDLGQU812V8XcPFF+DoKbt/EhGnitKh6lpw8xnFPOlvtTtAO09lVvTdj6F9EflnysdpqYNM59Ry5fzOtDbW1mDoLbtfGdGpvUlg6SGsLXbpml3sFNtBbI+I9NvSwbpuiPY5m/3x3ZaAbUVCMBDiZneIvObOH5AZ/jd2nWACtyWON3xhGG+ySyQ4TZJeOvguNtCuJma4sycGVsgw+1uwp3tcbcXuCdx2rNyZpxTIO6I+jzcdYCKPJQ43SYyhuXmFMjfMqZVeT3g0a5DVGRr4nQTwEmpM80pkJszplV52wkj5xS8DbyQOG3yTdWcAtlCucEwyvd01wEq9EzidMkvmss9Sb+GMBhmG+UfaVbci10HqFDqNqnhZXnq019Iu+mVO2pv7hjyrm9uLtb6HeN+QeL8Sw7oUmGpb0vMGW8eG0Nee8s5rE997OTZjHmqMv8ibSd/PnF+KWPIa2+pv5ZfSJzfzsT5qUKfkLaTVyXOL2UMee0t9ZDomMT5JV/96+prS1pYL3G6wwjFtJh9M9MOs73A8oTpDiPthvYnJG4THzWpz/6uA1Qo9Z9G4yyQ+qQ+dJc6xvrv/QapSOpTHCsSp3s/dcEWSH1SCyS1MxQdJNSS1HVI3Sap29gCqVDqzkt9vc89wK/7zFKDX5H+SH/qNrFAhthU4nQ5L6X+MXAe4aM7e7MTte8jwsdwNgM/yfi7NYnTpW7j7r7GowXtJLywYTG5j0vcSzNvPE89Ye7iCmnqNnk5dYb+gtRnR+J0Pk/0/1K3Seo2tkAqlLrzTi+aYjhtTJwuuUBUn1NJuxs8DRzXQb7Uu99tOyEj25dTZ+ovSH1eBD5MmG4J4XsZClJfxrAHeCl1phZIffYTHvVO8a2SQYZM6rZ4AvhPySAq7xrSDhWmgMNbzlbjIdZy0r+hcnXL2VTA6aR3xEtazlZjgVyWkWtDy9lUwCGElxCk7PAHW85WY4E8nJhpFz7BPjJuIf1qVpvfQa+tQDZkZPpNi7lU2Gmk7/g7WsxVW4HclZEp6728qt/zpO34A4SPybShpgJZR/gFTcnjOPQRlPMJtrZeQ1pTgWzNyPPDljKpRRPAe6R3gotayFRLgeRcudoNHNFCJnXgOtI7whuU/yZ4DQWyinBFKjXLTwvnUYdWEoaIpnaGLYXzpLx4LuVRmX4tAf6ckGG2TVL+2/Hq2PWkd4gecHnBLE8mLP+xgsu/OmH5c9t1BbOoEsuBV0nvFB8DZxTKcn7C8s8ttOyzSH9vWI8wMKrtR3HUkc3k/eecotxnj2+KLPeGQsvcSN6hZg84u1AWVeo+8jrIW6SP08419y3/HxIOq0r9cpxE+qM3sy31k2waIauBd8kvklK/JG3YSH5xvAN8rouw6t45pN89nnu4dUYHWQd1FvmHVdM4Tmbsxc4BYifuV3QRtg9LgB+Rd0I+237ZQV5VZilhZFxu5+kRXv2zsv3IyVaRd59jbnsU+Ez7kVWjVYSPVvbTkd6k/YFWKS4j7w753PYc5Z8i0JBZDfyD/jpUD3iE9p4CjllH3oOHB7dX8KRcC1hLeBiv3851APgj3YyV2ADcTf5Fh7ntHTK+e67xtBZ4jf472Wx7CPg+sKxg1uWEQ6nUYbKx9ioWhxKtBrYzeKfrES4L3wpcChzfQLYTCIV3G/mXbWPnHMUPqxzAPlpWAn8CNjU83xeAZwgvtdtBeMZpivCqndlPCayYaUcR7t6fPNM2kvEmw0SPE+7kTzY8X42BpYRvagxyXF9rmybc5/BSrgb2bfIfS6m5vYN3yNWw1YRDrq4796DtHryMq4K+S7hX0HVHz20vE34JpeKWAT8nnFx33fEXa5OEkYAOdlLrjgaupc7zk92EFyw4hlydmwCuJNxP6LowniW8t8pX86hK6wnvre33QcF+2j8Jn6du873C2bxRqLkOITyTdeZM20S4+deEPYQhultn2rOEQqmaBaKYpYRnnWbviq8Fvkg4R5i9c37kzLTv878761OEK1A75rSX8MtOkiRJkiRJkiRJkiQNuf8C2AxCeJQHhlIAAAAASUVORK5CYII=;" parent="1" vertex="1">
          <mxGeometry x="839" y="389" width="80" height="80" as="geometry" />
        </mxCell>
        <mxCell id="ckpoAZdv2tJWgA7Kn1el-8" style="edgeStyle=orthogonalEdgeStyle;rounded=0;orthogonalLoop=1;jettySize=auto;html=1;entryX=0;entryY=0.5;entryDx=0;entryDy=0;" edge="1" parent="1" source="eFz6Z1lDjVqoyxP0B4Vr-7" target="eFz6Z1lDjVqoyxP0B4Vr-9">
          <mxGeometry relative="1" as="geometry" />
        </mxCell>
        <mxCell id="ckpoAZdv2tJWgA7Kn1el-9" style="edgeStyle=orthogonalEdgeStyle;rounded=0;orthogonalLoop=1;jettySize=auto;html=1;entryX=0;entryY=0.5;entryDx=0;entryDy=0;" edge="1" parent="1" source="eFz6Z1lDjVqoyxP0B4Vr-7" target="eFz6Z1lDjVqoyxP0B4Vr-10">
          <mxGeometry relative="1" as="geometry" />
        </mxCell>
        <mxCell id="eFz6Z1lDjVqoyxP0B4Vr-7" value="Volume" style="shape=image;verticalLabelPosition=bottom;labelBackgroundColor=default;verticalAlign=top;aspect=fixed;imageAspect=0;image=data:image/png,iVBORw0KGgoAAAANSUhEUgAAAMgAAADICAYAAACtWK6eAAAABHNCSVQICAgIfAhkiAAAAAlwSFlzAAALEwAACxMBAJqcGAAAFH9JREFUeJztnXmwHNV1hz+9h/S08AQYCUkBIYEsxCZDIoFtNgeMbMBJ2LI4EBzHxOB4J1VZTBJnKnbi2JXyWoFKKmUnYXFSYAgGBCI4COOA2G0WCSSEEAjEjoQkpKflvfzx606PRvNmpntu39vdc76qU/30NDN93nT/+t577rnngmEYhmEYhmEYhmEYhmEYhmEYhmEYhmEYhmEYhtEtY0I7UCHGAoPA3sCk6DgRmBDZ+MjGRa8dB+wV/dwXWXw9RoBhYBewM7LtwA5gKLJtwNbI3gE2A1ui46botUaXmED2ZACYFtkBwFRg/zrbr872iWxy9L4iMQS8DWwENkT2FvBmZK8DbwCvAa9G9kr0PiOi1wQyGTgEOBiYCRwU2YHAjMj2DeZdMXgLWB/ZS8A64IXouBZ4DgmvJ6iiQN4FHA7MBQ6LjnOQMPYL6FeVeBNYAzwLrAJWRsenov+rDGUWyCTgPcAxwHzgyMgOCOmUwavAcuBJ4Ang58BjaJxUOsoikPHALwPHR7YQeDca2BrFZxi1MA8BD0T2KCUY7xRVIIPAScApkS1EUR+jOgwhwfw0sp+hCFyhKIpAxgALgDOADwHvQ+FPo3fYAdwL3AEsAR4O644IKZB+4FeB84CzUSTJMGLWAf8F3AjcjeaEvBNCIMcCHwMuQHMNhtGO9cC1wL8Bjwf2JRcGgN9Hfc4RM7Mu7AHgIioyJh0ELkcztKG/WLNq2cvAl1BKT+kYD/wZSmcI/UWaVdteA/6EnFJ98hiDnAl8D81eV4URlMv0Bkku04Y6exslCG6O7J0620qSYDiEojU762wXmieIL/gYNL/TX3es/3kcuyc/Nv48eRTbB5hSZ6V88rZgFfBZFAVzhkuBTAKuQAPwsrCLJN8otvWo+X4ZdQ1fRS3hzkA+5sUAEspUlH3wS03swOhYpgnZfwU+g6OZe1cCORL4EcqBKhob0dNlFbAa5Q89i5LuXqR6N75rxqHkztkon2026h3MQ7luE0M51oLlwPkoN6wrXAjkOOB2lCQYko0o5+eJyFagL+qVkE5VnDEoG3oeejjOR/lx81GPIiRvAB+mywnHbgWyALgLRat8sgF4EIWNH0J5PWs8+2CMTh9qZY5BaULvjY6+xz1vo8noRz2fF1DfdS1+IhVrUN/yYuAIipMiY3ROH3A08EngGjTe83Xv7O/h79uDGzM426ltAK4D/hD1e41qMhe4FLgJRf/yup+u9/UHxZzsyPF6exGFh09Fa7WN3mIAWARciSKHru+vE/z9KXCrI6c3o67TqZQrlGjkSz8SyzWoOIWLe+1mX85PRhNe3Ti7FvgimrwyjFZMQTPl6+nuntuGp2DSWV04+SrwR9haDyM949FDdQPZ778zfDh6aUbnbiD8XIlRfmagebcs9+An054sS78/S1GEVcBvU7GKF0YQ1qMFdmszvDf1+qMsAunP8J65KJRnC6SMbpmGVhrOyvDe1NFRn5Gjs1BuzOdRf9Iw0jAeuAzdQ17GEuA/tLov8B00u/mnKEJhGK3YH/hzdM98kxJUvqzhJi4dh96uQZVMbHLQiOlHiYbXovU0ru63WlpHQt+UA6h4wwVozcUNKG3+bkpQVMxwygCaMD4POAfl+gUntEDqmQJcEtkW4H+AxdFxZUC/jPyYB5yGVqGeSgFXORZJIPVMAn49MlBo725gKbAMrfcIUifJyEw/WifyflQt82RKUAutqAJpZAbw0chALczDqATMg8Av0FzLcBDvjEb6UGg/Xg9yPFo7VLgWoh1lEUgjk0jq9sZsRS3LY6i42NMoJPg8Jpy8iFcUHonW6RyNWomjCL+i0AllFUgzJqDlv8c1/H4ral2eJlmLviY6PocFA9oxgDYbmoVWCR4a2TxUYb+Ia9KdUSWBjMYEtE76PU3+bwRVL3kJrUd5qe7nF1HNpdej41YfznpkHMkWc9NQN3Z6dIx33zow+l3PruDsBYG0YgzJ1msL2rx2KxJLbG/X2caGf8eba24j2WwzPm5HAYa4HtauBoNkQ88x6BrV2zg0qzwQWbxJ6MTIButsMppYi/dSjPdZfBf+6wiUkl4XSBomoCfrzNCOGP7wlWpiWxIbrvFyT/kSyEyUT/OMp/MZ1WUVqvvspSX3JZBXgK+jSnynAlejfrthdMIG4N9RjavDgG/gqSCg7zHICJoNX4qW3Z4GnIsWwEz37ItRbNaT7DC1lEDd9JCD9B1oL7olwKfR/MXpSDQnYGtGeo2twP+i3LufoAyJkaAeUZwo1jBwf2R/i8KXJ6Du2PuReKwCSrWIy8fei8rX3odC4IWiKAJpZAh9aXdF/x6DiiMfT1Ln9SgqPotbIbYAT6I6yvGDcCUFaCHaUVSBNDKCqrWvQBs5QlIgeX6dHRn9rhL715WQIbTFxHKUD/c4yo17lhKIoRllEUgzhkn2/bih7vf9KG/osMjmotyhWZGVLqO0YGxGOWxr0Y2/CrUGK6PfVSoxtMwCGY1dJJvk3N7k/6eQiOUg9txNaQa9O97ZSJKPVp+ftg7d/GvRvhs9gy+B9FGcJ0ucS9VqY5UBkq3J4mOcw1Rv+5Ls/zcZpXiHTuwbQX3++vywt0j2Vox/jpMwX43sNQo4SG6Bl+/Zl0C+g8r9lKUfOkSyZ2Ea+lAXbm8kltjihMJ4s80BNE4aQPNB/ehaxBO3w+y+0ecQunmH2D0BcisSwxbU9YmPRXkY5ck/hHZgNGpkqyixGCscZ3TPNFSE0EtVE591sc5EA7ovU5HVZoZX9gYuR8GA3wjsS0tqdF+f6E2UT3OwX9eNEnIw8HfonvFeFysLNQeOxrYTbfx+EdaqGAmTUK2029E9EqxwXBZqDh2ut81oPuPjWEnSXmR/4PfQPbCFfO6xWlqnijQPMgll9p6L5jLuB+5EiWvLKFcI0mjPWJRjtwiVnn0v2XYOyJUiCaSefpSseAIa1G8BfoYS2+5F4tkUzDsjC5OQIE4GTgJOpATd6qIKpJFJqJjxh6N/D6MaWA+gTeIfRTk/W4J4ZzQyAdXIWgD8CkoyPZoCthDtKItAGuljz1I+cW7WYySJjctRPSyrfZUP41Cu2+FIAEehpNG5lFAMzSirQJrRh4qZzWv4/TAqFLeaJEcrttUoFcMYnX2AQyKbjYrFzYmOs6mIEEajSgIZjTgtfs4o/78JJeWtqzuuQwXlXquzeHfVqjCIcsymRcfpJAmbB5KUOOrp+lm9IJB2DKIuwuFtXreTJMHvTZKCcY22iSRPqpntYM9icc0Kx8XF4/pQxGcsSeG4AZKcrvHsnvM1maRoXFw4br+64xQUUrU1Mx1gAumcvdBT1opL9BBWOM4oK1Y4zjCaYIXjDKMBKxyH9e2N3bHCcVjhOCPBCse1wArH9R5WOK4LrHBctbDCcTkzghWOKwNWOK5AWOG4MFjhuJJjheOyY4XjGqiiQNphheOqUTjOC1kEsjPDew4Gns/wvlBY4bji07isoRO8zKV8gvSL5dcBp/hwzqg8Y4EvoqzptPfhRT4c/GAGx0bQU+0qtPDGMNIyAFyComRZq5qc5MPRQbory7ID5WId78NZo/QcCnwN5V51U/JnGxozeuGqLp2N7RHgC2ggbBgxU4FLUSWbYdzca1f7/AMWonCqC8dH0ED0TuBTKNxq9B7z0NjibtzeW111r7oJSX4bPf3z4FE0h/HfKIHNV/hxOipGUKbw9wgK264gW4QxFFOBD6B8uzPJd2x6LXBhjp/flIkolcC10hvtHZThWUOZvnnMhB+PUqrz/lvytNfRorSiVhmZC3wMuBLVNHPVdWpnzxFw4nc6SjXweSPsQvk9/4z6qcehCEdWLkAtVOgb3JXdQvilAnOA30JV2W9Hk5Ahvou30P2RGRezvrPQl9CuKkie7EQJck9E9nh0fJ7Wk2bHoJTrsXk76JklwDkocpMXY9Cy13kkReOORgmjRSgV9Aaq+ftINx/iKi1iEC2JPMfR57liG2rhno4sLh63GuUZXQecH8y7fHEhkokkeWuzUMswN7I5hG+pRuMZtFL1iW4/yGXe0Bg0aP8qJShKjNI29qK4fXYXjCaSONdsKkmy5oy644FIEGXchuIHaD/MzS4+LI/EupnA99A6cyM8j6BJtqnohp9CNVP+nwf+GPhRaEc65TTgHsIPWs2qbRtR9K6o3b22nI7CtKG/SLNq2RuoO1+ZLIyjgCvIloVpZhbbSuAzVLgewSCaMFqC2w0azaprG9C814l4JvTqt2nAb6IB/QewYgtGwgZgMSoedzP5zumMSmiB1DMInAGchdaceKm9ahSK5Shp9ccoaTF4blmRBNLIYUgop6GmdUZYdwAl1uXNXR7OURRWo0jnTyJbH9adPSmyQBqZjYRyIsqvmU93OVhZ8PF9jXg4Rwg2oSztZaia4n2oWEShKZNAGhmLcn8WAseiDT3nk2/mZhEFso3izQGsQ5UUf4EmKh8lSWotFWUWyGjMREI5gmRrtcNxkzZRRIH8PXo4nJWDL63YjrpIceG4p9AYYjkV2tqiTAuDOuWFyBY3/H4/kt1Z340iZwv9upYLQ8B5qLqkS5HsQkXjXkBrKtY02PMkeyoaFaRG+ni8D9L6VIveN4AeCt3OOTyDUtirnMTZMb52mDLyZwileN/W5efMQcmmNieFCaRquBLJIuAmVA2ypzGBVI9YJM0Kd6dhEZrFrtpqy1SYQKrJEFoo1a1IPoSiZD2LCaS6uBLJ59FKw57EBFJt4u7Wki4+Yy/U3epJijYP0ocm+A5Ay0RXUMLZV8/MRvuHt+LbaLJ0VsZz5Jk42ocqoRyAUk+W0xvbN6SiH60nfondY/IvAJ8jn5auRvo5Ah+EXnvRaq7FJf3AZex5zV9EJUitdxMxEfWTW12gH+M+MbHW5pwmkPwEMgGFoludczEWZmYiSnPu5CLdhluR1Do8rwnErUAmAHd0eN47CCySkM3YRLRS7LQOX38Gisv7TnE33DEBTUB2OugPPmEZSiBpxRFjIikvacURE1QkIQSSVRwxZwA3YiIpE1nFERNMJL4F0q04Ys6kuiLxshOrR7oVR0wQkfgUiCtxxFRVJGtCO+AQV+KI8S4SXwJxLY6YM9FCoSqJpNvUkKLgWhwxwQfurkkTys1qt5JeJLUM5/HBLLrbRbgIYd40odysFjwE7AIf4sgqklqGc/jiXJRHFVoYWQTiQxyVEIlPccR2C52LpJbh831yLBJ9Ecqz1jr02ac4vIgkr2TFvMYc7fgI2h/ifPQELjM/R3/PICqitzfuqqrc5ehz6slrzNGOeExyNrDV87kzEaLlyNKS1DJ8blVw3YKEaDm8tCSuo1j9aKbbd8vRyEeA/6Cadb+KRj9qtUOvGVkEXI/je9q1QC4j/BcVcw7aJtrIl8+hcHsROAv4bGgnRqMPFR8O2cw22rMt/K1l+Lyq4KqLNQaVGQ19nevtBRz2HFy2IEcB0x1+ngsOQXWejHw4HO2IWyQOQkENJ7iMYhV1r7gDUA1ZX/ShCvQLUCHtvMdBI2izmYdR1XSfy1WLfM2fdvFBLgXyisPPcolPv04HrkS1f0OwEvgU/vYYqfw1d9nFWoHWExeJNbQeh7jkbJRHFUocoK7FHcCveTrfSlTEukisRX45waVAhoFvpHj9LWgTlTQsQ7PLnfL1lJ+flX2A71OMgs97AT9AE4x5M0K67/hWdA3TsIx0pVR9XfNM9KEZ9HaRhptQceSlHby23paiCcBbOnjtDbTu/9dSnrtVFOvTGT4rb7ukhb+uolig7/jGDj4jnrxdmvLcS6P3tSvy0Mk1T43reZBhlObxTzS/oYaB70av2Z7xHPF+GN9v8Zp/AX5nFB/y4GRP50nDKZ7OM4K+6ytp/n2PAP9IkoCZhSHUhf0uzfck2QV8ixyueR65WNvRQPEK4AIU/gV4DLgGFQZzcY6LkRB+F+1nMYIiFz8kfTPeLdM8n68TfIbct6NW9ArgQrQ1HsDj6Jo/6egcX0AiuRBFCQEeis6Ry1gzz8qKj0WWJ/eRfhyTB0H28G5DCJ+eAL6U8zlWA3+T8zn+H6te54YVoR1ogounds9jAnHDdaEdaML1oR2oAiYQNyxDGa1F4T+BB0M7UQVMIO74OHBnaCfQVgcXh3aiKphA3LEZ7ch0AZrNfhM/YeaR6FxLgI+i1PMtHs7bExRtf5CyM4LCzD8M7YjhBmtBDKMFJhDDaIEJxDBaYAIxjBaYQAyjBaGjWM0yM1uxMxcv3HIoSTKd7yW3VwPP5Xy+bkm7JDjtPeKU0AJ5OeXrX8rFC3fUgL8gzPd6DvBl4CuRFZVSXfPQXayfpnz93bl44YYa8NeEfeiMRZmufxnQh3akveZpX18pBtHm8Z2sLHsZ1ad1Ra3D83ayovBQtDNU6FWEsW1H2yiMhssVhWmZDLzW4Xlfwe01T03oFmQT8Ae0H1vsQLlOm/N2KCMXEr67Ws9YlPJSRN4GPkH7a74T3RtBr3logYAW8i8Cnhrl/5cDH6TYOy8taP8S7ywM7UALbkZ5a6PVrlqBrvlibx6NQlGeekuBI4H3oQu7L/AWWk55P/7Wlmdln9AONGHf0A604S7gCHa/5htQmn5hrnlRBAL6QoqyhDYtG0I70IQi+tRI4a95EbpYVeDh0A40wRZMOcAE4oarKdb+5tuBa0M7UQVMIG54jmJNztUoXknQUmICccdXgL8ibEuyHbgc+FpAHypFkQbpVeCrwFVoDmIhsB/5P4SGUcTvQdStspbDISYQ96zFnuCVwbpYhtECE4hhtMAEYhgtMIEYRgtMIIbRAotipaMQCXSGP6wFMYwWmEAMowUmEMNogQnEMFpgAjGMFvSyQIIWJCsZZSjYlwu9LJC0Bcx6maIX7MuNXhbIPaEdKBH2XfUoSwhf5K3odmvmb9coPbOA9YS/CYtqLwIzM3+7RiWYBdxG+JuxaHYrJo7cS/OXicOAk4EZ9G6O2k40IL8HWBXYF8MwDMMwDMMwDMMwDMMwDMMwDMMwDMMwDMMwDKMi/B+gJ7CoEEcrogAAAABJRU5ErkJggg==;" parent="1" vertex="1">
          <mxGeometry x="401" y="453" width="80" height="80" as="geometry" />
        </mxCell>
        <mxCell id="ckpoAZdv2tJWgA7Kn1el-11" style="edgeStyle=orthogonalEdgeStyle;rounded=0;orthogonalLoop=1;jettySize=auto;html=1;entryX=0;entryY=0.5;entryDx=0;entryDy=0;" edge="1" parent="1" source="eFz6Z1lDjVqoyxP0B4Vr-9" target="eFz6Z1lDjVqoyxP0B4Vr-2">
          <mxGeometry relative="1" as="geometry" />
        </mxCell>
        <mxCell id="eFz6Z1lDjVqoyxP0B4Vr-9" value="Initial load (CTAS)" style="shape=image;verticalLabelPosition=bottom;labelBackgroundColor=default;verticalAlign=top;aspect=fixed;imageAspect=0;image=data:image/png,iVBORw0KGgoAAAANSUhEUgAAAgAAAAIACAYAAAD0eNT6AAAACXBIWXMAAA7DAAAOwwHHb6hkAAAAGXRFWHRTb2Z0d2FyZQB3d3cuaW5rc2NhcGUub3Jnm+48GgAAIABJREFUeJzs3XlcVPe5+PHPDLOwg2yKC6CA4oaKOy4xxsSsTdKq2fc2S9vb3jZr29v2dk+TtLf93bbZbrOn2UzbtEkTs7njhriBoiAKCAiK7Nswy++Po9a4Aud75gzD83695qUi85wHZuA853u+3+cLQgghhBBCCCGEEEIIIYQQQgghhBBCCCGEEEIIIYQQQgghhBBCCCGEEEKFCOAB4FPgCOAFfCY9vMdz+Bz4JhBl4NcthBBCDFiLgArMO+Ff6FENXGnYVy+EEEIMQDcAbsw/yV/o4QFuN+h7IIQQQgwoY4EOzD+59/TRDUw15DshhBBCDCAfY/5JvbePzw35TgghhBADxHjMP5n39THJgO+HEEKIPrKanYDolbvNTkCH/py7EEIIYRoHUIv5V/J9fdQDTuXfFSGEEH0iIwD9xzVAktlJ6BAHXGt2EkIIITRSAPQfd5mdgALB8DUIIYQQfjMEbTmd2cP4eh8eIEXx90YIIUQfyAhA/3AXYDM7CQWswB1mJyGEEEL0F3sw/+pd1aMMKTyFEEKIC5qP+Sdt1Y+LlX6HhBBC9JpciQW+YJw4Jz0BhBDCZBazExDnFQnUHP8zmHQAQ4FGsxMRQoiBKhgmlgWzG9F58k8ZlsLXbvmakmTqjtbR7e7mw88/pPxQuZ5QYWhf2zNKEhNCCNFrcgsgsOkeKp+arW4jvrDQMADGpI9RES4Yb20IIUS/IQVA4BoDzNITwOFwMH7MeEXpQER4BFggbUTayWJAhxnIBkFCCGEaKQAC1z3onKMxMWsiToe69vtWq5VQRyhWq5XMkZkqQkpPACGEMEmI2QmIM6SjDf1/CwjXE+jqRVcTEx2jJKkTLFYLHZ0dRIRHULSvSG+4LMAL1AHHdCcnhBCix2QEIDCMBx4F1gElwFNAvJ6ACXEJjBg2QkFqXxTmCMNqtRI3KI7E+ES94QYBT6B9zfuB3wNzkdUpQghhuIG0CiAU7Z7zieVne4FqE/MZA9wJ3IwB/fGnZk/FYsR51AIRYRG0tLWQlZHFkfojqiKPQhv1+BZwCHgDeAnYreoAfZCMNkoRi7YccwfaEkYhhOj3BsIIQAbwCtoQ80bgr8DnQBWwGe1ee6ifcok6frx1QDHwGAac/EOsIUweP1l12JPCw8KxYCFjZAa2EENqyOHAw0ARsAG4D1B7L+PcnGgrFDahFYifo71nNqC9h/6CVhQIIUS/FuwFwO3ALuA2tLXnp5sO/B9QDvw3kGRQHlPRrmZrjh9vjkHHAWB0+mgiI4zrHWSz2bDb7TgdTtJS0gw7znGz0PoF1ACvATMNOk4i8EPgIPAC2iqF04UCN6GNBNxvUB5CCOEXwVwA3It20u3J1X0S8GOgEm20YKKC41uARcA/gXy0Ge8RCuJekMq1/+cSEa59KVkZfrsYDgNuQRvFyUcr7lQMP2SgzT04CPwUbevlC3EAT6MVDEII0S8FawFwL9pVY29vgjvQRgt2og3TX9OHGE60k1Mh8AlwdS+fr0tkRKSqJXrnFeYMw2qxMjx5ONFR0YYf7zRTgZfR5nF8m74VVnOBt9FuxfR1xcVPkSJACNFPBeMywG8Cf0T/TPIUtOHepUA32mQ093k+3wl8A/gbcCvakLLfzZo6i4y0DMOPY7FYCA8Lx2az0dbRxqGaQ4Yf8ywGAZejFXw+YBsXfo1uRSsevoe2+kJvEXwx2vtjrc44QgjhV8FWANyLmpP/qRLRRgLuQ1uatwdoOeX/rcAStBP/zfhpmP9crl187cnheaNZrVYcdgdJ8UlsLNjol2OeQzhwGdrrb0W7ReA55f9j0O7Zv4k2OtOTYf7euOT48dYojiuEEIYJpgJA1ZX/uUSgDRt/A23J2kFgPrAceADtatRUqcNTmTdznt+PGxoaysFDB2loavD7sU8TgTbv4magAW004Gdo8zquAYy8V7EQcKHdOhJCiIAXLA1X+nrPP6jctuQ2Ro8abcqxD1Qc4IU3XzDl2AHmh8DPzU5CCCEuJBhGAIy+8u8X0tPSuWTuJaYdf1DMIKoPV1PfUG9aDgFiIdCFjAQIIQJcfy8AjLjn3+8kxSdx+9LbsdvspuYxJmMMJQdKaG1rNTWPALAImRMghAhw/bkA+A/k5M/40eO58bobCQ/TtW+QErYQG+PHjKexuZG6o3Vmp2O2hUAnsN7sRIQQ4mz6awHwH2jNWwbkyd/pcDIxayJXLLyCebPm4bA7zE7pJLvdzoQxExg5YiQ+n4/G5kbcnvOtzAtqi5AiQAgRoPrjCXRATvgbFDuIrPQsxmSMIXV4qlE9+JXz+rwcrj3M/vL9FJcWU1ldic/nMzstf/sv4BdmJyGEEKfqbyfRAXPlH+oMZfSo0WSOzCRjZIahvf39qa29jdIDpZQcKGHv/r10dnWanZK/PIq29bEQQgSE/nQivQ+t/3p/yrlXLBYLo1JGMXn8ZMaNGRdQQ/tGcHvclB4oZUfRDvaU7MHj9Vz4Sf2bjAQIIQJGfzmZBvXJPyk+ifFZ48mZmENsdKzZ6Ziio7ODor1FbCvcRkVVhdnpGOkHwC/NTkIIIfrDCTUoh/1DrCFMGDuB3Gm5DB081Ox0AsrhusPk5eexc89OPJ6gHBV4BHjS7CSEEANboK8CMOTk73Q4uebSa7BYLH5vXONwOJgxeQZLv7SUnIk5REVG+fX4/UFkRCRjM8eSMzEHq9VK7ZFavxYCFouFrIws5s6Yy4GKA0Yc+1KgHchTHVgIIXoqkK+qDRn2d9gd3LbkNtJGpAHQ0NjAlh1b2LJ9i6ET0iLCI5gxZQazcmYFxJr9/qTL1UXBrgLWbV5Hc0uzYcex2WxMGDOB+bPmkxivbeZYXVvNi2++aNR7Q24HCCFME6gFwLeA32HAlf/tS28nZVjKGf/X2dVJ/o58NhVsorG5UdkxQ52hLMhdwIwpM0zv1NffuT1utu7YyufrP6e9o11Z3OjIaGbmzGT65OmEhYad8f+Hag7x0lsv0eXqUnbMUzwMPGVEYCGEOJ9ALAD8fvI/ldfrZfe+3eTl51FZXdnn41mtVqZPns7COQvlil+xzq5OVm9YzcatG3U1GRo6ZCi503KZkDWBEOv574ZVVlfy8tsvG1UEPAT8xojAfjIYuBoYf/zvUumK/qIbqAN2Ax8A1eam41+BVgCYevI/XWV1JXn5eezetxuv19vj540eNZrLL7785DCyMEZDYwMrVq+gaG9Rj59z4v5+7rTck7eBeqqyupKX3n4Jl8vVy0x7pD8WAXFoyxq/CvSPzlRCnJsHbevwx9CKgqAXSAVAQJ38T9XY3Mimgk3k78g/773gIUlDWLxgMRlpGX0+lui98kPlrFi14rwjNg6Hg5wJOcyeOpu4QXF9PpYUASdlAv8C5M0ugk0FcBVQaHYiRguUAsCwk/9tS24jdXiqknhdri6K9hZRXFrM4SOH6ezsJDIikuTByUwZP4X0kelYAuZbOvAcqDhAwa4CqmuraWltITQ0lKT4JMakj2Hi2ImEOkOVHMfgIuBB4LdGBFYoDtiEnPxF8KoAphPkIwGBcLa6A3gR1bP9HQ5uX3K7spO/EKcyuAi4B3jBiMCK/BH4utlJCGGwl4C7zE7CSGYXAJnATkDNpdlxcvIX/mBgEdAJZAMlqgMrkAhUIRP9RPDzAKlo7/egZHYjoN8BU1UGlJO/8JeYqBhGpYxiV/Eu1c2CbMAg4G8qgyqyDPiy2UkI4QdWtCI83+xEjGI18dihwBKVAeXkL/xtxNAR3LH0DhwO5Rs3LQHObEpgvrFmJyCEHwX1+93MAmASCn/ByclfmCVlWIpWBKjdvTEUmKwyoCLRZicghB8F9VpuMwuAJFWB5OQvzJYyLIU7likvApT9jCgU1LOihTiN2fPkDGVmAdCmIojD4eC2r6hb6idEX6UMS+HaK67Fblc2P07Jz4him81OQAihhpkFQBHg0xvk8gWX97qjmxBG6HZ3kxCbwJzpc1SFDMRGJJ8CR8xOQgihn5kFQC2wQW+Qvfv3KkhFCP1a21rx4aP8ULmKcJuAwyoCKdYF/MTsJIQQ+pndv/sZIFdPgH1l+zh67CgJcQmKUgoe3d3d1B2to76hnobmBhqbGmluaaa9o532jnY6Ojvo7u4+Y0MdW4gNu91OaGgoEWERhIWFER0ZzaCYQcTGxBI/KJ6khCTV97v7Na/XS0dnBy2tLRysPKgi5LMqghjkaWAhshxQiH7N7AkODuAAMFRPkOmTp/Oly76kJqN+yuv1UlNbQ0V1BZVVldTU1XCs4RheX883MeoNi8VCXGwcyUnJjBg2gpRhKSQPTr7grnrBqrm1mZbWFvK25LFzz0694WrRGpAYsvWgIqHAc8BtZicihIHeBG4yOwmjmD0C4AL+APxST5DtRdtZNG/RgNt2t6GxgX1l+yg5UMKBigO4ug1pS3tWPp+P+oZ66hvqKdyr3aq22+2kjUhj9KjRjB45WtemO/2JDx/tHe24ul0UlxarCPk0gX3yB61b4e3AO8APgBmYf0EhhOiFQPiBjUPbeCFCT5BF8xZx0eyL1GQUwI41HGPX3l0UFhdyuC4QbxH/2+CEwUzImsCErAlBfYumrb2NxuZGdu7eSV5+nt5wnWhX//1tud1QYBxaB0MhAsUc4Ns6ni8jAAY7BryMzs1FNm3bxNwZcwkJCb4h6O7ubgr3FpK/I5+Kqgqz0+mx2qO11K6r5bN1nzE8eTjTJk1jYtZEI7rmmaqtvQ2fz8eu4l0qwv2F/nfyB6g+/hAikATCOS5gBco353fA/ehYldDS2sLOPTuZMmGKuqxM1tjUyIatGyjYVUBnV6fZ6ehyqOYQh2oO8eHnHzJlwhRyp+UyKLb/Xyx2ujrpdndzoOIALa0tesP50H4WhBDCcIFSAJQA7wO6ZvLl5ecFRQFwuO4wazauoWhfEV6vMZP4zNLl6mJjwUY2b9vM2NFjmT9rPkMH65oDaqrW1lYAFRP/QFtjr2QYQQghLiRQCgCA/0FnAXC47jBl5WWMSh2lKCX/OlJ/hDUb17Bz907DZu8HCq/PS9HeIor2FpGems7iBYtJHpxsdlq90u3uxuVycaT+iKr5GL9VEUQIIXoikG6YH0QrAHSdBTo6O8gel60kIX9pa2/jw88/5L2P3qOmrgaf/gaJ/UpDUwP5O/NpbG5kxNAR/WaOQHNLM93ubjZs3cCxxmN6w+0BvqsgLSHEv00EvqLj+YXAu4pyCTiBNAIA2hXQa3oC7Nu/jyP1R0iMD/xNnLxeLxu2bmBV3qp+f49fL5/PR8GuAor2FnHR7IvInZ4b0D0FTjT+aW1rpay8TEXI36OgNbYQQvRUoP2GLQbuBGL0BPH6vIxJH6MkIaMcPnKY1//6OtsKt53RiW8g83g87C/fz559exg6ZCjRUYG5+2xLWwtdri4KdhVQU1ejN9wx4C6gW39mQohTyAjAeZi5F8DZdAN/1Btke+F22jvaFaSjnsfj4ZM1n/D0y09TdbjK7HQCVu3RWp5/7XlWrFoRcAXSicY/brebPSV7VIR8hsDc+U8IEcQCrQAArb2orl+G3e5uVbOylTp67CjPvf4cazauCbrZ/Ubw+rys27yOZ199lrr6wFka39HRgcfjoay8jC6X7oZ9LhQUvUII0VuBWAA0AC/qDRJouwRuL9zO0y8/TfVh6ZXSW4frDvPMy89QsKvA7FQAbdc/gAOVB1SEewtpoCOEMEEgFgAA/09vgLqjgXHF6PF4eP/T93n3X+/6tVd/sOl2d/O3D//GeyveM/WWwInGP4CKmf+g4L0uhBB9EagFwAS9AVwu80+27R3tvPjWi2wq2GR2KkEjf0c+L7zxwsmrcH/rdv17nl53t5I5exNVBBFCiN4KtGWAoK1M+JneIJERkQpS6bv6hnpeWf4KxxqUXCXqMmzYMDIyM0lPzyBz9GgyMjKJi4sjNjaW8PBwwiMiiIjQ9mJqb2+nva2NtrY2GhsbaWxspLS0hJJ9+ygtLaG0pISqqip8PvNWrFVWV/Lca89x25Lb/L7cMyI8gtb2VrxeL2GhYSomm/4Yrf9/oO/+J4QIMoFYANwCjNcbxMyucodqDvHq8ldNW4kwZkwWc+fNY+68+cyZO5e4uJ5vyxseHk54eDgJiYmkHv/YRQsWfOFzGhsbyVu/jrVr1rB2zRr27i32e0HQ0NTA868/z61fuZWUYSl+O67VaiU6MprG5kYS4hKob6jXGzIVbR+M3+vPTgghei4QtgM+lQOtF8BIvYHuWHoHGSMz9GfUSwcrD/Lau6+pmB3eYxaLhVmzc1l2ww0svvxykpIG++3YAEfq6vjkk49568032JCX59cVDg67g5u/fDPpqel+OyZAXX0d5ZXl/OPjf6gIVwtkAObc1xAieN2ENsLWV0G9HXCgNQJ6ALhZb5DkwclctuAyLH6ub/aX7+e1d1/z22S/kaNGcd/9D/D7//0jD3z9G0yaNJkIE259REREMDE7m5tuvoUbb76F+Ph4ampqOHbM+NsfHq+Hwr2FJCclkxCXYPjxTrDZbISEhFBRVUFbu+4l/JFAO7BWf2ZCiFNII6DzCKQRgFCgDJ17AQDcdcNdft8Q6GDlQV5Z/oqqiWHnNXXaNL774ENctvhyLJZAegn/zefz8dmnn/Dbp55i82bjJ0HabDZu/cqtfh0JONpwlIMVB3lvxXsqwh0B0tAKASGEGjICcB6BtArgVhSc/Mekj/H7yf9QzSFee/c1w0/+c+fN469//wcrPvmMxZdfEbAnf9BuSyy69DL+teJj/v6P95l/0UWGHs/tdvOXv/6F8kPlhh7nVDFRMSQPTmZkiu47VgCJwN0qAgkhRE8ESgFgQcFOaCHWEBYvWKwgnZ6rb6jn1eWvGnrPf/ToMfztvX/65URqhBOFy3v//ICsrLGGHcfV7eK1d1/zW9dAu81OWGgYs6bOwmpV8qP0XQJzYq4QIggFSgFwFaD7zDB98nS/Lgtr72jntXdfM2y2f2hoGI88+hir1qxl3vz5hhzDn+bMncuqtev4xa8eJzLSmLkKnV2dvLr8Vb/1CYiKiCI2KpYJWbpbV4A2+XWZikBCCHEhgVIAfEdvgFBnKBfPuVhFLj3i8Xr4y9/+wtFjRw2Jf9niy9mweQuPPPY9HE6nIccwg81m4777H2D9xs1cfsWVhhyjsamR1//6Om638R0D7XY7TqeTqdlTcap5nR5WEUQIIS4kEAqAKcBCvUEumn0R4WHhCtLpmY8+/8iQ+80Oh4Nf/OpxXn/jTUaMGKE8fqAYNmwYr/3lDR5/4klDCpxDNYd4/9P3lcc9m6jIKJwOJ9Oyp6kINxnIVRFICCHOJxAKgP/QGyAiPIKZU2aqyKVHdhTtYGPBRuVxU9PS+ODDFdx3/wMBPcFPpa9+7V4+/Ohj0kYqmUj3BVt3biV/R77yuKdz2B04HA7GjR5HWGiYipD3qQgihBDnY3YBEAks1Rtk5pSZ2O12BelcWH1DvarmL19wxZVXsXL1Wqbk5CiPHegmTZ7MytVruerqa5TH/uCzD6g9Wqs87ukiwyMJCQlh4lglrf2XAj1v3yiEEH1gdgGwDK0I6DO73c7MHP9c/Xu9Xpa/v1x5o5+bbr6FF19+hejoaKVx+5OoqCheeuVVHvj6N5TGdbvdvP2Pt0/u4GeU0NBQQkJCGD9mvIpiNAy4TUFaQghxTmYXAHfpDZAzMcdv9/5Xrl/JoZpDSmM+/Mij/O8f/4TNJqu/LBYLP/vFL3n0e99XGrfuaB2frf1MaczTWbAQGR6J0+FkbKaSpY5yG0AIYSgzC4DRwBw9AaxWK3Om6wrRY4frDrN2k7pOrVarlV8/+ZTyk10wePiRR/nNb39HSIi6TtUb8jcoL95OFx4WjgUL2WOzVfQFGIs2QVYIIQxhZgFwJzpbEU/ImsCgmEFqsjkPr8/L3z/6Ox6vR1nMn/3il9zz1a8pixds7rjrLp586rfK4p18DT3qXsPTWa1WQp2hREZEqtqI6kYVQYQQ4mzMLAB091eePXW2ijwuaFPBJqoOVymL9/Ajj3Lf/Q8oixesbr/zTqUjJLVHasnLz1MW72zCw7XbUdljs1WEu4HA2q9DCBFEzCoApqBtfNJnifGJDE8eriab8+jo7GBV3ipl8e646y4Z9u8F1cXSqg2raGltURbvdE6nE6vVSkJcAvGD4vWGSwX8U+UKIQYcs2aeXas3wOTxk1XkcUGfrftMWavfK668iiee/I2SWAPJz37xSyorK/nXB/ob+7hcLj5d+ynXX3G9gszOZMFCeGg4re2tjEkfo2LE4ZtoSwLDgVgg4vgjEog5/vGI43+PBOyA8/jHTwgBTl9iEsO/LwB8QONp/98GnLrcpRtoPeXPJrSdC9uPP7ft+N9bgOZTPn4UqD/+p3H3X4QQvdYvCwCLxcKk8ZNU5XJO9Q31bNm+RUms1LQ0/vj0M0ontg0UVquVP/zpaRYuKOLggQO6420r3EbutFwGJw5WkN2ZwkLDaG1vJWNkBhu3bsTr8+oJdxPGb0dqAU6fTGPE5JoThcCpRcGRUx6Hjj8qgE4Dji+EOIUZBUAaWrvTPhuVMoqYqBg12ZzHyvUr8Xp1/fIGwOF08ucXXhrQ6/z1io6O5s8vvMQVl1+Gq0vfzos+n4/P133OTdcbc161O+yEhIQQHhbO8KHDqaiqMOQ4/VD88ceYHnxuHf8uCMr5YnFQcfzv+n84hRjAzCgA+sXwf119Hbv27FIS6yc//RmTp8iKLr0mTZ7MT3/2cx57RP9+OXtK9lB9uJqhQ4YqyOyLLFgIc4advA0gBUCfJB1/nKs1ZidQAuw7/igBio//vd4fCQrR3/mzABgH3IO2/K/PHA4H48aMU5LQ+azduFbv0C0Aiy+/gq/dKz1dVPnq1+5l1cqVfPThv3TF8eFj9cbV3HSdMaMAoc5QWttbSRuRhtPhpMulb9RCnCEUmHj8cbpjaIXAXmAPsA3YjjaqIIQ4zugCIBptKdPdwCwVATNHZuKwO1SEOqfm1mZ2Feu/+g8PD+fXTz6lICNxql8/+RRr16ymra1NV5zikmKONRwjbpD6tvsOpwOrxQohkDo8lX1l+5QfQ5xTHNrvm9N/51ShFQMnCoJtgP5JJUL0U0YsA7QA84GXgRrgORSd/EErAIy2cetGJQ1jHnn0MYYPN36p4kAzbNgwHn7kUd1xvD4v6/PXK8joTBYsOI9vczxiaPBu69zPDAOuBn4IvAuUAQ3A58BTwHVAomnZCeFnKguAZOBRtGG31cDtfHEpkhIZaUo6rJ2Tx+OhYFeB7jhZWWO574GvK8hInM39X/8G48eP1x1ne9F2w4bnnfbjBcCwEQNme+d+KBa4GHgQ+BvabYL9wCvAvYD+N5kQAUpvAeAAvgK8D1QCjwOGXaInxScRE23s7P+ifUW0tesbWgZ44qmn/LZF8UBks9n45eNP6I7jcrmUTfY8ncOp3aoKdYaSGC8Xlv3IKLTdGJ8FCtFWHLwBfANtLpMQQaGvBcAE4LdoPxjLgavQmo0YKnOU8cP/+Tvydce4aMECcufMVZCNOJ85c+cy/6KLdMfJ36n/NT8bu81+su+D3Abo14ah7cvwB6AIbd7AH4Er0LZuFqJf6m0BMBH4GNgFfAc/3y9TtMHKOTW1NHGw4qDuON99UP8yNdEzDz70iO4YVTVVHKk/oiCbM8UPiiciPILUEamGxBemSAO+DvwLrZnRP4H7gRQTcxKi13pTANwEbAEuNSiX87Lb7KQNTzP0GIXFhfjw6YoxY8ZM5syVq39/mTN3LjNn6p9jWri3UEE2Z7Lb7MRGx5I9LpuwULlYDELhaBMLn0ZrWLQT+Dlyq0D0Az0tAC4DXkXrMW6KMRljsNmMXbVYWKz/JPDdhx5SkInoje8o+J4X7jGmADghxBLCuNFyThgAJgI/QLtVUAB8F1DfbUoIBXpSAEQCL+CHe/znkzPxXA3B1GhubaaqRt+WvxmZmVyyyJQBkgFt0aJLGT26J91lz62uvo6jx44qyujsjH4Pi4AzBfgNWuviT4A7gChTMxLiFD0pAO5AmwRjmqyMLMPX/5eUlege/l92w42y3Msky268UXeMkgMlCjI5t5RhKX7ZxEoEnBBgEfASUIu2ouBiMxMSAnpWAHzF8CzOIyk+iWsX694+4IJKyvT98rdarSxddoOibERvLVm6DKtV36pWf3Tru+qSq0genGz4cUTACkNbUfA52hLDB5BRAWGSntxUN+2SJXNkJkuvWWr45Cmfz8f+8v26YuTOmcOIEbLUyyzDhw9nzty5rF2zps8xDlYexO1xYwsxbq5JWGgY99x0D+9+8C57SvYYdpzziYsNpX7Ht7/wscbmLny+f4+ANbV04fX++98tbS7cbm1vjPYON63tLlrbXDQ0ddLW3k1rezetbS4am7tobXMd//9umlq6aGrp4vCRNlrbXP75AvuP8cCfgF8BzwC/Aw6bmpEYUC70m+5s+4QbymKxMDJlJPNnzSc9Nd0vx6yrr6OzS9/248tu0D8ELfRZdsONugoAt9tN9eFqUoYZu5rL6XBy8/U3c6DiAKs3rqasvOwLJ1+jNTR14nZ7sdn+PWISG/3F+b2DYkKVH7ej082RY+0crmvjyLF2jtS3U1ffTu3RNo7Ut3PkWAfVtS1UVDXT2DygNk+KQeui+m20FupPoLUpFsJQPbnU8ctN7ejIaCaNn8S0SdOIi1W/Ocv5VBzSt12rxWLh0ksvU5SN6KtLL70Mi8Wi62RaUVVheAFwwsiUkYxMGUlzazM7inawZccWGhobDD+uzwdePxYcJ4SF2kgZGk3K0OgLfm5nl5vq2lbKKhqPP5ooq2ikuraVmrpWDlQ2YsKXYLRQ4D60zdPeBH6MbFYkDOTP7YDPPHiIjbGZY8nJziE9Nd20CXSV1ZW6np+VlUViUpKibERfJSQmMnbsOHbvLupzjMoqfe8WHYJwAAAgAElEQVSFvoiOjGbezHnMnTGXsooyCnYWsLtkN2632++5BIpQp41RKbGMSok96/+3trnYd6CB4v31FO07SnFpPbtL6iktbzh5q6Ifs6O1Il6K1nHw50CjqRmJoGRKAZCclExOdg6Txk0KiOYoh+v03XabN19/O1qhxrz583UVADV1NQqz6R2LxUJ6ajrpqel0dHawc/dOCnYVUF1bbVpOgSoywkHOhMHkTBj8hY+7uj2UHGhgT2k9e0q14mBbUS0lB471xxGDULRNim4Hvo+2HLvfVzcicPitAAgLDSN7XDY5E3MYOjhw+mJ4vB7dbWDnzZ+vKBuh17z583n2maf7/PzGpka6XF04Hab1vAK0n5eZOTOZmTOTmroaCnYWsL1ou+65KsHOYQ9h/OgExo9O+MLHm1q62LrrMFt21JC/U/uzvKrZpCx7LRF4Hu32wL3ANnPTEcHC8AJgVOoopk6cyrjR4wzv5NcXR48dxe3p+1Cr1Wpldu4chRkJPXLnzMVqteL19u1CyYePuqN1AbV5T3JSMlctuorpU6ZTXFJMcWmx7ttWA01MlJOFuakszP33ngxH6tvJP14UrNlUyYaCato7uk3M8oKmAZvQVg38HAjoZEXgM/SMbMHCXTfcZeQhdDvWcEzX84cOHUZs7NnvUwr/i46OZsSIEZSXl/c5Rv2x+oAqAE4ICQkhPS2d9LR0nnvtuT4XOUKTGB/OFQtGccWCUYB2+2Dz9hpWbqhg1YYKNhRU0dEZcPMw7MCPgGvR9mcxZy2pCAqBd0nuZw1N+mZdZ2Qav0Wx6J2MjExdBUBDs/Ez8UXgcdhDmDt9OHOnD+eH38qly3WiICjnXyvL2LKj5gu9EUw2CdiMdlvgLybnIvopfa3TgkBjk77JtaNHj1aUiVAlU+dr4o+leCLwOR0hzJsxnB99ew4b/34b1Vu+wf89cQXXLc4kItxudnqg7dPyOvAH5GJO9MGAf9M0t+ibCCQjAIFH72ui9z0hgtPghAjuuSGbe27IprPLzed55fzjk1L+9tE+6urbzUztG0AacAPQZmYion8Z8CMA7Z36fnDT0zMUZSJU0fua6H1PiOAX6rRx5cXpPPPLxVRt/gb/enkpt1w3zsyRgauAlUDChT5RiBMG/AhAW7u+gjkhMVFRJkKV+IR4Xc9vb5cCQPSczWY9OZmwo9PN+5+V8sq7haxYfYBu/zYlmg58CiwE9M1uFgPCgB8B6Ojs0PX8yIgIRZkIVSIj9W2upvc9IQausFAbS6/K4p8vLKFs3f384BszSYrza7OzScD7aPMDhDivAV8A6G23GhkpP2eBRu9r0u2W5dVCv+HJUfz8kQVUbnqAt/9nMbmTBl/4SWrMBl7DT/u4iP5rwBcAHq9H1/MjImUEINDoLQB8Pp/u94UQJzgcdpZ+eTLr37mRvFe+xNXz/bLZ1LXA9/xxINF/SQHg7vsvepvNRmgA7GUgvsjhcOBw6mvl6/FIASAUc4YyOzedf/7v5Wx89UtcNnuY0Uf8GTDP6IOI/mvAFwAiOFlk9FMEIrsDoqKYmT2YFU9fwdoXr+aiqclGHc0KPAeYu7GFCFgDvgAIsYX0+blut5tOmTAWcFwuF106N80JCen7+0KI8wqxQWQ0WCzMnTKEVX++itd+uYDB8YaMJmYBjxkRWPR/UgBY9f2ib2uVvhuBprW1VdfzLRaL7veFEOdls0FE5MlperdcmUHx35fyrZvHY7UqH716COkPIM5iwBcAenco1HuyEerpfU3stoBo8yqCnd0Bzn9f9cdGOfj9I7P5/PkrGZKgdDQgEvimyoAiOAz4AiA8NFzX81ukAAg4ra0tup4fJhM7hb+EhmujAae4aGoyBW9ez5zJSpcNfh1p/CZOIwVAuL4CoP7oUUWZCFXqj9brer7e94QQPWYBws5cSpycEM7K/7uK+5ZkqTpSInCJqmAiOEgBoHMEYP/+UkWZCFX0viZ63xNC9IrNpt0OOI3dZuXpH8zlq18eo+pIS1UFEsFhwBcA0VHRup5fsm+fokyEKnpfE73vCSF6zRl61g9bLPDMf83lxsvTVRxlroogIngM+AIgNiZW1/NLS0sUZSJUKS3R95oMih2kKBMheshuB8vZfx2HWC289NP5TMjQ/b4cDej7hSeCyoAvAAbF6PuhKtknBUCg0VuU6X1PCNEn51mR5HSE8NR3Z+o9ggUYqzeICB6GFgA+fLz41ovs3L1T96Y7RokfpG/r2OrqKhobGxVlI/Rqbm6msrJSVwy97wmjuD1uSg+U8v4n7+P1+nWbWeEPF1iSvDh3OKNTY/QeJTDf3MIUhi8LKSsvo6y8jLDQMLLHZZMzMYehg4cafdgei4+LxxZiw+3pW4Hi9XrJW7+OK6+6WnFmoi/y1q/TdXK0YCEpIUlhRvrV1NawdddWthdtp6ury+x0hFEsF24ANGfyYPaVN+k5igxviZP8ti60o7ODTQWb2FSwieSkZHKyc5g0bpLpa65DrCEkxidSU1fT5xjr1q6VAiBArF2zRtfzY2NjcTrMb53e0dnBzt072bprKzW1fX9vin6kBwVASIjuLoGyxEWcZEpjiJq6Gj749ANWrFzB2Myx5GTnkJ6ajqUHPwBGGJI0RFcBsHbNaoXZCD30FgDJiYZtzHJBPp+PsooyCnYWsLtkd8DeNhPm2Vx4xOwURBAxtTOU2+NmV/EudhXvIiY6hpwJOeRMzNE9M7+3UoalsK1wW5+fX1xczJG6OhKTAmvoeKA5euQIe/bs1hVjxLARirLpucbmRrbt2kbBrgIam2U+iTi79dtr2bnvmNlpiCDSkwLAB8bvrdrU3MTKvJWs2rCKkSkjmT9zPulpSta+XpDeX/o+n49PPvmYm2+5VVFGoi8+/ngFPp9PV4zU4amKsrmwsvIy1mxaQ1l5me68e8tq0mib6Bu3x8t/PrHB7DREkLlQAeADGoA4P+SiHdDnOzlxMGNkBsuuWWb4PIGk+CTCQsPo0LG171tvviEFgMnefutNXc+32+x+maDa2dXJ8veXs3f/XsOPdTbRkU5stgG/Arhf+c8nNpK/W9qOC7V68ltgu+FZnEPpgVKef/15WtuM3XDHYrEwKnWUrhgb8vJ0Lz8TfXfo0CHy1q/XFSNtRBohIcZuA9zR2cELb7xg2skfYNK4RNOOLXrvB3/I549v6bu1JcTZ9KQA+KvhWZzHkfojvLfiPcOPM3rUaF3P93q9vPP2W4qyEb31zttv6V4bnzkqU1E25/bBpx/omnCqwpcvV9ZbXhjI54Mf/Wkrv/w/067BRJDrSQHwElBlcB7nVVxazL4yY3vuZ47MxKJzqsPbb73p93u5QvP2m/qG/0F/EXghFVUV7Ni9w9BjXMiQxAjuvmGiqTmIC2tqdXH9dz7hZ8/1fXKyEBfSkwKgDbgL8Bicy3lt22XsD0JUZBTDkofpilFaUsKnn3ysKCPRU59++gklJfoKxMEJgw3vAKhnpYkKVquF5399BdGR5vc5EOe2q+QY029+j/dWlZudighyPZ0J9AlwC2BaG7K9+/fS7e429BgTx+q/MvrtU08pyET0xm+ffFJ3jAlZExRkcm4en4eivUWGHuN8HPYQXvrNVVx9iX9W1oje6+xy86M/bWX6Le9RUqGr258QPdKbqcBvAdPQigG/63Z3U37I2Ip4wpgJupsRbdmymXVr1yrKSFzIurVr2bx5k+44RhUA3d3dNLY0smv3Ll2rTPRYmJvK5n/ezm1fHm/K8cWFfbruIBOveo2fPbeNLpepg61iAOntWqBC4DIgG/g94Nd1KSVlxu68Fx0VzciUkbrj/OapJxRkI3pCxfd6ePJwEuISFGRzpvqGetra2jhYedCQ+OcSPyiMb901lR0f3c1nb9zIpLHSpCoQ7SmtZ9nX3+PSW96itFyaQAn/6msnwF3AfwKPAl9CmyNwGWDoGqrSA6VGhgdgWvY0ysrLdMVYu2YN69etY87cuYqyEmezbu1a3a1/AaZNmqYgmzO53W48Xu1qrrLa+CWiVquFS+elcfeybK69LBOnw9gljaLvSg828NPfr+cv7+3G45GJw8IcelsBdwHvHH8MB+48/jDkRmNdfR1NzU3EROveEvOcxo4eS3hYOO0d7briPPLQg6xauw673a4oM3Eql8vFow8/pDuO0+FkYpYxs+K7XNqUmY7ODo7UG9fDfeSIGO5als2dSyYwYmi0YccR+pUebODxP23k5XcLcbtlS2dhLpXtwA4BPwcygYuBVwHlNz1LDhh7G8AWYlNyRbh3bzFP//GPCjISZ/PMn/7E3r3FuuNMnjAZh8OhIKMzdbo6AThUfUj58tCwUBu3XDeOz964kf1r7+eH38qVk3+A8vngo1VlXHXncsZc/Dx/fmunnPxFQDBiMyAfsOr44z+Am9BuEcxQEbz0QKlhQ7YnzMqZxfot6/F49E3GeerJX/PlJUsYPny4oswEaF3/nnry17rjWC1WcqflKsjoTD58uLpcAFRUVyiLOy17CHcvy+ama8cRGy3L+QJZc2sXLy8v5A8vF7CvTDbxEYHH6N0Am4Bnjj8mAPcAt6Njb4GSAyW4XC7DrtpA6wmQPTZb97rt9vZ2HnnoQV5/403TtjoONj6fj0cffoj2dn23aEC73RMXa8w2F12uLrw+L26PW/fqldhoJ3csmcjdy7LJHittfAOZx+Pj87xyXvtbEX/9aB+tbS6zUxLinPy5HXAh8B2gHPifvgZxdbvYvW83kydMVpbY2cyfNZ8du3fobi/78YqPeO7ZZ7jv/gcUZTawPffsM6z46EPdcSxYuGjWRQoyOrvOTm34/2DlQVwufSeBH/xHLg/dq2QATRikaN9R3vmgmJeXF3LwkKzhF/2DPwuAE/6OjgIAYFvRNsMLgIS4BLLHZrO9SH8f7p/8+EfMmDGTKTk5CjIbuLZv28ZPfvwjJbHGjR5H8uBkJbFO58N3sgDYt19/C+trLzV+jwLROz4fbCuq5Z+flvLOB8UU7ZOd+kT/Y0YBcBBth8E+n8EPVBygqaWJmCjjVgMAXDznYnbt2XVyKVdfuVwuvnr3nXy+ei0xMcbmHKyampq45+47dV9Ng7b748K5CxVkdXbdrm48Xg/tHe0cqj6kK9a4zAQyRw5SlJnQo6PTzWfry3n/s1Le/2w/VYdbzE5JCF3MKAAA3kNHAeDz+dhRtIP5s+YrTOlMcbFxTJ88nY0FG3XHKi8v5+v338crr71u+Jazwcbj8fCNB+6n/OBBJfFyJuaQlGBcY5z2Tm1+QklZCV6fvltI116WoSIl0UfF++tZtaGCf60s47P15bR3GNuOXAh/MrMA+LGeANsKtxleAAAsnLuQnXt26u4LALDiow956MHv8D+/+38KMhs4/uv73+OjD/+lJJbT4WTRvEVKYp2Vj5Mtf1XsYHndZcbuUCi+qKyikXVbDrE+v4qPVpVRUd1sdkpCGMasAmAb2mTA1L4GOHrsKIdqDjE82dgldmGhYSycs5D3P31fSbxXX36ZpMQkvveD/1ISL9g98fiveP65Z5XFW5C7gMiISGXxTtfp6sTr9XKk/gj1DfW6Yg0bEsW07CGKMhOn63Z72bmnjs3ba1i75RCrNlRQU9dqdlpC+I1ZBQDAX4Dv6QmQl5/HsmuWKUrn3KZPmc72ou0cqtF3P/eE3zz1JIlJSXz1a/cqiResXnrxBZ749ePK4g1JGmLYuv8T2jraANi1Z5fuWLdePx6rVZaPquDx+NhdcpT8nYfJ31VD/s7D7Nhd16823hk11ElyvIP1u2TugVDDzALgJeAxoM+/4Yr2FtEwv4FBMcZOkrJarFx3+XU8/fLTuicEnvD9xx4FkCLgHF584c889sjDyuJZLVauW3wdVqvK5pdf5PF46OrsoqWthdKD+vetuHOpsVsUB6ujxzrYXXKUPaX1FO07yraiWrYV1dLW3j/v30eEWvn+7cP47g3J/OC5SikAhDJmFgD7gDxgTl8DeL1e1m9Zz9WLrlaX1TkMThzM/FnzWZm3Ukk8r9fLY488zJG6Oh77/g+kUdApnnj8V0qv/AFyp+cyLHmY0pin6+jswIePnbt36u4fMTtnGFnp8YoyC041da3sLqk/eaIvLq2nqOQoR+r1z9cJBBYL3HxpAr++P4VhicY1PhMDl5kFAMCL6CgAAAp2FbBwzkLCw8IVpXRuC3IXUHqwVOnObr956kmqqqr43f/7X2w2s18Oc3k8Hh59+CFeevEFpXEHJwzmkrmXKI15Oh8+2trb6OrqorhE/x4Fdy0zZoOi/qShqZOyikbKKhqprm2lpq7t5L9LDzbQ1NJldoqGWTQthl/dl8K0rAizUxFBzOwzztvA74E+v8u7u7vZVLCJi+dcrC6rc7BarSy5egl/eulPJ3d6U+HNN/7CsWPH+NMzzxIbG6ssbn/S1NTENx64X9ls/xPsdjs3XHuD4cVVZ2cnbo+bwr2FdLv1DTWHh9lZdnWWoswCS2eXmyP17dQebaeuvo0j9R3UHm2j9mgbR+rbOXykjYqqZsqrmunscpudrl9ZLHDdvDh+dOcwJmfKiV8Yz+wCoAVtK+E79QTZtG0Tc2fM9cvWu3GxcXxp8Zd455/vKI378YqPWHjRPJ7/84tMnWbsZkeBZltBAV+9+07Ky/X1zD+bay69hsR44/vnt7a1agVAcaHuWB6Pl7lfeZ3oSAdRkQ6iI50MigklKsJBdJT2b+3jjlM+7sTp0PpLRITbcdi1v1utFmKi+r5pUENT58m/+3zQ2Nx58s+WNhetbd20tbtoaumiudVFa5uLtvZumlu1j7W2uWhs7uLIsXZqaltpkd74Z3A6Qlh66UgeumUkk0bI/X3hP2YXAAD/i84CoK297WQR4A/ZY7OpqqkiLz9PadyKigquueoKfvjj/+b+B74e9PMCfD4fzz37DD/58Y+UdPg73fTJ05kyYYryuKdzdbu0PSr27j7ZA0CPLpeHwr1HFGR2pvAw+8lCwWLRuiJ6vf/eqvjECV4Yb2hiOPcvHcu9X8licHwYdDdCpxQAwn8CoQAoAFYCusbwV29YTc7EHL/MBQC4bMFlVNdWc7DyoNK4LpeLH/7g+6xetYonnvoNKSkpSuMHisrKSh59+CE+XvGRIfFHDB3BlZdcaUjs07W0ttDZ1cnWnVv9cjw92ju6pZudiSwWmJczhAeWjuUri0Zitxm3KkWICwmUd99v9Abo7Opk5Xo1M/R7IsQaws3X30xCXIIh8T/95GNyZ87gicd/hasreCY7dXd38+wzTzN39kzDTv6DYgZx8/U3Ywsxvr7tdnfT1dXF1p1blc4LEcFlxJAIHr1rEvv+sYzVf76aGy9Pl5O/MF2gvAP/BezRG2TL9i0cqTdm6PRswkLDuG3JbUSEGzNhp7Ozgyd+/Tjz581h1Ur/FTdGWbtmDRfNncMPvvcYbW1thhzjxGtiZLe/U7W0ttDQ3EDR3iK/HE/0H7FRDu65fgxrXria8g9v4vFvTydjRLTZaQlxUqAUAD50bhEM4PF6+Hj1xwrS6bm42DhuW3Iboc5Qw45RWlLCki9fxzVXXcnKzz837DhGWbN6NddecxXXX3sN+/btNew4DoeD25bc5pdJf6Dd++/s7GTT1k261/2L4DAkIYz7lmSx4ukrqFt5K//343nMyxlCkE/nEf1UIMwBOOFV4KeArubnxaXFlJWXMSp1lJqsemDYkGHc+pVbeeWdV3B1GzfLeUPeepbmrWdKTg7fffAhLr/iyoCdKOjz+fjk4xX89qmnyM/fYvjxbDYbt1x/CyOGjjD8WCc0tzRTVVvFgcoDfjumCDwZI6L50oJUrl+YSu6kwdK+WfQbgVQAdAK/QFsVoMuKVSt44I4H9GfUC6nDU7nly7fw+l9fN7QIAG3Z3G233EzayJEsu+FGli27gbSRIw09Zk9VVFTw9ltv8s7bb7G/VH873J6w2WzcdN1Nfi36ulxddLm62LhV/1bRon+JDLezcMZQFucOY/Hs4aTLsL7opwKpAAB4DngQSNMTpLq2mv3l+0lPTVeSVE+NSh3F7Utv57V3X6Ozq/PCT9Dp4IEDPPH4r3jy148zY8ZMlt1wI4uvuJwhQ5INP/apamsP8/GKFbz91lts3JCHz4/ryBwOB7dcf4tfT/4+fDQ1N1F1uIq6o3V+O64wh8NuZdq4RC6aNoTLZg8nd9JgHPZAuXsqRN8FWgHgAv4bbaMgXbYXbvd7AQDaSMCdN9zJq8tfpa3dmIlup/P5fGzatJFNmzby4HchIzOTefPmM2/+RcyZO5f4eLU95RsaGli/bi1r16xh7Zo1ht7XP58TE/78OewP0N7eTre7m3379/n1uMI/IsJszMpOYn5OMvOnDmHmxETCnIH2q1II/QLxXf0a8AgwTk+Q6sPVarLpg2FDhnHvrffy6vJXOXrsqN+PX1pSQmlJCS++8GcAhg4dSkZmJunpGWSOHk1GRibx8fHExMQQERFBeEQEERHaSob29nbaWltpb2+nsbGRhoYGSktLKNm3j9LSEvaXlnLokJptkfU4MfnSqGWY5+L1emlubQYw5bUValmtFrLSYpg+PpEZExOZPj6RKVnx2ELkCl8Ev0AsADzAj4DleoK0tJnbUSsuNo6v3fI13vj7G8qbBfVWdXU11dXVrFm9+ryfZ7FY/Dp831cpw1K4+fqbDVt+eT6t7a0nZ/yr6Pon/McWYiUzJZqJmXFMG5/A9PGJTB2bQFSE8S3EhQhEgVgAAOzQG8DhMH/7zPCwcO684U5WrFzBhq0bzE7ngvrDyX/GlBlcufBKQkJCTDm+0+6kBa24tNvtIDVAQBo+OIJxo2KZNDqeCRmDmJgZx7hRsSfbIAshArcA+JbeAEkJSSry0C3EGsKVl1zJ8OThvPfxe4b0vB8I7HY711x6jV96+5+P0+nEbrPT7e4mflA8Tc1NpuYzkEVH2BmdGsPo1BjGpMUyOjX65L8jw+WqXogLCcQCYBBwl94gY0aNUZCKOtnjshmWPIzl7y/nUI3599D7k6GDh7Lk6iV+a/BzIRHhETQ2N5I2Io2y8jKz0wlaMZEOUpIjSRsaSdrQKNKGRpKaHEnq8b8nxBrXfEuIgSAQC4CvAbr6uNrtdiaOnagoHXXiB8Xz1Vu+yqr1q1i7aS0er8fslAKa1WplzvQ5XDL3EtOG/M8mPDyc5tZmRqWMYr1jve49AMKcNiLDbRxr6sLjDfzbMHqEOkOIjwklPtZJfIyToYkRDI4PY/jg438mRTAkQft3eGgg/noSIngE2k+YHfgPvUEmj5/st10BeyvEGsIl8y5h/Jjx/H3F36mqqTI7pYCUPDiZ6y6/jqGDh5qdyhksWIgIj8Dr9TJu9Di2FW7TFS8sNISDH95IeKiNplYX9Y1d1Dd1cqypi/qmLppbXTS1umhu66a1vZuW4382NLto7eim2+2lpa0bt8dLe6ebLpeXLpeH9k63kq83PNSG0xFy/E8rYU4boc4QQo9/LDbKQXSkg+gIO1ERdqLCHURH2omNchAT6SAhNpSEQaHExzhlaF6IABJoBcBSYLieABYszJ46W1E6xhmSNIR7b72Xzds28/m6z2VG+XGhzlAunnMxs3JmYbUG7lKsyPBIWttamZA1gR27d+jaC+BYUxcv/6OEB5aNJSZSO2mOGh6lLNdzFQMerw8LFs72bY6Nckr/eiGCXKAVAN/RG2B0+uiAuVd8IVaLlVk5s8gem81n6z4jf0f+gN1UxmqxkpOdw6J5i0xZ3tdbVquV8LBwfD4fo1JHUXpAX9vj3/+lkPuXjjXkpOt0hMjsdyHEGQLpEusiYJreIHOmz1GQin+Fh4VzzaXX8J2vfYdpk6ZhtQTSy2IsCxbGpI/hgTsf4NrF1/aLk/8JkeGRWLAwadwk3bH2Hmziw/WVCrISQoieCaQRAN1X/8lJyYxMCYxNcfoiNiaWaxdfy+yps1mzcQ2FxYVBO1HQarUyfsx45s+az5BEXRtAmsZms+FwOkiMT2RI0hAO1x3WFe9/Xi3kyrn+bWsshBi4AqUAyACu0Rskd1quglTMl5SQxJKrl3DpRZeyIX8DBbsKgmaOQKgzlCkTppA7LZfYmFiz09EtKjyKrq4ussdm6y4APttcxa6SY0zMjFOUnRBCnFugFAD/ic7bEVGRUQG59E+PmKgYLr/4ci6Zdwm79+4mf2c+5ZXl+Oh/S8VSh6cyNXsqE8ZM0DroBYkTjYFGpowkKjKKlta+t6D2+eB3rxfy5/+erzBDIYQ4u0AoAAYBd+gNMjNnZkCtFVfJbrMzafwkJo2fRFNLE7v37aawuJDKqsqALgaS4pMYnzWeSeMmET9I7Y6EgSQyIpKGpgYmZk0kLz9PV6zX/7WfX3xzOkMSwhRlJ4QQZxcIBcB9KGj8M33SdEXpBLaYqBhmT53N7KmzaWxupKSshJIDJZSVl+luSKOXw+FgVMooMkdmkjkqk0Exg0zNx1/CwsJoamkiKzOL/B35uLr73u65y+XhuXeL+dF95rY8FkIEP7MLADvwTb1BArnxj5Fio2OZPnk60ydPx+vzUltXS3lVOZVVldTU1VDfUG/YskKrxUrcoDiSk5IZMWwEKcNSSE5KDui1+0Y5tTFQVkYWO/fs1BXvT2/v5tG7smXpnhDCUGYXADcAw/QEsFgsQTP5Tw+rxUry4GSSByczK2cWAG6Pm7qjdRxrOEZDUwMNTQ00tzTT3tF+8uHxeM64YrXb7dhCbISHhZ98REVGMShmEINiBxEfG09SQhI2m9lvn8BxojHQxLET2VW8S9fOirX1Hbzx0X7u/NJohRkK0e+lANlAHFAPbAX0zbxVIxyYgdbErhPYD2yHAL4/e5zZv8Ef0Btg9KjRJMQlqMgl6NhCbAwdPDQg2+kGm1MbA41MGal7k6Bn3imWAkAIzZXAfwOn3+f1AeuP/99n/k0JgDTgJ2gdbE+ftLsXmxoAACAASURBVFMF/A74A1pREJDMHK9NAnT37B2THli7/omB60RjoJRhKbpjbdpVx+GjwbH0U4g+cgD/B3zAmSd/AAswF/gU+A3gz3tm1wM7gds58+QP2sj2k8AmINWPefWKmQXABLQXUJePVn3EwcqD+rMRQiebzcbRhqOs37JeSbzC/ceUxBGin3oZuKeHn/tdtCLAHy4D3gZ6smFHNrAKCMhhajMLACU9X10uF6+++yrlh8pVhBOizyqqKnjvo/fo7u5WEq+tQ81ufkL0Q3cCN/byOd9Gm1dmpKHAG/Tu9nka8Iwh2ehkZgFQpyqQy+XileWvSBEgTFNRVcHLb7+sawng6ZLipBeAGJBC0O7r98UfAaN6i1uA59EmIfbWl4HJatPRz8wCYAeg7CanFAHCLEac/EOdIUweIy2BxYA0g77fN48HnlOYy6nuQZuQ2BcWtMmCAcXMAqATWK4yoBQBwt8qqip4+R21J3+AJYtGEuY0e5GOEKbQ29XtGrRbCCqlon+OwQwViahkdteWn6F4iYQUAcJfKqsrtZO/S+3JP9QZIp0AxUCWqCDG7wBVW2tagBeAaJ1xAm4ioNkFQAlaLwClDRNcLhevLpeJgcI4ldWVvPT2S8pP/gB//N4cMlNilMcVop9oVBAjBu2krXulGVq32oUK4jQoiKFUIIwxvgTEAr9FzYsFQJeri1eXv8rtS29Xsi77RMzC4kKKS4s5XHeYLlcXEeERJA9OJmdCDukj07Go+xJELx2oOEDBrgKqa6tpaW3B6XCSGJ/I2MyxTMiaQFiomkl1Rp78n/zOTO6+ThoAiQGtUFGcRWjt5vXIAL6kIBdQ93UpE0hnq/9EcREA4HQ4dRcBjc2NbNy6ka07t9LZde47FsmDk1m8YDHpqel9PpbovYqqCj5a+RGV1ZXn/ByHw8GUCVPInZpL3KC+T64z+uT/0B3BtaW16IXuRug8dN5PefAP5fz2rRo9R7kfeFZPAD9wAjVoO8UGk0uAz81O4lSBVABAgBUBldWV5G3JY3fJ7l5tqjMmfQyLFywmMV7FrSxxLg2NDaxYvYLde3f3eFtki8VCVkYWudNySRuR1qvjGXnyf+I7M3j4juw+P7+jy83B6lZq6ztwe4zZACrEamVwfBhpQyMJDw2EwcMgIwXAqR4FHjc7CYXygDlmJ3G6QCsAQGvm8D+YVAR4vV5279tNXn7eea8oL8RqtTJ98nQWzlk4IHcqNFJnVyer8laxsWAjHo+nz3GGDh5K7vRcJmRNIMR6/i6ildWVvPz2y4Zsuazn5L9pVx2/+vMOPt5QRUeXfxoHhTpDuGTGUB67exJzpxi15HoAkgLgVKFAATDW7EQU6AZmoX09ASUQ9xvdhDYJZDEKiwCPx0PR3iLSRqQRE33mBKvOrk42Fmxk+fvL2bpzK80tzbqO5/P5qKqpIn9HPlarleSkZEJCAvHb3X+43W42bdvEm39/k7LyMl077gG0tLWwe99uCnYW4PF4SEpIwm4785bhoZpDAXfy93h9PPjUJr7207UUH2wy7Kr/bNweHyUVzbz43j7qjnVw2ezhhFgD8Vqin/F2gvv8v3c+3tzEhqJWPUd5H20XvUDnBjYDd2H+ZHW9fo7WPTDgBOoZyW9FQENjAyvXr+TdD95l7/69573H3xduj5v9B/ezZccW3G43gxMHY7frnZcysHR2dZKXn8fb/3ybor1FdLvVtNo9ocvVRVl5GZsKNtHc2kxCXMLJUZtDNYd46a2XDDn5//o/Z/DInX278r/nx2t5ZvkexRn1Xn7RUfYebGLJopFYpAbQRwqA01WjbQg03+xEdCgA7gD8V6H3QqAWAGBwERARHsHqvNX889N/UlldqWsouSe63d0cqDzA5m2baWtvIzEhkVBnqKHH7O+aW5pZmbeS5e8vZ1/ZPuXNdk7n8XqoOlzFpm2bqK6tpru7m+XvLw+4k/+L7+3jJ88Gzmhi0f4GkuJDmT5e5rzoIgXA2axHm4XfH+81daF1DjxsdiLn0h9qdkPmBJjNarUyMWsiudNyGTpkqNnpBJTDdYfJy89j556dhhdmZtBz8nd1exl11VtU1bUpzkqfxEGhHPzwRpkcqIfMATiXSWi3AxxmJ9JL3yPAJzL2h5/W36N1C3yaICoCvF4vO3bvYMfuHSTGJzIhawI5E3OIjY41OzVTdHR2ULS3iG2F26ioqjA7HcP8/JvT+nzyB1iVXxNwJ3+AIw2dfLKximsXBOzW56L/2gH8FO1een+xEXjS7CQupD8UAKBVrE609o5BUwSccKT+CCvXr2R13mrS09KZPH4yY0ePPeuEtGDidrvZU7qHHUU7KDlQ0qullv3R49+ezqN3TdIVI29HraJs1Fu37fD/Z+++46K60sePf2aAGYbeERAEBAUUxYItiqao6T266dmYsqmbnmx2s7/dTd1N22y+m95NsjEa00yMLYk1VmwgSJUivbdhGBh+f1w1xgrce+fODOf9evEiAnPOEx3mPHPKc0QCIKjln8AlyL8nwB46kO4icPjpS2dJAAD+c+izSyYBALZeG/nF+eQX52M0GBkxfASJcYkkxiXi4+2jdXiKaO9op6C4gLziPPIK8xTfdOmolBj8ASprOxSIRh2VtYpd7ikIx+pG2kyXiXRE0JE9DuzXOoi+cKYEAAZBEnCYpcvC3py97M3Ziw4dQ8KHHEkGoqOiT3tu3VHYbDbKKsqOJDaV1ZWyj+85G6UGfwAfL8edFfLxcraXE+fT1T24fneOkQP8BXhB60BOYS3wqtZB9JUz/sb+B+nyoFdw8STgsF56qayupLK6knWb12E0GElOTGbc6HHED4vXOrwTKi4tZmfWTnLycwbNu/wTefZe5QZ/gIRouReSqUdcYKS+3JJBP8vyMnApMF3rQE6gDalugdOsZTpjAgC/ZliDJgk4mqXLwq7sXezK3kXKiBQunnMx3l7eWocFQIe5g29XfUtWrsPde2F3z96bzmM3Kzf4A1yQEY3uWXDESZQLM5S5dEs4sfLaLtbuklegzAXYkAbZXYBjvOj96iGgWOsg+sOZKyy9inRE0AFfCu1nX94+3vvfe5g7tX9n0Gnp5P3P3heDP+oM/gAxQ3yYP9fxLpu6eNYwRsaKGQA1PfF2GdbBvQRwWAHSXQGOZAXwltZB9JczJwAgkgAAauprWPTNIq3DYMmyJVTVOmzNC7t55h51Bv/D/nXfJMKClLnaWAlB/kZefmiK1mG4tCU/N/DB8lqtw3AkrwFrtA7ikCbgFpxwHHL2BABEEgBA4YFC8orytOu/pJD9hU6x8VVVz9yTzp8WqDf4A0QP8eabV2YTEqD9ZuhAPyNfvjSb+KG+WofislZta+a6fxRoHYaj6QVuBhxhTeQ+4NQVnByUKyQAICUB92KfJMACfACMA+bjQMc91m1eNyj7PlZclC8fPjmT7KVX8oerku1Wnc4eg/9hk1PD2PrJJVwwI9ou/Z3InKlRbPn4YjImOGOVVuewfncrlz2+H4vVafaV2VMp8IDGMXwDfKhxDAPmahvo7kY6JaDG/1ct8AbS1NPR89zuwPXA/wM0rYKiQ8e9t9xLSFCIXfttam7ipbde0vx435AQE3+5dRy3Xp6EwePX3La+ycKbS3L4v8/2UVmnzjn6p++eyOO3pKnS9unszmvgqx8PkFPcRH2T8vcWHC3I30hSnD8XzxzGhBT7Ps9c3jGlgN/6poZ7/31A6cHfGUsBn84y4AIN+q0DUnHgWv+n42oJACifBOQg1R1YCJxqp50BuB2pCIRmb4kypmQwO2O2Xfrq7unGYrHw8y8/s3nHZrv0eSJDQkzcf10qd81Pwdt08nf7XVYbn/1QyMsfZ7Frf71i/Ws5+Asu5FAC0Nll466XDvDedzVq9OKKCUAksBcIsnO/84HP7dynopyjmkz/bAXqgfMYeBLQC6wG7kGaYtqBVInqVHoO9f1foAxIBOz+FqmhqYGpE6aiU/lu1l5bL9X11ZjNZn5c/6PqN/WdyPBoP565ZyIf/GMmMydG/OZd/4m4uekYOzKYP1yVTMb4ITQ0Wygoa5F1pE4M/oJibJ1s3l3BJX/azw9bmtTqxdluA+yLVqQ1+Cvs2Oci4O927E8VrpgAwMCTAAvwEVId5xeRjpv0VzfSL9jrwHak7DR2AO0MSFdXF1FDolRfBjB3mjF3mjlYddDux/7SR4Xy0kNTeP3PZzBpdCju7v3fyhIX5cs15w3n6nOH02PrZV9hE9bu/k21PnX3RP4sBn9BAU2tXdz/whbuenE/VQ1WNbtyxQQApBmAMUCyHfqqAi7k1DPCTsEVlwCOdh3S2czTnZmq4df1fTVuW5mANJtwJXYoXpGcmMw1l12jah+19bV0WbtYs34N+cX5qvYF4G1y5+rzhvOHK5NVWXtuaLbw5pJc/u+zbCpOU2/faHDjlUemcvuVSYrHIQwuPbZePv6ugMde2UpVnV3GE1dcAjgsFMgCwlTu5xKkzX9Oz9UTAIDhwBPAVYDXMd/bjvTL8DHSlcNq8wXmIVWyOkOtTtz0bjx0x0OqXSDU3d1NTV0NnV2dLFy8kO6e062ODNy4pGBuvnQk11+YgL+P+teBd1ltLFpRxBuLc/hlT/VvlgdMRneuOCeWJ24bx4hhouiNMHA2Wy+LVxXz9zcyySlWbbr/RFw5AQC4HPhCxfY/RJohdgmDIQE4zAiMRdqg1wrkApUaxjMS6Yl0DaB4DdW5s+YyfZI65bJbWltobW8le38267esV7z9w9Pz15yfQEp8gOLt91V1vZmc4ibaOqyEBnoydkQwnkZXXTUT7KG3F77+uYS/vraDvfkNWoTg6gkASG/orlWh3XKkXf92zdjUNJgSAEc2HumCi0uRnmCyhQaHcu+Ce5Vo6rd6obK2EpvNxtLvl1JTp+xO5atmx/HWX2cQ4Kv+u31BsJe2DisLlxXwf59ls69I0/FjMCQAQUh7AiIVbLMXOBdYqWCbmnOVQkDOLhP4K9ImlgSkSyVknVOrra+l9GCpAqH9lrnLjM1mo6GxQfHBH2DxqmKi5/6PO5/ZqPULpSDIVlDWwgMvbGboHPGctqMG4FaF23wLFxv8wXVPATizRuAXpCOEsvYJ6HQ6khKU3ajW0tpCd083O7N3Ul2rxn5JaR1+e3Ydr3++jzVbKwDpGlyjQTxdBcfXaenhy59KeOTlrdz3/GZ+2V2DpatH67AOc9VTAMfKB6KRZlflKgYuA+x/1lllYgnAcSUD++Q0YDQYeeTORzAYlJlOt9ls0vR/j42FSxba9QZCb5M7l58dy/UXJnLWpEjc9OKpKzgOm62XdZlVLFyWzxerD9Dc5rBjxWBYAjjMD9iDvAqtNuAsYK0iETkY+xRJFwYiB9gETBtoA5YuC1n7sxifqkQSDO0d7dALJeUldr9+uN3czcJlBSxcVkBIgCeXnRXLVXPiODM9Anc3sZIl2F9vL2Tm1LF4VTGfLi+grKpd65CE32oBFgCrGPib3f/gooM/iBkAR3cL8LacBmKiYrj1WmWWw2rqarB2W1n+43JKyksUaVOuYH8jF2TEcMGMaOZMHSo2DwqqMlu6Wb25gmXrSlm2rvS0NSMc0GCaATjs/4C7BvC4/UiXvjl9wZ+TEQmAY/NFOqqoevEgV+Dupmf6uHDOnxHN7ClRjEkMQi+WCgSZyqvb+X5DGd+uLWXNlgrMFvXqXtjBYEwAvJFmU8f04zEdwEykWjEuS7w6Or73caHCE/YUEuDJrPQIzkqP5KxJkYyMFcV7hNM7WNPOz9srpY9tlRSUOcKV84oZjAkAQBSwkb7tB7AiVW11iWp/pyISAMc3A1indRCuIDzYxLSx4UwfF87UseFMSA457QVCgusrr25n7Y5K1m6v4uftleSXNmsdkpoGawIAEIxU7n3eKX4mB+l698FwUkIkAE5Ah7QWlah1IK7G0+jGhOQQ0kYGkzYymHFJwYxOCBTHDV1YbWMn27Jr2Z5dx/Z90ufKOudYx9frdYQHmeTGO5gTgMNSkWZV04ChSDVX8pFu+FuBdLProCASAOfwJ+AZrYMYDDzc9STHBxxJCg4nBmJzofMpr24np7iJHfvq2L6vju3ZtZRUtmkd1oBMGRPGfx6dymc/FPHSwr1ymhIJgHCESACcQyRQiijcpJm4KF/SRgYzMtaf4UP9SIjxIyHaj6gwb3Tit0gzNlsvJZVt5BQ3kV3YSG5xE9mFTeQUNdLSruq1unYRGerFs/emc/2Fieh08OCLW0QCIChG1AFwDhXAD8AFWgcyWBUfbKX4YOtxXzcZ3Y8kA8OjfUmI9ichWkoQosO9xSkEBbSbuzlQ0UpJZZv0uaKNkso28ktbyC1uoqPTqXfln1Cgn5H7rxvN/deNxsfLQ+twBBclEgDn8T5OngC4u+vp7rZpHYaizJZu9uY3nPBmN6PBjehwb4aEeBEZ6sWQEBMRR/7716+FBHhqELn2enuhttFMXZOF2kYzlbUd1DR0UlIpDfAlFa0cqGijrskeN3U7hiB/I/ddO5o/XjsaP28x8AvqEgmA8/gWqAVCtQ5kIEKCTOxduYD3Fu3h1Q92UFXr+lXTLF09FJS1nPYYmdHgRniQiagwL8KDTYQEeuLvY8DP24C/jwf+vof/20CArwF/X8Oh73s4xIbF5rYu2s3dtHVYaW230tTaRbvZStuhr9U1dlJ76KO63kx1g5naRjO1DZ302Hq1Dt8hhAV7cc8Nadx7ZaIY+AW7EQmA8+hCuuf6fq0DGYhrLklhSKg3j989lQdvm8QnX2Xz0tvbyM6r0zo0zVm6eiitaqO0qv8b1DyNbvj7GPA2Sb/KgX7GI98zGd3xPJQg6PXg7/PrRkZvk8eRI5C23l6aW3+tXd9j66Wl7df18+4eG60dv/65td1KW4f04Qrr7FqaOGYI99w0gfkXJWOkG9qdc5Oi4JxEAuBc3sNJE4Dfz/u1CJfR4MbN88Zw87wxrNtSxluf7uKL5Xl0OneFNU10WnrotBxdqfT4fQqCYzF4uHHF+SO556bxTB0f9es3usTzX7AvkQA4lyykO6nnaB1If8yaEkNaStgJv5cxOZqMydG88jczH32RxbuL9ohZAcEljRsVzo1XjuaaS1IIDfbSOhxBEAmAE7ofqUqVU+wc8zS688rfzjntzwUHmrj/lnTuvyWdXftq+PSrfXz2bQ5lFS5VhlUYZCLCfLjmkhRuvHI0qUlOuX1HcGEiAXA++4AbgE9x8H8/g4cbS964lDHJ/XvhS0sJIy0ljOcem8n6reV89m0OX6/Mp7JGrI8Kji9qiC+XzEng8nNHMmtKDG5u4iio4JgcegARTmox0IB0NDBa41hOaGR8EK8/M5czp8YMuA29XsfMKdHMnBLNf5+czdbdlXy1Ip8vV+SRV3T8sTtB0MrwYQFccd5ILjt3BJPTIkVxKMEpiATAea0BkpBmA64ExgIhWgbk621gTkYc550Zz/WXj8LgodwRNb1ex5RxkUwZF8lzj80kp6Ce5T8VsXJ9Meu2lGF2wWIwguMyebqTMTmauRlxnDsrnuSEYK1DEoR+EwmAc+sA3jj0oYTb5bR19SUpvPnsXIVCObXkhGCSE4J54NZ0zJ3drN9axop1xaxaf4Cs/bX0iuPlgoJ0OkhJDGFORhxzM+LImByNyVO8fArOTTyDBadn8nRnTkYcczLiAGht72LLzgpWbyhhw7Zytu6qwOpiFQgFdbm56RgZH8z09KGcM30Ys6bEiJ37gssRCYDgcny9DZwzPZZzpscC0NxqYdOOg2zdVcmWnRVs3V1JfaP51I0Ig0pQgCfpYyOYNDaCaROiOCN9KL7e4gZIwbWJBEBwef6+Rs6bFc95s+KPfC2/uJGtuyvZtruSndnV7N5XQ3OrRcMoBXvx8TaQlhJG+tgI0scMIX1sBAmxgVqHJQh2JxIAYVBKjAskMS6Qay9NOfK1otImdu2rYVd2NbtzasjaX8eB8mZsol69U3Jz05EwLJAxyWGkJoUyemQIY5LCiIv2d6pbGrusNhYuy+eHTeWs3nxQbnNK7BmqB/YCS5FOIonzuU5KJACCcEh8TADxMQFcfu6II18zd3azv6iB3IJ6svPqyC2sJ7ewgcKSRnHywEH4+RgZER9IYlwQI+OljxHxQSQnBDv9Rr2ftlVyx9Mb2H+gWetQjhYMzDr08RiwAOm6csHJOPdvhyCozOTpfqQw0bEOVrVSWNJEQUkjhSVNFJY0caC8mdKDLVTVtomTCApxd9czdIgvw4b6ETvU/8hHXHQAI+IDiQjz0TpEVXy/oYzLH1iNpatH61BOJRJYBtwIfKJxLEI/iQRAEAYoaogvUUN8yZh8fC2mLmsPB6vaKKtooeRgC+WVrVRUt1JZ0051nfRRUd1Ge8fgvk3P28uD6Ag/wkO9GDrEl/BQb4YO8WVIqDdDI/yIifIjKtwHd3e91qHaVXZhI1c86PCD/2FuSBeV7UFaGhCchEgABEEFBg834qL9iYv2P+XPdZitVFS3UdvQQUNT56EP828/N3fS2tZFW3sXre1dNLV00tZupcvqGIODp9EdXx8Dvt4GAv098fU24OtjwM9H+nNwoImQIC+CA6T/Dg32IjjQRHCACW8vD63Dd0gPv7yVTotj/Pv2kQF4ESe7qGywEwmAIGjIy+RBQmzggHahd1l7aO+w0tRiobe3l7Z2K9buHsyd3XRaurF222hr7/rNY070tcP8fIzH1a33MnlgNLgd+WzydMfTKH2YPN3x9vJQtOKjAPmlzfywsUzrMAZiNjAa6dZSwQmIBEAQnJTBww2DvxuB/k5xMaTQR+99lefM+0duBh7QOgihbwbXwpogCIID6+6x8dG3+VqHIccNgFHrIIS+EQmAIAiCg1i+oZyK2g6tw5AjGLhI6yCEvhEJgCAIgoN498v9WoeghAVaByD0jUgABEEQHEB1XQffb3DKzX/HmgPEaB2EcHoiARAEQXAAHyzd5yq3VuqRCgMJDm4wJQBuwAXAh8AmYD/wI/AykKZhXIIgDHK9vfD+kmytw1DS7xlc44tTGizHAMcBHwMpx3x9BHAmcB/wJXA7UGvf0ARBGOw2bi9nf3Gj1mEoKQ44C1itdSDCyQ2GDG0OsJnjB/9jXQbsAIaqHpEgCMJR3l20R+sQ1HCz1gEIp+bqCUAKsBipTGVfRAPfA96qRSQIgnCUljYLi7/L1ToMNVwGBGkdhHByrrwE4I603u/Xz8elAs8DdyoekSAIwjE++yZH9qVQcTFx3Pw7Zd5w19TVYO228t2a7yg7KOtUgidwDfB/igQmKM6VZwD+Akwc4GP/AJyrYCyCIAgnpMT0/4TUCQpEIjF5mgBISkhSorlblWhEUIerJgDjgMdlPF4HvAP0/4YWQRCEPsraX8vWXZWy2vA0epIy4nRbnPrO28sbdBAXHXckGZBhDDBegbAEFbhiAmBEmvqXe89oFPCS/HAEQRBOTIl3/6nJqXh4KHetsl6vx9PgiV6vJyEuQYkmRWVAB+WKCcCTSOv4SrgJuFihtgRBEAAoONDI829u4cMl8m/OVXL6/zAvLy8AkhOSlWjuOuBRpGPXggNxtU2AU1H+Ksp3kO64rlG4XUEQBpHsvDoWf5fLsjWF7NhbpUib4SHhREVEKdLW0UwGE3q9nqDAIEKDQ6mtl1UexQ947tBHEbAM6XTWRsB5Lz52Aa6UAHgjTf27KdxuKPAqMF/hdgVBUFinpZvd+2o4WN1GgJ+RpOHBRIb7aBZPbmE9HyzO4tOv91FW0aJ4+xPGKv/uHwAdeJu8aW1vJTkxWW4CcLR44N5DH+XAZ8D7wD6lOhiAIUAS4A9UAbuBTg3jsRtXSgCeAxJVansesBRYpFL7giDIUHCgkX+8spEl3+/H3Nn9m+9NSovgD9eO45pLUzAalH5/cLyWNguLvs3lg8V72bTjoGr9uLu5MzZlrGrte5m8aGtvIyE2gU3bN9Hd3X36B/XPUOChQx9bkBKBz4BmpTs6AQPSm7o7kGaOj2YGvkBaTs6zQyyacZUE4GzgLpX7+C+wDpC3ZVcQBEV9sHgvd/x5JZ2WEw9QW3dVsnVXJX/651ruvGEcd1w3jtBgL8Xj2L6niv+8v50vlufRYZZ3rr8vkhKS8DIp//9xmLu7Ox4eHvTSS3xMPHlFqo6Fkw99vIz0ZutVpKRAacFIJd/vBiJO8jMmpH0LVwH3AG+rEIdDcIVNgH7Ae0hH99QUDLylch+CIPTDv9/dzs0Pf3/Swf9o1XXt/L+XNhA95TVuuH8ZWfvlT2vbbL2s3nCAi25eQvpFH7JwabZdBn+ACWNUmv4/ireXVBR1ZMJI1fs6xARci1S+fTtwA8q8UU0AXgFKgKc5+eB/NCPSa/6fFejfIblCAvBv7Hf39IVIt1wJgqCxf7+7nQeeXENvP7eRWbp6WLg0m9Q57zH9ik/4dnXBgNr46IssRs9+l9nXLmLZmsL+NSCTn68f8bHxqvdjMprQ6/REDYnC39df9f6OMQFpX9d+4I8MrET7dOBzIBdp38FA2ngKF00CnH0JQIsB+WVgDVBq534F4Tidlm4++WofX63IY39RA3UNZlX7CwrwZGR8MJfMSeC6y0bhZVLu/Hl/DHTwP9bG7eVcvKCcUSNCuG/BRK67bBSexpO/LHZaunl94U6efW0ztfUd8jqXYXzqePQ69d+/6fQ6wkLC6LR0MippFJu2bVK9zxOIR3qj9xfgn0jLsad6ohuB3wH3A0ptkngK6D7Uv8tQe9pcTUFAFn2bylHaaqRbBl3tCMvtwBsDffBt16Tx5rNzFQxHOJUVa4u59bEfVNld3heR4T68+ey5XHj2cLv2q9TgfyJhwV7ccf047rh+HOEhv75Z7O628cGSvfzjlU2a/X0fpkPH/bffT6C/fQuVtrS28OIbL2Lrtdm13xM4iLRB7z3g6PWWEKQy7nch7exXw2O4UBKgmr+VrgAAIABJREFU/pZY9bzH8bs37SUeqAW2adS/WiYizaoMyITUIVx0jiKVw4TTWLg0m3l3fUVTi0WzGFrbu1j0bQ4RYd5MSFXr9fa31Bz8AdrNVtZuLuPVD3ZQXNZMXHQAP/1SypV3fMUHi7NoadXu7/uw+GHxTJ1g/5c+o9FIeWU59Y31du/7GH5Ir1PXAPWADekd+gdIb8zUPPd5DtIRwY0q9mE3zroEcBXSFI+W/gmsAAo0jkMYZLbtruSWR5bT06P9BJTN1stdT6wiJTGE6elDVe3r3+9u5/5/rFG1j8MsXT289/ke3vtcfqlepWVMztCs7xmTZ6h9GqA/hgMfa9Dvc0iz589p0LeinHETYDjwmtZBIG0m+QDnnkURnND9//iRLmuP1mEc0d1t449/W63au3Kw7+DvyBLjExkea98ll6PFRseSnKhIeWBn9yzScoBTc8YE4DWktR5HcAbKlx4WhJPanVPDxu3lWodxnMysarbsqlClbTH4S8JCwrjqwqu0DoMrLriCiHAttl45nGeRNiY6LWdLAG4ALtc6iGP8A1DuLk5BOIVV6w9oHcJJrVxXrHibL7+zTQz+wKgRo1hw9QIlrueVzWgw8vv5vyc1Sak715zakzjxTIAz7QEYilTIwdF4Ip1VnYp0TEQQVFN6UNsd6KdyoFzZCq4vv7ONB578UdE2nYnBYCA5IZnxqeOJH6b+mf/+MHmamHfxPNLT0sncm0lOfg6WLu03SGrk2UOfnW5PgLMkADrgXSBA60BOYiLwONJswKBls2m/Kc3V9dg0P4J1Ukr++w/GwV+HjiFhQ0iISyAxLpGYqBjc3Bx7i1FcTBxxMXH02HooO1hGfnE+BcUFVFZX0utyp6RPySmTAGdJAG5HOt7hyP4CfAvs1DoQrVRUt2kdgsuLjvDTOoSTUiq2l97exoNPDY7B32gwMnL4yCODvo+3djcXyuGmdyM2OpbY6FhmZ8ymrb2NggMF5Bfnk1eYR6dlUFyu9yzSm9VnT/eDjsIZEoB44Hmtg+gDD+AjpNmAQTkXtm5rGW3tXfh4G7QOxWWdfcYwrUM4qXOmx8puYzAM/nqdnuGxw0kblUbyiGQ83LWppqgmH28f0kalkTYqDWu3ldz8XHZl76KguMARCgmp6ZlDn50iCXDs+SVpk+KXqHfNr9LCkBKB1VoHMkCyCgF1WXvw8TIwY1K0giEJR4sM9+XrlflU1bZrHcpvJA0P5rnHZqHXD7y4qKsP/uEh4UyfNJ3Lz7+cSeMmER4ajpve0V+C5XPTuxEeGs7YlLGkp6Xj6+NLW3sbbR0uO2N4NtAFbNA6kNNx9FLADwAvah1EP/UAM4BftA5kAGSVAgYwebqzfdmNpCQ6yklN1/PTL6XMvvYzhygEBKDTwXcfXMV5swa+Uc1VB383vRujk0czbcI0IodEah2OQ6msqWTTtk3szdlLj81x6loo6HEcfCbAkdPPZGAR0jtqZ6JHSgCOrVPtDGTNAIBUFOa7NYVccd5I/H2NCoUlHC0u2h9fbwMr1yt/7G4gnnoog5vnjxnw49Ua/A0eBi6acxFubm7UN9TbdVOawWBgUtokrrr4KsanjsfXx9dufTsLX29fUkakMC51HDqdjpq6Gnp67JcI6HQ6UhJTOGPSGRSVFqnRt8PPBDhqAuCOtKEuVuM4BioY8AV+0DqQfpKdAAA0t1r47qci5l2YhI+X2A+ghqnjo0iMC+LHjSV0WrR59+TnY+T1p+dy780Dv5f+xbe38tBTPykYlcRgMHD9ldeTMiKF0UmjSRudZpdBxtvLm4wpGcy7aB4pI1LwNHqq1per8DR6khCXQHpaOp5GT2rqauiydqnWn8FgIH1sOldddBWTxk0iMjyS+Jh49ubuVSsJsALrlW5YCY66BPBnpMsdnJkN6eII5V/d1CN7CeBoiXGBLH3zMkaPDFWqSeEYDU2dvLYwk69X5rMvv54Os7qTTiZPd5ITgrnonATuumE8ocFeA25L1cH/iuuJjY497nuWLgvbd29n847NNLU0KdanydPErGmzSE9Ld8lNffbU3d3Ntt3b+HnTz3SYlbty2d/Xn8njJx9JNI5VVlHGB59/QFeXKsnHn/l1g6DDcMQEYCywFXCFt44HgDFAq8Zx9JWiCQCAt5cH7/zzPH53sagfbg+t7V10d6uzy9rNTYefjzLLOmoO/jdceQPDhp76tITNZmNf3j42bd9EWUXZgPtz07sxadwkZk2bhZdp4MmQcDxzp5m1v6xlc+ZmWe/MoyKimDZxGqNGjjrtpsvBlgQ4YgKwFtDuuivlPY3z1ItWPAE47K4bxvPcYzPFEUFB88H/WGUVZWzatol9efv6dUQtKSGJubPmEhIkNryqqaGxgRVrV7Avb1+fH6PT6UhOSGZa+rQBPR8GSxLgaAnADGCd1kEorA3pBkPl5rLUo1oCABAd6cerfz+HS+Y4y6lOQWmONvgfram5iV92/MKOPTtOWdY2ckgkc2fOdbjyvK7uQNkBVvy8gvLKk1+GZTAYmJA6gSkTphAUEDTgvgZLEuBoCcALwIMKtNMJZCFtahuo9UgJiRIuAb5RqC01qZoAHHbJnET+8/dziIl03Kp2gvJeeGsrDz/tmIP/0SxdFrJys8jJz6G6rhqLxYKPtw+R4ZGMSx3H8GHaXccrQFFJEZlZmVRUVdDW3obRYCQsJIykhCRSk1MV23hZVlHGh59/qNYdBw6RBDhaArAcOFeBdh4G0oBrZbRxA3A9MFuBeP6Ec9SItksCAOBpdOe2a8byp7umMiTU2x5dChp6d9EebnlkueLtKj34C8LRVE4C7sBOr7cn42jXAStx2c8vwMsKtNMLLACUuOJMvNU9Rqelm/+8v4PhM97k4ad/orbeGVZIhIEoONDI3U+sUrxdMfgLaouOjObGeTdiNKhS0+TfwEg1Gu4rR0sAamQ+3gz8HqkanxLKgD8q0E6dAm24pA6zlRfe2kr8jDd58KkfKSpV7miW4BieenUTnRZlb8o2Goxi8BfsIjoympvm36RGEmAEnlC60f5wtARgq8zH/xnYr0QgR/kQ+ev3W5QIxJW1tXfx0tvbSJz5Fhcv+IJV6w/Q6xiVbgUZuqw9LPle2V9Jo8HI9VdeLwZ/wW6GRgxVKwm4HNCsWpSjJQBfIBXQGYgNwCsKxnK024H6AT62BNisYCwuzWbr5dvVBcy5bhGjznmH/36USWPzoLhK1CVl7a+jvUO54kRi8Be0olISYELar6YJR0sAcoFPB/C4dqSpf7XumawC7hzgY/+GcksSg0pOQT13P7GKiIn/x2W3LWXpD3lYusRfpTOprlPu1kKjwcgNV4lpf0E7KiUBYUo21h+OlgAA3AMU9OPnbcBN/XzMQHwO/Kufj/kU+ED5UAYXS1cPX63I54rbv2TIhFe59dEfWLu5DJtNrBE4Oi9PZcriHh78Y6JiFGlPEAZqaMRQLj3vUgwGxYqaabYD2hETgCbgTGBnH362A+mo3hJVI/rVY0jXE/dlpuE9pFkJQUFNLRbe+Ww3s+Z/StSk/3Lroz/w9cp81WvgCwOTnBiMToHDxueddZ4Y/AWHYO22EuQfxPRJ05Vqsu8lDhXmiAkAQDkwFXgAaSf+sTqBT5DWTgayZDBQvcBDSDc8rebEiUAmcBnSEUL1rrQSqKpt553PdnPprUsJSfsPF9y0hDc+3kl5pbNcveD6woK9mJQWKbudvMI8BaIRBPna2tvopZfS8lIlmtsJVCjR0EC4a9VxH1iQzvP/G+mCoDjAGziItKtey4PjPx/6iAJGHfrcDOwCijSLahAzd3bz/U+FfP9TIXf+ZSVjksKYNTWGM6fGMGNSNEEB4lpWrfzh2jS27JT3GpdbkEtDU4Os8q6uytptpaauhvrGepqam2hsbqS1rZX2jnY6Ojswm81093Rjtf52lszD3QN3d3dMJhNenl54mbzw8/Uj0D+QAP8AggODCQsJE7cbHsVms2HuNNPW3kZRiSIv9W8p0chAOVolQCV9jLxKgNcfamMwsVslQHvS63WMSQpl1tQYZk2JIWNyNIH+IiGwF0tXD7HTXqeqVt6GwCnjp3DBORcoFJVzstlsVNZUUnqwlLKKMiqrK2lobOjXJUb9odfpCQoMIiIsguioaGIiY4gIj0Cvd9TJY3W1tLXQ2tbK5h2b2ZW9S25z9UAMGr6ZdeQZAMHJ6HQ45Nl9m62XXftq2LWvhn+/ux29XkfqyFDSx0YwccwQ0sdGkJoUiof74HxRU5vR4MZdN47niRfWy2onMyuTs2ecrVitd2fR2NxIflE+eUV5FJcW02W138qirddGXUMddQ117M3dC4DBw0BcTByJcYmMiB9BYECg3eLRUi+9dJg7sFqt5OTnKNHkG2h8SZyYATg5MQPQTzddPIK0kUH89bUdtLQ716Y8D3c9iXFBTEgNZ0LqECakDmFSWgQGj1PfHy70TUNTJzFTX5NdE2DOzDnMmKzUHV2Oq6mliZz8HLJysyg9qMhas2rCgsMYlTSKMcljXPpq5PaOdppamtiTs4dN2zbJba4LiAUqZQcmg5gBEBRj8NDzx2tHc+XsOB57ZRuffF/gkDMCJ2LttrEvv459+XUsXJoNSBcWJQ0PIikhmFEjQkhOCCYlMYSE2EAxW9BPQQGeXH/5aN74uC+He05uS+YWpqVPw03veomZtdtKdm4223Zvc/hB/2g19TXUbKzhp40/ERMVw8SxExk9cjQeHq61d6C9o53e3l6ycrOUaO5/aDz4g0gABBVEhXmz8OlZ3DEvmUde3srGXdVahzQgnZbuI0sHRzs8W5CSGExyQjCJcUHEDvVn2FA/osJ9cXNz5Ym1gbtvwUTe+nSXrPoNza3NZOdmMyZljIKRaau5pZlfdvzCjj076LQ4d9XL0oOllB4s5fs13zM+dTxTJ0wlwF+JO9601dnVibXbyoGyA7S0tijRpBIX1skmEgBBNdPGhrPhg4tYtfkgf38j02kTgWMdPVtwLA93PUMjfBkWJSUEsUP9DyUH/sRE+hER5o2XybXeGfXVyPggzj8znmVrCmW1s2n7JpdIAKpqq1i3eR3Z+7Ox2dQqYqqNTksnm7ZvYnPmZkaNGEXGlAyGhA3ROqwBa2trA2D3vt1KNLcGUKQhuUQCIKhu9pQoZk+JYs2WCv72RiYbdlZpHZJqrN02isuaKS47+S3SXiYPwkO8CA/xJjTYi9AgLyLCvQkN8iI02Ishod6EBXvh72vEx9vgdCcWLF09NLdaaG6x0NTSSXOrhcbmTppaLPj5yC+herDqIAfKDhAbHSs/WA3U1tfy08afyNqfRa+zrJENkM1mY2/uXrJysxg1chRnTj+TsGDNKt8OiLXbSldXFzV1NVTVKPLa9ZISjShBJACC3Zw9OZKzJ0fyy54aXv1fNktWFWPtdq13Pn3RYbaeNkk4lreXBz5eBny8PQjw88TH+/CfDfj7GvHzMeDmpsfL5I7R8Ov6uJfJ4zd/9vYyYPA48f6FphbLkQGprd2KtVu6d8HS1UOHWbrOt6fHRktb16Gflwb3ppbfDvbmTmWv/j2RTds3OV0C0N7RzpoNa9ixe4dqx/YcVS+9ZO3PYl/ePsaPGc85M87B28tb67D65HDhnz379ijRXC6wXImGlCASAMHupo4JY+qYMF58cDJvLM7hrS9yqaozax2WQ2vvsNLeYaX6+FWHQSm3IJeGxgaCAh2/MJDNZuOXHb/w86afnX6NXy5br43tu7eTlZvFrGmzmDphqkPXFFCh8M/LSBVlHYLrbaX91eWAnIXCLwFFUj4nMhG4cKAPnpASwkUz+16v3dfLgzPTI7n36tGMGh5Au7mb4oOtTnNyQNBWL72MiB+hdRinVFldySdLP2Fn1k66e9SfGXEW3T3dFBwoYH/hfqIiovD18dU6pBNqbW/F0mVhx94dSkz/1yHdD+MwTwTHTb2EQcPgoed35w5n+X/PpXTF1fzr/kmMGj44iosIA7czayfmTsecOeqx9bB63WreWPgGFdWalXp3eJXVlby58E1WrVtFT49jXfWtQuGf1wGHesKKBEBwKJGhXjx84xiyvriC7Z9eykM3phI/1DHfHQja6urqYm/OXq3DOE5dQx1vf/w2azevdbnd/Wqw2Wys27yOtz5+i9r6Wq3DOcJsNtPT00NhSSFdXbKrL1qA1xQIS1EiARAc1oSUEJ6/fzKFy+azc9Fl/PX2cYxOEDMDwq9yC3O1DuE3dmXv4vUPX+dg1UGtQ3E6FdUVvP7R6+zMklcsSilt7dLRvwNlB5Ro7lPA4Y4/iU2AglNIGxlM2shg/n7HBPJLm/nm51JWbCpn/c4qOi2ONXUo2E9Nbc3pf8gOemw9LP9xOVsyt2gdilOzWq0s/X4p5ZXlnH/W+bi5abNN7XDhH4CGpgYlmvyPEo0oTSQAgtNJjPHnwRtSefCGVDo6u1m3o4oVm8r5YVM5ucVNWocn2JGly6J1CHSYO/j0y08pKS/ROhSXsXXnVqpqqrjmsms0OS5o7fr1zopjr1EeoNFI18U7FJEACE7Ny9Odc88YyrlnDOVloKyqnbU7Klm3o4r1O6tEQuDifLx9NO2/vrGehUsWUt9Yr2kcAJGRkSQkJpKQkEhCYiKJiSMICgrCz88PL28vvL198PGR/r7a2tro6Gino72D5uZmGhoaKCjIJz8vj8LCAgry8zl4UNtljNKDpbz18Vtcf+X1dr9kyNvLm7aONmw2GyaTSYnNpn8DFgEOdUuaSAAElxI9xJvrLkjgugsSAKhpMLM+s4r1O6vZuLOK3XkNg7L4kKuKDI/UrO/yynIWLllIh1mbG11Hjkxi+owZTJ+RwRnTpxMU1PeaCD4+vyYDh5151lm/+XNjYyMbN6xnw/r1rF+3jv377b/foqGpgbc/eZvrrriO6Mhou/Wr1+vx8/GjqaWJ0KBQGhplLwMMBxYg47ZVNYgEQHBpYUEmrjgnjivOiQOkqna79tezNauWbdm1bMuuI6+kWdYFNYJ2xqeO16TfkvISFi5ZaNclCJ1Ox5Sp05g3fz5zzz2XsLBwVfsLDAzkwosu5sKLLgagpqaaVStXsuizz/hl00a7lTHuMHfw4ecfcu3l1xIXE2eXPkGaBWg3t5OUmMT+wv1KNPkE8CEOdBRQJADCoGI0uDE5NYzJqb/WI29pt5KZU8fe/Ab25jeyJ7+B7MJG2mTeXS+oKyoiiuGxw+3eb1FJER8v/VipteHTiouPZ9783zFv/u8YNmyYXfo8kbCwcK697nquve56ysrK+HzRZ3y+6DMKCwpU79vSZWHhkoVcfdnVJMYlqt7fYf6+/kSERRARFkFljezbeyOBu4Hn5UemDFe+t/Rj4FoZj7/+UBuDye3ImKK67Yok3nxiuoLhaKe3F4rKW9iT38C+oiZyiprIK2kmr6SZ5jbZZ4IFBSy4eoHd7wMoKS/hw8Uf2mXwnzBxIg88+BBz5p6LTueYL9W9vb2sXrWSl154gW3btqren4e7B9dfeb1dZwLqGusoO1jG0u+XKtFcPRALtCnRmFxiBkAQTkCng+HRfgyP9uOy3y6NUl1vJvdAE/klLeSVNFNY3kJJZRsHDrZS36z9rvTBICUxxe6D/+E1f7UH/zOmT+eBBx9m5qxZqvajBJ1Ox+w5c5k9Zy7r163jpRefZ/26dar1Z+228vHSj7lp3k122xPg7+uPJcRCQlwCBcWyZzuCkcoBvyo/MvlEAiAI/RQebCI82MTMCRHHfa+tw8qBijYOVLRyoKKN0so2Kus6KK9up6reTHl1u1hakMnNzY05s+bYtc+GxgbV1/xHjBjJP59/gRkZGar1oaYZGRnMyMhgw/r1PPrwQ6ptGuzq6mLhkoXcdt1tdjkd4OHugcnTxOTxkykuLVaiZPF9SFUBNS9gIhIAQVCQj5cHoxMCT1mxsN3cTXl1O9X1Zipq26lvtlDX2El9s4X6JulzXVMndY2dNLd10dTqfEsO3iZ3/LwN+Pl44OdtwN/HQEVtO/uK5B/LnDxuMsGBwQpE2Tcd5g4+WvKRarv9TSYTDz3yKHfceRcGg0GVPuxp+owZ/Lx+A2+89l+e/9c/6ehQ/u/N3Gk+kgTYo06Ar7cvnZ2djEkZw869sisVxgOXAUvkRyaPSAAEwc68Te6MjPVnZKx/nx/T0m6lpa2L1g4rre1WWtq7aGrpoqOzm86uHsyHPndaejBbeo58DaC7x0Zr+/GzDtZuG3q9Dje9tL5s8HDD2/TrS4Kfjwduh65qNXjof/O9QD8jft4e+Hob8PP2wM9H+hzgKw32ev3xa9azFnwHyEsATJ4mZk2bJauN/uix9fDpl5+qds5/ztxz+efzLxAdbb8jbvbg4eHBPX+8j8uvvIpHH36IH5Z/r3gfDU0NfLL0ExZcvUD1ioEeHh4YjUbGjR5Hbn6uEnUBHkQkAIIg9IWftwd+3h5ahzFgOcVNrMuUvYuaM884E5OnSYGI+uaHH39QpcKfwWDg//39H9x2+x8cdoOfEqKiovj40//xzttv8dcn/kKXRdkllLKKMr5b8x0Xz7lY0XZPxNfHl05LJ+lp6azbLHufwxRgOrBBfmQDJy4DEgRBdW8tyUXusXEfbx/Sx6YrE1Af7M7ezebMzYq3Oyw2lu+Wr+D2P9zh0oP/0W659TaW/7CS2Djld+9v27XNLhcIGTwMGAwGkhKSlFp2uEeJRuQQCYAgCKoyW7r58Nt82e1MmTAFd3f7TFrWN9bzzcpvFG/3vPMv4Ke16xk3XpsCRloam5bGT2vXc8GFFyne9rervrXLVcI+Xj7o9XrGpIxRorlLgL6Xb1SBSAAEQVDV5yuLaWyRN/Vr8DDY7d2/zWZjybIldFmV3Xx59TXX8v6HH+Hn56dou87E19eXDz5ayB133qVou1arlcXLFiuxQ/+UPD09cXNzIyUxBaPBKLc5I3C1AmENmEgABEFQ1ZuLc2S3MXHsRLxMXgpEc3o/bvyR8spyRdt86OFHePW/r9ltBsOR6XQ6nnz6GR790+OKtltZXcmaDWsUbfNYOnT4ePng4eFByogUJZq8WYlGBkokAIIgqGZPXgO/7KmR1Yab3o1pE6cpFNGpVdZUsn7LesXa0+v1PPev53ns8T8r1qarePiRR3nxpX8ruoN/47aNVFRVKNbeiXiZvNChIzU5VYnYxwNjFQhrQEQCIAiCahZ+J3/tPzU5FX+/vh+ZHCibzcZXP3yFzabcbZH/eOppbrn1NsXaczU3/v73PP/CS4q1Z7PZ+HL5l/TY1FsK0Ov1eBo98TJ5MSJ+hBJN3qREIwMhEgBBEFTR2wufryiW3c7UiVMViOb0NmduVvTd44MPPcwf7rhTsfZc1Q033aTockBVbRWbdyh/euNoXl7ScpRCmwF/h0ZjsUgABEFQxcZdVZRWybvzJCwkjMjwSIUiOjlzp5mfN/2sWHs33HQTf/rzXxRrz9U9/Mij3P6HOxRr76eNP9HWrt59O0ajEb1eT6B/IKHBoXKbG4JUF8DuRAIgCIIqlqw+ILuNcaPHyQ+kD1atW6VEdTcA5p57nqLT2oPFk08/o9gRQUuXRdUNgTp0eHlKswAjh49UoslLlWikv0QCIAiCKr5dK6+Cnl6nZ2yK+vuj6hrq2LF7hyJtxcTE8Nobb6pemtYV6fV6Xv3va4oVC8rck6lqbYDDFSkT4hLQ62UPpSIBEATBNWQXNlJU3iqrjeFxw/H18VUoopP7ceOP2Hrlb/zz8PDgzXfexd9f/Q2LrsrPz48PF36C0egpuy1br40fN/6oQFQn5mHwwM3NDU+jJzFRMXKbSwRGKRBWv4gEQBAExX23vkx2G2mj0hSI5NSq66rJys1SpK2//u3vpKdPUqStwWzUqFH8/cknFWkre382VTVVirR1LB06TEZpFkChZYBLlGikP0QCIAiCYrIKGnnghc08995uWe0YDUaSE5MViurk1m9eT6/cSwqAc86ZLXb8K+iWW2/j3PPOl91Ob2+vEhf3nJTnoZmKmKgYjEbZlQEfAV4BFDla0BciARAEQZaWditvfZHLlOu/IfXKL3j54yzZpX9HDB+Bh7u6tx82tzYr8u7fZDLxzxdeHDQX+9jLc/96/shxOzmy87JpapZ3DfXJGIwG9Do9bm5uxA6NlducP3AvsBvYBtwBBMht9FREAiAIQr/19sK6HVXc+MRaIs7+hNuf3MCWvfIq/h0tMS5RsbZOZvOOzYoUjLn/wYcYNmyYAhEJRxs6dCgPP/Ko7HZsNhubtm9SIKLj6dAdeecfHRmtZNMTgdeACmAhcCageIYpEgBBEPqssq6DVz7JYsxVXzBzwTI++jafjs5uRfvQoSMhNkHRNo9l7bayY4/8nf/xw4dz992a3+rqsu64625SUuTvjduZtVPxy50OM3pICcDQyKFqzAKZgOuAH4ES4DkgVqnGRQIgCMIpWbttfPnjAS66dyXRc/7Hfc9vJqugUbX+wsPCVd/9n70/W5Fz//96/kUM8td+hZNwd3fnmef+KbudTksn2fuzFYjoeAajAZD2AyhQFOhUooFHgQLgO+AKwCCnQZEACIJwQjnFTTz00haGzvkflz+wmmXrSumxyd8wdzr2mP7fvnu77DamTJ3GrDPPVCAa4VSmz5jBjIwM2e0o8W9+Ih7uHkfqPii8DHAybsD5wBKgHHiJAR4hFAmAIAi/kVfSzJUPrWHU5Ut48aO91DQoUyGvr9Se/m9sbqS0vFR2Ow88+JAC0Qh98cCDD8tuo/RgKQ1NDQpEc7zgwGC8vbyJGSq7HkB/hQL3A1nASiC1Pw8WCYAgCEf8sLGccfO/5IvVxShwOq7fDB4G1V9Es3Kz6EXe/1zauHGcdfbZCkUknM6MjAxFaiwoVfPhWB7uHgT4BTA2ZeyRo4EamA1sB67p6wPc1YtFEAR7OFjTzrdrS8k90Ex1vZmenoFVtbP1SuVg73krAAAgAElEQVR7u6zKXYfbX0kJSbi7qfuypMQgcP8DDyoQidAfDzz0EFfPnyerjb25e8mYIn854WTc9G6kjEghc2+man2chgH4CGgAfjjdD4sEQBCcVE2Dmcde2cZH3+bbZW3eHsaPGa9q+00tTVRUy7vyd9iwYZx/wYUKRST01Tmz5zA8IYHCgoIBt1FVU0VjUyOBAYEKRvZb40aP0zIBAGmPwLvASOCUVyKKJQBBcEL7ipqYdO3XvP91nssM/ikjUhg+bLiqfeQX5ctuY97834miPxrQ6XTMm/872e3kF8t/DpxKbHQsqUn9WopXQyRw4+l+SCQAguBkahrMnH/XD5RUqnffub2FhYRx8ZyLVe9H7ou/UoOQMDBXzZsvO/nKK8pTKJqTu2jORQwJHaJ6P6dx+el+QCQAguBkHn91u0sN/olxidxyzS14e3mr2o+t10ZRSZGsNtLTJxEXH69QREJ/xcTEMHXaGbLaKC4tVqQC5KmYPE0suGaBUpcEDdRp79IWewAEwYlU1Zn54Gv138GoTYeO2JhYMiZnkBCn7rG/w6prqrF0ybujYP7vrlYoGmGg5s2fz6aNGwb8+C5rF1XVVURFRCkY1fE8jZ5cd8V1FJUUsXbzWopLixW5eKofApHKB5+0U5EACIIT+W69fYrxqMXP14/xo8czLnUcQQFBdu279KD8s/+z585VIBJBjjlz56LT6WQNpiUHS1RPAA6LHxZP/LB4mpqbyNybSWZWJs0tzfbo+rQz/CIBEAQnkntAnVvN1OTu5k5SQhLjUseREJeAXqfNymNphbwEIH74cCIjIxWKRhiosLBwRowYyf79uQNuo6yiTMGI+ibAP4Czpp/FmWecSWFJIZl7MsnJz6G7R9m7NPpDJACC4ESaW61ah9BnQ0KHMH7MeMamjMXLJP9aV7mqaqpkPV6JcrSCMmZkZMhKAOQ+F+TQ6aTLrhJiEzB3mtm9bzeZezKprKm0eywiARCOJqvma1OrOrdtCb8KDzZpHcIpeRo9GZMyhvGp44kaYp8p1r7o7ummrqFOVhvTp4sEwFHMyMjgnbffGvDjGxobsFqteHh4KBhV/5k8TUwZP4Up46dQUV1B5t5MdmXvwmKRt1elr0QCIBxN1hVvm3ZX09sL4oi0eiaNVvW2MVnOmn4W0ydNx8Nd2xfVE6mtq8Vmk1fhcPr06QpFI8g17YzpsvYB2Hpt1NTXOFSSGhkeSWR4JOnj0snJyyG3IJeDlQdV7VMcAxSOJuumjPLqdr788YBCoQgncs6USEICNKs1flKeRk+HHfwB6pvqZT0+LCyM0LAwhaIR5AoMDJS9H6O+Ud5zQi3ubu4kxiVy0eyLVO9LJADC0bI5xZGRvnj45S20tjvPOrWzMRnd+cutaVqHcZyZU2c67OAP0NQsb/NkQoL6VxQL/ZOQKO/fRO5zwhWIBEA4WhMw8ELbQFF5K9f9+Wes3dpdKOPq7rl6FBfNtPu1o6c0edxkrUM4pcZmWatbJIwQCYCjkZuUyX1OuAKRAAjHGniFjUO++bmEm55Yi82Jz6s7Mr1ex6J/ncXV56lbN78/dHrH3vjR0toi6/FiBsDxyJ0BaG61y1l8hyYSAOFYi5Vo5NPlhdz017V0WtQtuTlYmYzufPrsmXz179lMGh0qNl6eRoe5Q9bjE2UONoLy5CZlZrOsQ08uQZwCEI61GqgHguU2tHBZATlFTSx58RyGRfjIj0w4ziWzhnHJrGFU1HaQW9xEffPAjg9d89hPdPe47rKN3AQgKEj2r4OgsJCQEFmPbze3KxSJ8xIJgHAsK/A68BclGtu+r46JV3/Fx8/MYu60oUo0KZxAZKgXkaEDL7Zz3eM/gQtP1pg75b3b8/EVCayj8fGR928iZgDEEoBwYi8DrUo1VtfUybl3/sC8h9dQ0yB+6QT7s3bLO5ni4+OrUCSCUrx95N0e2d2tXQleRyESAOFEGpCSAEUtXlVM8mVLePfL/dj3UixhsLPJXN7w9lb3qmKh/3x9/WQ9vqenh155p56dnkgAhJN5FlD83tmGZgu3/H090278htVb1K1yJQgAvfTS0yNvfUPudLOgPE9PT9zc3Ab8eCWeF85OJADCyXQCtwGq7AzbvKeG2bcvZ+aCZazbod3FHILQF3a+x12wEx2D+/iMSACEU1kL/E3NDtbtqGLmgmXMvn05P22z/21YguvToZP1ThGgvV3sGHc0ZrNZ1jt4HTr0boN7CBzc//dCXzwFLFG7k9VbDnLWrd+RdOliXvkki3az2KAjKEfuC71IABxPW5u8fcpubm5iBkDrAASH1wvcDGy2R2f7DzRz3/ObiTn3fzzy8lYOVCh2GEEYxOTeUyB3sBGU19baJuvx7u7iFLxIAIS+aAXOBXbYq8OGZgvPf7iH4Rd+zvSbvuWVT7Kob7LPHdmC6zF5mmQ9vr1NzAA4mrY2eQmAl2ngdTNchUgAhL5qRkoCttmzU5utl427qrnv+c0Mnfsp8x/5kW9+LqHL6rpV6wTlyX2xr6urVSgSQSl1dXWyHi8SAJEACP1TB5wJfKdF552WHj5fWcQl960i8pxPuPUf6/n65xI6OsV+AeHU5L7YF+TnKxSJoJTCQlkXl2IyyZsVcgViEUTor3bgUuDfwF1aBVHfbOGdpft5Z+l+TEZ3zkyP4KKZMVyYEcPQcFG0RfgtP5lFY/ILRALgaOQmZf6+/gpF4rxEAiAMRDdwN7AJeBPQtEqK2dLN9xvK+H5DGXc+s5FxSSGcPz2aWRMjmJYWhskonuaDXaB/oKzHF+SJBMDRFMhMyuQ+J1yBeGUU5PgU2An8DxircSwA9PZCZk4dmTl1PPX2TgweeianhjFrYgSzJkYwdaxICAajAP8AWY+XO9gIypM7AyASAJEACPLlAOnAn4HHAXnnrRTWZbWxPrOK9ZlVPPnWTowGNyaNDmXmhAjSR4UwcVSorFv0BMlHiz9ifOp4Ro0cJfvInRqCA+Vd51tbW0ttTQ2hYWEKRSTI0djYSEVFhaw25D4n1NLd001+cT65Bbmq9yUSAEEJVqSKgV8BbyElBA7J0tVzJCE4LDLUi/RRoUwcFcLElFDSR4USHGDUMErnU1xaTHFpMd+t/o7U5FQmpE4gKiJK67COCA0OxU3vRo9t4JXjNmxYz2WXX6FgVMJAbdywXlZ5Zr1OT2hIqIIRyVdRXUHm3kx2Ze/CYrHPkWeRAAhK2gVMAW5CukzIKd4uVdR28PXPJXz9c8mRr8VF+TIhJYSk2ABGDQ8gKS6A5LgAjAZ5JWVdXaelk227trFt1zbCQ8MZnzqetFFpmh+5cndzJzgomJq6mgG3sX79OpEAOIj169bJenxQYJBDzFSZO83s3rebzD2ZVNbYvxS6SAAEpdmA94ClSEsCdwNOd96m+GArxQd/W/3NTa8jLsqXlOGBpMRLCUHK8EASY/zw9zFoFKnjqq6tZvmPy1m5diXJCcmMHzOe4bHD0eu0OX0cERYhLwGQOegIypH7bxERFqFQJP3X29tLUUkRO/buICcvh+4e7Y4xiwRAUEsT8AjwPPAgcB/g1PPqPbZeCspaKChr4ZujZgsAPI1uRIZ6ER/lR/xQ30MffkSEmIgM9SYuyhfdIC073tPTQ9b+LLL2Z+Hr40vaqDQmjp1IUECQXeOIjoxm977dA358cVER5eXlDB06VMGohP6qrq4iP1/eTeXRUdEKRdN3LW0t7M7ezbbd22hsarR7/yciEgBBbbXAY0jHBR8Gfg94ahqRCjotPRSVt1JU3gpbjv++j5cHwyJ8CA82MSTYRGiQidBAT4YEmwgLMhFy1H97m+z/a6nX2yc7aW1rZf2W9WzYsoHYmFgyJmeQEJdgl75jhsbIbmPVyhX8/uYFCkQjDNTKH1bIvp45Jkr+c6GvikqKWLd5HUWlRfa+Vvq05VJFAiDYSzFwJ/B34I/AHYC8s1lOpK3DSnZhI9mFp8/8vTzdCQsyERxgxMfkgY+XOz5eHvj7GPDz8cDb5IGPyQM/H+lr3ibp+75ev65p+vsa0B815RDga/jNDESg328nY8ICTZRWyaut3h+99B7ZOJgQm8C8i+fJrtd/OuGh4RgNRixdA99g9flnn4kEQGOff75I1uMNBoNdlgA6LZ0s/nYxeUXyZitkaES6zO2kRAIg2Fs10t6Ap4HrkKoJpmoakYPp6OzmQEXroLkJseBAAe988g43X30z3l7qVXHU6/TED4snJz9nwG1s376NosJC4ocPVzAyoa9KSkrY/MsmWW3Ex8Sj16u7D6XD3MH7n71PVW3V6X9YPadd7xJ3AQhaaUdaFhgDzEIqKtShZUCCdmrqa/h6xdeq9zMifoSsx/f29vL5os8Uikbor8WfL5I9jZ4Yl6hQNCf37apvtR78Ab443Q+IBEBwBGuBa4Fw4AZgJTDwA9uCU8rJz6HwQKGqfSjx4v/5os+w2cRtlPamVPIlNwk8nQNlB8jKzVK1jz44CHx4uh8SCYDgSNqAhcBcIBp4ANihaUSCXWXuzVS1fX8/f6KGyCtQVFpayvffLVMoIqGvVq74gaJCeQliRHiE7LLQp6P2c7gPeoAFSLOspyQSAMFRVQIvAxOBFOApYI+mEQmqyy3IVf1c9Oik0bLbeOnFFxSIROgPJf7OU5PU3W7UY+uRtcdEARakvVUr+vLDIgEQnEEO8ATShUMxwB+A/9/evYdFeZ6JH//OCMNBVBAU8YQnFBTxhAdQY9QkJjGJSUxM1WhMtm7TtNtu2iZNGrPdbfprEnPYbLs5dpuY2Dbn3Wy6baJJU41GMSIeQFBAEVAQEeTMzMDM/P54wRpEBd7nnXdmuD/XNZdeHu7n5jA89/scP6YLFa7wL84WJyUnSwxtIzkxGQv6tj0eOniQzz//TFFG4kq2b9vGvsxMXTEsWJQUf51paWmhpr6Gg7kHsTvshrTRBVvRHpi6PE8iBYDwN6VoiweXATHAtcDTaEWCCACFJwoNjR/ZP5L4EfG64zy3caOCbERXPPfsM7pjjBw+0rAbAKvOVdHY2Gh48dqJc2j3r0xDmzrt1uIDKQCEP7MDn6MdNDQRSEQ7X+APgNffiUKNguPGX72bOiVVd4y9e7/mr3/9XEE24nK2b9vGrq926o6TmqL/a96Z1tbW85dMlZaVGtJGBy7gE+BOYAjwHbR7WLpNCgARSI4Cr6DNgcUDw4AVwK/RFhPK0m0/UFFZQX2DsWcgTJowSckFRY88/BAOu2lDvgHP6XTy6E8f1h0nNCSUSRMmKcjoYu0HS9kddiqrKg1po81JtNHOccCNwAeAU09AKQBEICsD3kc7eTAV7XbCZcBGtJGDKvNSE5fiwWP4NEBQnyBmpMzQHafo+HF+85tfK8hIdOalF/+T/PyjuuNMnzyd4GBjbv+zO7UCsLSs1IijfpvRRjQXoa1/egQ4oSq4FACiN6lCWzz4U7S1AzFoIwXLgJ8DH6HwzSV6rqDI+GmAOdPn0Meq/3rnF55/nuITJ/QnJL6htLSU557Rv87CarWSlpqmIKOLefDgdGgP4YqH//ehnZI6FG1E829c4VjfnpCjgEVvV9L2+viCP4tCW1QzFUgCxqOtLxjs9ex6qfxj+bS0tBj21AbQv19/JidN5sDhHk2fnme3N/PwT37MO+9/gKW3XvmomMfj4acP/YTm5mbdsZITk4nsb8zef4fTgdvjxuVyUVxafOX/cHm1wFvA7+jCMb4qyAiAEBc7B3wBPA+sBxagnVIYiTaVsAJtKG4zWqXuvVt0egmH00FeofEbOxakLcBq0f9j8K9//ZyXX/xPBRkJgNdefYWtWz7VHcdisTB/1nwFGXXO3rb+o/hksa5LptpsBH6Alzp/kBEAIbqjFq3D73g6oQVtwWE8MLztNRLtNMPhbb8O8V6ageFAzgFSklIMbSNmYAyTJ07m4GH9P3Of+MW/MWvOHFJTZyrIrPfan5XFv/38X5TEmpw4mSGDjXnrefCcLwCOHtO/TgEw/jKMDqQAEEI/D9oK3ZOX+TchaEVCe3EQ0/Ya1PaKueAVjYzOcezEMeob6ukX0c/QdhalLyI7L1v3+f4tLS2sv+9evti+g6goY/abB7ra2lq+fd86nE5di9sB7fbHhXMXKsiqcy3OFlxuF832ZhXz/wXAYQVpdYsUAEJ4hwM43va6EgvfLAYigfC2X/u2/b4f0L/t9+EX/JtQIBiI6BCv4yToAP5eZLiAug5/X8M3Fx3VA61o244a2/6+qe1VizYN0tT2a23b728F7uvCx9spt8fNwdyDzJs1r6chumRg1EBmTp3Jnqw9umOVlpbywP3fYfMf/khQkPx47Q6Xy8X3vns/xcW659IBSJ2aSszAGCWxOtNk1y4vLSwqVHE51Ee6E+oB+Q4Vwvd4gMq2lz8rRkcBALA/Z7/hBQDA4nmLyc7LpqlZ/43Un23dwg++/z1efPkVWRTYDRt+9iiffvIXJbHCQsNYPG+xklid8kCzXVugqGj435QCoNcPMwohDHMInUc0nzl7hrKKMkXpXFpYaBiL5i5SFu+9d9/hV798Qlm8QLfxqSf57WuvKou3cO5CJQc9XYrdacftdlNdU83Z6rN6w1UAGQrS6jYpAIQQRnpXb4DdmbtV5HFFs6bNYsTQEcri/fvzz/HySy8qixeo3nzjDTY+/ZSyeHGD45g9bbayeJ1pbNbuITuUq+SC0rcx6ZRSKQCEEEbSXQBk52VTW1+rIpfLslgsLFuyTMnhQO1+/vgGXnv1FWXxAs0br/+Ohx/6sbJ4VquV2268DavVuK7N5XLhsDtobGpUdWDVJhVBekIKACGEkY5w8bbJbnG5Xezau0tROpcXOyiWq9KuUhbP7Xbzs0d+yq9++YQRx8T6tY1PPclDP/4RLpdLWcz5s+YTNzhOWbzONNub8eAhOy9bRe5ZeHHff0dSAAghjPZfegNkHsxUskCvK65Ou1rpVADA8889yz997wFaW1uVxvVHLpeLn/zoQaXD/gBDhww1dNsfaHv/G5sacbY4yS3IVRHyDRVBekoKACGE0f6AztMSnS1O9h7cqyidy7Nardxx0x2E2EKUxn3n7T+y9u7V1NTUKI3rT2pra7lnzd1seuN1pXFtNhsrbl5Bnz7qpm86Y7fbaXW1kpufq+KsAgfwRwVp9ZgUAEIIo9Wj4Addxr4Mrz1BD4wcyLLrlymPu3XLpyxaMJ99mZnKY/u6/VlZLFowX9lWvwvdct0tREdFK4/bUUNjA263m+y8bBXh/heoVhGop6QAEEJ4w2t6AzQ0NnhtFAC0Y2TnzpyrPG5JSQk3L72Bl196sVesC/B4PLz6ysssvWGJskN+LjRn+hymTJyiPG5Hzhbn+aH/xqZGFSF/oyKIHlIACCG8YR/wtd4g23ZtO38Aizdct+A6Ro8crTyu0+nk8cd+xsq7VlBSUqI8vq8oLS1l9cpv8dijjyg53rej+OHxXL/oeuVxO1PfUI/T6WTfQV1rWtvtAXaqCKSHFABCCG95Rm+ApuYmtu/eriKXLrFaray6bRWxMbGGxP/8s62kz57FxqeexOnQfZucz2hpaeHVV15mXtpsJbf6dSYqMoqVt65Uum3zUlpaW3A4HGRlZ6kqQJ9VEUQvKQCEEN7yP2iXnuiSkZVB9TnvTZ2GhoSy+vbV9A3va0h8u72ZjU8/xVXz57Ltb38zpA1v+nL7dq6am85jjz5CY6OSofKLhIeFs+7OdYZ9TTqqb6inrqGO7CNK5v6Po70XTCcFgBDCW1zAc7qDuFxs2b5FQTpdFxUZxdo71hIaEmpYG4UFBdxx+63cvPRG/vbFF4a1Y5Tt27Zxy01Luf3WWygoyDesnRBbCGvvWMvAqIGGtXEhZ4sTu91ORlaGqjMLXkB7L5hOCgAhhDe9CZzWGyQ3P5cTpSf0Z9MNQ4cMZc0da7AF2wxtZ/eur7hz+W1cu3ghn/zlzz69UNDj8bDl009Ycu1ilt+2jF1fGTutHRwczN3L72ZY3DBD27lQXX0dpytPc+zEMRXhqjB57/+FpAAQQniTHXheRaAt27w7CgAwcthIVt++2vAiALRtc2tWr2LmjGlsfPopThQVGd5mVxUXF/PMxqeZPXMGq1d+yyvbGoODg1l12ypGjRhleFvtHE4HDqeD3fuU3UfxNDrPxFApkO+q/D2wWsf/X9MWQwihVhhQCAzVG2jdXesYGz9Wf0bdVHKqhM0fbMbusHutTYvFwqxZs1lx17e47volxMXp/vR1y+nT5Xy2ZSvvvvsOezJ2e3VkIsQWwt3L7/Zq5+/BQ+XZSopPFfPxlo9VhCwDxgHe28ZyBUFmJyCE6HWagV8Aum/JyTqUZUoBMHLYSO69617e+uAtVXvCr8jj8bBnTwZ79mTAj2BcQgLz51/F/KsWMHfePKKj1R6EU11dzVc7d7Ljy+3s+PJLQ+f1L6dveF/WLF/j1WF/gKamJlpaWzhaeFRVyF/iQ50/yAjA5cgIgBDGCQYOAwl6gsQMjOGH3/6hmox64FzNOTZ/uJnKqkrTcmgXFzeUcQnjGDcugXEJCSQkjCc6Opr+/fvTN6Iv4eF9iYiIAKCxsZHGxgYaGxqpq6ujqqqKwsICCvLzOXaskMKCAsrKykz+iLSv75o71jAw0jsL/tq53W4qzlbgdrt57+P3qK7RvevkOJAItOjPTh0ZARBCmKEFeBx4R0+QhkZzp1OjIqNYv3o9b3/0NkUl5s7Rl5eXUV5exo4vvzQ1D1VGjRjFyltXEh4W7vW2G5q0I38BVfv+/xUf6/xBFgEKIcyj+xpUm834xXhXEhYaxroV60hPTTc7lYCRNiONdXetM6XzBwgJ/vtFUMHBwSpCKjlAQDUpAIQQZvmB3gCxg4w5oa+7rFYrNyy6gTtvvlP5LYK9ic1m486b7uTGxTd65YS/SwkJCSE4SOv4FU0/mDdPdRlSAAghzBAN3KM3SOLYRAWpqJOSlMID6x5geNxws1PxO8PihvHAPQ+QMjHF7FQAzp8yqGjnwUpgiIpAKkkBIIQww3cAXeO7NpuNyUmTFaWjzsDIgaxfvZ6F6QtNfYr1F32sfViQtoD1q9d75UrfrgoPD8dqtTI2fqyKqaYQ4HsK0lIqkL87bwf0lJL/AxxSlIsQ4u9swB+BfnqCzJwyk4njJ6rJSDGLxcLokaNJSkiirKKMuoY6s1PySXGD41h1+yqmTpqK1eJbz6MWLHg8HlpdrdgddioqK/SGTAZexIcWA/rWZ1wI0Rt8C4jTE8BisZA2I01ROsaJHRTL+rvXc9M1NxEWGmZ2Oj4jLDSMpdcs5f577mfYEO/u7++OiPAILBYLkxMnqyhQBgJ3K0hLGRkBuDQZARDCGJvQOR+alJDErGmz1GRjMIvFwvC44aROScXZ4qS8otynz/c3ktVqZebUmay6bRWjR47GYvHto2gsFgsutwuLxcK52nMqzgMYB7ykIDUl5BwAIYQ3LQam6g0yd+ZcBal4V1hoGDddcxPzZs5je8Z2sg5l4fa4zU7LKywWC5PGT2Lx/MXEDIwxO51uiQiPoKmpiSmTplB4olBvuETgRuDP+jPTTwoAIYQ3Pag3wLAhw4gfHq8iF1NEDohk2ZJlpKWmsSNjB9l52bjcPnE7rHJ9rH1ITkzmqjlXMThmsNnp9EhQUBC2EBuDogcxZPAQTp/RfZnlg0gBIIToZdqffnQJlAN3BkcPZvnS5Vx71bXs3rebfYf2qTp1znShIaHMSJlBWmoaA/oNMDsd3fqF98PhcDBl4hQVBcBiYAoKDsLSSwoAIYS3/DM67x8Z0G8AkxInKUrHN/Tv158lVy9h8bzFHM4/TObBTIpLi/HgX+sELFiIHxHPjJQZTJow6fxBOoGg/WCgUSNG0b9ff+rqde/qeBBYpz8zfXx7BYY+ei8D+g2wQ1EuQqhQC+QBpWYn0gMxQDE69/5ft+A65s+eryYjH1ZTV0POkRxyjuRw6vQps9O5rKFDhjI5cTLJiclE9o80Ox3DNDU3ca72HNl52Xy19yu94ZzAKKBcd2I6SAEghP/ZBzwJ/Df4zWPiBuAJPQFsNhsPffchQkNCFaXkH2rrayk4XkDB8QKOFR/D4XSYmk+ILYQx8WNIGJ3A+DHjGdDf/4f4u8KDh9NnTuNwOPj9h79X8XX4f2jvC9NIASCE/3oPuBdoMjuRKwgBitC593/O9DksvWapmoz8lNvjpqKygpKTJZSUlXC64jRnz509f3OdalarlZioGIYMHsKIYSOIHxZP7OBYnzu0x1vqGuqob6gnY18GBw4f0BuuChiJie9fWQMghP9aAfQFbgF8eT/ZSnR2/laLlbRU3z/4x2hWi5W4wXHEDY5j9vTZALS6Wqk8W0lVTRXnas5RU1dDbV0tTc1NNNubaWpuwuVyXfTEGmILoU+fPoSHhRMWGkZ4WDj9+/UnakAUUQOiiI6KZlDMIIL6SDfRLiI8gobGBpITkzmUe0jvNs5oYC3wiprsuk++skL4t6Vot+q9YHYil/EdvQESxyWqupUt4AT1CSIuNo64WF01lugCq9VKeFg4Ho+HMfFjVJwL8I+YWAD0znEcIQLLBsBXz5mNBWbrDTJ+7HgFqQihX0R4BBYsjBw+UkW4aYBpZyFLASCE/4sGrjE7iUtIQsFao0+++ISSUyUK0hFCn6CgIKprqtn59U5VIU270UoKACECg68ejK9kZMLhdPDW+29JESBMd7L8JB99+hFOp1NVSNNG7wK5APCX7VFCqBBrdgKXoPsO1XbtRUDxyWJVIYXolpPlJ9n07ibVWzGVvUe6K5ALgLNmJyCEF9WancAl5ACNqoI5nA42f7BZigDhdQZ1/s2YeCRwIBcAeWYnIIQX5ZqdwCU40c4rUEaKAOFtBnX+AB8CdtVBuyqQDwIaCpQAfcxORAiDtaKtJD5jdiKXMBbIRvFcp81mY+0da/36ZkDh+0rLSnnzvTeN6PwdQCeSt+4AAAm1SURBVAqQrzpwVwVy51gPxKNtsxAikL2G4qdsxc6hnXm+TGVQl8tFztEcRg0fFdBn0AvzGNj5A/wTsMWIwF0VyCMAAIOAvWiFgBCB6DjaDoAqsxPpgp8Az6gOqnokwOF0kHMkh7yCPCrOVuBwOIjoG0FcbBzTk6czdtRYJe2InjlefJz9OfspqyijvqGe0JBQBkUPIikhieTEZGV3RRjc+W9AuwvAVIFeAIC2x/LPaDcvCRFIjqOdBHjE7ES64cfAs6qDqigCaupqyNiXQebBzMv+0B8aO5QlVy9hTPyYHrcluu9E6Qm2bNvCyfKTl/w3IbYQpk+eTtqMNKIio3rcVmlZKZve26Ryq9+FfKLzh95RAIA2EvArtItTAnnaQ/QOrcDvgMfwjyf/jnyqCCgtK2XX3l3kFuR261KdxHGJLLl6CTEDY7qbquiGqnNVbN22ldyCrq9ztVqsJCYkkp6a3qPvh97Q+UPvKQDaDUF7YpqEtm862Nx0hOiyFuA0cBhtRMu0vcOKmFoEuD1ucvNz2bV3F6VlpT1ur4+1DzOnzmTh3IWEh4X3OI64WLO9mW27trFn/x5cLleP4wyLG8bc1LlMmjAJq/XyG996U+cPva8AEEL4DsOKgDXL1zBqxKiL/s7hdJB5MJOMrAxqamuUtRkaEsrV6Vcza+osgoPluUKPltYW9h7Yy7Zd22i2NyuLO6DfAObMmEPqlNRO1wkY3Pk/hjYK7VOkABBCmOlB4HnVQYODg1mzfA2jR44GoKa2hq8PfE3mwUylnUpH4WHhzJ4+mznT58iIQDc5nA6ysrPYsWcH9Q31hrVjs9lISUohPTWdQdGDAMM7/38BnjAisF5SAAghzPYj4DnVQW3BNm5cfCMFRQXk5efpvbu9223PSJlBemo6kQNki+Ll1NbVsitzF5mHMo3qgDtlsVhIGpfE+LHj+csXf+lVT/7tpAAQQvgCQ4oAs1mtVpITk0lPTWfYENNuffVJ5RXl7MrcRXZeNi53z+f4fZhPd/4gBYAQwnf8M/DvZidhlEHRg0hOTGZ68vReOypQ31BPztEcDuQcoKyizOx0jPQ48Euzk7gSKQCEEL4koIsA0IaeRwwdwbTkaaQkpWCz2cxOyVCtra0Unijk4OGD5BXkBerT/oX8ovMHKQCEEL4nIKcDOhNiC2H8mPGMGz2OhNEJ9IvoZ3ZKSjQ0NlBYVEhBUQH5x/OxO0y778bbfgY8aXYSXSUFgBDCFwX8SEBnoiKjSBybyIRxE4gfHk9QnyCzU+oSt8fN6YrTHCs+xpHCI5SWleLxeMxOy9v85sm/nRQAQghfZcgWQX9hs9lIGpfEtMnTGBvvm/cPFJUUsT9nP3kFeb3pKb8zfvXk304KACGEL+vVRUC7ieMncst1t9A3vK/ZqQDaKX1/2vonso9km52KL3gUeMrsJHpCzsUXQviyDKAWuN7sRMxUWVVJ/rF8UiamEBxk7kmDDqeD1995nWPFx0zNw0c8jo9v9bscKQCEEL5OigCgsbmR8jPlTJ001dQ83v3fdzlResLUHHzEo/hx5w9SAAgh/EN7EbCEXjx1WV1TzchhIxkYOdCU9otPFrN1+1ZT2vYxG/DDOf+OLn81khBC+I4X0LYIemN5uQN4HZgCrATyvdBml+zYs8O0trdnbDet7U4cB9YAk4HfAsZd8vBNj+Jjt/r1lBQAQgh/YnQRUAk8DYwF/gE4BLwDJAEr0DodUxUVF1FdU+31dusa6jhW5BPz/meAR4CJwO+BHOAfgfi2Pz9pYNsb8NMFf52RKQAhhL8xYjrgMNrZ7fcCnwIdr6PzALnAq8BZYDpg2pL80JBQxowc45W2Wl2tNNub2fn1TkpOlXilzUs4C/wcWA1sAzoeKdgEfAW8BBwDxgCxCtt/hAAY9r+QjAAIIfzRC8B30T8S8BVwC9ow8n8BV9rM7gD+AxgJ3INWFHhdVnaWV2439Lg9VJ6tpKauhpwjOYa3dwlFaAdDjQKe5cpD/Q5gE9r0zXzgfS4uFrprA9rIUECRAkAI4a9epWdFgAPYjNbpzwP+1MMYbwHJwLXA/3Xz/+tSV1/H8RPGz0Y02Ztwe9ycOn2Kuvo6w9vrYB9akTUerehq7EGMnWhTN4nAr3sYYwMBMuffkRQAQgh/9iqwjq4tAKtAG0IeAaxFmzvWywN8DtwMpAJv0rNOptv2HdpneBtNzU0AHC08anhbbezA20A62ufzLaBVQdxC4Ido6wQeA8q7mMt6ArTzBykAhBD+7y20p/lNaPPAHe0B7kP74f8LtIV+RtiHVowMBb6NNr1gmLzCvPMdtBFaW1tpaWnB6XRyvNjw0Ya9wANon7tVwG6D2qlC27s/Cm10YTcXj/40o31PpaBNCwWsXrufVggRkELQ5n4HoT2JHwFOm5jPBLSiYBXaugGlblh0A+mp6arDAto0Q31jPbn5uXyZ8aURTZSh7bB4AzWjMT0Vi7bLoy/aQsODXHktSECQAkAIIbxjEnAncBMwQ0XA2JhYvn/f91WE+iYPlFeW43a7+fDPH1JZpWzQ5Djaeon3gV2A8SsZxSXJFIAQQnjHYeBf0ea2E4CHgXN6AlacreBU+Sn9mXVgd9hxu91Un6tW0fnXo92WNxHtfIUfoi3Ok87fZHIOgBBCeF812hPwEGCOnkAWq4UJYycoSapdXUMdra2tZOVkcebsGb3hXkc7Pe+s/syESjICIIQQ5vmd3gDZedm0tLSoyAUAt9uN3a6NABQWFaoIqftjFMaQAkAIIcyTA3ytJ4DdYSc3X915RI1NjXjwUFRaRLNd9/H62Wi7I4QPkgJACCHMpfsJeV+2uj62vdM/UnhERbjfqggijCG7AIQQwlwRaAfTRJidiGJOYBgy9++zZARACCHM1QB8aHYSBvhvpPMXQgghLms+2ol0gfS6RulnSAghhAhQeZjfaat6FSEjzD5PvkBCCOEbNpmdgEJvIAf9CCGEEF0Si7Zwzuynd70vF9rFS8LHyQiAEEL4hgrgE7OTUOAzoNjsJMSVSQEghBC+IxBOzQuEj0EIIYTwqiDgFOYP4/f0dRbtSmbhB2QEQAghfEcrsNnsJHTYDDjMTkIIIYTwRwloK+jNfprvyWuyAZ8PIYQQotf4P8zvzLv72mrIZ0IIIYToRRKBJszv1Lv6siNP/0IIIYQSK4AWzO/cr/RqBVYa9DkQQggheqXFQAnmd/KXep0Elhj20QshhBC9WDhwP9oc+xnMXSDobsvhc+ABoK+BH7cQQgghhBBCCCGEEEIIIYQQQgghhBBCCCGEEEIIIYQQQgghhBBCCCFEr/H/Ad/QAlu4WarsAAAAAElFTkSuQmCC;" parent="1" vertex="1">
          <mxGeometry x="571" y="304" width="85" height="85" as="geometry" />
        </mxCell>
        <mxCell id="ckpoAZdv2tJWgA7Kn1el-10" style="edgeStyle=orthogonalEdgeStyle;rounded=0;orthogonalLoop=1;jettySize=auto;html=1;" edge="1" parent="1" source="eFz6Z1lDjVqoyxP0B4Vr-10" target="eFz6Z1lDjVqoyxP0B4Vr-2">
          <mxGeometry relative="1" as="geometry" />
        </mxCell>
        <mxCell id="eFz6Z1lDjVqoyxP0B4Vr-10" value="Incremental load (COPY INTO)" style="shape=image;verticalLabelPosition=bottom;labelBackgroundColor=default;verticalAlign=top;aspect=fixed;imageAspect=0;image=data:image/png,iVBORw0KGgoAAAANSUhEUgAAAgAAAAIACAYAAAD0eNT6AAAACXBIWXMAAA7DAAAOwwHHb6hkAAAAGXRFWHRTb2Z0d2FyZQB3d3cuaW5rc2NhcGUub3Jnm+48GgAAIABJREFUeJzs3XlcVPe5+PHPDLOwg2yKC6CA4oaKOy4xxsSsTdKq2fc2S9vb3jZr29v2dk+TtLf93bbZbrOn2UzbtEkTs7njhriBoiAKCAiK7Nswy++Po9a4Aud75gzD83695qUi85wHZuA853u+3+cLQgghhBBCCCGEEEIIIYQQQgghhBBCCCGEEEIIIYQQQgghhBBCCCGEEEKFCOAB4FPgCOAFfCY9vMdz+Bz4JhBl4NcthBBCDFiLgArMO+Ff6FENXGnYVy+EEEIMQDcAbsw/yV/o4QFuN+h7IIQQQgwoY4EOzD+59/TRDUw15DshhBBCDCAfY/5JvbePzw35TgghhBADxHjMP5n39THJgO+HEEKIPrKanYDolbvNTkCH/py7EEIIYRoHUIv5V/J9fdQDTuXfFSGEEH0iIwD9xzVAktlJ6BAHXGt2EkIIITRSAPQfd5mdgALB8DUIIYQQfjMEbTmd2cP4eh8eIEXx90YIIUQfyAhA/3AXYDM7CQWswB1mJyGEEEL0F3sw/+pd1aMMKTyFEEKIC5qP+Sdt1Y+LlX6HhBBC9JpciQW+YJw4Jz0BhBDCZBazExDnFQnUHP8zmHQAQ4FGsxMRQoiBKhgmlgWzG9F58k8ZlsLXbvmakmTqjtbR7e7mw88/pPxQuZ5QYWhf2zNKEhNCCNFrcgsgsOkeKp+arW4jvrDQMADGpI9RES4Yb20IIUS/IQVA4BoDzNITwOFwMH7MeEXpQER4BFggbUTayWJAhxnIBkFCCGEaKQAC1z3onKMxMWsiToe69vtWq5VQRyhWq5XMkZkqQkpPACGEMEmI2QmIM6SjDf1/CwjXE+jqRVcTEx2jJKkTLFYLHZ0dRIRHULSvSG+4LMAL1AHHdCcnhBCix2QEIDCMBx4F1gElwFNAvJ6ACXEJjBg2QkFqXxTmCMNqtRI3KI7E+ES94QYBT6B9zfuB3wNzkdUpQghhuIG0CiAU7Z7zieVne4FqE/MZA9wJ3IwB/fGnZk/FYsR51AIRYRG0tLWQlZHFkfojqiKPQhv1+BZwCHgDeAnYreoAfZCMNkoRi7YccwfaEkYhhOj3BsIIQAbwCtoQ80bgr8DnQBWwGe1ee6ifcok6frx1QDHwGAac/EOsIUweP1l12JPCw8KxYCFjZAa2EENqyOHAw0ARsAG4D1B7L+PcnGgrFDahFYifo71nNqC9h/6CVhQIIUS/FuwFwO3ALuA2tLXnp5sO/B9QDvw3kGRQHlPRrmZrjh9vjkHHAWB0+mgiI4zrHWSz2bDb7TgdTtJS0gw7znGz0PoF1ACvATMNOk4i8EPgIPAC2iqF04UCN6GNBNxvUB5CCOEXwVwA3It20u3J1X0S8GOgEm20YKKC41uARcA/gXy0Ge8RCuJekMq1/+cSEa59KVkZfrsYDgNuQRvFyUcr7lQMP2SgzT04CPwUbevlC3EAT6MVDEII0S8FawFwL9pVY29vgjvQRgt2og3TX9OHGE60k1Mh8AlwdS+fr0tkRKSqJXrnFeYMw2qxMjx5ONFR0YYf7zRTgZfR5nF8m74VVnOBt9FuxfR1xcVPkSJACNFPBeMywG8Cf0T/TPIUtOHepUA32mQ093k+3wl8A/gbcCvakLLfzZo6i4y0DMOPY7FYCA8Lx2az0dbRxqGaQ4Yf8ywGAZejFXw+YBsXfo1uRSsevoe2+kJvEXwx2vtjrc44QgjhV8FWANyLmpP/qRLRRgLuQ1uatwdoOeX/rcAStBP/zfhpmP9crl187cnheaNZrVYcdgdJ8UlsLNjol2OeQzhwGdrrb0W7ReA55f9j0O7Zv4k2OtOTYf7euOT48dYojiuEEIYJpgJA1ZX/uUSgDRt/A23J2kFgPrAceADtatRUqcNTmTdznt+PGxoaysFDB2loavD7sU8TgTbv4magAW004Gdo8zquAYy8V7EQcKHdOhJCiIAXLA1X+nrPP6jctuQ2Ro8abcqxD1Qc4IU3XzDl2AHmh8DPzU5CCCEuJBhGAIy+8u8X0tPSuWTuJaYdf1DMIKoPV1PfUG9aDgFiIdCFjAQIIQJcfy8AjLjn3+8kxSdx+9LbsdvspuYxJmMMJQdKaG1rNTWPALAImRMghAhw/bkA+A/k5M/40eO58bobCQ/TtW+QErYQG+PHjKexuZG6o3Vmp2O2hUAnsN7sRIQQ4mz6awHwH2jNWwbkyd/pcDIxayJXLLyCebPm4bA7zE7pJLvdzoQxExg5YiQ+n4/G5kbcnvOtzAtqi5AiQAgRoPrjCXRATvgbFDuIrPQsxmSMIXV4qlE9+JXz+rwcrj3M/vL9FJcWU1ldic/nMzstf/sv4BdmJyGEEKfqbyfRAXPlH+oMZfSo0WSOzCRjZIahvf39qa29jdIDpZQcKGHv/r10dnWanZK/PIq29bEQQgSE/nQivQ+t/3p/yrlXLBYLo1JGMXn8ZMaNGRdQQ/tGcHvclB4oZUfRDvaU7MHj9Vz4Sf2bjAQIIQJGfzmZBvXJPyk+ifFZ48mZmENsdKzZ6Ziio7ODor1FbCvcRkVVhdnpGOkHwC/NTkIIIfrDCTUoh/1DrCFMGDuB3Gm5DB081Ox0AsrhusPk5eexc89OPJ6gHBV4BHjS7CSEEANboK8CMOTk73Q4uebSa7BYLH5vXONwOJgxeQZLv7SUnIk5REVG+fX4/UFkRCRjM8eSMzEHq9VK7ZFavxYCFouFrIws5s6Yy4GKA0Yc+1KgHchTHVgIIXoqkK+qDRn2d9gd3LbkNtJGpAHQ0NjAlh1b2LJ9i6ET0iLCI5gxZQazcmYFxJr9/qTL1UXBrgLWbV5Hc0uzYcex2WxMGDOB+bPmkxivbeZYXVvNi2++aNR7Q24HCCFME6gFwLeA32HAlf/tS28nZVjKGf/X2dVJ/o58NhVsorG5UdkxQ52hLMhdwIwpM0zv1NffuT1utu7YyufrP6e9o11Z3OjIaGbmzGT65OmEhYad8f+Hag7x0lsv0eXqUnbMUzwMPGVEYCGEOJ9ALAD8fvI/ldfrZfe+3eTl51FZXdnn41mtVqZPns7COQvlil+xzq5OVm9YzcatG3U1GRo6ZCi503KZkDWBEOv574ZVVlfy8tsvG1UEPAT8xojAfjIYuBoYf/zvUumK/qIbqAN2Ax8A1eam41+BVgCYevI/XWV1JXn5eezetxuv19vj540eNZrLL7785DCyMEZDYwMrVq+gaG9Rj59z4v5+7rTck7eBeqqyupKX3n4Jl8vVy0x7pD8WAXFoyxq/CvSPzlRCnJsHbevwx9CKgqAXSAVAQJ38T9XY3Mimgk3k78g/773gIUlDWLxgMRlpGX0+lui98kPlrFi14rwjNg6Hg5wJOcyeOpu4QXF9PpYUASdlAv8C5M0ugk0FcBVQaHYiRguUAsCwk/9tS24jdXiqknhdri6K9hZRXFrM4SOH6ezsJDIikuTByUwZP4X0kelYAuZbOvAcqDhAwa4CqmuraWltITQ0lKT4JMakj2Hi2ImEOkOVHMfgIuBB4LdGBFYoDtiEnPxF8KoAphPkIwGBcLa6A3gR1bP9HQ5uX3K7spO/EKcyuAi4B3jBiMCK/BH4utlJCGGwl4C7zE7CSGYXAJnATkDNpdlxcvIX/mBgEdAJZAMlqgMrkAhUIRP9RPDzAKlo7/egZHYjoN8BU1UGlJO/8JeYqBhGpYxiV/Eu1c2CbMAg4G8qgyqyDPiy2UkI4QdWtCI83+xEjGI18dihwBKVAeXkL/xtxNAR3LH0DhwO5Rs3LQHObEpgvrFmJyCEHwX1+93MAmASCn/ByclfmCVlWIpWBKjdvTEUmKwyoCLRZicghB8F9VpuMwuAJFWB5OQvzJYyLIU7likvApT9jCgU1LOihTiN2fPkDGVmAdCmIojD4eC2r6hb6idEX6UMS+HaK67Fblc2P07Jz4him81OQAihhpkFQBHg0xvk8gWX97qjmxBG6HZ3kxCbwJzpc1SFDMRGJJ8CR8xOQgihn5kFQC2wQW+Qvfv3KkhFCP1a21rx4aP8ULmKcJuAwyoCKdYF/MTsJIQQ+pndv/sZIFdPgH1l+zh67CgJcQmKUgoe3d3d1B2to76hnobmBhqbGmluaaa9o532jnY6Ojvo7u4+Y0MdW4gNu91OaGgoEWERhIWFER0ZzaCYQcTGxBI/KJ6khCTV97v7Na/XS0dnBy2tLRysPKgi5LMqghjkaWAhshxQiH7N7AkODuAAMFRPkOmTp/Oly76kJqN+yuv1UlNbQ0V1BZVVldTU1XCs4RheX883MeoNi8VCXGwcyUnJjBg2gpRhKSQPTr7grnrBqrm1mZbWFvK25LFzz0694WrRGpAYsvWgIqHAc8BtZicihIHeBG4yOwmjmD0C4AL+APxST5DtRdtZNG/RgNt2t6GxgX1l+yg5UMKBigO4ug1pS3tWPp+P+oZ66hvqKdyr3aq22+2kjUhj9KjRjB45WtemO/2JDx/tHe24ul0UlxarCPk0gX3yB61b4e3AO8APgBmYf0EhhOiFQPiBjUPbeCFCT5BF8xZx0eyL1GQUwI41HGPX3l0UFhdyuC4QbxH/2+CEwUzImsCErAlBfYumrb2NxuZGdu7eSV5+nt5wnWhX//1tud1QYBxaB0MhAsUc4Ns6ni8jAAY7BryMzs1FNm3bxNwZcwkJCb4h6O7ubgr3FpK/I5+Kqgqz0+mx2qO11K6r5bN1nzE8eTjTJk1jYtZEI7rmmaqtvQ2fz8eu4l0qwv2F/nfyB6g+/hAikATCOS5gBco353fA/ehYldDS2sLOPTuZMmGKuqxM1tjUyIatGyjYVUBnV6fZ6ehyqOYQh2oO8eHnHzJlwhRyp+UyKLb/Xyx2ujrpdndzoOIALa0tesP50H4WhBDCcIFSAJQA7wO6ZvLl5ecFRQFwuO4wazauoWhfEV6vMZP4zNLl6mJjwUY2b9vM2NFjmT9rPkMH65oDaqrW1lYAFRP/QFtjr2QYQQghLiRQCgCA/0FnAXC47jBl5WWMSh2lKCX/OlJ/hDUb17Bz907DZu8HCq/PS9HeIor2FpGems7iBYtJHpxsdlq90u3uxuVycaT+iKr5GL9VEUQIIXoikG6YH0QrAHSdBTo6O8gel60kIX9pa2/jw88/5L2P3qOmrgaf/gaJ/UpDUwP5O/NpbG5kxNAR/WaOQHNLM93ubjZs3cCxxmN6w+0BvqsgLSHEv00EvqLj+YXAu4pyCTiBNAIA2hXQa3oC7Nu/jyP1R0iMD/xNnLxeLxu2bmBV3qp+f49fL5/PR8GuAor2FnHR7IvInZ4b0D0FTjT+aW1rpay8TEXI36OgNbYQQvRUoP2GLQbuBGL0BPH6vIxJH6MkIaMcPnKY1//6OtsKt53RiW8g83g87C/fz559exg6ZCjRUYG5+2xLWwtdri4KdhVQU1ejN9wx4C6gW39mQohTyAjAeZi5F8DZdAN/1Btke+F22jvaFaSjnsfj4ZM1n/D0y09TdbjK7HQCVu3RWp5/7XlWrFoRcAXSicY/brebPSV7VIR8hsDc+U8IEcQCrQAArb2orl+G3e5uVbOylTp67CjPvf4cazauCbrZ/Ubw+rys27yOZ199lrr6wFka39HRgcfjoay8jC6X7oZ9LhQUvUII0VuBWAA0AC/qDRJouwRuL9zO0y8/TfVh6ZXSW4frDvPMy89QsKvA7FQAbdc/gAOVB1SEewtpoCOEMEEgFgAA/09vgLqjgXHF6PF4eP/T93n3X+/6tVd/sOl2d/O3D//GeyveM/WWwInGP4CKmf+g4L0uhBB9EagFwAS9AVwu80+27R3tvPjWi2wq2GR2KkEjf0c+L7zxwsmrcH/rdv17nl53t5I5exNVBBFCiN4KtGWAoK1M+JneIJERkQpS6bv6hnpeWf4KxxqUXCXqMmzYMDIyM0lPzyBz9GgyMjKJi4sjNjaW8PBwwiMiiIjQ9mJqb2+nva2NtrY2GhsbaWxspLS0hJJ9+ygtLaG0pISqqip8PvNWrFVWV/Lca89x25Lb/L7cMyI8gtb2VrxeL2GhYSomm/4Yrf9/oO/+J4QIMoFYANwCjNcbxMyucodqDvHq8ldNW4kwZkwWc+fNY+68+cyZO5e4uJ5vyxseHk54eDgJiYmkHv/YRQsWfOFzGhsbyVu/jrVr1rB2zRr27i32e0HQ0NTA868/z61fuZWUYSl+O67VaiU6MprG5kYS4hKob6jXGzIVbR+M3+vPTgghei4QtgM+lQOtF8BIvYHuWHoHGSMz9GfUSwcrD/Lau6+pmB3eYxaLhVmzc1l2ww0svvxykpIG++3YAEfq6vjkk49568032JCX59cVDg67g5u/fDPpqel+OyZAXX0d5ZXl/OPjf6gIVwtkAObc1xAieN2ENsLWV0G9HXCgNQJ6ALhZb5DkwclctuAyLH6ub/aX7+e1d1/z22S/kaNGcd/9D/D7//0jD3z9G0yaNJkIE259REREMDE7m5tuvoUbb76F+Ph4ampqOHbM+NsfHq+Hwr2FJCclkxCXYPjxTrDZbISEhFBRVUFbu+4l/JFAO7BWf2ZCiFNII6DzCKQRgFCgDJ17AQDcdcNdft8Q6GDlQV5Z/oqqiWHnNXXaNL774ENctvhyLJZAegn/zefz8dmnn/Dbp55i82bjJ0HabDZu/cqtfh0JONpwlIMVB3lvxXsqwh0B0tAKASGEGjICcB6BtArgVhSc/Mekj/H7yf9QzSFee/c1w0/+c+fN469//wcrPvmMxZdfEbAnf9BuSyy69DL+teJj/v6P95l/0UWGHs/tdvOXv/6F8kPlhh7nVDFRMSQPTmZkiu47VgCJwN0qAgkhRE8ESgFgQcFOaCHWEBYvWKwgnZ6rb6jn1eWvGnrPf/ToMfztvX/65URqhBOFy3v//ICsrLGGHcfV7eK1d1/zW9dAu81OWGgYs6bOwmpV8qP0XQJzYq4QIggFSgFwFaD7zDB98nS/Lgtr72jntXdfM2y2f2hoGI88+hir1qxl3vz5hhzDn+bMncuqtev4xa8eJzLSmLkKnV2dvLr8Vb/1CYiKiCI2KpYJWbpbV4A2+XWZikBCCHEhgVIAfEdvgFBnKBfPuVhFLj3i8Xr4y9/+wtFjRw2Jf9niy9mweQuPPPY9HE6nIccwg81m4777H2D9xs1cfsWVhhyjsamR1//6Om638R0D7XY7TqeTqdlTcap5nR5WEUQIIS4kEAqAKcBCvUEumn0R4WHhCtLpmY8+/8iQ+80Oh4Nf/OpxXn/jTUaMGKE8fqAYNmwYr/3lDR5/4klDCpxDNYd4/9P3lcc9m6jIKJwOJ9Oyp6kINxnIVRFICCHOJxAKgP/QGyAiPIKZU2aqyKVHdhTtYGPBRuVxU9PS+ODDFdx3/wMBPcFPpa9+7V4+/Ohj0kYqmUj3BVt3biV/R77yuKdz2B04HA7GjR5HWGiYipD3qQgihBDnY3YBEAks1Rtk5pSZ2O12BelcWH1DvarmL19wxZVXsXL1Wqbk5CiPHegmTZ7MytVruerqa5TH/uCzD6g9Wqs87ukiwyMJCQlh4lglrf2XAj1v3yiEEH1gdgGwDK0I6DO73c7MHP9c/Xu9Xpa/v1x5o5+bbr6FF19+hejoaKVx+5OoqCheeuVVHvj6N5TGdbvdvP2Pt0/u4GeU0NBQQkJCGD9mvIpiNAy4TUFaQghxTmYXAHfpDZAzMcdv9/5Xrl/JoZpDSmM+/Mij/O8f/4TNJqu/LBYLP/vFL3n0e99XGrfuaB2frf1MaczTWbAQGR6J0+FkbKaSpY5yG0AIYSgzC4DRwBw9AaxWK3Om6wrRY4frDrN2k7pOrVarlV8/+ZTyk10wePiRR/nNb39HSIi6TtUb8jcoL95OFx4WjgUL2WOzVfQFGIs2QVYIIQxhZgFwJzpbEU/ImsCgmEFqsjkPr8/L3z/6Ox6vR1nMn/3il9zz1a8pixds7rjrLp586rfK4p18DT3qXsPTWa1WQp2hREZEqtqI6kYVQYQQ4mzMLAB091eePXW2ijwuaFPBJqoOVymL9/Ajj3Lf/Q8oixesbr/zTqUjJLVHasnLz1MW72zCw7XbUdljs1WEu4HA2q9DCBFEzCoApqBtfNJnifGJDE8eriab8+jo7GBV3ipl8e646y4Z9u8F1cXSqg2raGltURbvdE6nE6vVSkJcAvGD4vWGSwX8U+UKIQYcs2aeXas3wOTxk1XkcUGfrftMWavfK668iiee/I2SWAPJz37xSyorK/nXB/ob+7hcLj5d+ynXX3G9gszOZMFCeGg4re2tjEkfo2LE4ZtoSwLDgVgg4vgjEog5/vGI43+PBOyA8/jHTwgBTl9iEsO/LwB8QONp/98GnLrcpRtoPeXPJrSdC9uPP7ft+N9bgOZTPn4UqD/+p3H3X4QQvdYvCwCLxcKk8ZNU5XJO9Q31bNm+RUms1LQ0/vj0M0ontg0UVquVP/zpaRYuKOLggQO6420r3EbutFwGJw5WkN2ZwkLDaG1vJWNkBhu3bsTr8+oJdxPGb0dqAU6fTGPE5JoThcCpRcGRUx6Hjj8qgE4Dji+EOIUZBUAaWrvTPhuVMoqYqBg12ZzHyvUr8Xp1/fIGwOF08ucXXhrQ6/z1io6O5s8vvMQVl1+Gq0vfzos+n4/P133OTdcbc161O+yEhIQQHhbO8KHDqaiqMOQ4/VD88ceYHnxuHf8uCMr5YnFQcfzv+n84hRjAzCgA+sXwf119Hbv27FIS6yc//RmTp8iKLr0mTZ7MT3/2cx57RP9+OXtK9lB9uJqhQ4YqyOyLLFgIc4advA0gBUCfJB1/nKs1ZidQAuw7/igBio//vd4fCQrR3/mzABgH3IO2/K/PHA4H48aMU5LQ+azduFbv0C0Aiy+/gq/dKz1dVPnq1+5l1cqVfPThv3TF8eFj9cbV3HSdMaMAoc5QWttbSRuRhtPhpMulb9RCnCEUmHj8cbpjaIXAXmAPsA3YjjaqIIQ4zugCIBptKdPdwCwVATNHZuKwO1SEOqfm1mZ2Feu/+g8PD+fXTz6lICNxql8/+RRr16ymra1NV5zikmKONRwjbpD6tvsOpwOrxQohkDo8lX1l+5QfQ5xTHNrvm9N/51ShFQMnCoJtgP5JJUL0U0YsA7QA84GXgRrgORSd/EErAIy2cetGJQ1jHnn0MYYPN36p4kAzbNgwHn7kUd1xvD4v6/PXK8joTBYsOI9vczxiaPBu69zPDAOuBn4IvAuUAQ3A58BTwHVAomnZCeFnKguAZOBRtGG31cDtfHEpkhIZaUo6rJ2Tx+OhYFeB7jhZWWO574GvK8hInM39X/8G48eP1x1ne9F2w4bnnfbjBcCwEQNme+d+KBa4GHgQ+BvabYL9wCvAvYD+N5kQAUpvAeAAvgK8D1QCjwOGXaInxScRE23s7P+ifUW0tesbWgZ44qmn/LZF8UBks9n45eNP6I7jcrmUTfY8ncOp3aoKdYaSGC8Xlv3IKLTdGJ8FCtFWHLwBfANtLpMQQaGvBcAE4LdoPxjLgavQmo0YKnOU8cP/+Tvydce4aMECcufMVZCNOJ85c+cy/6KLdMfJ36n/NT8bu81+su+D3Abo14ah7cvwB6AIbd7AH4Er0LZuFqJf6m0BMBH4GNgFfAc/3y9TtMHKOTW1NHGw4qDuON99UP8yNdEzDz70iO4YVTVVHKk/oiCbM8UPiiciPILUEamGxBemSAO+DvwLrZnRP4H7gRQTcxKi13pTANwEbAEuNSiX87Lb7KQNTzP0GIXFhfjw6YoxY8ZM5syVq39/mTN3LjNn6p9jWri3UEE2Z7Lb7MRGx5I9LpuwULlYDELhaBMLn0ZrWLQT+Dlyq0D0Az0tAC4DXkXrMW6KMRljsNmMXbVYWKz/JPDdhx5SkInoje8o+J4X7jGmADghxBLCuNFyThgAJgI/QLtVUAB8F1DfbUoIBXpSAEQCL+CHe/znkzPxXA3B1GhubaaqRt+WvxmZmVyyyJQBkgFt0aJLGT26J91lz62uvo6jx44qyujsjH4Pi4AzBfgNWuviT4A7gChTMxLiFD0pAO5AmwRjmqyMLMPX/5eUlege/l92w42y3Msky268UXeMkgMlCjI5t5RhKX7ZxEoEnBBgEfASUIu2ouBiMxMSAnpWAHzF8CzOIyk+iWsX694+4IJKyvT98rdarSxddoOibERvLVm6DKtV36pWf3Tru+qSq0genGz4cUTACkNbUfA52hLDB5BRAWGSntxUN+2SJXNkJkuvWWr45Cmfz8f+8v26YuTOmcOIEbLUyyzDhw9nzty5rF2zps8xDlYexO1xYwsxbq5JWGgY99x0D+9+8C57SvYYdpzziYsNpX7Ht7/wscbmLny+f4+ANbV04fX++98tbS7cbm1vjPYON63tLlrbXDQ0ddLW3k1rezetbS4am7tobXMd//9umlq6aGrp4vCRNlrbXP75AvuP8cCfgF8BzwC/Aw6bmpEYUC70m+5s+4QbymKxMDJlJPNnzSc9Nd0vx6yrr6OzS9/248tu0D8ELfRZdsONugoAt9tN9eFqUoYZu5rL6XBy8/U3c6DiAKs3rqasvOwLJ1+jNTR14nZ7sdn+PWISG/3F+b2DYkKVH7ej082RY+0crmvjyLF2jtS3U1ffTu3RNo7Ut3PkWAfVtS1UVDXT2DygNk+KQeui+m20FupPoLUpFsJQPbnU8ctN7ejIaCaNn8S0SdOIi1W/Ocv5VBzSt12rxWLh0ksvU5SN6KtLL70Mi8Wi62RaUVVheAFwwsiUkYxMGUlzazM7inawZccWGhobDD+uzwdePxYcJ4SF2kgZGk3K0OgLfm5nl5vq2lbKKhqPP5ooq2ikuraVmrpWDlQ2YsKXYLRQ4D60zdPeBH6MbFYkDOTP7YDPPHiIjbGZY8nJziE9Nd20CXSV1ZW6np+VlUViUpKibERfJSQmMnbsOHbvLupzjMoqfe8WHYJwAAAgAElEQVSFvoiOjGbezHnMnTGXsooyCnYWsLtkN2632++5BIpQp41RKbGMSok96/+3trnYd6CB4v31FO07SnFpPbtL6iktbzh5q6Ifs6O1Il6K1nHw50CjqRmJoGRKAZCclExOdg6Txk0KiOYoh+v03XabN19/O1qhxrz583UVADV1NQqz6R2LxUJ6ajrpqel0dHawc/dOCnYVUF1bbVpOgSoywkHOhMHkTBj8hY+7uj2UHGhgT2k9e0q14mBbUS0lB471xxGDULRNim4Hvo+2HLvfVzcicPitAAgLDSN7XDY5E3MYOjhw+mJ4vB7dbWDnzZ+vKBuh17z583n2maf7/PzGpka6XF04Hab1vAK0n5eZOTOZmTOTmroaCnYWsL1ou+65KsHOYQ9h/OgExo9O+MLHm1q62LrrMFt21JC/U/uzvKrZpCx7LRF4Hu32wL3ANnPTEcHC8AJgVOoopk6cyrjR4wzv5NcXR48dxe3p+1Cr1Wpldu4chRkJPXLnzMVqteL19u1CyYePuqN1AbV5T3JSMlctuorpU6ZTXFJMcWmx7ttWA01MlJOFuakszP33ngxH6tvJP14UrNlUyYaCato7uk3M8oKmAZvQVg38HAjoZEXgM/SMbMHCXTfcZeQhdDvWcEzX84cOHUZs7NnvUwr/i46OZsSIEZSXl/c5Rv2x+oAqAE4ICQkhPS2d9LR0nnvtuT4XOUKTGB/OFQtGccWCUYB2+2Dz9hpWbqhg1YYKNhRU0dEZcPMw7MCPgGvR9mcxZy2pCAqBd0nuZw1N+mZdZ2Qav0Wx6J2MjExdBUBDs/Ez8UXgcdhDmDt9OHOnD+eH38qly3WiICjnXyvL2LKj5gu9EUw2CdiMdlvgLybnIvopfa3TgkBjk77JtaNHj1aUiVAlU+dr4o+leCLwOR0hzJsxnB99ew4b/34b1Vu+wf89cQXXLc4kItxudnqg7dPyOvAH5GJO9MGAf9M0t+ibCCQjAIFH72ui9z0hgtPghAjuuSGbe27IprPLzed55fzjk1L+9tE+6urbzUztG0AacAPQZmYion8Z8CMA7Z36fnDT0zMUZSJU0fua6H1PiOAX6rRx5cXpPPPLxVRt/gb/enkpt1w3zsyRgauAlUDChT5RiBMG/AhAW7u+gjkhMVFRJkKV+IR4Xc9vb5cCQPSczWY9OZmwo9PN+5+V8sq7haxYfYBu/zYlmg58CiwE9M1uFgPCgB8B6Ojs0PX8yIgIRZkIVSIj9W2upvc9IQausFAbS6/K4p8vLKFs3f384BszSYrza7OzScD7aPMDhDivAV8A6G23GhkpP2eBRu9r0u2W5dVCv+HJUfz8kQVUbnqAt/9nMbmTBl/4SWrMBl7DT/u4iP5rwBcAHq9H1/MjImUEINDoLQB8Pp/u94UQJzgcdpZ+eTLr37mRvFe+xNXz/bLZ1LXA9/xxINF/SQHg7vsvepvNRmgA7GUgvsjhcOBw6mvl6/FIASAUc4YyOzedf/7v5Wx89UtcNnuY0Uf8GTDP6IOI/mvAFwAiOFlk9FMEIrsDoqKYmT2YFU9fwdoXr+aiqclGHc0KPAeYu7GFCFgDvgAIsYX0+blut5tOmTAWcFwuF106N80JCen7+0KI8wqxQWQ0WCzMnTKEVX++itd+uYDB8YaMJmYBjxkRWPR/UgBY9f2ib2uVvhuBprW1VdfzLRaL7veFEOdls0FE5MlperdcmUHx35fyrZvHY7UqH716COkPIM5iwBcAenco1HuyEerpfU3stoBo8yqCnd0Bzn9f9cdGOfj9I7P5/PkrGZKgdDQgEvimyoAiOAz4AiA8NFzX81ukAAg4ra0tup4fJhM7hb+EhmujAae4aGoyBW9ez5zJSpcNfh1p/CZOIwVAuL4CoP7oUUWZCFXqj9brer7e94QQPWYBws5cSpycEM7K/7uK+5ZkqTpSInCJqmAiOEgBoHMEYP/+UkWZCFX0viZ63xNC9IrNpt0OOI3dZuXpH8zlq18eo+pIS1UFEsFhwBcA0VHRup5fsm+fokyEKnpfE73vCSF6zRl61g9bLPDMf83lxsvTVRxlroogIngM+AIgNiZW1/NLS0sUZSJUKS3R95oMih2kKBMheshuB8vZfx2HWC289NP5TMjQ/b4cDej7hSeCyoAvAAbF6PuhKtknBUCg0VuU6X1PCNEn51mR5HSE8NR3Z+o9ggUYqzeICB6GFgA+fLz41ovs3L1T96Y7RokfpG/r2OrqKhobGxVlI/Rqbm6msrJSVwy97wmjuD1uSg+U8v4n7+P1+nWbWeEPF1iSvDh3OKNTY/QeJTDf3MIUhi8LKSsvo6y8jLDQMLLHZZMzMYehg4cafdgei4+LxxZiw+3pW4Hi9XrJW7+OK6+6WnFmoi/y1q/TdXK0YCEpIUlhRvrV1NawdddWthdtp6ury+x0hFEsF24ANGfyYPaVN+k5igxviZP8ti60o7ODTQWb2FSwieSkZHKyc5g0bpLpa65DrCEkxidSU1fT5xjr1q6VAiBArF2zRtfzY2NjcTrMb53e0dnBzt072bprKzW1fX9vin6kBwVASIjuLoGyxEWcZEpjiJq6Gj749ANWrFzB2Myx5GTnkJ6ajqUHPwBGGJI0RFcBsHbNaoXZCD30FgDJiYZtzHJBPp+PsooyCnYWsLtkd8DeNhPm2Vx4xOwURBAxtTOU2+NmV/EudhXvIiY6hpwJOeRMzNE9M7+3UoalsK1wW5+fX1xczJG6OhKTAmvoeKA5euQIe/bs1hVjxLARirLpucbmRrbt2kbBrgIam2U+iTi79dtr2bnvmNlpiCDSkwLAB8bvrdrU3MTKvJWs2rCKkSkjmT9zPulpSta+XpDeX/o+n49PPvmYm2+5VVFGoi8+/ngFPp9PV4zU4amKsrmwsvIy1mxaQ1l5me68e8tq0mib6Bu3x8t/PrHB7DREkLlQAeADGoA4P+SiHdDnOzlxMGNkBsuuWWb4PIGk+CTCQsPo0LG171tvviEFgMnefutNXc+32+x+maDa2dXJ8veXs3f/XsOPdTbRkU5stgG/Arhf+c8nNpK/W9qOC7V68ltgu+FZnEPpgVKef/15WtuM3XDHYrEwKnWUrhgb8vJ0Lz8TfXfo0CHy1q/XFSNtRBohIcZuA9zR2cELb7xg2skfYNK4RNOOLXrvB3/I549v6bu1JcTZ9KQA+KvhWZzHkfojvLfiPcOPM3rUaF3P93q9vPP2W4qyEb31zttv6V4bnzkqU1E25/bBpx/omnCqwpcvV9ZbXhjI54Mf/Wkrv/w/067BRJDrSQHwElBlcB7nVVxazL4yY3vuZ47MxKJzqsPbb73p93u5QvP2m/qG/0F/EXghFVUV7Ni9w9BjXMiQxAjuvmGiqTmIC2tqdXH9dz7hZ8/1fXKyEBfSkwKgDbgL8Bicy3lt22XsD0JUZBTDkofpilFaUsKnn3ysKCPRU59++gklJfoKxMEJgw3vAKhnpYkKVquF5399BdGR5vc5EOe2q+QY029+j/dWlZudighyPZ0J9AlwC2BaG7K9+/fS7e429BgTx+q/MvrtU08pyET0xm+ffFJ3jAlZExRkcm4en4eivUWGHuN8HPYQXvrNVVx9iX9W1oje6+xy86M/bWX6Le9RUqGr258QPdKbqcBvAdPQigG/63Z3U37I2Ip4wpgJupsRbdmymXVr1yrKSFzIurVr2bx5k+44RhUA3d3dNLY0smv3Ll2rTPRYmJvK5n/ezm1fHm/K8cWFfbruIBOveo2fPbeNLpepg61iAOntWqBC4DIgG/g94Nd1KSVlxu68Fx0VzciUkbrj/OapJxRkI3pCxfd6ePJwEuISFGRzpvqGetra2jhYedCQ+OcSPyiMb901lR0f3c1nb9zIpLHSpCoQ7SmtZ9nX3+PSW96itFyaQAn/6msnwF3AfwKPAl9CmyNwGWDoGqrSA6VGhgdgWvY0ysrLdMVYu2YN69etY87cuYqyEmezbu1a3a1/AaZNmqYgmzO53W48Xu1qrrLa+CWiVquFS+elcfeybK69LBOnw9gljaLvSg828NPfr+cv7+3G45GJw8IcelsBdwHvHH8MB+48/jDkRmNdfR1NzU3EROveEvOcxo4eS3hYOO0d7briPPLQg6xauw673a4oM3Eql8vFow8/pDuO0+FkYpYxs+K7XNqUmY7ODo7UG9fDfeSIGO5als2dSyYwYmi0YccR+pUebODxP23k5XcLcbtlS2dhLpXtwA4BPwcygYuBVwHlNz1LDhh7G8AWYlNyRbh3bzFP//GPCjISZ/PMn/7E3r3FuuNMnjAZh8OhIKMzdbo6AThUfUj58tCwUBu3XDeOz964kf1r7+eH38qVk3+A8vngo1VlXHXncsZc/Dx/fmunnPxFQDBiMyAfsOr44z+Am9BuEcxQEbz0QKlhQ7YnzMqZxfot6/F49E3GeerJX/PlJUsYPny4oswEaF3/nnry17rjWC1WcqflKsjoTD58uLpcAFRUVyiLOy17CHcvy+ama8cRGy3L+QJZc2sXLy8v5A8vF7CvTDbxEYHH6N0Am4Bnjj8mAPcAt6Njb4GSAyW4XC7DrtpA6wmQPTZb97rt9vZ2HnnoQV5/403TtjoONj6fj0cffoj2dn23aEC73RMXa8w2F12uLrw+L26PW/fqldhoJ3csmcjdy7LJHittfAOZx+Pj87xyXvtbEX/9aB+tbS6zUxLinPy5HXAh8B2gHPifvgZxdbvYvW83kydMVpbY2cyfNZ8du3fobi/78YqPeO7ZZ7jv/gcUZTawPffsM6z46EPdcSxYuGjWRQoyOrvOTm34/2DlQVwufSeBH/xHLg/dq2QATRikaN9R3vmgmJeXF3LwkKzhF/2DPwuAE/6OjgIAYFvRNsMLgIS4BLLHZrO9SH8f7p/8+EfMmDGTKTk5CjIbuLZv28ZPfvwjJbHGjR5H8uBkJbFO58N3sgDYt19/C+trLzV+jwLROz4fbCuq5Z+flvLOB8UU7ZOd+kT/Y0YBcBBth8E+n8EPVBygqaWJmCjjVgMAXDznYnbt2XVyKVdfuVwuvnr3nXy+ei0xMcbmHKyampq45+47dV9Ng7b748K5CxVkdXbdrm48Xg/tHe0cqj6kK9a4zAQyRw5SlJnQo6PTzWfry3n/s1Le/2w/VYdbzE5JCF3MKAAA3kNHAeDz+dhRtIP5s+YrTOlMcbFxTJ88nY0FG3XHKi8v5+v338crr71u+Jazwcbj8fCNB+6n/OBBJfFyJuaQlGBcY5z2Tm1+QklZCV6fvltI116WoSIl0UfF++tZtaGCf60s47P15bR3GNuOXAh/MrMA+LGeANsKtxleAAAsnLuQnXt26u4LALDiow956MHv8D+/+38KMhs4/uv73+OjD/+lJJbT4WTRvEVKYp2Vj5Mtf1XsYHndZcbuUCi+qKyikXVbDrE+v4qPVpVRUd1sdkpCGMasAmAb2mTA1L4GOHrsKIdqDjE82dgldmGhYSycs5D3P31fSbxXX36ZpMQkvveD/1ISL9g98fiveP65Z5XFW5C7gMiISGXxTtfp6sTr9XKk/gj1DfW6Yg0bEsW07CGKMhOn63Z72bmnjs3ba1i75RCrNlRQU9dqdlpC+I1ZBQDAX4Dv6QmQl5/HsmuWKUrn3KZPmc72ou0cqtF3P/eE3zz1JIlJSXz1a/cqiResXnrxBZ749ePK4g1JGmLYuv8T2jraANi1Z5fuWLdePx6rVZaPquDx+NhdcpT8nYfJ31VD/s7D7Nhd16823hk11ElyvIP1u2TugVDDzALgJeAxoM+/4Yr2FtEwv4FBMcZOkrJarFx3+XU8/fLTuicEnvD9xx4FkCLgHF584c889sjDyuJZLVauW3wdVqvK5pdf5PF46OrsoqWthdKD+vetuHOpsVsUB6ujxzrYXXKUPaX1FO07yraiWrYV1dLW3j/v30eEWvn+7cP47g3J/OC5SikAhDJmFgD7gDxgTl8DeL1e1m9Zz9WLrlaX1TkMThzM/FnzWZm3Ukk8r9fLY488zJG6Oh77/g+kUdApnnj8V0qv/AFyp+cyLHmY0pin6+jswIePnbt36u4fMTtnGFnp8YoyC041da3sLqk/eaIvLq2nqOQoR+r1z9cJBBYL3HxpAr++P4VhicY1PhMDl5kFAMCL6CgAAAp2FbBwzkLCw8IVpXRuC3IXUHqwVOnObr956kmqqqr43f/7X2w2s18Oc3k8Hh59+CFeevEFpXEHJwzmkrmXKI15Oh8+2trb6OrqorhE/x4Fdy0zZoOi/qShqZOyikbKKhqprm2lpq7t5L9LDzbQ1NJldoqGWTQthl/dl8K0rAizUxFBzOwzztvA74E+v8u7u7vZVLCJi+dcrC6rc7BarSy5egl/eulPJ3d6U+HNN/7CsWPH+NMzzxIbG6ssbn/S1NTENx64X9ls/xPsdjs3XHuD4cVVZ2cnbo+bwr2FdLv1DTWHh9lZdnWWoswCS2eXmyP17dQebaeuvo0j9R3UHm2j9mgbR+rbOXykjYqqZsqrmunscpudrl9ZLHDdvDh+dOcwJmfKiV8Yz+wCoAVtK+E79QTZtG0Tc2fM9cvWu3GxcXxp8Zd455/vKI378YqPWHjRPJ7/84tMnWbsZkeBZltBAV+9+07Ky/X1zD+bay69hsR44/vnt7a1agVAcaHuWB6Pl7lfeZ3oSAdRkQ6iI50MigklKsJBdJT2b+3jjlM+7sTp0PpLRITbcdi1v1utFmKi+r5pUENT58m/+3zQ2Nx58s+WNhetbd20tbtoaumiudVFa5uLtvZumlu1j7W2uWhs7uLIsXZqaltpkd74Z3A6Qlh66UgeumUkk0bI/X3hP2YXAAD/i84CoK297WQR4A/ZY7OpqqkiLz9PadyKigquueoKfvjj/+b+B74e9PMCfD4fzz37DD/58Y+UdPg73fTJ05kyYYryuKdzdbu0PSr27j7ZA0CPLpeHwr1HFGR2pvAw+8lCwWLRuiJ6vf/eqvjECV4Yb2hiOPcvHcu9X8licHwYdDdCpxQAwn8CoQAoAFYCusbwV29YTc7EHL/MBQC4bMFlVNdWc7DyoNK4LpeLH/7g+6xetYonnvoNKSkpSuMHisrKSh59+CE+XvGRIfFHDB3BlZdcaUjs07W0ttDZ1cnWnVv9cjw92ju6pZudiSwWmJczhAeWjuUri0Zitxm3KkWICwmUd99v9Abo7Opk5Xo1M/R7IsQaws3X30xCXIIh8T/95GNyZ87gicd/hasreCY7dXd38+wzTzN39kzDTv6DYgZx8/U3Ywsxvr7tdnfT1dXF1p1blc4LEcFlxJAIHr1rEvv+sYzVf76aGy9Pl5O/MF2gvAP/BezRG2TL9i0cqTdm6PRswkLDuG3JbUSEGzNhp7Ozgyd+/Tjz581h1Ur/FTdGWbtmDRfNncMPvvcYbW1thhzjxGtiZLe/U7W0ttDQ3EDR3iK/HE/0H7FRDu65fgxrXria8g9v4vFvTydjRLTZaQlxUqAUAD50bhEM4PF6+Hj1xwrS6bm42DhuW3Iboc5Qw45RWlLCki9fxzVXXcnKzz837DhGWbN6NddecxXXX3sN+/btNew4DoeD25bc5pdJf6Dd++/s7GTT1k261/2L4DAkIYz7lmSx4ukrqFt5K//343nMyxlCkE/nEf1UIMwBOOFV4KeArubnxaXFlJWXMSp1lJqsemDYkGHc+pVbeeWdV3B1GzfLeUPeepbmrWdKTg7fffAhLr/iyoCdKOjz+fjk4xX89qmnyM/fYvjxbDYbt1x/CyOGjjD8WCc0tzRTVVvFgcoDfjumCDwZI6L50oJUrl+YSu6kwdK+WfQbgVQAdAK/QFsVoMuKVSt44I4H9GfUC6nDU7nly7fw+l9fN7QIAG3Z3G233EzayJEsu+FGli27gbSRIw09Zk9VVFTw9ltv8s7bb7G/VH873J6w2WzcdN1Nfi36ulxddLm62LhV/1bRon+JDLezcMZQFucOY/Hs4aTLsL7opwKpAAB4DngQSNMTpLq2mv3l+0lPTVeSVE+NSh3F7Utv57V3X6Ozq/PCT9Dp4IEDPPH4r3jy148zY8ZMlt1wI4uvuJwhQ5INP/apamsP8/GKFbz91lts3JCHz4/ryBwOB7dcf4tfT/4+fDQ1N1F1uIq6o3V+O64wh8NuZdq4RC6aNoTLZg8nd9JgHPZAuXsqRN8FWgHgAv4bbaMgXbYXbvd7AQDaSMCdN9zJq8tfpa3dmIlup/P5fGzatJFNmzby4HchIzOTefPmM2/+RcyZO5f4eLU95RsaGli/bi1r16xh7Zo1ht7XP58TE/78OewP0N7eTre7m3379/n1uMI/IsJszMpOYn5OMvOnDmHmxETCnIH2q1II/QLxXf0a8AgwTk+Q6sPVarLpg2FDhnHvrffy6vJXOXrsqN+PX1pSQmlJCS++8GcAhg4dSkZmJunpGWSOHk1GRibx8fHExMQQERFBeEQEERHaSob29nbaWltpb2+nsbGRhoYGSktLKNm3j9LSEvaXlnLokJptkfU4MfnSqGWY5+L1emlubQYw5bUValmtFrLSYpg+PpEZExOZPj6RKVnx2ELkCl8Ev0AsADzAj4DleoK0tJnbUSsuNo6v3fI13vj7G8qbBfVWdXU11dXVrFm9+ryfZ7FY/Dp831cpw1K4+fqbDVt+eT6t7a0nZ/yr6Pon/McWYiUzJZqJmXFMG5/A9PGJTB2bQFSE8S3EhQhEgVgAAOzQG8DhMH/7zPCwcO684U5WrFzBhq0bzE7ngvrDyX/GlBlcufBKQkJCTDm+0+6kBa24tNvtIDVAQBo+OIJxo2KZNDqeCRmDmJgZx7hRsSfbIAshArcA+JbeAEkJSSry0C3EGsKVl1zJ8OThvPfxe4b0vB8I7HY711x6jV96+5+P0+nEbrPT7e4mflA8Tc1NpuYzkEVH2BmdGsPo1BjGpMUyOjX65L8jw+WqXogLCcQCYBBwl94gY0aNUZCKOtnjshmWPIzl7y/nUI3599D7k6GDh7Lk6iV+a/BzIRHhETQ2N5I2Io2y8jKz0wlaMZEOUpIjSRsaSdrQKNKGRpKaHEnq8b8nxBrXfEuIgSAQC4CvAbr6uNrtdiaOnagoHXXiB8Xz1Vu+yqr1q1i7aS0er8fslAKa1WplzvQ5XDL3EtOG/M8mPDyc5tZmRqWMYr1jve49AMKcNiLDbRxr6sLjDfzbMHqEOkOIjwklPtZJfIyToYkRDI4PY/jg438mRTAkQft3eGgg/noSIngE2k+YHfgPvUEmj5/st10BeyvEGsIl8y5h/Jjx/H3F36mqqTI7pYCUPDiZ6y6/jqGDh5qdyhksWIgIj8Dr9TJu9Di2FW7TFS8sNISDH95IeKiNplYX9Y1d1Dd1cqypi/qmLppbXTS1umhu66a1vZuW4382NLto7eim2+2lpa0bt8dLe6ebLpeXLpeH9k63kq83PNSG0xFy/E8rYU4boc4QQo9/LDbKQXSkg+gIO1ERdqLCHURH2omNchAT6SAhNpSEQaHExzhlaF6IABJoBcBSYLieABYszJ46W1E6xhmSNIR7b72Xzds28/m6z2VG+XGhzlAunnMxs3JmYbUG7lKsyPBIWttamZA1gR27d+jaC+BYUxcv/6OEB5aNJSZSO2mOGh6lLNdzFQMerw8LFs72bY6Nckr/eiGCXKAVAN/RG2B0+uiAuVd8IVaLlVk5s8gem81n6z4jf0f+gN1UxmqxkpOdw6J5i0xZ3tdbVquV8LBwfD4fo1JHUXpAX9vj3/+lkPuXjjXkpOt0hMjsdyHEGQLpEusiYJreIHOmz1GQin+Fh4VzzaXX8J2vfYdpk6ZhtQTSy2IsCxbGpI/hgTsf4NrF1/aLk/8JkeGRWLAwadwk3bH2Hmziw/WVCrISQoieCaQRAN1X/8lJyYxMCYxNcfoiNiaWaxdfy+yps1mzcQ2FxYVBO1HQarUyfsx45s+az5BEXRtAmsZms+FwOkiMT2RI0hAO1x3WFe9/Xi3kyrn+bWsshBi4AqUAyACu0Rskd1quglTMl5SQxJKrl3DpRZeyIX8DBbsKgmaOQKgzlCkTppA7LZfYmFiz09EtKjyKrq4ussdm6y4APttcxa6SY0zMjFOUnRBCnFugFAD/ic7bEVGRUQG59E+PmKgYLr/4ci6Zdwm79+4mf2c+5ZXl+Oh/S8VSh6cyNXsqE8ZM0DroBYkTjYFGpowkKjKKlta+t6D2+eB3rxfy5/+erzBDIYQ4u0AoAAYBd+gNMjNnZkCtFVfJbrMzafwkJo2fRFNLE7v37aawuJDKqsqALgaS4pMYnzWeSeMmET9I7Y6EgSQyIpKGpgYmZk0kLz9PV6zX/7WfX3xzOkMSwhRlJ4QQZxcIBcB9KGj8M33SdEXpBLaYqBhmT53N7KmzaWxupKSshJIDJZSVl+luSKOXw+FgVMooMkdmkjkqk0Exg0zNx1/CwsJoamkiKzOL/B35uLr73u65y+XhuXeL+dF95rY8FkIEP7MLADvwTb1BArnxj5Fio2OZPnk60ydPx+vzUltXS3lVOZVVldTU1VDfUG/YskKrxUrcoDiSk5IZMWwEKcNSSE5KDui1+0Y5tTFQVkYWO/fs1BXvT2/v5tG7smXpnhDCUGYXADcAw/QEsFgsQTP5Tw+rxUry4GSSByczK2cWAG6Pm7qjdRxrOEZDUwMNTQ00tzTT3tF+8uHxeM64YrXb7dhCbISHhZ98REVGMShmEINiBxEfG09SQhI2m9lvn8BxojHQxLET2VW8S9fOirX1Hbzx0X7u/NJohRkK0e+lANlAHFAPbAX0zbxVIxyYgdbErhPYD2yHAL4/e5zZv8Ef0Btg9KjRJMQlqMgl6NhCbAwdPDQg2+kGm1MbA41MGal7k6Bn3imWAkAIzZXAfwOn3+f1AeuP/99n/k0JgDTgJ2gdbE+ftLsXmxoAACAASURBVFMF/A74A1pREJDMHK9NAnT37B2THli7/omB60RjoJRhKbpjbdpVx+GjwbH0U4g+cgD/B3zAmSd/AAswF/gU+A3gz3tm1wM7gds58+QP2sj2k8AmINWPefWKmQXABLQXUJePVn3EwcqD+rMRQiebzcbRhqOs37JeSbzC/ceUxBGin3oZuKeHn/tdtCLAHy4D3gZ6smFHNrAKCMhhajMLACU9X10uF6+++yrlh8pVhBOizyqqKnjvo/fo7u5WEq+tQ81ufkL0Q3cCN/byOd9Gm1dmpKHAG/Tu9nka8Iwh2ehkZgFQpyqQy+XileWvSBEgTFNRVcHLb7+sawng6ZLipBeAGJBC0O7r98UfAaN6i1uA59EmIfbWl4HJatPRz8wCYAeg7CanFAHCLEac/EOdIUweIy2BxYA0g77fN48HnlOYy6nuQZuQ2BcWtMmCAcXMAqATWK4yoBQBwt8qqip4+R21J3+AJYtGEuY0e5GOEKbQ29XtGrRbCCqlon+OwQwViahkdteWn6F4iYQUAcJfKqsrtZO/S+3JP9QZIp0AxUCWqCDG7wBVW2tagBeAaJ1xAm4ioNkFQAlaLwClDRNcLhevLpeJgcI4ldWVvPT2S8pP/gB//N4cMlNilMcVop9oVBAjBu2krXulGVq32oUK4jQoiKFUIIwxvgTEAr9FzYsFQJeri1eXv8rtS29Xsi77RMzC4kKKS4s5XHeYLlcXEeERJA9OJmdCDukj07Go+xJELx2oOEDBrgKqa6tpaW3B6XCSGJ/I2MyxTMiaQFiomkl1Rp78n/zOTO6+ThoAiQGtUFGcRWjt5vXIAL6kIBdQ93UpE0hnq/9EcREA4HQ4dRcBjc2NbNy6ka07t9LZde47FsmDk1m8YDHpqel9PpbovYqqCj5a+RGV1ZXn/ByHw8GUCVPInZpL3KC+T64z+uT/0B3BtaW16IXuRug8dN5PefAP5fz2rRo9R7kfeFZPAD9wAjVoO8UGk0uAz81O4lSBVABAgBUBldWV5G3JY3fJ7l5tqjMmfQyLFywmMV7FrSxxLg2NDaxYvYLde3f3eFtki8VCVkYWudNySRuR1qvjGXnyf+I7M3j4juw+P7+jy83B6lZq6ztwe4zZACrEamVwfBhpQyMJDw2EwcMgIwXAqR4FHjc7CYXygDlmJ3G6QCsAQGvm8D+YVAR4vV5279tNXn7eea8oL8RqtTJ98nQWzlk4IHcqNFJnVyer8laxsWAjHo+nz3GGDh5K7vRcJmRNIMR6/i6ildWVvPz2y4Zsuazn5L9pVx2/+vMOPt5QRUeXfxoHhTpDuGTGUB67exJzpxi15HoAkgLgVKFAATDW7EQU6AZmoX09ASUQ9xvdhDYJZDEKiwCPx0PR3iLSRqQRE33mBKvOrk42Fmxk+fvL2bpzK80tzbqO5/P5qKqpIn9HPlarleSkZEJCAvHb3X+43W42bdvEm39/k7LyMl077gG0tLWwe99uCnYW4PF4SEpIwm4785bhoZpDAXfy93h9PPjUJr7207UUH2wy7Kr/bNweHyUVzbz43j7qjnVw2ezhhFgD8Vqin/F2gvv8v3c+3tzEhqJWPUd5H20XvUDnBjYDd2H+ZHW9fo7WPTDgBOoZyW9FQENjAyvXr+TdD95l7/69573H3xduj5v9B/ezZccW3G43gxMHY7frnZcysHR2dZKXn8fb/3ybor1FdLvVtNo9ocvVRVl5GZsKNtHc2kxCXMLJUZtDNYd46a2XDDn5//o/Z/DInX278r/nx2t5ZvkexRn1Xn7RUfYebGLJopFYpAbQRwqA01WjbQg03+xEdCgA7gD8V6H3QqAWAGBwERARHsHqvNX889N/UlldqWsouSe63d0cqDzA5m2baWtvIzEhkVBnqKHH7O+aW5pZmbeS5e8vZ1/ZPuXNdk7n8XqoOlzFpm2bqK6tpru7m+XvLw+4k/+L7+3jJ88Gzmhi0f4GkuJDmT5e5rzoIgXA2axHm4XfH+81daF1DjxsdiLn0h9qdkPmBJjNarUyMWsiudNyGTpkqNnpBJTDdYfJy89j556dhhdmZtBz8nd1exl11VtU1bUpzkqfxEGhHPzwRpkcqIfMATiXSWi3AxxmJ9JL3yPAJzL2h5/W36N1C3yaICoCvF4vO3bvYMfuHSTGJzIhawI5E3OIjY41OzVTdHR2ULS3iG2F26ioqjA7HcP8/JvT+nzyB1iVXxNwJ3+AIw2dfLKximsXBOzW56L/2gH8FO1een+xEXjS7CQupD8UAKBVrE609o5BUwSccKT+CCvXr2R13mrS09KZPH4yY0ePPeuEtGDidrvZU7qHHUU7KDlQ0qullv3R49+ezqN3TdIVI29HraJs1Fu37fD/Z+++46K60sePf2aAGYbeERAEBAUUxYItiqao6T266dmYsqmbnmx2s7/dTd1N22y+m95NsjEa00yMLYk1VmwgSJUivbdhGBh+f1w1xgrce+fODOf9evEiAnPOEx3mPHPKc0QCIKjln8AlyL8nwB46kO4icPjpS2dJAAD+c+izSyYBALZeG/nF+eQX52M0GBkxfASJcYkkxiXi4+2jdXiKaO9op6C4gLziPPIK8xTfdOmolBj8ASprOxSIRh2VtYpd7ikIx+pG2kyXiXRE0JE9DuzXOoi+cKYEAAZBEnCYpcvC3py97M3Ziw4dQ8KHHEkGoqOiT3tu3VHYbDbKKsqOJDaV1ZWyj+85G6UGfwAfL8edFfLxcraXE+fT1T24fneOkQP8BXhB60BOYS3wqtZB9JUz/sb+B+nyoFdw8STgsF56qayupLK6knWb12E0GElOTGbc6HHED4vXOrwTKi4tZmfWTnLycwbNu/wTefZe5QZ/gIRouReSqUdcYKS+3JJBP8vyMnApMF3rQE6gDalugdOsZTpjAgC/ZliDJgk4mqXLwq7sXezK3kXKiBQunnMx3l7eWocFQIe5g29XfUtWrsPde2F3z96bzmM3Kzf4A1yQEY3uWXDESZQLM5S5dEs4sfLaLtbuklegzAXYkAbZXYBjvOj96iGgWOsg+sOZKyy9inRE0AFfCu1nX94+3vvfe5g7tX9n0Gnp5P3P3heDP+oM/gAxQ3yYP9fxLpu6eNYwRsaKGQA1PfF2GdbBvQRwWAHSXQGOZAXwltZB9JczJwAgkgAAauprWPTNIq3DYMmyJVTVOmzNC7t55h51Bv/D/nXfJMKClLnaWAlB/kZefmiK1mG4tCU/N/DB8lqtw3AkrwFrtA7ikCbgFpxwHHL2BABEEgBA4YFC8orytOu/pJD9hU6x8VVVz9yTzp8WqDf4A0QP8eabV2YTEqD9ZuhAPyNfvjSb+KG+WofislZta+a6fxRoHYaj6QVuBhxhTeQ+4NQVnByUKyQAICUB92KfJMACfACMA+bjQMc91m1eNyj7PlZclC8fPjmT7KVX8oerku1Wnc4eg/9hk1PD2PrJJVwwI9ou/Z3InKlRbPn4YjImOGOVVuewfncrlz2+H4vVafaV2VMp8IDGMXwDfKhxDAPmahvo7kY6JaDG/1ct8AbS1NPR89zuwPXA/wM0rYKiQ8e9t9xLSFCIXfttam7ipbde0vx435AQE3+5dRy3Xp6EwePX3La+ycKbS3L4v8/2UVmnzjn6p++eyOO3pKnS9unszmvgqx8PkFPcRH2T8vcWHC3I30hSnD8XzxzGhBT7Ps9c3jGlgN/6poZ7/31A6cHfGUsBn84y4AIN+q0DUnHgWv+n42oJACifBOQg1R1YCJxqp50BuB2pCIRmb4kypmQwO2O2Xfrq7unGYrHw8y8/s3nHZrv0eSJDQkzcf10qd81Pwdt08nf7XVYbn/1QyMsfZ7Frf71i/Ws5+Asu5FAC0Nll466XDvDedzVq9OKKCUAksBcIsnO/84HP7dynopyjmkz/bAXqgfMYeBLQC6wG7kGaYtqBVInqVHoO9f1foAxIBOz+FqmhqYGpE6aiU/lu1l5bL9X11ZjNZn5c/6PqN/WdyPBoP565ZyIf/GMmMydG/OZd/4m4uekYOzKYP1yVTMb4ITQ0Wygoa5F1pE4M/oJibJ1s3l3BJX/azw9bmtTqxdluA+yLVqQ1+Cvs2Oci4O927E8VrpgAwMCTAAvwEVId5xeRjpv0VzfSL9jrwHak7DR2AO0MSFdXF1FDolRfBjB3mjF3mjlYddDux/7SR4Xy0kNTeP3PZzBpdCju7v3fyhIX5cs15w3n6nOH02PrZV9hE9bu/k21PnX3RP4sBn9BAU2tXdz/whbuenE/VQ1WNbtyxQQApBmAMUCyHfqqAi7k1DPCTsEVlwCOdh3S2czTnZmq4df1fTVuW5mANJtwJXYoXpGcmMw1l12jah+19bV0WbtYs34N+cX5qvYF4G1y5+rzhvOHK5NVWXtuaLbw5pJc/u+zbCpOU2/faHDjlUemcvuVSYrHIQwuPbZePv6ugMde2UpVnV3GE1dcAjgsFMgCwlTu5xKkzX9Oz9UTAIDhwBPAVYDXMd/bjvTL8DHSlcNq8wXmIVWyOkOtTtz0bjx0x0OqXSDU3d1NTV0NnV2dLFy8kO6e062ODNy4pGBuvnQk11+YgL+P+teBd1ltLFpRxBuLc/hlT/VvlgdMRneuOCeWJ24bx4hhouiNMHA2Wy+LVxXz9zcyySlWbbr/RFw5AQC4HPhCxfY/RJohdgmDIQE4zAiMRdqg1wrkApUaxjMS6Yl0DaB4DdW5s+YyfZI65bJbWltobW8le38267esV7z9w9Pz15yfQEp8gOLt91V1vZmc4ibaOqyEBnoydkQwnkZXXTUT7KG3F77+uYS/vraDvfkNWoTg6gkASG/orlWh3XKkXf92zdjUNJgSAEc2HumCi0uRnmCyhQaHcu+Ce5Vo6rd6obK2EpvNxtLvl1JTp+xO5atmx/HWX2cQ4Kv+u31BsJe2DisLlxXwf59ls69I0/FjMCQAQUh7AiIVbLMXOBdYqWCbmnOVQkDOLhP4K9ImlgSkSyVknVOrra+l9GCpAqH9lrnLjM1mo6GxQfHBH2DxqmKi5/6PO5/ZqPULpSDIVlDWwgMvbGboHPGctqMG4FaF23wLFxv8wXVPATizRuAXpCOEsvYJ6HQ6khKU3ajW0tpCd083O7N3Ul2rxn5JaR1+e3Ydr3++jzVbKwDpGlyjQTxdBcfXaenhy59KeOTlrdz3/GZ+2V2DpatH67AOc9VTAMfKB6KRZlflKgYuA+x/1lllYgnAcSUD++Q0YDQYeeTORzAYlJlOt9ls0vR/j42FSxba9QZCb5M7l58dy/UXJnLWpEjc9OKpKzgOm62XdZlVLFyWzxerD9Dc5rBjxWBYAjjMD9iDvAqtNuAsYK0iETkY+xRJFwYiB9gETBtoA5YuC1n7sxifqkQSDO0d7dALJeUldr9+uN3czcJlBSxcVkBIgCeXnRXLVXPiODM9Anc3sZIl2F9vL2Tm1LF4VTGfLi+grKpd65CE32oBFgCrGPib3f/gooM/iBkAR3cL8LacBmKiYrj1WmWWw2rqarB2W1n+43JKyksUaVOuYH8jF2TEcMGMaOZMHSo2DwqqMlu6Wb25gmXrSlm2rvS0NSMc0GCaATjs/4C7BvC4/UiXvjl9wZ+TEQmAY/NFOqqoevEgV+Dupmf6uHDOnxHN7ClRjEkMQi+WCgSZyqvb+X5DGd+uLWXNlgrMFvXqXtjBYEwAvJFmU8f04zEdwEykWjEuS7w6Or73caHCE/YUEuDJrPQIzkqP5KxJkYyMFcV7hNM7WNPOz9srpY9tlRSUOcKV84oZjAkAQBSwkb7tB7AiVW11iWp/pyISAMc3A1indRCuIDzYxLSx4UwfF87UseFMSA457QVCgusrr25n7Y5K1m6v4uftleSXNmsdkpoGawIAEIxU7n3eKX4mB+l698FwUkIkAE5Ah7QWlah1IK7G0+jGhOQQ0kYGkzYymHFJwYxOCBTHDV1YbWMn27Jr2Z5dx/Z90ufKOudYx9frdYQHmeTGO5gTgMNSkWZV04ChSDVX8pFu+FuBdLProCASAOfwJ+AZrYMYDDzc9STHBxxJCg4nBmJzofMpr24np7iJHfvq2L6vju3ZtZRUtmkd1oBMGRPGfx6dymc/FPHSwr1ymhIJgHCESACcQyRQiijcpJm4KF/SRgYzMtaf4UP9SIjxIyHaj6gwb3Tit0gzNlsvJZVt5BQ3kV3YSG5xE9mFTeQUNdLSruq1unYRGerFs/emc/2Fieh08OCLW0QCIChG1AFwDhXAD8AFWgcyWBUfbKX4YOtxXzcZ3Y8kA8OjfUmI9ichWkoQosO9xSkEBbSbuzlQ0UpJZZv0uaKNkso28ktbyC1uoqPTqXfln1Cgn5H7rxvN/deNxsfLQ+twBBclEgDn8T5OngC4u+vp7rZpHYaizJZu9uY3nPBmN6PBjehwb4aEeBEZ6sWQEBMRR/7716+FBHhqELn2enuhttFMXZOF2kYzlbUd1DR0UlIpDfAlFa0cqGijrskeN3U7hiB/I/ddO5o/XjsaP28x8AvqEgmA8/gWqAVCtQ5kIEKCTOxduYD3Fu3h1Q92UFXr+lXTLF09FJS1nPYYmdHgRniQiagwL8KDTYQEeuLvY8DP24C/jwf+vof/20CArwF/X8Oh73s4xIbF5rYu2s3dtHVYaW230tTaRbvZStuhr9U1dlJ76KO63kx1g5naRjO1DZ302Hq1Dt8hhAV7cc8Nadx7ZaIY+AW7EQmA8+hCuuf6fq0DGYhrLklhSKg3j989lQdvm8QnX2Xz0tvbyM6r0zo0zVm6eiitaqO0qv8b1DyNbvj7GPA2Sb/KgX7GI98zGd3xPJQg6PXg7/PrRkZvk8eRI5C23l6aW3+tXd9j66Wl7df18+4eG60dv/65td1KW4f04Qrr7FqaOGYI99w0gfkXJWOkG9qdc5Oi4JxEAuBc3sNJE4Dfz/u1CJfR4MbN88Zw87wxrNtSxluf7uKL5Xl0OneFNU10WnrotBxdqfT4fQqCYzF4uHHF+SO556bxTB0f9es3usTzX7AvkQA4lyykO6nnaB1If8yaEkNaStgJv5cxOZqMydG88jczH32RxbuL9ohZAcEljRsVzo1XjuaaS1IIDfbSOhxBEAmAE7ofqUqVU+wc8zS688rfzjntzwUHmrj/lnTuvyWdXftq+PSrfXz2bQ5lFS5VhlUYZCLCfLjmkhRuvHI0qUlOuX1HcGEiAXA++4AbgE9x8H8/g4cbS964lDHJ/XvhS0sJIy0ljOcem8n6reV89m0OX6/Mp7JGrI8Kji9qiC+XzEng8nNHMmtKDG5u4iio4JgcegARTmox0IB0NDBa41hOaGR8EK8/M5czp8YMuA29XsfMKdHMnBLNf5+czdbdlXy1Ip8vV+SRV3T8sTtB0MrwYQFccd5ILjt3BJPTIkVxKMEpiATAea0BkpBmA64ExgIhWgbk621gTkYc550Zz/WXj8LgodwRNb1ex5RxkUwZF8lzj80kp6Ce5T8VsXJ9Meu2lGF2wWIwguMyebqTMTmauRlxnDsrnuSEYK1DEoR+EwmAc+sA3jj0oYTb5bR19SUpvPnsXIVCObXkhGCSE4J54NZ0zJ3drN9axop1xaxaf4Cs/bX0iuPlgoJ0OkhJDGFORhxzM+LImByNyVO8fArOTTyDBadn8nRnTkYcczLiAGht72LLzgpWbyhhw7Zytu6qwOpiFQgFdbm56RgZH8z09KGcM30Ys6bEiJ37gssRCYDgcny9DZwzPZZzpscC0NxqYdOOg2zdVcmWnRVs3V1JfaP51I0Ig0pQgCfpYyOYNDaCaROiOCN9KL7e4gZIwbWJBEBwef6+Rs6bFc95s+KPfC2/uJGtuyvZtruSndnV7N5XQ3OrRcMoBXvx8TaQlhJG+tgI0scMIX1sBAmxgVqHJQh2JxIAYVBKjAskMS6Qay9NOfK1otImdu2rYVd2NbtzasjaX8eB8mZsol69U3Jz05EwLJAxyWGkJoUyemQIY5LCiIv2d6pbGrusNhYuy+eHTeWs3nxQbnNK7BmqB/YCS5FOIonzuU5KJACCcEh8TADxMQFcfu6II18zd3azv6iB3IJ6svPqyC2sJ7ewgcKSRnHywEH4+RgZER9IYlwQI+OljxHxQSQnBDv9Rr2ftlVyx9Mb2H+gWetQjhYMzDr08RiwAOm6csHJOPdvhyCozOTpfqQw0bEOVrVSWNJEQUkjhSVNFJY0caC8mdKDLVTVtomTCApxd9czdIgvw4b6ETvU/8hHXHQAI+IDiQjz0TpEVXy/oYzLH1iNpatH61BOJRJYBtwIfKJxLEI/iQRAEAYoaogvUUN8yZh8fC2mLmsPB6vaKKtooeRgC+WVrVRUt1JZ0051nfRRUd1Ge8fgvk3P28uD6Ag/wkO9GDrEl/BQb4YO8WVIqDdDI/yIifIjKtwHd3e91qHaVXZhI1c86PCD/2FuSBeV7UFaGhCchEgABEEFBg834qL9iYv2P+XPdZitVFS3UdvQQUNT56EP828/N3fS2tZFW3sXre1dNLV00tZupcvqGIODp9EdXx8Dvt4GAv098fU24OtjwM9H+nNwoImQIC+CA6T/Dg32IjjQRHCACW8vD63Dd0gPv7yVTotj/Pv2kQF4ESe7qGywEwmAIGjIy+RBQmzggHahd1l7aO+w0tRiobe3l7Z2K9buHsyd3XRaurF222hr7/rNY070tcP8fIzH1a33MnlgNLgd+WzydMfTKH2YPN3x9vJQtOKjAPmlzfywsUzrMAZiNjAa6dZSwQmIBEAQnJTBww2DvxuB/k5xMaTQR+99lefM+0duBh7QOgihbwbXwpogCIID6+6x8dG3+VqHIccNgFHrIIS+EQmAIAiCg1i+oZyK2g6tw5AjGLhI6yCEvhEJgCAIgoN498v9WoeghAVaByD0jUgABEEQHEB1XQffb3DKzX/HmgPEaB2EcHoiARAEQXAAHyzd5yq3VuqRCgMJDm4wJQBuwAXAh8AmYD/wI/AykKZhXIIgDHK9vfD+kmytw1DS7xlc44tTGizHAMcBHwMpx3x9BHAmcB/wJXA7UGvf0ARBGOw2bi9nf3Gj1mEoKQ44C1itdSDCyQ2GDG0OsJnjB/9jXQbsAIaqHpEgCMJR3l20R+sQ1HCz1gEIp+bqCUAKsBipTGVfRAPfA96qRSQIgnCUljYLi7/L1ToMNVwGBGkdhHByrrwE4I603u/Xz8elAs8DdyoekSAIwjE++yZH9qVQcTFx3Pw7Zd5w19TVYO228t2a7yg7KOtUgidwDfB/igQmKM6VZwD+Akwc4GP/AJyrYCyCIAgnpMT0/4TUCQpEIjF5mgBISkhSorlblWhEUIerJgDjgMdlPF4HvAP0/4YWQRCEPsraX8vWXZWy2vA0epIy4nRbnPrO28sbdBAXHXckGZBhDDBegbAEFbhiAmBEmvqXe89oFPCS/HAEQRBOTIl3/6nJqXh4KHetsl6vx9PgiV6vJyEuQYkmRWVAB+WKCcCTSOv4SrgJuFihtgRBEAAoONDI829u4cMl8m/OVXL6/zAvLy8AkhOSlWjuOuBRpGPXggNxtU2AU1H+Ksp3kO64rlG4XUEQBpHsvDoWf5fLsjWF7NhbpUib4SHhREVEKdLW0UwGE3q9nqDAIEKDQ6mtl1UexQ947tBHEbAM6XTWRsB5Lz52Aa6UAHgjTf27KdxuKPAqMF/hdgVBUFinpZvd+2o4WN1GgJ+RpOHBRIb7aBZPbmE9HyzO4tOv91FW0aJ4+xPGKv/uHwAdeJu8aW1vJTkxWW4CcLR44N5DH+XAZ8D7wD6lOhiAIUAS4A9UAbuBTg3jsRtXSgCeAxJVansesBRYpFL7giDIUHCgkX+8spEl3+/H3Nn9m+9NSovgD9eO45pLUzAalH5/cLyWNguLvs3lg8V72bTjoGr9uLu5MzZlrGrte5m8aGtvIyE2gU3bN9Hd3X36B/XPUOChQx9bkBKBz4BmpTs6AQPSm7o7kGaOj2YGvkBaTs6zQyyacZUE4GzgLpX7+C+wDpC3ZVcQBEV9sHgvd/x5JZ2WEw9QW3dVsnVXJX/651ruvGEcd1w3jtBgL8Xj2L6niv+8v50vlufRYZZ3rr8vkhKS8DIp//9xmLu7Ox4eHvTSS3xMPHlFqo6Fkw99vIz0ZutVpKRAacFIJd/vBiJO8jMmpH0LVwH3AG+rEIdDcIVNgH7Ae0hH99QUDLylch+CIPTDv9/dzs0Pf3/Swf9o1XXt/L+XNhA95TVuuH8ZWfvlT2vbbL2s3nCAi25eQvpFH7JwabZdBn+ACWNUmv4/ireXVBR1ZMJI1fs6xARci1S+fTtwA8q8UU0AXgFKgKc5+eB/NCPSa/6fFejfIblCAvBv7Hf39IVIt1wJgqCxf7+7nQeeXENvP7eRWbp6WLg0m9Q57zH9ik/4dnXBgNr46IssRs9+l9nXLmLZmsL+NSCTn68f8bHxqvdjMprQ6/REDYnC39df9f6OMQFpX9d+4I8MrET7dOBzIBdp38FA2ngKF00CnH0JQIsB+WVgDVBq534F4Tidlm4++WofX63IY39RA3UNZlX7CwrwZGR8MJfMSeC6y0bhZVLu/Hl/DHTwP9bG7eVcvKCcUSNCuG/BRK67bBSexpO/LHZaunl94U6efW0ztfUd8jqXYXzqePQ69d+/6fQ6wkLC6LR0MippFJu2bVK9zxOIR3qj9xfgn0jLsad6ohuB3wH3A0ptkngK6D7Uv8tQe9pcTUFAFn2bylHaaqRbBl3tCMvtwBsDffBt16Tx5rNzFQxHOJUVa4u59bEfVNld3heR4T68+ey5XHj2cLv2q9TgfyJhwV7ccf047rh+HOEhv75Z7O628cGSvfzjlU2a/X0fpkPH/bffT6C/fQuVtrS28OIbL2Lrtdm13xM4iLRB7z3g6PWWEKQy7nch7exXw2O4UBKgmr+VrgAAIABJREFU/pZY9bzH8bs37SUeqAW2adS/WiYizaoMyITUIVx0jiKVw4TTWLg0m3l3fUVTi0WzGFrbu1j0bQ4RYd5MSFXr9fa31Bz8AdrNVtZuLuPVD3ZQXNZMXHQAP/1SypV3fMUHi7NoadXu7/uw+GHxTJ1g/5c+o9FIeWU59Y31du/7GH5Ir1PXAPWADekd+gdIb8zUPPd5DtIRwY0q9mE3zroEcBXSFI+W/gmsAAo0jkMYZLbtruSWR5bT06P9BJTN1stdT6wiJTGE6elDVe3r3+9u5/5/rFG1j8MsXT289/ke3vtcfqlepWVMztCs7xmTZ6h9GqA/hgMfa9Dvc0iz589p0LeinHETYDjwmtZBIG0m+QDnnkURnND9//iRLmuP1mEc0d1t449/W63au3Kw7+DvyBLjExkea98ll6PFRseSnKhIeWBn9yzScoBTc8YE4DWktR5HcAbKlx4WhJPanVPDxu3lWodxnMysarbsqlClbTH4S8JCwrjqwqu0DoMrLriCiHAttl45nGeRNiY6LWdLAG4ALtc6iGP8A1DuLk5BOIVV6w9oHcJJrVxXrHibL7+zTQz+wKgRo1hw9QIlrueVzWgw8vv5vyc1Sak715zakzjxTIAz7QEYilTIwdF4Ip1VnYp0TEQQVFN6UNsd6KdyoFzZCq4vv7ONB578UdE2nYnBYCA5IZnxqeOJH6b+mf/+MHmamHfxPNLT0sncm0lOfg6WLu03SGrk2UOfnW5PgLMkADrgXSBA60BOYiLwONJswKBls2m/Kc3V9dg0P4J1Ukr++w/GwV+HjiFhQ0iISyAxLpGYqBjc3Bx7i1FcTBxxMXH02HooO1hGfnE+BcUFVFZX0utyp6RPySmTAGdJAG5HOt7hyP4CfAvs1DoQrVRUt2kdgsuLjvDTOoSTUiq2l97exoNPDY7B32gwMnL4yCODvo+3djcXyuGmdyM2OpbY6FhmZ8ymrb2NggMF5Bfnk1eYR6dlUFyu9yzSm9VnT/eDjsIZEoB44Hmtg+gDD+AjpNmAQTkXtm5rGW3tXfh4G7QOxWWdfcYwrUM4qXOmx8puYzAM/nqdnuGxw0kblUbyiGQ83LWppqgmH28f0kalkTYqDWu3ldz8XHZl76KguMARCgmp6ZlDn50iCXDs+SVpk+KXqHfNr9LCkBKB1VoHMkCyCgF1WXvw8TIwY1K0giEJR4sM9+XrlflU1bZrHcpvJA0P5rnHZqHXD7y4qKsP/uEh4UyfNJ3Lz7+cSeMmER4ajpve0V+C5XPTuxEeGs7YlLGkp6Xj6+NLW3sbbR0uO2N4NtAFbNA6kNNx9FLADwAvah1EP/UAM4BftA5kAGSVAgYwebqzfdmNpCQ6yklN1/PTL6XMvvYzhygEBKDTwXcfXMV5swa+Uc1VB383vRujk0czbcI0IodEah2OQ6msqWTTtk3szdlLj81x6loo6HEcfCbAkdPPZGAR0jtqZ6JHSgCOrVPtDGTNAIBUFOa7NYVccd5I/H2NCoUlHC0u2h9fbwMr1yt/7G4gnnoog5vnjxnw49Ua/A0eBi6acxFubm7UN9TbdVOawWBgUtokrrr4KsanjsfXx9dufTsLX29fUkakMC51HDqdjpq6Gnp67JcI6HQ6UhJTOGPSGRSVFqnRt8PPBDhqAuCOtKEuVuM4BioY8AV+0DqQfpKdAAA0t1r47qci5l2YhI+X2A+ghqnjo0iMC+LHjSV0WrR59+TnY+T1p+dy780Dv5f+xbe38tBTPykYlcRgMHD9ldeTMiKF0UmjSRudZpdBxtvLm4wpGcy7aB4pI1LwNHqq1per8DR6khCXQHpaOp5GT2rqauiydqnWn8FgIH1sOldddBWTxk0iMjyS+Jh49ubuVSsJsALrlW5YCY66BPBnpMsdnJkN6eII5V/d1CN7CeBoiXGBLH3zMkaPDFWqSeEYDU2dvLYwk69X5rMvv54Os7qTTiZPd5ITgrnonATuumE8ocFeA25L1cH/iuuJjY497nuWLgvbd29n847NNLU0KdanydPErGmzSE9Ld8lNffbU3d3Ntt3b+HnTz3SYlbty2d/Xn8njJx9JNI5VVlHGB59/QFeXKsnHn/l1g6DDcMQEYCywFXCFt44HgDFAq8Zx9JWiCQCAt5cH7/zzPH53sagfbg+t7V10d6uzy9rNTYefjzLLOmoO/jdceQPDhp76tITNZmNf3j42bd9EWUXZgPtz07sxadwkZk2bhZdp4MmQcDxzp5m1v6xlc+ZmWe/MoyKimDZxGqNGjjrtpsvBlgQ4YgKwFtDuuivlPY3z1ItWPAE47K4bxvPcYzPFEUFB88H/WGUVZWzatol9efv6dUQtKSGJubPmEhIkNryqqaGxgRVrV7Avb1+fH6PT6UhOSGZa+rQBPR8GSxLgaAnADGCd1kEorA3pBkPl5rLUo1oCABAd6cerfz+HS+Y4y6lOQWmONvgfram5iV92/MKOPTtOWdY2ckgkc2fOdbjyvK7uQNkBVvy8gvLKk1+GZTAYmJA6gSkTphAUEDTgvgZLEuBoCcALwIMKtNMJZCFtahuo9UgJiRIuAb5RqC01qZoAHHbJnET+8/dziIl03Kp2gvJeeGsrDz/tmIP/0SxdFrJys8jJz6G6rhqLxYKPtw+R4ZGMSx3H8GHaXccrQFFJEZlZmVRUVdDW3obRYCQsJIykhCRSk1MV23hZVlHGh59/qNYdBw6RBDhaArAcOFeBdh4G0oBrZbRxA3A9MFuBeP6Ec9SItksCAOBpdOe2a8byp7umMiTU2x5dChp6d9EebnlkueLtKj34C8LRVE4C7sBOr7cn42jXAStx2c8vwMsKtNMLLACUuOJMvNU9Rqelm/+8v4PhM97k4ad/orbeGVZIhIEoONDI3U+sUrxdMfgLaouOjObGeTdiNKhS0+TfwEg1Gu4rR0sAamQ+3gz8HqkanxLKgD8q0E6dAm24pA6zlRfe2kr8jDd58KkfKSpV7miW4BieenUTnRZlb8o2Goxi8BfsIjoympvm36RGEmAEnlC60f5wtARgq8zH/xnYr0QgR/kQ+ev3W5QIxJW1tXfx0tvbSJz5Fhcv+IJV6w/Q6xiVbgUZuqw9LPle2V9Jo8HI9VdeLwZ/wW6GRgxVKwm4HNCsWpSjJQBfIBXQGYgNwCsKxnK024H6AT62BNisYCwuzWbr5dvVBcy5bhGjznmH/36USWPzoLhK1CVl7a+jvUO54kRi8Be0olISYELar6YJR0sAcoFPB/C4dqSpf7XumawC7hzgY/+GcksSg0pOQT13P7GKiIn/x2W3LWXpD3lYusRfpTOprlPu1kKjwcgNV4lpf0E7KiUBYUo21h+OlgAA3AMU9OPnbcBN/XzMQHwO/Kufj/kU+ED5UAYXS1cPX63I54rbv2TIhFe59dEfWLu5DJtNrBE4Oi9PZcriHh78Y6JiFGlPEAZqaMRQLj3vUgwGxYqaabYD2hETgCbgTGBnH362A+mo3hJVI/rVY0jXE/dlpuE9pFkJQUFNLRbe+Ww3s+Z/StSk/3Lroz/w9cp81WvgCwOTnBiMToHDxueddZ4Y/AWHYO22EuQfxPRJ05Vqsu8lDhXmiAkAQDkwFXgAaSf+sTqBT5DWTgayZDBQvcBDSDc8rebEiUAmcBnSEUL1rrQSqKpt553PdnPprUsJSfsPF9y0hDc+3kl5pbNcveD6woK9mJQWKbudvMI8BaIRBPna2tvopZfS8lIlmtsJVCjR0EC4a9VxH1iQzvP/G+mCoDjAGziItKtey4PjPx/6iAJGHfrcDOwCijSLahAzd3bz/U+FfP9TIXf+ZSVjksKYNTWGM6fGMGNSNEEB4lpWrfzh2jS27JT3GpdbkEtDU4Os8q6uytptpaauhvrGepqam2hsbqS1rZX2jnY6Ojswm81093Rjtf52lszD3QN3d3dMJhNenl54mbzw8/Uj0D+QAP8AggODCQsJE7cbHsVms2HuNNPW3kZRiSIv9W8p0chAOVolQCV9jLxKgNcfamMwsVslQHvS63WMSQpl1tQYZk2JIWNyNIH+IiGwF0tXD7HTXqeqVt6GwCnjp3DBORcoFJVzstlsVNZUUnqwlLKKMiqrK2lobOjXJUb9odfpCQoMIiIsguioaGIiY4gIj0Cvd9TJY3W1tLXQ2tbK5h2b2ZW9S25z9UAMGr6ZdeQZAMHJ6HQ45Nl9m62XXftq2LWvhn+/ux29XkfqyFDSx0YwccwQ0sdGkJoUiof74HxRU5vR4MZdN47niRfWy2onMyuTs2ecrVitd2fR2NxIflE+eUV5FJcW02W138qirddGXUMddQ117M3dC4DBw0BcTByJcYmMiB9BYECg3eLRUi+9dJg7sFqt5OTnKNHkG2h8SZyYATg5MQPQTzddPIK0kUH89bUdtLQ716Y8D3c9iXFBTEgNZ0LqECakDmFSWgQGj1PfHy70TUNTJzFTX5NdE2DOzDnMmKzUHV2Oq6mliZz8HLJysyg9qMhas2rCgsMYlTSKMcljXPpq5PaOdppamtiTs4dN2zbJba4LiAUqZQcmg5gBEBRj8NDzx2tHc+XsOB57ZRuffF/gkDMCJ2LttrEvv459+XUsXJoNSBcWJQ0PIikhmFEjQkhOCCYlMYSE2EAxW9BPQQGeXH/5aN74uC+He05uS+YWpqVPw03veomZtdtKdm4223Zvc/hB/2g19TXUbKzhp40/ERMVw8SxExk9cjQeHq61d6C9o53e3l6ycrOUaO5/aDz4g0gABBVEhXmz8OlZ3DEvmUde3srGXdVahzQgnZbuI0sHRzs8W5CSGExyQjCJcUHEDvVn2FA/osJ9cXNz5Ym1gbtvwUTe+nSXrPoNza3NZOdmMyZljIKRaau5pZlfdvzCjj076LQ4d9XL0oOllB4s5fs13zM+dTxTJ0wlwF+JO9601dnVibXbyoGyA7S0tijRpBIX1skmEgBBNdPGhrPhg4tYtfkgf38j02kTgWMdPVtwLA93PUMjfBkWJSUEsUP9DyUH/sRE+hER5o2XybXeGfXVyPggzj8znmVrCmW1s2n7JpdIAKpqq1i3eR3Z+7Ox2dQqYqqNTksnm7ZvYnPmZkaNGEXGlAyGhA3ROqwBa2trA2D3vt1KNLcGUKQhuUQCIKhu9pQoZk+JYs2WCv72RiYbdlZpHZJqrN02isuaKS47+S3SXiYPwkO8CA/xJjTYi9AgLyLCvQkN8iI02Ishod6EBXvh72vEx9vgdCcWLF09NLdaaG6x0NTSSXOrhcbmTppaLPj5yC+herDqIAfKDhAbHSs/WA3U1tfy08afyNqfRa+zrJENkM1mY2/uXrJysxg1chRnTj+TsGDNKt8OiLXbSldXFzV1NVTVKPLa9ZISjShBJACC3Zw9OZKzJ0fyy54aXv1fNktWFWPtdq13Pn3RYbaeNkk4lreXBz5eBny8PQjw88TH+/CfDfj7GvHzMeDmpsfL5I7R8Ov6uJfJ4zd/9vYyYPA48f6FphbLkQGprd2KtVu6d8HS1UOHWbrOt6fHRktb16Gflwb3ppbfDvbmTmWv/j2RTds3OV0C0N7RzpoNa9ixe4dqx/YcVS+9ZO3PYl/ePsaPGc85M87B28tb67D65HDhnz379ijRXC6wXImGlCASAMHupo4JY+qYMF58cDJvLM7hrS9yqaozax2WQ2vvsNLeYaX6+FWHQSm3IJeGxgaCAh2/MJDNZuOXHb/w86afnX6NXy5br43tu7eTlZvFrGmzmDphqkPXFFCh8M/LSBVlHYLrbaX91eWAnIXCLwFFUj4nMhG4cKAPnpASwkUz+16v3dfLgzPTI7n36tGMGh5Au7mb4oOtTnNyQNBWL72MiB+hdRinVFldySdLP2Fn1k66e9SfGXEW3T3dFBwoYH/hfqIiovD18dU6pBNqbW/F0mVhx94dSkz/1yHdD+MwTwTHTb2EQcPgoed35w5n+X/PpXTF1fzr/kmMGj44iosIA7czayfmTsecOeqx9bB63WreWPgGFdWalXp3eJXVlby58E1WrVtFT49jXfWtQuGf1wGHesKKBEBwKJGhXjx84xiyvriC7Z9eykM3phI/1DHfHQja6urqYm/OXq3DOE5dQx1vf/w2azevdbnd/Wqw2Wys27yOtz5+i9r6Wq3DOcJsNtPT00NhSSFdXbKrL1qA1xQIS1EiARAc1oSUEJ6/fzKFy+azc9Fl/PX2cYxOEDMDwq9yC3O1DuE3dmXv4vUPX+dg1UGtQ3E6FdUVvP7R6+zMklcsSilt7dLRvwNlB5Ro7lPA4Y4/iU2AglNIGxlM2shg/n7HBPJLm/nm51JWbCpn/c4qOi2ONXUo2E9Nbc3pf8gOemw9LP9xOVsyt2gdilOzWq0s/X4p5ZXlnH/W+bi5abNN7XDhH4CGpgYlmvyPEo0oTSQAgtNJjPHnwRtSefCGVDo6u1m3o4oVm8r5YVM5ucVNWocn2JGly6J1CHSYO/j0y08pKS/ROhSXsXXnVqpqqrjmsms0OS5o7fr1zopjr1EeoNFI18U7FJEACE7Ny9Odc88YyrlnDOVloKyqnbU7Klm3o4r1O6tEQuDifLx9NO2/vrGehUsWUt9Yr2kcAJGRkSQkJpKQkEhCYiKJiSMICgrCz88PL28vvL198PGR/r7a2tro6Gino72D5uZmGhoaKCjIJz8vj8LCAgry8zl4UNtljNKDpbz18Vtcf+X1dr9kyNvLm7aONmw2GyaTSYnNpn8DFgEOdUuaSAAElxI9xJvrLkjgugsSAKhpMLM+s4r1O6vZuLOK3XkNg7L4kKuKDI/UrO/yynIWLllIh1mbG11Hjkxi+owZTJ+RwRnTpxMU1PeaCD4+vyYDh5151lm/+XNjYyMbN6xnw/r1rF+3jv377b/foqGpgbc/eZvrrriO6Mhou/Wr1+vx8/GjqaWJ0KBQGhplLwMMBxYg47ZVNYgEQHBpYUEmrjgnjivOiQOkqna79tezNauWbdm1bMuuI6+kWdYFNYJ2xqeO16TfkvISFi5ZaNclCJ1Ox5Sp05g3fz5zzz2XsLBwVfsLDAzkwosu5sKLLgagpqaaVStXsuizz/hl00a7lTHuMHfw4ecfcu3l1xIXE2eXPkGaBWg3t5OUmMT+wv1KNPkE8CEOdBRQJADCoGI0uDE5NYzJqb/WI29pt5KZU8fe/Ab25jeyJ7+B7MJG2mTeXS+oKyoiiuGxw+3eb1FJER8v/VipteHTiouPZ9783zFv/u8YNmyYXfo8kbCwcK697nquve56ysrK+HzRZ3y+6DMKCwpU79vSZWHhkoVcfdnVJMYlqt7fYf6+/kSERRARFkFljezbeyOBu4Hn5UemDFe+t/Rj4FoZj7/+UBuDye3ImKK67Yok3nxiuoLhaKe3F4rKW9iT38C+oiZyiprIK2kmr6SZ5jbZZ4IFBSy4eoHd7wMoKS/hw8Uf2mXwnzBxIg88+BBz5p6LTueYL9W9vb2sXrWSl154gW3btqren4e7B9dfeb1dZwLqGusoO1jG0u+XKtFcPRALtCnRmFxiBkAQTkCng+HRfgyP9uOy3y6NUl1vJvdAE/klLeSVNFNY3kJJZRsHDrZS36z9rvTBICUxxe6D/+E1f7UH/zOmT+eBBx9m5qxZqvajBJ1Ox+w5c5k9Zy7r163jpRefZ/26dar1Z+228vHSj7lp3k122xPg7+uPJcRCQlwCBcWyZzuCkcoBvyo/MvlEAiAI/RQebCI82MTMCRHHfa+tw8qBijYOVLRyoKKN0so2Kus6KK9up6reTHl1u1hakMnNzY05s+bYtc+GxgbV1/xHjBjJP59/gRkZGar1oaYZGRnMyMhgw/r1PPrwQ6ptGuzq6mLhkoXcdt1tdjkd4OHugcnTxOTxkykuLVaiZPF9SFUBNS9gIhIAQVCQj5cHoxMCT1mxsN3cTXl1O9X1Zipq26lvtlDX2El9s4X6JulzXVMndY2dNLd10dTqfEsO3iZ3/LwN+Pl44OdtwN/HQEVtO/uK5B/LnDxuMsGBwQpE2Tcd5g4+WvKRarv9TSYTDz3yKHfceRcGg0GVPuxp+owZ/Lx+A2+89l+e/9c/6ehQ/u/N3Gk+kgTYo06Ar7cvnZ2djEkZw869sisVxgOXAUvkRyaPSAAEwc68Te6MjPVnZKx/nx/T0m6lpa2L1g4rre1WWtq7aGrpoqOzm86uHsyHPndaejBbeo58DaC7x0Zr+/GzDtZuG3q9Dje9tL5s8HDD2/TrS4Kfjwduh65qNXjof/O9QD8jft4e+Hob8PP2wM9H+hzgKw32ev3xa9azFnwHyEsATJ4mZk2bJauN/uix9fDpl5+qds5/ztxz+efzLxAdbb8jbvbg4eHBPX+8j8uvvIpHH36IH5Z/r3gfDU0NfLL0ExZcvUD1ioEeHh4YjUbGjR5Hbn6uEnUBHkQkAIIg9IWftwd+3h5ahzFgOcVNrMuUvYuaM884E5OnSYGI+uaHH39QpcKfwWDg//39H9x2+x8cdoOfEqKiovj40//xzttv8dcn/kKXRdkllLKKMr5b8x0Xz7lY0XZPxNfHl05LJ+lp6azbLHufwxRgOrBBfmQDJy4DEgRBdW8tyUXusXEfbx/Sx6YrE1Af7M7ezebMzYq3Oyw2lu+Wr+D2P9zh0oP/0W659TaW/7CS2Djld+9v27XNLhcIGTwMGAwGkhKSlFp2uEeJRuQQCYAgCKoyW7r58Nt82e1MmTAFd3f7TFrWN9bzzcpvFG/3vPMv4Ke16xk3XpsCRloam5bGT2vXc8GFFyne9rervrXLVcI+Xj7o9XrGpIxRorlLgL6Xb1SBSAAEQVDV5yuLaWyRN/Vr8DDY7d2/zWZjybIldFmV3Xx59TXX8v6HH+Hn56dou87E19eXDz5ayB133qVou1arlcXLFiuxQ/+UPD09cXNzIyUxBaPBKLc5I3C1AmENmEgABEFQ1ZuLc2S3MXHsRLxMXgpEc3o/bvyR8spyRdt86OFHePW/r9ltBsOR6XQ6nnz6GR790+OKtltZXcmaDWsUbfNYOnT4ePng4eFByogUJZq8WYlGBkokAIIgqGZPXgO/7KmR1Yab3o1pE6cpFNGpVdZUsn7LesXa0+v1PPev53ns8T8r1qarePiRR3nxpX8ruoN/47aNVFRVKNbeiXiZvNChIzU5VYnYxwNjFQhrQEQCIAiCahZ+J3/tPzU5FX+/vh+ZHCibzcZXP3yFzabcbZH/eOppbrn1NsXaczU3/v73PP/CS4q1Z7PZ+HL5l/TY1FsK0Ov1eBo98TJ5MSJ+hBJN3qREIwMhEgBBEFTR2wufryiW3c7UiVMViOb0NmduVvTd44MPPcwf7rhTsfZc1Q033aTockBVbRWbdyh/euNoXl7ScpRCmwF/h0ZjsUgABEFQxcZdVZRWybvzJCwkjMjwSIUiOjlzp5mfN/2sWHs33HQTf/rzXxRrz9U9/Mij3P6HOxRr76eNP9HWrt59O0ajEb1eT6B/IKHBoXKbG4JUF8DuRAIgCIIqlqw+ILuNcaPHyQ+kD1atW6VEdTcA5p57nqLT2oPFk08/o9gRQUuXRdUNgTp0eHlKswAjh49UoslLlWikv0QCIAiCKr5dK6+Cnl6nZ2yK+vuj6hrq2LF7hyJtxcTE8Nobb6pemtYV6fV6Xv3va4oVC8rck6lqbYDDFSkT4hLQ62UPpSIBEATBNWQXNlJU3iqrjeFxw/H18VUoopP7ceOP2Hrlb/zz8PDgzXfexd9f/Q2LrsrPz48PF36C0egpuy1br40fN/6oQFQn5mHwwM3NDU+jJzFRMXKbSwRGKRBWv4gEQBAExX23vkx2G2mj0hSI5NSq66rJys1SpK2//u3vpKdPUqStwWzUqFH8/cknFWkre382VTVVirR1LB06TEZpFkChZYBLlGikP0QCIAiCYrIKGnnghc08995uWe0YDUaSE5MViurk1m9eT6/cSwqAc86ZLXb8K+iWW2/j3PPOl91Ob2+vEhf3nJTnoZmKmKgYjEbZlQEfAV4BFDla0BciARAEQZaWditvfZHLlOu/IfXKL3j54yzZpX9HDB+Bh7u6tx82tzYr8u7fZDLxzxdeHDQX+9jLc/96/shxOzmy87JpapZ3DfXJGIwG9Do9bm5uxA6NlducP3AvsBvYBtwBBMht9FREAiAIQr/19sK6HVXc+MRaIs7+hNuf3MCWvfIq/h0tMS5RsbZOZvOOzYoUjLn/wYcYNmyYAhEJRxs6dCgPP/Ko7HZsNhubtm9SIKLj6dAdeecfHRmtZNMTgdeACmAhcCageIYpEgBBEPqssq6DVz7JYsxVXzBzwTI++jafjs5uRfvQoSMhNkHRNo9l7bayY4/8nf/xw4dz992a3+rqsu64625SUuTvjduZtVPxy50OM3pICcDQyKFqzAKZgOuAH4ES4DkgVqnGRQIgCMIpWbttfPnjAS66dyXRc/7Hfc9vJqugUbX+wsPCVd/9n70/W5Fz//96/kUM8td+hZNwd3fnmef+KbudTksn2fuzFYjoeAajAZD2AyhQFOhUooFHgQLgO+AKwCCnQZEACIJwQjnFTTz00haGzvkflz+wmmXrSumxyd8wdzr2mP7fvnu77DamTJ3GrDPPVCAa4VSmz5jBjIwM2e0o8W9+Ih7uHkfqPii8DHAybsD5wBKgHHiJAR4hFAmAIAi/kVfSzJUPrWHU5Ut48aO91DQoUyGvr9Se/m9sbqS0vFR2Ow88+JAC0Qh98cCDD8tuo/RgKQ1NDQpEc7zgwGC8vbyJGSq7HkB/hQL3A1nASiC1Pw8WCYAgCEf8sLGccfO/5IvVxShwOq7fDB4G1V9Es3Kz6EXe/1zauHGcdfbZCkUknM6MjAxFaiwoVfPhWB7uHgT4BTA2ZeyRo4EamA1sB67p6wPc1YtFEAR7OFjTzrdrS8k90Ex1vZmenoFVtbP1SuVg73krAAAgAElEQVR7u6zKXYfbX0kJSbi7qfuypMQgcP8DDyoQidAfDzz0EFfPnyerjb25e8mYIn854WTc9G6kjEghc2+man2chgH4CGgAfjjdD4sEQBCcVE2Dmcde2cZH3+bbZW3eHsaPGa9q+00tTVRUy7vyd9iwYZx/wYUKRST01Tmz5zA8IYHCgoIBt1FVU0VjUyOBAYEKRvZb40aP0zIBAGmPwLvASOCUVyKKJQBBcEL7ipqYdO3XvP91nssM/ikjUhg+bLiqfeQX5ctuY97834miPxrQ6XTMm/872e3kF8t/DpxKbHQsqUn9WopXQyRw4+l+SCQAguBkahrMnH/XD5RUqnffub2FhYRx8ZyLVe9H7ou/UoOQMDBXzZsvO/nKK8pTKJqTu2jORQwJHaJ6P6dx+el+QCQAguBkHn91u0sN/olxidxyzS14e3mr2o+t10ZRSZGsNtLTJxEXH69QREJ/xcTEMHXaGbLaKC4tVqQC5KmYPE0suGaBUpcEDdRp79IWewAEwYlU1Zn54Gv138GoTYeO2JhYMiZnkBCn7rG/w6prqrF0ybujYP7vrlYoGmGg5s2fz6aNGwb8+C5rF1XVVURFRCkY1fE8jZ5cd8V1FJUUsXbzWopLixW5eKofApHKB5+0U5EACIIT+W69fYrxqMXP14/xo8czLnUcQQFBdu279KD8s/+z585VIBJBjjlz56LT6WQNpiUHS1RPAA6LHxZP/LB4mpqbyNybSWZWJs0tzfbo+rQz/CIBEAQnkntAnVvN1OTu5k5SQhLjUseREJeAXqfNymNphbwEIH74cCIjIxWKRhiosLBwRowYyf79uQNuo6yiTMGI+ibAP4Czpp/FmWecSWFJIZl7MsnJz6G7R9m7NPpDJACC4ESaW61ah9BnQ0KHMH7MeMamjMXLJP9aV7mqaqpkPV6JcrSCMmZkZMhKAOQ+F+TQ6aTLrhJiEzB3mtm9bzeZezKprKm0eywiARCOJqvma1OrOrdtCb8KDzZpHcIpeRo9GZMyhvGp44kaYp8p1r7o7ummrqFOVhvTp4sEwFHMyMjgnbffGvDjGxobsFqteHh4KBhV/5k8TUwZP4Up46dQUV1B5t5MdmXvwmKRt1elr0QCIBxN1hVvm3ZX09sL4oi0eiaNVvW2MVnOmn4W0ydNx8Nd2xfVE6mtq8Vmk1fhcPr06QpFI8g17YzpsvYB2Hpt1NTXOFSSGhkeSWR4JOnj0snJyyG3IJeDlQdV7VMcAxSOJuumjPLqdr788YBCoQgncs6USEICNKs1flKeRk+HHfwB6pvqZT0+LCyM0LAwhaIR5AoMDJS9H6O+Ud5zQi3ubu4kxiVy0eyLVO9LJADC0bI5xZGRvnj45S20tjvPOrWzMRnd+cutaVqHcZyZU2c67OAP0NQsb/NkQoL6VxQL/ZOQKO/fRO5zwhWIBEA4WhMw8ELbQFF5K9f9+Wes3dpdKOPq7rl6FBfNtPu1o6c0edxkrUM4pcZmWatbJIwQCYCjkZuUyX1OuAKRAAjHGniFjUO++bmEm55Yi82Jz6s7Mr1ex6J/ncXV56lbN78/dHrH3vjR0toi6/FiBsDxyJ0BaG61y1l8hyYSAOFYi5Vo5NPlhdz017V0WtQtuTlYmYzufPrsmXz179lMGh0qNl6eRoe5Q9bjE2UONoLy5CZlZrOsQ08uQZwCEI61GqgHguU2tHBZATlFTSx58RyGRfjIj0w4ziWzhnHJrGFU1HaQW9xEffPAjg9d89hPdPe47rKN3AQgKEj2r4OgsJCQEFmPbze3KxSJ8xIJgHAsK/A68BclGtu+r46JV3/Fx8/MYu60oUo0KZxAZKgXkaEDL7Zz3eM/gQtP1pg75b3b8/EVCayj8fGR928iZgDEEoBwYi8DrUo1VtfUybl3/sC8h9dQ0yB+6QT7s3bLO5ni4+OrUCSCUrx95N0e2d2tXQleRyESAOFEGpCSAEUtXlVM8mVLePfL/dj3UixhsLPJXN7w9lb3qmKh/3x9/WQ9vqenh155p56dnkgAhJN5FlD83tmGZgu3/H090278htVb1K1yJQgAvfTS0yNvfUPudLOgPE9PT9zc3Ab8eCWeF85OJADCyXQCtwGq7AzbvKeG2bcvZ+aCZazbod3FHILQF3a+x12wEx2D+/iMSACEU1kL/E3NDtbtqGLmgmXMvn05P22z/21YguvToZP1ThGgvV3sGHc0ZrNZ1jt4HTr0boN7CBzc//dCXzwFLFG7k9VbDnLWrd+RdOliXvkki3az2KAjKEfuC71IABxPW5u8fcpubm5iBkDrAASH1wvcDGy2R2f7DzRz3/ObiTn3fzzy8lYOVCh2GEEYxOTeUyB3sBGU19baJuvx7u7iFLxIAIS+aAXOBXbYq8OGZgvPf7iH4Rd+zvSbvuWVT7Kob7LPHdmC6zF5mmQ9vr1NzAA4mrY2eQmAl2ngdTNchUgAhL5qRkoCttmzU5utl427qrnv+c0Mnfsp8x/5kW9+LqHL6rpV6wTlyX2xr6urVSgSQSl1dXWyHi8SAJEACP1TB5wJfKdF552WHj5fWcQl960i8pxPuPUf6/n65xI6OsV+AeHU5L7YF+TnKxSJoJTCQlkXl2IyyZsVcgViEUTor3bgUuDfwF1aBVHfbOGdpft5Z+l+TEZ3zkyP4KKZMVyYEcPQcFG0RfgtP5lFY/ILRALgaOQmZf6+/gpF4rxEAiAMRDdwN7AJeBPQtEqK2dLN9xvK+H5DGXc+s5FxSSGcPz2aWRMjmJYWhskonuaDXaB/oKzHF+SJBMDRFMhMyuQ+J1yBeGUU5PgU2An8DxircSwA9PZCZk4dmTl1PPX2TgweeianhjFrYgSzJkYwdaxICAajAP8AWY+XO9gIypM7AyASAJEACPLlAOnAn4HHAXnnrRTWZbWxPrOK9ZlVPPnWTowGNyaNDmXmhAjSR4UwcVSorFv0BMlHiz9ifOp4Ro0cJfvInRqCA+Vd51tbW0ttTQ2hYWEKRSTI0djYSEVFhaw25D4n1NLd001+cT65Bbmq9yUSAEEJVqSKgV8BbyElBA7J0tVzJCE4LDLUi/RRoUwcFcLElFDSR4USHGDUMErnU1xaTHFpMd+t/o7U5FQmpE4gKiJK67COCA0OxU3vRo9t4JXjNmxYz2WXX6FgVMJAbdywXlZ5Zr1OT2hIqIIRyVdRXUHm3kx2Ze/CYrHPkWeRAAhK2gVMAW5CukzIKd4uVdR28PXPJXz9c8mRr8VF+TIhJYSk2ABGDQ8gKS6A5LgAjAZ5JWVdXaelk227trFt1zbCQ8MZnzqetFFpmh+5cndzJzgomJq6mgG3sX79OpEAOIj169bJenxQYJBDzFSZO83s3rebzD2ZVNbYvxS6SAAEpdmA94ClSEsCdwNOd96m+GArxQd/W/3NTa8jLsqXlOGBpMRLCUHK8EASY/zw9zFoFKnjqq6tZvmPy1m5diXJCcmMHzOe4bHD0eu0OX0cERYhLwGQOegIypH7bxERFqFQJP3X29tLUUkRO/buICcvh+4e7Y4xiwRAUEsT8AjwPPAgcB/g1PPqPbZeCspaKChr4ZujZgsAPI1uRIZ6ER/lR/xQ30MffkSEmIgM9SYuyhfdIC073tPTQ9b+LLL2Z+Hr40vaqDQmjp1IUECQXeOIjoxm977dA358cVER5eXlDB06VMGohP6qrq4iP1/eTeXRUdEKRdN3LW0t7M7ezbbd22hsarR7/yciEgBBbbXAY0jHBR8Gfg94ahqRCjotPRSVt1JU3gpbjv++j5cHwyJ8CA82MSTYRGiQidBAT4YEmwgLMhFy1H97m+z/a6nX2yc7aW1rZf2W9WzYsoHYmFgyJmeQEJdgl75jhsbIbmPVyhX8/uYFCkQjDNTKH1bIvp45Jkr+c6GvikqKWLd5HUWlRfa+Vvq05VJFAiDYSzFwJ/B34I/AHYC8s1lOpK3DSnZhI9mFp8/8vTzdCQsyERxgxMfkgY+XOz5eHvj7GPDz8cDb5IGPyQM/H+lr3ibp+75ev65p+vsa0B815RDga/jNDESg328nY8ICTZRWyaut3h+99B7ZOJgQm8C8i+fJrtd/OuGh4RgNRixdA99g9flnn4kEQGOff75I1uMNBoNdlgA6LZ0s/nYxeUXyZitkaES6zO2kRAIg2Fs10t6Ap4HrkKoJpmoakYPp6OzmQEXroLkJseBAAe988g43X30z3l7qVXHU6/TED4snJz9nwG1s376NosJC4ocPVzAyoa9KSkrY/MsmWW3Ex8Sj16u7D6XD3MH7n71PVW3V6X9YPadd7xJ3AQhaaUdaFhgDzEIqKtShZUCCdmrqa/h6xdeq9zMifoSsx/f29vL5os8Uikbor8WfL5I9jZ4Yl6hQNCf37apvtR78Ab443Q+IBEBwBGuBa4Fw4AZgJTDwA9uCU8rJz6HwQKGqfSjx4v/5os+w2cRtlPamVPIlNwk8nQNlB8jKzVK1jz44CHx4uh8SCYDgSNqAhcBcIBp4ANihaUSCXWXuzVS1fX8/f6KGyCtQVFpayvffLVMoIqGvVq74gaJCeQliRHiE7LLQp6P2c7gPeoAFSLOspyQSAMFRVQIvAxOBFOApYI+mEQmqyy3IVf1c9Oik0bLbeOnFFxSIROgPJf7OU5PU3W7UY+uRtcdEARakvVUr+vLDIgEQnEEO8ATShUMxwB+A/9/evYdFeZ6JH//OCMNBVBAU8YQnFBTxhAdQY9QkJjGJSUxM1WhMtm7TtNtu2iZNGrPdbfprEnPYbLs5dpuY2Dbn3Wy6baJJU41GMSIeQFBAEVAQEeTMzMDM/P54wRpEBd7nnXdmuD/XNZdeHu7n5jA89/scP6YLFa7wL84WJyUnSwxtIzkxGQv6tj0eOniQzz//TFFG4kq2b9vGvsxMXTEsWJQUf51paWmhpr6Gg7kHsTvshrTRBVvRHpi6PE8iBYDwN6VoiweXATHAtcDTaEWCCACFJwoNjR/ZP5L4EfG64zy3caOCbERXPPfsM7pjjBw+0rAbAKvOVdHY2Gh48dqJc2j3r0xDmzrt1uIDKQCEP7MDn6MdNDQRSEQ7X+APgNffiUKNguPGX72bOiVVd4y9e7/mr3/9XEE24nK2b9vGrq926o6TmqL/a96Z1tbW85dMlZaVGtJGBy7gE+BOYAjwHbR7WLpNCgARSI4Cr6DNgcUDw4AVwK/RFhPK0m0/UFFZQX2DsWcgTJowSckFRY88/BAOu2lDvgHP6XTy6E8f1h0nNCSUSRMmKcjoYu0HS9kddiqrKg1po81JtNHOccCNwAeAU09AKQBEICsD3kc7eTAV7XbCZcBGtJGDKvNSE5fiwWP4NEBQnyBmpMzQHafo+HF+85tfK8hIdOalF/+T/PyjuuNMnzyd4GBjbv+zO7UCsLSs1IijfpvRRjQXoa1/egQ4oSq4FACiN6lCWzz4U7S1AzFoIwXLgJ8DH6HwzSV6rqDI+GmAOdPn0Meq/3rnF55/nuITJ/QnJL6htLSU557Rv87CarWSlpqmIKOLefDgdGgP4YqH//ehnZI6FG1E829c4VjfnpCjgEVvV9L2+viCP4tCW1QzFUgCxqOtLxjs9ex6qfxj+bS0tBj21AbQv19/JidN5sDhHk2fnme3N/PwT37MO+9/gKW3XvmomMfj4acP/YTm5mbdsZITk4nsb8zef4fTgdvjxuVyUVxafOX/cHm1wFvA7+jCMb4qyAiAEBc7B3wBPA+sBxagnVIYiTaVsAJtKG4zWqXuvVt0egmH00FeofEbOxakLcBq0f9j8K9//ZyXX/xPBRkJgNdefYWtWz7VHcdisTB/1nwFGXXO3rb+o/hksa5LptpsBH6Alzp/kBEAIbqjFq3D73g6oQVtwWE8MLztNRLtNMPhbb8O8V6ageFAzgFSklIMbSNmYAyTJ07m4GH9P3Of+MW/MWvOHFJTZyrIrPfan5XFv/38X5TEmpw4mSGDjXnrefCcLwCOHtO/TgEw/jKMDqQAEEI/D9oK3ZOX+TchaEVCe3EQ0/Ya1PaKueAVjYzOcezEMeob6ukX0c/QdhalLyI7L1v3+f4tLS2sv+9evti+g6goY/abB7ra2lq+fd86nE5di9sB7fbHhXMXKsiqcy3OFlxuF832ZhXz/wXAYQVpdYsUAEJ4hwM43va6EgvfLAYigfC2X/u2/b4f0L/t9+EX/JtQIBiI6BCv4yToAP5eZLiAug5/X8M3Fx3VA61o244a2/6+qe1VizYN0tT2a23b728F7uvCx9spt8fNwdyDzJs1r6chumRg1EBmTp3Jnqw9umOVlpbywP3fYfMf/khQkPx47Q6Xy8X3vns/xcW659IBSJ2aSszAGCWxOtNk1y4vLSwqVHE51Ee6E+oB+Q4Vwvd4gMq2lz8rRkcBALA/Z7/hBQDA4nmLyc7LpqlZ/43Un23dwg++/z1efPkVWRTYDRt+9iiffvIXJbHCQsNYPG+xklid8kCzXVugqGj435QCoNcPMwohDHMInUc0nzl7hrKKMkXpXFpYaBiL5i5SFu+9d9/hV798Qlm8QLfxqSf57WuvKou3cO5CJQc9XYrdacftdlNdU83Z6rN6w1UAGQrS6jYpAIQQRnpXb4DdmbtV5HFFs6bNYsTQEcri/fvzz/HySy8qixeo3nzjDTY+/ZSyeHGD45g9bbayeJ1pbNbuITuUq+SC0rcx6ZRSKQCEEEbSXQBk52VTW1+rIpfLslgsLFuyTMnhQO1+/vgGXnv1FWXxAs0br/+Ohx/6sbJ4VquV2268DavVuK7N5XLhsDtobGpUdWDVJhVBekIKACGEkY5w8bbJbnG5Xezau0tROpcXOyiWq9KuUhbP7Xbzs0d+yq9++YQRx8T6tY1PPclDP/4RLpdLWcz5s+YTNzhOWbzONNub8eAhOy9bRe5ZeHHff0dSAAghjPZfegNkHsxUskCvK65Ou1rpVADA8889yz997wFaW1uVxvVHLpeLn/zoQaXD/gBDhww1dNsfaHv/G5sacbY4yS3IVRHyDRVBekoKACGE0f6AztMSnS1O9h7cqyidy7Nardxx0x2E2EKUxn3n7T+y9u7V1NTUKI3rT2pra7lnzd1seuN1pXFtNhsrbl5Bnz7qpm86Y7fbaXW1kpufq+KsAgfwRwVp9ZgUAEIIo9Wj4Addxr4Mrz1BD4wcyLLrlymPu3XLpyxaMJ99mZnKY/u6/VlZLFowX9lWvwvdct0tREdFK4/bUUNjA263m+y8bBXh/heoVhGop6QAEEJ4w2t6AzQ0NnhtFAC0Y2TnzpyrPG5JSQk3L72Bl196sVesC/B4PLz6ysssvWGJskN+LjRn+hymTJyiPG5Hzhbn+aH/xqZGFSF/oyKIHlIACCG8YR/wtd4g23ZtO38Aizdct+A6Ro8crTyu0+nk8cd+xsq7VlBSUqI8vq8oLS1l9cpv8dijjyg53rej+OHxXL/oeuVxO1PfUI/T6WTfQV1rWtvtAXaqCKSHFABCCG95Rm+ApuYmtu/eriKXLrFaray6bRWxMbGGxP/8s62kz57FxqeexOnQfZucz2hpaeHVV15mXtpsJbf6dSYqMoqVt65Uum3zUlpaW3A4HGRlZ6kqQJ9VEUQvKQCEEN7yP2iXnuiSkZVB9TnvTZ2GhoSy+vbV9A3va0h8u72ZjU8/xVXz57Ltb38zpA1v+nL7dq6am85jjz5CY6OSofKLhIeFs+7OdYZ9TTqqb6inrqGO7CNK5v6Po70XTCcFgBDCW1zAc7qDuFxs2b5FQTpdFxUZxdo71hIaEmpYG4UFBdxx+63cvPRG/vbFF4a1Y5Tt27Zxy01Luf3WWygoyDesnRBbCGvvWMvAqIGGtXEhZ4sTu91ORlaGqjMLXkB7L5hOCgAhhDe9CZzWGyQ3P5cTpSf0Z9MNQ4cMZc0da7AF2wxtZ/eur7hz+W1cu3ghn/zlzz69UNDj8bDl009Ycu1ilt+2jF1fGTutHRwczN3L72ZY3DBD27lQXX0dpytPc+zEMRXhqjB57/+FpAAQQniTHXheRaAt27w7CgAwcthIVt++2vAiALRtc2tWr2LmjGlsfPopThQVGd5mVxUXF/PMxqeZPXMGq1d+yyvbGoODg1l12ypGjRhleFvtHE4HDqeD3fuU3UfxNDrPxFApkO+q/D2wWsf/X9MWQwihVhhQCAzVG2jdXesYGz9Wf0bdVHKqhM0fbMbusHutTYvFwqxZs1lx17e47volxMXp/vR1y+nT5Xy2ZSvvvvsOezJ2e3VkIsQWwt3L7/Zq5+/BQ+XZSopPFfPxlo9VhCwDxgHe28ZyBUFmJyCE6HWagV8Aum/JyTqUZUoBMHLYSO69617e+uAtVXvCr8jj8bBnTwZ79mTAj2BcQgLz51/F/KsWMHfePKKj1R6EU11dzVc7d7Ljy+3s+PJLQ+f1L6dveF/WLF/j1WF/gKamJlpaWzhaeFRVyF/iQ50/yAjA5cgIgBDGCQYOAwl6gsQMjOGH3/6hmox64FzNOTZ/uJnKqkrTcmgXFzeUcQnjGDcugXEJCSQkjCc6Opr+/fvTN6Iv4eF9iYiIAKCxsZHGxgYaGxqpq6ujqqqKwsICCvLzOXaskMKCAsrKykz+iLSv75o71jAw0jsL/tq53W4qzlbgdrt57+P3qK7RvevkOJAItOjPTh0ZARBCmKEFeBx4R0+QhkZzp1OjIqNYv3o9b3/0NkUl5s7Rl5eXUV5exo4vvzQ1D1VGjRjFyltXEh4W7vW2G5q0I38BVfv+/xUf6/xBFgEKIcyj+xpUm834xXhXEhYaxroV60hPTTc7lYCRNiONdXetM6XzBwgJ/vtFUMHBwSpCKjlAQDUpAIQQZvmB3gCxg4w5oa+7rFYrNyy6gTtvvlP5LYK9ic1m486b7uTGxTd65YS/SwkJCSE4SOv4FU0/mDdPdRlSAAghzBAN3KM3SOLYRAWpqJOSlMID6x5geNxws1PxO8PihvHAPQ+QMjHF7FQAzp8yqGjnwUpgiIpAKkkBIIQww3cAXeO7NpuNyUmTFaWjzsDIgaxfvZ6F6QtNfYr1F32sfViQtoD1q9d75UrfrgoPD8dqtTI2fqyKqaYQ4HsK0lIqkL87bwf0lJL/AxxSlIsQ4u9swB+BfnqCzJwyk4njJ6rJSDGLxcLokaNJSkiirKKMuoY6s1PySXGD41h1+yqmTpqK1eJbz6MWLHg8HlpdrdgddioqK/SGTAZexIcWA/rWZ1wI0Rt8C4jTE8BisZA2I01ROsaJHRTL+rvXc9M1NxEWGmZ2Oj4jLDSMpdcs5f577mfYEO/u7++OiPAILBYLkxMnqyhQBgJ3K0hLGRkBuDQZARDCGJvQOR+alJDErGmz1GRjMIvFwvC44aROScXZ4qS8otynz/c3ktVqZebUmay6bRWjR47GYvHto2gsFgsutwuLxcK52nMqzgMYB7ykIDUl5BwAIYQ3LQam6g0yd+ZcBal4V1hoGDddcxPzZs5je8Z2sg5l4fa4zU7LKywWC5PGT2Lx/MXEDIwxO51uiQiPoKmpiSmTplB4olBvuETgRuDP+jPTTwoAIYQ3Pag3wLAhw4gfHq8iF1NEDohk2ZJlpKWmsSNjB9l52bjcPnE7rHJ9rH1ITkzmqjlXMThmsNnp9EhQUBC2EBuDogcxZPAQTp/RfZnlg0gBIIToZdqffnQJlAN3BkcPZvnS5Vx71bXs3rebfYf2qTp1znShIaHMSJlBWmoaA/oNMDsd3fqF98PhcDBl4hQVBcBiYAoKDsLSSwoAIYS3/DM67x8Z0G8AkxInKUrHN/Tv158lVy9h8bzFHM4/TObBTIpLi/HgX+sELFiIHxHPjJQZTJow6fxBOoGg/WCgUSNG0b9ff+rqde/qeBBYpz8zfXx7BYY+ei8D+g2wQ1EuQqhQC+QBpWYn0gMxQDE69/5ft+A65s+eryYjH1ZTV0POkRxyjuRw6vQps9O5rKFDhjI5cTLJiclE9o80Ox3DNDU3ca72HNl52Xy19yu94ZzAKKBcd2I6SAEghP/ZBzwJ/Df4zWPiBuAJPQFsNhsPffchQkNCFaXkH2rrayk4XkDB8QKOFR/D4XSYmk+ILYQx8WNIGJ3A+DHjGdDf/4f4u8KDh9NnTuNwOPj9h79X8XX4f2jvC9NIASCE/3oPuBdoMjuRKwgBitC593/O9DksvWapmoz8lNvjpqKygpKTJZSUlXC64jRnz509f3OdalarlZioGIYMHsKIYSOIHxZP7OBYnzu0x1vqGuqob6gnY18GBw4f0BuuChiJie9fWQMghP9aAfQFbgF8eT/ZSnR2/laLlbRU3z/4x2hWi5W4wXHEDY5j9vTZALS6Wqk8W0lVTRXnas5RU1dDbV0tTc1NNNubaWpuwuVyXfTEGmILoU+fPoSHhRMWGkZ4WDj9+/UnakAUUQOiiI6KZlDMIIL6SDfRLiI8gobGBpITkzmUe0jvNs5oYC3wiprsuk++skL4t6Vot+q9YHYil/EdvQESxyWqupUt4AT1CSIuNo64WF01lugCq9VKeFg4Ho+HMfFjVJwL8I+YWAD0znEcIQLLBsBXz5mNBWbrDTJ+7HgFqQihX0R4BBYsjBw+UkW4aYBpZyFLASCE/4sGrjE7iUtIQsFao0+++ISSUyUK0hFCn6CgIKprqtn59U5VIU270UoKACECg68ejK9kZMLhdPDW+29JESBMd7L8JB99+hFOp1NVSNNG7wK5APCX7VFCqBBrdgKXoPsO1XbtRUDxyWJVIYXolpPlJ9n07ibVWzGVvUe6K5ALgLNmJyCEF9WancAl5ACNqoI5nA42f7BZigDhdQZ1/s2YeCRwIBcAeWYnIIQX5ZqdwCU40c4rUEaKAOFtBnX+AB8CdtVBuyqQDwIaCpQAfcxORAiDtaKtJD5jdiKXMBbIRvFcp81mY+0da/36ZkDh+0rLSnnzvTeN6PwdQCeSt+4AAAm1SURBVAqQrzpwVwVy51gPxKNtsxAikL2G4qdsxc6hnXm+TGVQl8tFztEcRg0fFdBn0AvzGNj5A/wTsMWIwF0VyCMAAIOAvWiFgBCB6DjaDoAqsxPpgp8Az6gOqnokwOF0kHMkh7yCPCrOVuBwOIjoG0FcbBzTk6czdtRYJe2InjlefJz9OfspqyijvqGe0JBQBkUPIikhieTEZGV3RRjc+W9AuwvAVIFeAIC2x/LPaDcvCRFIjqOdBHjE7ES64cfAs6qDqigCaupqyNiXQebBzMv+0B8aO5QlVy9hTPyYHrcluu9E6Qm2bNvCyfKTl/w3IbYQpk+eTtqMNKIio3rcVmlZKZve26Ryq9+FfKLzh95RAIA2EvArtItTAnnaQ/QOrcDvgMfwjyf/jnyqCCgtK2XX3l3kFuR261KdxHGJLLl6CTEDY7qbquiGqnNVbN22ldyCrq9ztVqsJCYkkp6a3qPvh97Q+UPvKQDaDUF7YpqEtm862Nx0hOiyFuA0cBhtRMu0vcOKmFoEuD1ucvNz2bV3F6VlpT1ur4+1DzOnzmTh3IWEh4X3OI64WLO9mW27trFn/x5cLleP4wyLG8bc1LlMmjAJq/XyG996U+cPva8AEEL4DsOKgDXL1zBqxKiL/s7hdJB5MJOMrAxqamuUtRkaEsrV6Vcza+osgoPluUKPltYW9h7Yy7Zd22i2NyuLO6DfAObMmEPqlNRO1wkY3Pk/hjYK7VOkABBCmOlB4HnVQYODg1mzfA2jR44GoKa2hq8PfE3mwUylnUpH4WHhzJ4+mznT58iIQDc5nA6ysrPYsWcH9Q31hrVjs9lISUohPTWdQdGDAMM7/38BnjAisF5SAAghzPYj4DnVQW3BNm5cfCMFRQXk5efpvbu9223PSJlBemo6kQNki+Ll1NbVsitzF5mHMo3qgDtlsVhIGpfE+LHj+csXf+lVT/7tpAAQQvgCQ4oAs1mtVpITk0lPTWfYENNuffVJ5RXl7MrcRXZeNi53z+f4fZhPd/4gBYAQwnf8M/DvZidhlEHRg0hOTGZ68vReOypQ31BPztEcDuQcoKyizOx0jPQ48Euzk7gSKQCEEL4koIsA0IaeRwwdwbTkaaQkpWCz2cxOyVCtra0Unijk4OGD5BXkBerT/oX8ovMHKQCEEL4nIKcDOhNiC2H8mPGMGz2OhNEJ9IvoZ3ZKSjQ0NlBYVEhBUQH5x/OxO0y778bbfgY8aXYSXSUFgBDCFwX8SEBnoiKjSBybyIRxE4gfHk9QnyCzU+oSt8fN6YrTHCs+xpHCI5SWleLxeMxOy9v85sm/nRQAQghfZcgWQX9hs9lIGpfEtMnTGBvvm/cPFJUUsT9nP3kFeb3pKb8zfvXk304KACGEL+vVRUC7ieMncst1t9A3vK/ZqQDaKX1/2vonso9km52KL3gUeMrsJHpCzsUXQviyDKAWuN7sRMxUWVVJ/rF8UiamEBxk7kmDDqeD1995nWPFx0zNw0c8jo9v9bscKQCEEL5OigCgsbmR8jPlTJ001dQ83v3fdzlResLUHHzEo/hx5w9SAAgh/EN7EbCEXjx1WV1TzchhIxkYOdCU9otPFrN1+1ZT2vYxG/DDOf+OLn81khBC+I4X0LYIemN5uQN4HZgCrATyvdBml+zYs8O0trdnbDet7U4cB9YAk4HfAsZd8vBNj+Jjt/r1lBQAQgh/YnQRUAk8DYwF/gE4BLwDJAEr0DodUxUVF1FdU+31dusa6jhW5BPz/meAR4CJwO+BHOAfgfi2Pz9pYNsb8NMFf52RKQAhhL8xYjrgMNrZ7fcCnwIdr6PzALnAq8BZYDpg2pL80JBQxowc45W2Wl2tNNub2fn1TkpOlXilzUs4C/wcWA1sAzoeKdgEfAW8BBwDxgCxCtt/hAAY9r+QjAAIIfzRC8B30T8S8BVwC9ow8n8BV9rM7gD+AxgJ3INWFHhdVnaWV2439Lg9VJ6tpKauhpwjOYa3dwlFaAdDjQKe5cpD/Q5gE9r0zXzgfS4uFrprA9rIUECRAkAI4a9epWdFgAPYjNbpzwP+1MMYbwHJwLXA/3Xz/+tSV1/H8RPGz0Y02Ztwe9ycOn2Kuvo6w9vrYB9akTUerehq7EGMnWhTN4nAr3sYYwMBMuffkRQAQgh/9iqwjq4tAKtAG0IeAaxFmzvWywN8DtwMpAJv0rNOptv2HdpneBtNzU0AHC08anhbbezA20A62ufzLaBVQdxC4Ido6wQeA8q7mMt6ArTzBykAhBD+7y20p/lNaPPAHe0B7kP74f8LtIV+RtiHVowMBb6NNr1gmLzCvPMdtBFaW1tpaWnB6XRyvNjw0Ya9wANon7tVwG6D2qlC27s/Cm10YTcXj/40o31PpaBNCwWsXrufVggRkELQ5n4HoT2JHwFOm5jPBLSiYBXaugGlblh0A+mp6arDAto0Q31jPbn5uXyZ8aURTZSh7bB4AzWjMT0Vi7bLoy/aQsODXHktSECQAkAIIbxjEnAncBMwQ0XA2JhYvn/f91WE+iYPlFeW43a7+fDPH1JZpWzQ5Djaeon3gV2A8SsZxSXJFIAQQnjHYeBf0ea2E4CHgXN6AlacreBU+Sn9mXVgd9hxu91Un6tW0fnXo92WNxHtfIUfoi3Ok87fZHIOgBBCeF812hPwEGCOnkAWq4UJYycoSapdXUMdra2tZOVkcebsGb3hXkc7Pe+s/syESjICIIQQ5vmd3gDZedm0tLSoyAUAt9uN3a6NABQWFaoIqftjFMaQAkAIIcyTA3ytJ4DdYSc3X915RI1NjXjwUFRaRLNd9/H62Wi7I4QPkgJACCHMpfsJeV+2uj62vdM/UnhERbjfqggijCG7AIQQwlwRaAfTRJidiGJOYBgy9++zZARACCHM1QB8aHYSBvhvpPMXQgghLms+2ol0gfS6RulnSAghhAhQeZjfaat6FSEjzD5PvkBCCOEbNpmdgEJvIAf9CCGEEF0Si7Zwzuynd70vF9rFS8LHyQiAEEL4hgrgE7OTUOAzoNjsJMSVSQEghBC+IxBOzQuEj0EIIYTwqiDgFOYP4/f0dRbtSmbhB2QEQAghfEcrsNnsJHTYDDjMTkIIIYTwRwloK+jNfprvyWuyAZ8PIYQQotf4P8zvzLv72mrIZ0IIIYToRRKBJszv1Lv6siNP/0IIIYQSK4AWzO/cr/RqBVYa9DkQQggheqXFQAnmd/KXep0Elhj20QshhBC9WDhwP9oc+xnMXSDobsvhc+ABoK+BH7cQQgghhBBCCCGEEEIIIYQQQgghhBBCCCGEEEIIIYQQQgghhBBCCCFEr/H/Ad/QAlu4WarsAAAAAElFTkSuQmCC;" parent="1" vertex="1">
          <mxGeometry x="571" y="450.5" width="85" height="85" as="geometry" />
        </mxCell>
        <mxCell id="ckpoAZdv2tJWgA7Kn1el-7" style="edgeStyle=orthogonalEdgeStyle;rounded=0;orthogonalLoop=1;jettySize=auto;html=1;" edge="1" parent="1" source="ckpoAZdv2tJWgA7Kn1el-1" target="eFz6Z1lDjVqoyxP0B4Vr-7">
          <mxGeometry relative="1" as="geometry" />
        </mxCell>
        <mxCell id="ckpoAZdv2tJWgA7Kn1el-1" value="pharmacy_otc_sales_data_1" style="shape=image;verticalLabelPosition=bottom;labelBackgroundColor=default;verticalAlign=top;aspect=fixed;imageAspect=0;image=data:image/png,iVBORw0KGgoAAAANSUhEUgAAAgAAAAIACAYAAAD0eNT6AAAACXBIWXMAAA7DAAAOwwHHb6hkAAAAGXRFWHRTb2Z0d2FyZQB3d3cuaW5rc2NhcGUub3Jnm+48GgAAIABJREFUeJzt3XmcHHW9/f9TvUzPvk9msu8JEEggIBEQSWIIEEUEDUFBroLLdUG4bqhcvbjLvS7XH6jcq6ICIgJXZQcTFkH2hEACIYFksu+zT89090x31fcPTX4EkjDTVd2f6q7X8z8epD51MpDU6ap3f0oCAAAAAAAAAAAAAAAAAAAAAAAAAAAAAAAAAAAAAAAAAAAAAAAAAAAAAAAAAAAAAAAAAAAAAAAAAAAAAAAAAAAAAAAAAAAAAAAAAAAAAAAAAAAAAAAAAAAAAAAAAAAAAAAAAAAAAAAAAAAAAAAAAAAAAAAAABQwy3QA5M7WrVvLOm271HQOIIgG9qbtE06Y3G06B3AoFIAC5zhOaG3rthlWSPNk6W1yNF3SBEkNkkJm0wHB1dET197OHicaCveXxqLLwqX6t9NmzdpoOhewDwWgQK1t3T7dseyPWNKHJI0znQfAgTp64trd1rX/n8PhkF1ZWXrN/BNmfc1gLGA/CkCBWbNpx+ywk7nKkd4nPuEDvvXGAiBJliVVV5T/Yv6cWZ82FAvYjwJQIF7Ztq0hNOh8z5E+Ji78gO8drADs01BT+bl3nnDMtXmOBByAC0kBWLtp2zxr0FnlSJ8Q/82AgtcV7//vZStWzzSdA8HGxcTnXtm47atynGWSRpnOAsAbmYwdGkwkH1m+fHnUdBYEFwXApxzHsda1bvuhJed74r8TUHSSqXR9dzpyr+kcCC4uLD61btO2nziW8wXTOQDkTm9/8vS/LX+ZP+cwggLgQ2tbt3xd0uWmcwDILcdx1BOPX/Pwsy/PMJ0FwUMB8JlXNm45Q5Z1tekcAPIjnbHDqYHE4y+//HKJ6SwIFgqAj6xubW22ZN0o/rsAgZJMDdbt6h28x3QOBAsXGh+JWJH/lDTCdA4A+cc8APKNAuATr2zadpIl68OmcwAwg3kA5BsFwCcsx/mG2JkRCDTmAZBPFAAfWNe6bZakM0znAGAe8wDIFwqAH4Scj4lP/wD+iXkA5AMFwLDly5dHHUdLTOcA4B/MAyAfKACGVdU1zZHUZDoHAH9hHgC5RgEwzLGsuaYzAPAn5gGQSxQAw6yQNcd0BgD+1dufPP2R5166wnQOFB8KgGGOo+mmMwDwL8dx1NvX96NlK1bPNJ0FxYUCYJDjOCFJE0znAOBvmYwdGkwkH1m+fHnUdBYUDwqAQevXr6+UxB9oAG8pmUrXd6cj95rOgeJBATAoE4tVms4AoHAwDwAvUQAMstMRPv0DGDLmAeAlCgAAFJB/zAOkHmV/ALhFAQCAAsP+APACBQAAChDvC4BbFAAAKECO46g7Hv9P5gGQLQoAABQo5gHgBgUAAAoY8wDIFgUAAAoc8wDIBgUAAAoc8wDIBgUAAIoA8wAYLgoAABQJ5gEwHBQAACgizANgqCgAAFBEmAfAUFEAAKDIMA+AoaAAAEARYh4Ab4UCAABFinkAHA4FAACKFPMAOBwKAAAUMeYBcCgUAAAocswD4GAoAAAQAMwD4I0oAAAQAMwD4I0oAAAQEMwD4PUoAAAQIMwDYB8KAAAEDPMAkCgAABA4zANAogAAQCAxDwAKAAAEFPMAwUYBAIAAYx4guCgAABBgzAMEFwUAAAIuk7FD6cTgI4884kRMZ0H+UAAAAEqkUvV2+Yv3ms6B/KEAAAAkSb19yYXMAwQHBQAAIIl5gKChAAAA9mMeIDgoAACAAzAPEAwUAADAmzAPUPwoAACAN2EeoPhRAAAAB8U8QHGjAAAADol5gOJFAQAAHBbzAMWJAgAAOCzmAYoTBQAA8JaYByg+FAAAwJAwD1BcKAAAgCFjHqB4UAAAAEPGPEDxoAAAAIaFeYDiQAEAAAwb8wCFjwIAAMgK8wCFjQIAAMgK8wCFjQIAAMga8wCFiwIAAHCFeYDCRAEAALjGPEDhoQAAAFxjHqDwUAAAAJ5gHqCwUAAAAJ5hHqBwUAAAIAcs0wEM6oknFz6+fM3lpnPg8CgAAJADlhXkCuCoM977Y+YB/I0CAAA5EAp0AWAeoBBQAAAgB8LhsOkIxjEP4G8UAADIgZIoH3wl9gfwMwoAAORAJByWFQr2YwDpH/sD9MT7rnn4hRdmmM6CA1EAACAHLEsqj5WYjuEL6UwmPBC3H2MewF8oAACQIxWlMdMRfIN5AP+hAABAjlRVlpuO4CvMA/gLBQAAcqQkGlFpSdR0DN/gfQH+QgEAgByqq6k0HcFX2B/APygAAJBDNVUVikS41r0e8wD+QAEAgByyJDXVVZmO4Tu8L8A8CgAA5FhNZYXK+ErgG/C+ANMoAACQY5YljWyqC/z7Ad4ok7FDmeTAw8wDmEEBAIA8iJVE1dxQYzqG7/QnBxqYBzCDOmrQmtYd40NWZpPpHH6UsgfVlu5WfyZlOgoOIWKFVBepUk2kQhZ/lQzZrrZOdfb0mY7hM5Yaa6qvOPWEo35qOkmQ8KfWIArAgQactO7teFrLulZqfWK76TgYoupIueZUHanzG0/TuNgI03F8z3Ec7djTqZ6+ftNRfCUSDmcqaktmzT/22JdNZwkKCoBBFID/38bkTn1zy03aOdBhOgqyFFZYHxoxXxeOmM8dgbfgOI52t3Wps5c7Aa9XFot1xAaPa543z0qbzhIEzADAuNbkTv1b6/Vc/AtcRhndtGepfrHjbtNRfM+yLLU01amxrloWg4H7sT9AflEAYFTKHtQ3t9yohM2z/mJxZ8eTerT7RdMxCkJTXbXGtTQqEgmbjuIbPfHEwr+tWLPEdI4goADAqHs6ntaugU7TMeCxG3Y/oIxs0zEKQnlZTJPHNqu+ppIHJ/+USCSuM50hCCgAMGpp5wrTEZADuwc6tSreajpGwQhZITU31GryuJGqq64I/H4BidRA49MrVh1vOkexowDAmHgmoY2pXaZjIEde6t9oOkLBiUbCamms09TxI9XSVKfyspiC2gUSti4ynaHYsfsSjGkf7DUdATnUlu4xHaFghUIh1VVVqK6qQo7tqD+VUiqVVmpwUIPpjBzHke0U9yOWcMhqMJ2h2FEAYEwsxHvSi1lM/Pf1ghWyVFFWqooy00nyy5LWmM5Q7HgEAGMaolUqseigxWpkrN50BACHQQGAMVErouMqp5iOgRw5seoI0xEAHAYFAEYtbnyn6QjIgbdXHaXRJY2mYwA4DAoAjDqmYpLm1x5nOgY8VBku1SdGLjIdA8BboADAuCtGnadjKyebjgEPlIViumrchXz6BwoABQDGxUJRfW/CpbqgaR5DgQXsqPLx+u/Jn9bsiqmmowAYAv62hS+EFdJHm8/Qe+tP0mM9q7W6b6M60r1KO7wUzM+qwxUaF2vSSdVHaVYFd3GAQkIBgK80RKt1bsMpOrfhFNNRAKCo8QgAAIAAogAAABBAFAAAAAKIAgAAQABRAAAACCAKAAAAAUQBAAAggCgAAAAEEAUAAIAAogAAABBAFAAAAAKIAgAAQABRAAAACCAKAAAAAUQBAAAggCgAAAAEEAUAAIAAogAAABBAFAAAAAKIAgAAQABRAAAACCAKAAAAAUQBAAAggCgAAAAEEAUAAIAAogAAABBAFAAAAAKIAgAAQABRAAAACCAKAAAAARQxHQA4mI50rzoGe+SYDgLkUEW4VM0ldQrzWQwGUADgGwk7pTvaHtfDXSu1Y6DddBwgLypCpZpTfaQuaJyn8aUjTMdBgFAA4Atr+7fom1tuUke613QUIK/67KQe7lqpv3W/qH8ZsVDnN50mS5bpWAgA7jvBuLWJrfrypl9y8UegZRxbN+x+QL/d/VfTURAQFAAYlbBT+vaWm5SyB01HAXzhj3sf1fL4q6ZjIAAoADDqzvYn1TbYYzoG4BuOHP1q1/2mYyAAKAAwalnXStMRAN/ZmNyp1uRO0zFQ5CgAMKY306+tqT2mYwC+9HLfZtMRUOQoADCmY5ChP+BQ2jPdpiOgyFEAYExpqMR0BMC3yqyY6QgochQAGNMQrVYsFDUdA/ClUbEG0xFQ5CgAMCZihXV85VTTMQDfiVphHV85zXQMFDkKAIxa0jSPXc+AN3hP/dtVHuIRAHKLAgCjjigbq7PqTjQdA/CNlpI6XTjiXaZjIAAoADDuM6Peq5OqjzIdAzCuKVKjb437qKrC5aajIAAoADAuYoX1jbEf1qUtZ6kiVGo6DpB3liydVjNT1065jDcCIm94GyB8IWRZOr/xNC2qO1FP967Rqr6N6kj3KmPbpqMBOVMTrdDEWLNOrp6hsTEu/MgvCgB8pTJcpgW1x2tB7fGmowBAUeMRAAAAAUQBAAAggCgAAAAEEAUAAIAAogAAABBAFAAAAAKIAgAAQABRAAAACCAKAAAAAUQBAAAggCgAAAAEEAUAAIAAogAAABBAFAAAAAKIAgAAQABRAAAACCAKAAAAAUQBAAAggCgAAAAEEAUAAIAAogAAABBAFAAAAAKIAgAAQABRAAAACCAKAAAAAUQBAAAggCgAAAAEEAUAAIAAogAAABBAFAAAAAIoYjoA8Ea242j7wF51puNKK2M6DpAz1aFyjY41qiwUMx0FAUQBgG90Z+K6de/f9HDXSnWl46bjAHkRtcKaXTlNF46Yr+llY03HQYBQAOALK+Pr9d2tt6g30286CpBXg05Gz/S+omd71+r8ptP0kRFnKGRZpmMhAJgBgHGr+lp11aYbuPgj0Bw5+uPeR3X9zrtNR0FAUABgVDyT1He23KKMbNNRAF+4s+NJPdHzsukYCAAKAIz6c/vj6s7wvB94vRt2PyBHjukYKHIUABj1cNeLpiMAvrMttVfrEztMx0CRowDAmO5Mn3YMtJmOAfjSmsRm0xFQ5CgAMKZrkFv/wKF0DPaajoAiRwGAMeVhNj8BDqUiXGo6AoocBQDG1Eer2QENOIQxJU2mI6DIUQBgTFghnVg13XQMwHdioahmV04xHQNFjgIAoy5omseuZ8AbvK/hFJWGSkzHQJGjAMCoSaUjdW7DKaZjAL4xLtakDzbNMx0DAUABgHGXNi/SgtrZpmMAxo0qadS3xn+U2RjkBS8DgnFhK6QvjTlfMyrG63e7l/ImQAROWGGdUXeCLm05U5XhMtNxEBA8fH2D5v9aWKGEPSlk23WOpQpJlbk611FN0yt/ftbXbsjV+oUoZQ9qRfw1vdTfqvZ0r2yb7VBRvKoi5ZoYa9Hba45UU6TGdBxfsaSvTp849gemcxSzwN8BaLl67oSQQu9xZJ0maY76Mv98IbclK8fXntfaNmzP7RkKTywU1cnVR+nk6qNMRwGAohbIAjDj6sUl7VbHBy1HH5N0imPsTgjj7wAAM4JVAG5bHG55pfMTHU7HVy1HY03HsSgAAABDAlMAmr81b05oTcf1ko41nWUfixkMAIAhQfgaoDXym++6PGyHHpePLv6SZFlWEH7+AAAfKuo7ABOunluaUvgWOTrXj7PkIStEAQAAGFG0BaDxmlOqUonwXZLmms5yKCHuAAAADCnOC9D/HB+NJkpvl48v/pJkWaGw6QwAgGAqygIwcmftdZLOMJ3jrYS5AwAAMKToLkCjvrngHEmfMJ1jKMJWuGgfwQAA/K2oCsCoq+c2Oo79S9M5hioUClEAAABGFFUBsBX5D8lqMp1jqELMAAAADCmaAjDm6rlTQnI+aTrHcFhiBgAAYEbR3ILOKPxFSVHTOQAAKARF8Ql0zNVn1Eu6yHQOAAAKRVEUANvKXCipwnQOAAAKRXEUAMf5oOkMAAAUkoIvAE1Xz22xpLebzgEAQCEp+AIQtULzxGt1AQAYloIvAHJ0qukIAAAUmoIvAI6so01nAACg0BR8AZA03XQAAAAKTaEXAEtSg+kQAAAUmoIuAM3/tbBcEvvpAwAwTAVdAHb3DaQkOaZzAABQaAq6AOjqR9OS+k3HAACg0BR2AXBkSWo3HQMAgEJT0AVg0rLF1VZ5lE2AAAAYpoIuAJIUqioZazoDAACFpuALgFURNR0BAICCU/gFoDomy+IpAAAAw1H4BSBsyarkLgAAAMNR8AVAkkKNZaYjAABQUIqjANSVyooUxW8FAIC8KI6rpmUp1FxhOgUAAAWjOAqApHBzuaxo0fx2AADIqeK5YlqWwmOrTacAAKAgFE8B0D9mAUJ1paZjAADge0VVACQpMr5aivGGYAAADqfoCoDCIUWn1Enh4vutAQDglaK8SlqlEUWn10sRdggEAOBgirIASJJVFlF0WgPfDAAA4CCK+upolUUUPaJBIV4YBADAAYq6AEiSSsIKT69XuKVC4okAAACSglAAJFmWpfDoKkWPbFSoqsR0nNdxTAcAAARUIArAPlZZRJFp9YpOq5flgyKQtjMDpjMAAIIpYjqACVZViaJV9XIGMrLbk7J7klJfWo6T30/kqcxgQpL5JgIACJxAFoB9rJKwwiMrFB5ZIdmO7MSglEzLSdlSxj54IXCUVtrZ4dh2hzLqk2w76wClEefWtkeayqzYyGgoXOvitwIARSHj2ImEM7B7bf+WcePu+dAnsl7IVsJSqN+xnK5IKLy1rrl044oT/nfQw6gFr6DH4iYtXVyTSZZ0mc4BAPC9tGStseQ8ajtaWpUc+OvL598e6MewFAAAQBB1SPpDxrb+e9s5N683HcYECgAAIMgyknW7HOtrm99700bTYfIpUN8CAADgDcKSc4Es++Xx91z0dT0yNzCzcRQAAACkMjnOtybERz857p4PTTIdJh8oAAAA/JMjvc1yrGcm3v2hE01nyTUKAAAAB2q0ZT007p4PLTAdJJcoAAAAvFml5Vh3jr/nopNNB8kVCgAAAAdXLse5c8KfL5hgOkguUAAAADi0RkXCt824bXHRbdtOAQAA4DAc6W195SVXmc7hNQoAAABvwXGcKyfde/E00zm8RAEAAOAtWbGMnf6e6RReogAAADAk1nnj7vrgDNMpvEIBAABgaCzLsq4wHcIrFAAAAIbMOn/MbYvLTKfwAgUAAIChqw6XxhaZDuEFCgAAAMPghJzTTWfwAgUAAIBhsBxnnukMXqAAAAAwLNbUptsWV5pO4RYFAACA4bHKY+GppkO4RQEAAGCYrFBkvOkMblEAAAAYJtuxq0xncIsCAADAMIVCYgYAAICgcZxQ2HQGtygAAAAEEAUAAIAAogAAABBAFAAAAAKIAgAAQABRAAAACCAKAAAAAUQBAAAggCgAAAAEEAUAAIAAogAAABBAFAAAAAKIAgAAQABRAAAACKCI6QDAwcRCUY2KNqg2WqlSK6pYuETlVulBf61t2epPpxS3+9We7tGegW4l7FSeE5sXC0U1uqRRLSV1KrNiioVKPFs7o4wSmQF1pHu0NdWm7kzcs7Xdqo9U6cjy8aoJl6vPTmpTarc2J3ebjpU3I0vqNal0pGrCleqzE3otsV07BtpNx0IBoADAuLJQTDMrJmlWxSRNLB2pMbEGNUVrZcnKes3dA51qTe3Sq/1b9ULfBq3r36aMMh6mNi9ihfW2quk6vmKaZlZM0rjSJlc/s+HozsS1Or5JL/Sv19+7X1JnOv+FYGbFJF3cfLqOLp/wpt/39oE2/WHPw3qoe6Vsx8l7tnyYU3WELhpxuqaVjX7Tv9uY3Knf73lYj/esNpAMhSI/f1vkyKSli2syyZIu0zkwfCOidVpQe5zmVB+pqaWjFLbCOT1fwk7pmZ61eqxnlZ7rXacBJ53T8+XSyJJ6nddwqubVzlJVuNx0HGUcWyv71usv7U9oee+rcpTbC27IsvSREQt1ftPctyw8z/S+ou9vvbWo7giFFdJnR5+jRXVz3vLXPty1Uj/Z/n8F/f+7f1mXbT775utMp3CDAoC8KbEiOq12lhbWHq+jyycqZJn5368706cHO5fr3o6ntWug00iGbDRFanRJy5k6rWaWwpY/x3c2JHfoV7vu0/Px9Tk7x0ebz9AFTfOG/Ouf73tN/77xt0VzB+jy0ecO6eK/z9+7X9J3tv4+58UseAq/AOT2Y1eO1V08o9RJh79iOgcOrzRUorPr366vjb1QC2pnq7mkTpahi/++PDPKJ+ic+lM0oaxZrYmd6s30G8vzVkKWpfc3vlNfH3eRppaNMVachqI+UqUFtbM1MdaiVf2tStoDnq5/dPkEfX7MB4b1qGNkSYP67ZTW9G/2NIsJJ1UfpY+3vHtYx4wrHaFdAx1qTe7MUaqgsu7v/sOqZ02ncIMZAORMWCG9v/FULW48TdUR87eq3yhkWXpn9UydUn207mx7QjftWaZ+n90qro1U6ktjztcJldNMRxmWd9QcrWMqJ+g/t96m5fFXPVv3ohELsppzWNI4V/d2PFPQjwIsWfqXEadndeyHR5yuZV0ruQuAA/jzPiIK3syKSfrFlCt0actZvrz4v15YIZ3XeKpumPYlnVJ9tOk4+42LNem6yZ8tuIv/PjXhSn1r/Ef0nvq3e7JebaRSMysmZXVsdaRc82pmeZLDlKPLJ2hi6cisjm0uqdP0sjEeJ0KhowDAU2WhmL40ZrH+c+LHNb50hOk4w1IXqdQ3xl2kL41ZrPJQzGiWaaWj9aOJn1JTtNZoDrfCVkiXjXqfLmya73qtyaWjXM0+nFl/ousMJi1ymX/yQb4tgGCjAMAz40tH6KeTPq0Ftcfn7etoubCg9nhdN+UyYwVmVEmjvj3ho76/czIcFzcv1HmNp7paoyZS4er46WVjNKVAL4LVkXK9o+YYV2vUufz5ofhQAOCJRXVzdN3kz2l8abPpKJ4YXdKon0z6tGZXTsnreasj5bpm4qWqjVTm9bz58PHmRTqp+qisj+/LJFxnWFT3NtdrmHB67WyVWO5GtuKZpEdpUCwoAHBtSeNcXT76XNd/QflNRahU3x7/UZ1WMzMv57Nk6fOjPqAR0bq8nC/fQpalL44+X80l2f3+WhM7XQ+xza89TmWGH+9k44xa948vNvAtALwBBQBZC1shXT76PF3ScqbpKDkTscK6cswFmlub+wGys+pPdPUJuRBUhkv1xdGLs3pEtDfdrQ2JHa7OXxaKFdww4DHlE10/jopnElrTt8mbQCgaFABkJWRZ+vKYJVpUV9iDVUMRtkL68pglmlN1RM7OURUu10eaF+ZsfT+ZWTEp60L1YOdy1+cvtGFAt8N/krS063llZHuQBsWEAoCsfLrlHM0tsE9SboQV0lVjL8zZENlFI96lmnBwhrQubTlL0Sy2f36oa6XrzYUKaRjQi+E/SXqgo6D3q0GOUAAwbBeNWKCzG7z5bnchiYWiunrchz0f0KuOlOvMAh1Oy1ZTpEYLamcP+7g+O6nHut2/4KZQhgG9GP57qX+TNqWC83ZEDB0FAMMyt2aWPjxigekYxjRFa/WlMed7+jXH99afpFIPX91bKN6f5dcC7+t0/2m2UIYBvRj+49M/DqW4xraRU6NKGnXF6PPydr6EndK2VJv2DHYqnkkq6Qy86fZvzIqqKlKuqlCZGqM1Gh9rzvmLck6onKaz69+uuzqecr2WJUvvyuKT8OG0D/ZobWKL2tI9nuzFH1FYtdFKjSsZoSllozwrP2NjIzS9bKzWJbYO67hX+jdrQ3KHJpeOyvrcZaGY5tbM1P2dz2W9Rq55M/yX1GO8EhiHQAHAkJRYEV019oM5/dSUdjJ6rnedlsdf1Yt9rdqa2jPsNcpCMU0tG60TKqdpft1xaorU5CCp9LGWRXo2vtb12wSnlY3RqJIGTzKt6d+s3+x+UKv7NuZsz/emaK2WNM7VooYTFfbgBuLcmpnDLgCS9EDHc/rMqHNcnfus+jm+LgDeDP+tUMoe9CANihEFAENycfPCnA1O7R7o1J/a/66Hu1eqJ+3urXwJO6VVfa1a1deq3+35q46tmKIPjpivY8oneBP2n2KhqP615WxdveVGV+vMrvJmo6Fb9z6i3+35q2wnty972TvYpet2/kWP9azS18de5Hq3wtlV06Rd9w77uIe6VurSlrNcPTrZNwy4PrE96zVyheE/5AMzAHhL40ubdV7jOzxftyPdqx9uv10fffWH+kv7E64v/m+UcWytiL+qL7Zer6u33KjtA22ern9S9VE63uWLemaWT3ad4462x/Sb3Q/m/OL/eqv6WvX1Lb/VoJN2tc742AjVhIc/VFnsw4AM/yEfKAA4LEuWLhv1Pk9u9+7jyNFd7U/pY6/+SEs7VyijjGdrH8pTPWv06fX/n5Z1rfB03X9pzu71rPtMKm1xdfzG1C7dsPsBV2tka23/Fv1+70Ou1rBkaXKWb7gr5mFAhv+QDxQAHNbc2lk6pnyiZ+v1Zvp19eab9LOdd6rPzu/e5El7QP+17Xb9ePsdyjjelI7pZWN1YpYbBFWGS11/pfD3ux9SxjG3wcuf255Q3OUe/aNLs5uB2DcM6Ma+YUA/YfgP+UIBwCFZsvTBxnmerbd7oFOf2/BzPd27xrM1s/Fg53J9f+utnu2MtqRpblbHNUXcveo3ZQ/q2fhaV2u4lbQH9FzvOldruPk5PNDhfojvrPo5rtfwEsN/yBcKAA7plJoZnr3db3Nyt65o/bl2ePwcPluP96zWNVtv9WRa/ujyCTqyfPywjyuPlLo675bUHl/8Jf9a0t0QnZtb8MW2MyDDf8gnCgAOaYlHn/73prt11ebfqCPd68l6Xvlb9yr9X9vjnqy1OItNbWIuh7y60nFXx3ul02WO8nD2k/zFNgzI8B/yiQKAgzqyfLymefCpKGGn9LWNv9LewS4PUnnvhl0PaE3/ZtfrnFQ1Q43R6mEdY7n845eP4cmhsF3PILjbWKiYhgEZ/kM+UQBwUKfXHufJOtdu/4u2pPZ6slYuZGTrp9v/5HqQLmRZOrU6v8NkXm5HXMiKZRiQ4T/kGwUAbxK1wjrNgzf9Pd6zWg91r/QgUW5tSu3W0k73Xw+cWj68OyYJO+XqfEF8f8ChFMMwIMN/yDcKAN7kxKojVRkuc7VGwk7pf3bc41Gi3Ltx71INuNzUpi5cNaxf35Nxt/FRU9Tdtwi84vbuieMFK0FNAAAXKElEQVTBBkaFPgzI8B9MoADgTU6omup6jTvaHtfedLcHafKjfbBHD3W5u1sRt4d3Qe91ufPhqJIGNQxz7iAXulwOd3oxHFrow4AM/8EECgDe5NgKd/vTJ+0B3d3u/k15+XZH22OuttNdnxjec+i4nXC9IdGCGm/fJJiNTak9rn4f2bz06WAKeRiQ4T+YQAHAAZoiNa7fTvfXzhXqzvR5lCh/tqX26pneV7I61nYcPdHz8rCOyTi2WpO7sjrfPuc1vkMVIXf7CbjVm+nX6r5NWR2bka2ne73ZzKhQhwEZ/oMpFAAc4OhK99v+Lut63oMkZvxq9/1ZveDmse5V2pbFtx1e7t807GNerzZSqc+NOtfVGl74495HszrurvYn1etyFuL1CnEYkOE/mEIBwAHGl7jb+W/HQHtW73f3i22pvbpp97JhHbN3sEs/33lXVufzYg+CubWz9PGWRUa/Fvh832u6t+PpYR2zObl72D/rt1Jow4AM/8EkCgAOMKa00dXxL/St9yiJOX9se1S37H14SNsE7x7o1Fc2/TrrRx4v9rV68mKiDzS+U/8x/mLVuXy5kBs/23mX7ut4Zki/dkNyh67a/BvPXwhVaMOADP/BJAoADjCmxF0BeLGv1aMkZv1u91/1lU2/0vrEwfe5T9mD+lPb4/rMhmuzuvW/T1c6rmdcvkxnn5OqjtTvpl2pT408W+NiTZ6sORwZx9ZPd/xZ39pys7Yf4p0P8UxSN+9Zpis2/Dxnu0MW0jAgw38wyV31RNEZ6XIAcKPLoTY/eSG+QZ+JX6vxpc2aXjZG9ZFqpewBbR9o16q+Vte3mvd5oPNZnVx9lCdrxUJRva/hFL2v4RSt7t+o+zqe1d+7V7ve42A4nuh5SU/0vKQpZaN1ZPlY1Ueq1ZtJaFNyl17q25jzLPuGASeXjsp6jX3DgPd3up8pOBSG/2AaBQD7hRV2tbtcxrG1M9XuYSJ/2Jzcrc3J3N1iXR5/VXsHuzzf2OeY8ok6pnyiPtVytpZ1rdD9nc/mdVvm9Ynth7yDkmsPdDynz4w6x9UaZ9XPyWkBYPgPpvEIAPuVuXgrm/SPr4Pl85Nmscg4tm7cszRn61dHynVe46n65dQv6LrJl2lR3RzFQtGcnc8P/D4MyPAf/IACgP3cPvPsd7m3fZAt63pe6xLbcn6eqWWjdfnoc3XL9Kt0+ehzNTHWkvNzmuDVMOBZORoGZPgPfkABwH5lLj8Vpjx6Jh5EtuPoFzvvHtI3D7xQGS7Voro5un7qFUV7V8CLYcB35WgYkOE/+AEFAPtZlrv/Hew8XbyK1Sv9m/Wntr/n/bzFelfArzsDMvwHv6AAAD7y69336/n4a0bOXYx3Bfy4MyDDf/ALCgDgIxnH1jXb/piz78gP1b67AjdP+6o+2fJuI/sKeMFvw4AM/8FPKACAz3Sl4/rixv/RjgHzX6ks9G8Q+G0YkOE/+AkFAPChXQOd+kLr9b76i75QZwX8NAzI8B/8hAIA+FRHuldXbvylVvtse+XXzwr8cNInNb/2ONefanPJL8OADP/BbygAgI91peP68qZf6le77svqNcW5dkz5RF05ZoluPuIrWtI0Ly/752fDD8OADP/BbygAgM/ZjqPb2x7TZeuv08t9m0zHOaiacKUuaT5DN02/Uhc2zffdHQHTw4AM/8GPKABAgdiY2qXPb7xeX2i9Xs/0vmI6zkFVhct1cfNC/WzK5zQ1R9voZsP0MCDDf/AjCgBQYF7q36RvbP6dvtB6vR7tetGXjwbGxUbop5M/oyVNc2XJMh1HktlhQIb/4Ef+uk8HYMhe6t+kl/o3qXJnqd5ZPUvnNJ6sCbFm07H2CyukS5rPVEtJna7d8RfZjtmdIk29JpjhP/gVdwCAAhfPJHVf5zP65Gs/0Wc3XKv7Op/x1aDYoro5unLMBQr74K8bb4YBh/dpnuE/+JX5P5EAPPNaYrt+uv3P+vC6H+iXu+7T9oE205EkSXNrZunzY95vOoZHw4BjhzwMyPAf/IwCABSh7kyf7mh7TJe8+kPf3BVYUHu83ttwktEM+R4GZPgPfkYBAIqcn+4K/OvIszWjYoKx80vSvZ3PuF5jqMOAXgz/3c+nf+QIBQD7OY7t6viQT6a9cXB+uCsQVkhfHL1YUSuc1/O+3tr+LXnZGdCr4b/HGf5DjlAAsF/Sdvd1slioxKMkyLV9dwU+tO67+un2P+f1FvOokgad3XBy3s53MPkYBmT4D35HAcB+CTvl6ni/bgOLQ9v3DYJ/fe2/9eWNv9Sj3fnZV+DCpnepJlyR8/McSq6HARn+QyGgAGC//kzS1fHV4XKjt3aRPUeOXuzboO9v/YMuWPudnN8VqAyX6t0u99Z3I9fDgAz/oRCwERD2y8hWyh7M+n3vYSukUbEGbU7u8TiZWaNLGnVM5UTVhCuUsFPalmzTqv5WpZ1MTs7XGK3WMRWT1BipVtqxtX2gTS/2bcjbreB9dwXu73xWMysmaVH9iTqleoaiHu/vf2bd23Rr2yPGNgi6t/MZLaw73tUa76o9Tr/adf+b7p4x/IdCQAHAAXYOdrjaTW5CrKVoCsCsism6tOVMTS8b+6Z/152J64HO5bp1zyPqd/noZJ/pZWN0cfNCHV859U3b5ybslO7ueFq37HnY9aOaodp3V+DFvg2qCVfq9LrZWlR/okaXNHqyfnNJnY6tmKLn4695st5w7RsG9HpnQIb/UCh4BIADbEvudXX8rIpJHiUx68Km+bpm4scOevGX/vH2uyWNc3X9lCs0Jtbk+nxLGufqJ5M+pRMqpx107/yyUEznN56mn025zLML8HB0Z+K6o+0xfey1H+l7W29RR7rXk3Xn1RzryTrZysUwIMN/KBQUABxg24C7AnBs5RSPkpjzgcZ36uLmhUN6iU1zSZ2umfBx1UYqsz7fBU3zdEnLmQoPYX5idEmjfjDxUlfnc8N2HP2te5U+tf6nrr9KJ0kzKsZ7kCp7Xg8DMvyHQkIBwAE2p9zdvh9d0uir18AO17hYky5pPmNYxzRGq/XZUedkdb4pZaN18YgFwzpmRLROnxj57qzO55WudFxXbbpB7YM9rtYZVdJgrMxI3g8DMvyHQkIBwAFW9210vcaC2tkeJDHj4uaFQ/ok/kbvqD46q+e+H2ycl9X55tccq6Zo7bCP81JnOq7/3XWvqzUsWTryEI9Z8sXLnQEZ/kMhoQDgAHsHu7RjoN3VGgvrTlBluNSjRPkzqqRBJ1fNyOpYS5ZOrh7esaWhEp1YfUTW5ztlmOfLhcd6Vmn3QKerNZpKzBaZtf1btDG509UaZaGYPjvqHA+G/xIM/yFvKAB4kxf7Wl0dXx6K6Zx6szu9ZeP9jacqbGX/R2JibOSwfn1LtM7V7eKxHgwfumU7jp6Jr3W1hskNgfa5z4NP3V7c+Vra9TzDf8gbCgDeZEXvq67X+EDTaaqPVHmQJj9qI5U6vdbdd8KrImXD+vV1UXc/nzqf/Hw3Jd09r66KlHuUJHteDAN6geE/5BMFAG/yTO8rirvcFbA8FNMnW97jUaLcu3jEgqw3QNqnMx0f1q8PufzjF7b88fKlPjvh6vjykPnHRV4NA7rB8B/yjQKANxlw0nqsZ5XrdebWztJpb/HGND8YGxuhM4f4fvfDWZ9w/7W4guRyIz9/1BhvhgHdYPgP+UYBwEE91Pm8J+tcMfr9RjauGaqwFdLlo96X1ST+6zly9LjhT5Bwx4vXBGeLnf9gAgUAB/Vy/2a1upyMlv7xKOA7Ez6qOoPf9T6ci0ecrmM82L3wmd5XtHewa1jHOLJdndPtIwSvhFwMTkqubyB4youdAbPBzn8wwR9/g8B3HDm6de8jnqw1qqRB351wiWrC/ioBp1TP0PmNcz1Z6469jw/7mJTL1+7W+KRU1UXcTfEnM+aH7/YxNQzI8B9MoADgkB7vWa1tKXdbA+8zuXSUfjr50xpV0uDJem7NqTpCXx37QYU8GKRbl9im1f3D30CpP+PupT7jYk2+eP3yRBcv05GkfsfdwKmXTAwDMvwHUygAOCTbcfQHj+4CSNLIknr9ZNKndHzlNM/WzMb82uP0H+Mv9uz1trfufTir49oGu12dtywU0wmGf5axUFRzKrPbzGiftgF3Pwev5XsYkOE/mEIBwGE91LVSL/dt8my92kilvjP+o/pEy3tUFop5tu5QlFgRXT7qXF05ZonCHv2vvz6xXU/1vJLVsb2ZfnVn+lyd/8IRCzy5i5Gt99afpGqX3+N3+wIqr+VzGJDhP5hEAcBhOXJ07c47lXEynq0Zsiy9v/Ed+uW0z2t+7XGudt8bquMrp+m6yZdpUf0cT9e9cc9SOS7G2DYmdrk6/9Sy0bqwaXgvE/LKlLLR+vCI012t4cjRxqS7n0Eu5GsYkOE/mEQBwFvamNypO9uf9HzdpkiNrhyzRL+c+nktqjtR5R7fEbBkaWbFJP1gwsf0vQmXaHxps6frP9u7Vs/0utsGd1XfBtc5LhwxX0ua5g3p9cVeOaJsrL49/iOuN0/amto77A2U8iFfw4AM/8Ekbx6Couj9ds9fdVzVVE2MtXi+9uiSRl0++jz968iz9XTvK1oeX6cX4q3aMzj8l8xErbCmlI3RCZVTtaD2eLWU1HmeV/rHZkm/2Hm363VW9m3QxS7XsGTpkuYzdGzlJP1214Nal9jmOteh1IQr9YGmU3VuwymezFC84EEByoV9w4AL69xtD304DP/BNAoAhiRlD+q7W27RtZM/k7Nn97FQVKfVzNy/e2BPul/bBvZqx0C7UvaA4vbBp8WrwxWqDperMVqtyaWjFMnDZPxvdj/o+q2JkvRK/xbtHuhUswdFZXbFVM2ePFU7Btq1pn+zutJxZVzuNbBPVbhMY2PNOqpsnKePbB7tftGztbx2b+czOS0ADP/BNAoAhmxrao+u23GnvjTm/LycrzpSrqMi43VU+fi8nG+oVsbX6y/tf/dkLUeOHupeqQ81zfdkPekf+y745euWh7NjoF1r+jabjnFI+4YBJ7v8muPBMPwHP2AGAMOyrOt5zzYIKkQd6V791/bbZDve7V93Z/uTGnC5KVAh+nP7310NUOZDroYBGf6DH1AAMGy/3f1X3d9pZstUkwactK7efKPaB3s8XbcrHdeyzhWerul3nem4HuxcbjrGW8rVMCDDf/ADCgCGzZGja3f8WU/2rDEdJW8yTkbf33qL1iW25mT93+1Z6voVzIXkht33F8Qn4FzsDMjwH/yCAoCsZBxb39lys5Z1efPWQD+zHUc/2f5/OS08Xem4bt6zNGfr+8kr/Zu11KO3TeaD1zsDMvwHv6AAIGsZ2frhttv1x7ZHTUfJmYyT0Y933KGleSg6d3Y8qefjr+X8PCYl7JR+uP0O3z/7fz0vdwZk+A9+QgGAK44c3bDrAf1sx51Ke7hboB8k7JSu3nKTlubp+bztOLpm2x89nzHwC0f/uJPi1Qum8smrYUCG/+AnFAB44q6Op3R56889+W68H+wYaNcVG36uZ13u9DdcXem4vrbp14pnEnk9bz78ZveD+lv3KtMxsuLVMCDDf/ATCgA8sz6xXZ9df60e7fLv5i5D8Wj3i7psw7XGBrU2pXbr6s2/U7/t7nXBfnJ722P6495HTcfImhfDgAz/wW8oAPBUn53U97f9QV/d9GttH2gzHWdYujN9+sG2W/X9rX8wPpG/un+TPr/hF2or8McBjhzdtGeZfrXrPtNRXHM7DMjwH/yGAoCceD7+mj752k/02z0Pqu8QW/j6RcaxdXf707r01R/pka4XTMfZb2Nql67Y8DOt7t9kOkpW+uykvrvlFt28Z5npKJ5Y279F6xPbszq2OxNn+A++k/tN03Oo7uIZpU46/BXTOXBwthy91LdJd7U/pa50XJPLRqssVGI61n624+jx3tX67tZbtKxrhQYc/w1n9dspPdS5UrZsHVk+Pi+vTvbCc73r9O+bf6tXEltMR/FURzquebWzhn3c7/Ys1Ut9G3OQCOZY93f/YVVB39bhXQDIuYSd0p/bn9D9nc9pQe1snV47W0eUjzOWJ55JamnXCt3d/lRBPKbIKKOb9zykh7pW6uMti3RS1QyFrPy9+nc4tqb26Ne7H9BTRbpJ1NO9a3Rf57NaVHfikI95vu813dn+RA5TAdmhACBvkvaA7ul4Wvd0PK3RJY16V91svb3qCE2Mjcz5BW3ASeu53nV6rHuVnupdU5Bfxdo50KFvbblZ40ub9YGGd+rUmqNz9mbG4XDk6KX+zfpL+9/1ZM/Lnr4nwY+u2/EXWbJ0Vt3b3vLXPte7Tt/deosyjjdvZQS85M+PEUM0aenimkyypMt0DrhTE67QzIpJmlkxSRPLRmpcrFE14UpXa3al42pN7tLaxBat6mvVmv7NBXnRP5xYKKqTqo7SCZXTNLNikievFB6qhJ3S6r6NeqFvgx7vfkl7Bjvzdm6/OLn6KH14xOmaVDryTf9u50CHbtv7qB7oeq7oC1FwWZdtPvvm60yncIMCAF+qDJdpTKxJ1eFylYVKVBEqU1m4RJGDjK302gnZstU12Ke2dLf2DnSrOxM3kNqsqnC5Rsca1RytVUWoTBXhmEIezfn2O0klMwNqT/do+0C79g52cWH7p/GlIzS1dKxqImWKZ5JqTe7UhuQOfj5Fr/ALAI8A4EvxTEJr+4trgCzXejP9Wtu/RWvFzy2fNif3aHNyj+kYwLAVxkgxAADwFAUAAIAAogAAABBAFAAAAAKIAgAAQABRAAAACCAKAAAAAUQBAAAggCgAAAAEEAUAAIAAogAAABBAFAAAAAKIAgAAQABRAAAACKCCLgDR/irbdAYAQAA5TsFffwq6AKxL9fZLckznAAAEiyOn13QGtwq6AOj82zOS+k3HAAAES8gKUQB8YKvpAACAYHGkLaYzuFXwBcCSXjWdAQAQLKV2yWumM7hV8AVAll4wHQEAECjr151zA48ATHPs0N9MZwAABMojpgN4oeALQCaZfEpS3HQOAEAwOI61zHQGLxR8Adh2/u0JOfqL6RwAgEDoS8Wse02H8ELBFwBJchzrRtMZAADFz7F0++4zbuozncMLRVEAtpxz81LJWmk6BwCgqDm2pR+bDuGVoigAkmTJucZ0BgBA8XIs3bXt3b9fbTqHV4qmAGx6z+9vcxw9ZjoHAKAoDYQz1pWmQ3ipaAqALDmWk7lCUtp0FABAcXGkH2085+Z1pnN4qXgKgKTN59y60pK+YToHAKCorCgJd3zTdAivFVUBkKRNK6ZeI+l+0zkAAEWh0w6nl6xfdH/KdBCvWaYD5MKouz9RHlXfMkknmc4CAChYSduyFm59z82Pmw6SC0V3B0CSdpz9v/2RwdD7JGuV6SwAgIKUcBwtLtaLv1SkdwD2abptcWVFefRPjmOdbjoLAKBgdNmW9d5ivvhLRV4AJEmPzI1MiI/5d0fO11WkdzwAAJ5ZkbGtC7adc/N600FyrfgLwD+Nv+eid0vOdXI0wXQWAIDfOCk5+lFlcvCbL59/+4DpNPkQmAIgSWNuW1wWKot+2ZL1b5JqTOcBABjnSM6d4VDkytZ33/iq6TD5FKgCsM+U+y6sHrCdT8mxLrWkqabzAADyrkfSHY5j/3jLe//wsukwJgSyALzehHs/PMexM++WQvMk+22SFTOdCQCQE+ssx/qbbTlL7cTAvdvOvz1hOpBJgS8AB7htcXhceXR82LGmZCynRo5VK8vhZwQABchyrLhtWfGwZW8ZsCtf3XH2//abzgQAAAAAAAAAAAAAAAAAAAAAAAAAAAAAAAAAAAAAAAAAAAAAAAAAAAAAAAAAAAAAAAAAAAAAAAAAAAAAAAAAAAAAAAAAAAAAAAAAAAAAAAAAAAAAAAAAAAAAAAAAAAAAAAAAAAAAAAAAAAAAAAAAAAAAAAAAAAAAQLb+H5mM75202YbjAAAAAElFTkSuQmCC;" vertex="1" parent="1">
          <mxGeometry x="251" y="210" width="72" height="72" as="geometry" />
        </mxCell>
        <mxCell id="ckpoAZdv2tJWgA7Kn1el-5" style="edgeStyle=orthogonalEdgeStyle;rounded=0;orthogonalLoop=1;jettySize=auto;html=1;" edge="1" parent="1" source="ckpoAZdv2tJWgA7Kn1el-2" target="eFz6Z1lDjVqoyxP0B4Vr-7">
          <mxGeometry relative="1" as="geometry" />
        </mxCell>
        <mxCell id="ckpoAZdv2tJWgA7Kn1el-2" value="pharmacy_otc_sales_data_2" style="shape=image;verticalLabelPosition=bottom;labelBackgroundColor=default;verticalAlign=top;aspect=fixed;imageAspect=0;image=data:image/png,iVBORw0KGgoAAAANSUhEUgAAAgAAAAIACAYAAAD0eNT6AAAACXBIWXMAAA7DAAAOwwHHb6hkAAAAGXRFWHRTb2Z0d2FyZQB3d3cuaW5rc2NhcGUub3Jnm+48GgAAIABJREFUeJzt3XmcHHW9/f9TvUzPvk9msu8JEEggIBEQSWIIEEUEDUFBroLLdUG4bqhcvbjLvS7XH6jcq6ICIgJXZQcTFkH2hEACIYFksu+zT89090x31fcPTX4EkjDTVd2f6q7X8z8epD51MpDU6ap3f0oCAAAAAAAAAAAAAAAAAAAAAAAAAAAAAAAAAAAAAAAAAAAAAAAAAAAAAAAAAAAAAAAAAAAAAAAAAAAAAAAAAAAAAAAAAAAAAAAAAAAAAAAAAAAAAAAAAAAAAAAAAAAAAAAAAAAAAAAAAAAAAAAAAAAAAAAAABQwy3QA5M7WrVvLOm271HQOIIgG9qbtE06Y3G06B3AoFIAC5zhOaG3rthlWSPNk6W1yNF3SBEkNkkJm0wHB1dET197OHicaCveXxqLLwqX6t9NmzdpoOhewDwWgQK1t3T7dseyPWNKHJI0znQfAgTp64trd1rX/n8PhkF1ZWXrN/BNmfc1gLGA/CkCBWbNpx+ywk7nKkd4nPuEDvvXGAiBJliVVV5T/Yv6cWZ82FAvYjwJQIF7Ztq0hNOh8z5E+Ji78gO8drADs01BT+bl3nnDMtXmOBByAC0kBWLtp2zxr0FnlSJ8Q/82AgtcV7//vZStWzzSdA8HGxcTnXtm47atynGWSRpnOAsAbmYwdGkwkH1m+fHnUdBYEFwXApxzHsda1bvuhJed74r8TUHSSqXR9dzpyr+kcCC4uLD61btO2nziW8wXTOQDkTm9/8vS/LX+ZP+cwggLgQ2tbt3xd0uWmcwDILcdx1BOPX/Pwsy/PMJ0FwUMB8JlXNm45Q5Z1tekcAPIjnbHDqYHE4y+//HKJ6SwIFgqAj6xubW22ZN0o/rsAgZJMDdbt6h28x3QOBAsXGh+JWJH/lDTCdA4A+cc8APKNAuATr2zadpIl68OmcwAwg3kA5BsFwCcsx/mG2JkRCDTmAZBPFAAfWNe6bZakM0znAGAe8wDIFwqAH4Scj4lP/wD+iXkA5AMFwLDly5dHHUdLTOcA4B/MAyAfKACGVdU1zZHUZDoHAH9hHgC5RgEwzLGsuaYzAPAn5gGQSxQAw6yQNcd0BgD+1dufPP2R5166wnQOFB8KgGGOo+mmMwDwL8dx1NvX96NlK1bPNJ0FxYUCYJDjOCFJE0znAOBvmYwdGkwkH1m+fHnUdBYUDwqAQevXr6+UxB9oAG8pmUrXd6cj95rOgeJBATAoE4tVms4AoHAwDwAvUQAMstMRPv0DGDLmAeAlCgAAFJB/zAOkHmV/ALhFAQCAAsP+APACBQAAChDvC4BbFAAAKECO46g7Hv9P5gGQLQoAABQo5gHgBgUAAAoY8wDIFgUAAAoc8wDIBgUAAAoc8wDIBgUAAIoA8wAYLgoAABQJ5gEwHBQAACgizANgqCgAAFBEmAfAUFEAAKDIMA+AoaAAAEARYh4Ab4UCAABFinkAHA4FAACKFPMAOBwKAAAUMeYBcCgUAAAocswD4GAoAAAQAMwD4I0oAAAQAMwD4I0oAAAQEMwD4PUoAAAQIMwDYB8KAAAEDPMAkCgAABA4zANAogAAQCAxDwAKAAAEFPMAwUYBAIAAYx4guCgAABBgzAMEFwUAAAIuk7FD6cTgI4884kRMZ0H+UAAAAEqkUvV2+Yv3ms6B/KEAAAAkSb19yYXMAwQHBQAAIIl5gKChAAAA9mMeIDgoAACAAzAPEAwUAADAmzAPUPwoAACAN2EeoPhRAAAAB8U8QHGjAAAADol5gOJFAQAAHBbzAMWJAgAAOCzmAYoTBQAA8JaYByg+FAAAwJAwD1BcKAAAgCFjHqB4UAAAAEPGPEDxoAAAAIaFeYDiQAEAAAwb8wCFjwIAAMgK8wCFjQIAAMgK8wCFjQIAAMga8wCFiwIAAHCFeYDCRAEAALjGPEDhoQAAAFxjHqDwUAAAAJ5gHqCwUAAAAJ5hHqBwUAAAIAcs0wEM6oknFz6+fM3lpnPg8CgAAJADlhXkCuCoM977Y+YB/I0CAAA5EAp0AWAeoBBQAAAgB8LhsOkIxjEP4G8UAADIgZIoH3wl9gfwMwoAAORAJByWFQr2YwDpH/sD9MT7rnn4hRdmmM6CA1EAACAHLEsqj5WYjuEL6UwmPBC3H2MewF8oAACQIxWlMdMRfIN5AP+hAABAjlRVlpuO4CvMA/gLBQAAcqQkGlFpSdR0DN/gfQH+QgEAgByqq6k0HcFX2B/APygAAJBDNVUVikS41r0e8wD+QAEAgByyJDXVVZmO4Tu8L8A8CgAA5FhNZYXK+ErgG/C+ANMoAACQY5YljWyqC/z7Ad4ok7FDmeTAw8wDmEEBAIA8iJVE1dxQYzqG7/QnBxqYBzCDOmrQmtYd40NWZpPpHH6UsgfVlu5WfyZlOgoOIWKFVBepUk2kQhZ/lQzZrrZOdfb0mY7hM5Yaa6qvOPWEo35qOkmQ8KfWIArAgQactO7teFrLulZqfWK76TgYoupIueZUHanzG0/TuNgI03F8z3Ec7djTqZ6+ftNRfCUSDmcqaktmzT/22JdNZwkKCoBBFID/38bkTn1zy03aOdBhOgqyFFZYHxoxXxeOmM8dgbfgOI52t3Wps5c7Aa9XFot1xAaPa543z0qbzhIEzADAuNbkTv1b6/Vc/AtcRhndtGepfrHjbtNRfM+yLLU01amxrloWg4H7sT9AflEAYFTKHtQ3t9yohM2z/mJxZ8eTerT7RdMxCkJTXbXGtTQqEgmbjuIbPfHEwr+tWLPEdI4goADAqHs6ntaugU7TMeCxG3Y/oIxs0zEKQnlZTJPHNqu+ppIHJ/+USCSuM50hCCgAMGpp5wrTEZADuwc6tSreajpGwQhZITU31GryuJGqq64I/H4BidRA49MrVh1vOkexowDAmHgmoY2pXaZjIEde6t9oOkLBiUbCamms09TxI9XSVKfyspiC2gUSti4ynaHYsfsSjGkf7DUdATnUlu4xHaFghUIh1VVVqK6qQo7tqD+VUiqVVmpwUIPpjBzHke0U9yOWcMhqMJ2h2FEAYEwsxHvSi1lM/Pf1ghWyVFFWqooy00nyy5LWmM5Q7HgEAGMaolUqseigxWpkrN50BACHQQGAMVErouMqp5iOgRw5seoI0xEAHAYFAEYtbnyn6QjIgbdXHaXRJY2mYwA4DAoAjDqmYpLm1x5nOgY8VBku1SdGLjIdA8BboADAuCtGnadjKyebjgEPlIViumrchXz6BwoABQDGxUJRfW/CpbqgaR5DgQXsqPLx+u/Jn9bsiqmmowAYAv62hS+EFdJHm8/Qe+tP0mM9q7W6b6M60r1KO7wUzM+qwxUaF2vSSdVHaVYFd3GAQkIBgK80RKt1bsMpOrfhFNNRAKCo8QgAAIAAogAAABBAFAAAAAKIAgAAQABRAAAACCAKAAAAAUQBAAAggCgAAAAEEAUAAIAAogAAABBAFAAAAAKIAgAAQABRAAAACCAKAAAAAUQBAAAggCgAAAAEEAUAAIAAogAAABBAFAAAAAKIAgAAQABRAAAACCAKAAAAAUQBAAAggCgAAAAEEAUAAIAAogAAABBAFAAAAAKIAgAAQABRAAAACCAKAAAAARQxHQA4mI50rzoGe+SYDgLkUEW4VM0ldQrzWQwGUADgGwk7pTvaHtfDXSu1Y6DddBwgLypCpZpTfaQuaJyn8aUjTMdBgFAA4Atr+7fom1tuUke613QUIK/67KQe7lqpv3W/qH8ZsVDnN50mS5bpWAgA7jvBuLWJrfrypl9y8UegZRxbN+x+QL/d/VfTURAQFAAYlbBT+vaWm5SyB01HAXzhj3sf1fL4q6ZjIAAoADDqzvYn1TbYYzoG4BuOHP1q1/2mYyAAKAAwalnXStMRAN/ZmNyp1uRO0zFQ5CgAMKY306+tqT2mYwC+9HLfZtMRUOQoADCmY5ChP+BQ2jPdpiOgyFEAYExpqMR0BMC3yqyY6QgochQAGNMQrVYsFDUdA/ClUbEG0xFQ5CgAMCZihXV85VTTMQDfiVphHV85zXQMFDkKAIxa0jSPXc+AN3hP/dtVHuIRAHKLAgCjjigbq7PqTjQdA/CNlpI6XTjiXaZjIAAoADDuM6Peq5OqjzIdAzCuKVKjb437qKrC5aajIAAoADAuYoX1jbEf1qUtZ6kiVGo6DpB3liydVjNT1065jDcCIm94GyB8IWRZOr/xNC2qO1FP967Rqr6N6kj3KmPbpqMBOVMTrdDEWLNOrp6hsTEu/MgvCgB8pTJcpgW1x2tB7fGmowBAUeMRAAAAAUQBAAAggCgAAAAEEAUAAIAAogAAABBAFAAAAAKIAgAAQABRAAAACCAKAAAAAUQBAAAggCgAAAAEEAUAAIAAogAAABBAFAAAAAKIAgAAQABRAAAACCAKAAAAAUQBAAAggCgAAAAEEAUAAIAAogAAABBAFAAAAAKIAgAAQABRAAAACCAKAAAAAUQBAAAggCgAAAAEEAUAAIAAogAAABBAFAAAAAIoYjoA8Ea242j7wF51puNKK2M6DpAz1aFyjY41qiwUMx0FAUQBgG90Z+K6de/f9HDXSnWl46bjAHkRtcKaXTlNF46Yr+llY03HQYBQAOALK+Pr9d2tt6g30286CpBXg05Gz/S+omd71+r8ptP0kRFnKGRZpmMhAJgBgHGr+lp11aYbuPgj0Bw5+uPeR3X9zrtNR0FAUABgVDyT1He23KKMbNNRAF+4s+NJPdHzsukYCAAKAIz6c/vj6s7wvB94vRt2PyBHjukYKHIUABj1cNeLpiMAvrMttVfrEztMx0CRowDAmO5Mn3YMtJmOAfjSmsRm0xFQ5CgAMKZrkFv/wKF0DPaajoAiRwGAMeVhNj8BDqUiXGo6AoocBQDG1Eer2QENOIQxJU2mI6DIUQBgTFghnVg13XQMwHdioahmV04xHQNFjgIAoy5omseuZ8AbvK/hFJWGSkzHQJGjAMCoSaUjdW7DKaZjAL4xLtakDzbNMx0DAUABgHGXNi/SgtrZpmMAxo0qadS3xn+U2RjkBS8DgnFhK6QvjTlfMyrG63e7l/ImQAROWGGdUXeCLm05U5XhMtNxEBA8fH2D5v9aWKGEPSlk23WOpQpJlbk611FN0yt/ftbXbsjV+oUoZQ9qRfw1vdTfqvZ0r2yb7VBRvKoi5ZoYa9Hba45UU6TGdBxfsaSvTp849gemcxSzwN8BaLl67oSQQu9xZJ0maY76Mv98IbclK8fXntfaNmzP7RkKTywU1cnVR+nk6qNMRwGAohbIAjDj6sUl7VbHBy1HH5N0imPsTgjj7wAAM4JVAG5bHG55pfMTHU7HVy1HY03HsSgAAABDAlMAmr81b05oTcf1ko41nWUfixkMAIAhQfgaoDXym++6PGyHHpePLv6SZFlWEH7+AAAfKuo7ABOunluaUvgWOTrXj7PkIStEAQAAGFG0BaDxmlOqUonwXZLmms5yKCHuAAAADCnOC9D/HB+NJkpvl48v/pJkWaGw6QwAgGAqygIwcmftdZLOMJ3jrYS5AwAAMKToLkCjvrngHEmfMJ1jKMJWuGgfwQAA/K2oCsCoq+c2Oo79S9M5hioUClEAAABGFFUBsBX5D8lqMp1jqELMAAAADCmaAjDm6rlTQnI+aTrHcFhiBgAAYEbR3ILOKPxFSVHTOQAAKARF8Ql0zNVn1Eu6yHQOAAAKRVEUANvKXCipwnQOAAAKRXEUAMf5oOkMAAAUkoIvAE1Xz22xpLebzgEAQCEp+AIQtULzxGt1AQAYloIvAHJ0qukIAAAUmoIvAI6so01nAACg0BR8AZA03XQAAAAKTaEXAEtSg+kQAAAUmoIuAM3/tbBcEvvpAwAwTAVdAHb3DaQkOaZzAABQaAq6AOjqR9OS+k3HAACg0BR2AXBkSWo3HQMAgEJT0AVg0rLF1VZ5lE2AAAAYpoIuAJIUqioZazoDAACFpuALgFURNR0BAICCU/gFoDomy+IpAAAAw1H4BSBsyarkLgAAAMNR8AVAkkKNZaYjAABQUIqjANSVyooUxW8FAIC8KI6rpmUp1FxhOgUAAAWjOAqApHBzuaxo0fx2AADIqeK5YlqWwmOrTacAAKAgFE8B0D9mAUJ1paZjAADge0VVACQpMr5aivGGYAAADqfoCoDCIUWn1Enh4vutAQDglaK8SlqlEUWn10sRdggEAOBgirIASJJVFlF0WgPfDAAA4CCK+upolUUUPaJBIV4YBADAAYq6AEiSSsIKT69XuKVC4okAAACSglAAJFmWpfDoKkWPbFSoqsR0nNdxTAcAAARUIArAPlZZRJFp9YpOq5flgyKQtjMDpjMAAIIpYjqACVZViaJV9XIGMrLbk7J7klJfWo6T30/kqcxgQpL5JgIACJxAFoB9rJKwwiMrFB5ZIdmO7MSglEzLSdlSxj54IXCUVtrZ4dh2hzLqk2w76wClEefWtkeayqzYyGgoXOvitwIARSHj2ImEM7B7bf+WcePu+dAnsl7IVsJSqN+xnK5IKLy1rrl044oT/nfQw6gFr6DH4iYtXVyTSZZ0mc4BAPC9tGStseQ8ajtaWpUc+OvL598e6MewFAAAQBB1SPpDxrb+e9s5N683HcYECgAAIMgyknW7HOtrm99700bTYfIpUN8CAADgDcKSc4Es++Xx91z0dT0yNzCzcRQAAACkMjnOtybERz857p4PTTIdJh8oAAAA/JMjvc1yrGcm3v2hE01nyTUKAAAAB2q0ZT007p4PLTAdJJcoAAAAvFml5Vh3jr/nopNNB8kVCgAAAAdXLse5c8KfL5hgOkguUAAAADi0RkXCt824bXHRbdtOAQAA4DAc6W195SVXmc7hNQoAAABvwXGcKyfde/E00zm8RAEAAOAtWbGMnf6e6RReogAAADAk1nnj7vrgDNMpvEIBAABgaCzLsq4wHcIrFAAAAIbMOn/MbYvLTKfwAgUAAIChqw6XxhaZDuEFCgAAAMPghJzTTWfwAgUAAIBhsBxnnukMXqAAAAAwLNbUptsWV5pO4RYFAACA4bHKY+GppkO4RQEAAGCYrFBkvOkMblEAAAAYJtuxq0xncIsCAADAMIVCYgYAAICgcZxQ2HQGtygAAAAEEAUAAIAAogAAABBAFAAAAAKIAgAAQABRAAAACCAKAAAAAUQBAAAggCgAAAAEEAUAAIAAogAAABBAFAAAAAKIAgAAQABRAAAACKCI6QDAwcRCUY2KNqg2WqlSK6pYuETlVulBf61t2epPpxS3+9We7tGegW4l7FSeE5sXC0U1uqRRLSV1KrNiioVKPFs7o4wSmQF1pHu0NdWm7kzcs7Xdqo9U6cjy8aoJl6vPTmpTarc2J3ebjpU3I0vqNal0pGrCleqzE3otsV07BtpNx0IBoADAuLJQTDMrJmlWxSRNLB2pMbEGNUVrZcnKes3dA51qTe3Sq/1b9ULfBq3r36aMMh6mNi9ihfW2quk6vmKaZlZM0rjSJlc/s+HozsS1Or5JL/Sv19+7X1JnOv+FYGbFJF3cfLqOLp/wpt/39oE2/WHPw3qoe6Vsx8l7tnyYU3WELhpxuqaVjX7Tv9uY3Knf73lYj/esNpAMhSI/f1vkyKSli2syyZIu0zkwfCOidVpQe5zmVB+pqaWjFLbCOT1fwk7pmZ61eqxnlZ7rXacBJ53T8+XSyJJ6nddwqubVzlJVuNx0HGUcWyv71usv7U9oee+rcpTbC27IsvSREQt1ftPctyw8z/S+ou9vvbWo7giFFdJnR5+jRXVz3vLXPty1Uj/Z/n8F/f+7f1mXbT775utMp3CDAoC8KbEiOq12lhbWHq+jyycqZJn5368706cHO5fr3o6ntWug00iGbDRFanRJy5k6rWaWwpY/x3c2JHfoV7vu0/Px9Tk7x0ebz9AFTfOG/Ouf73tN/77xt0VzB+jy0ecO6eK/z9+7X9J3tv4+58UseAq/AOT2Y1eO1V08o9RJh79iOgcOrzRUorPr366vjb1QC2pnq7mkTpahi/++PDPKJ+ic+lM0oaxZrYmd6s30G8vzVkKWpfc3vlNfH3eRppaNMVachqI+UqUFtbM1MdaiVf2tStoDnq5/dPkEfX7MB4b1qGNkSYP67ZTW9G/2NIsJJ1UfpY+3vHtYx4wrHaFdAx1qTe7MUaqgsu7v/sOqZ02ncIMZAORMWCG9v/FULW48TdUR87eq3yhkWXpn9UydUn207mx7QjftWaZ+n90qro1U6ktjztcJldNMRxmWd9QcrWMqJ+g/t96m5fFXPVv3ohELsppzWNI4V/d2PFPQjwIsWfqXEadndeyHR5yuZV0ruQuAA/jzPiIK3syKSfrFlCt0actZvrz4v15YIZ3XeKpumPYlnVJ9tOk4+42LNem6yZ8tuIv/PjXhSn1r/Ef0nvq3e7JebaRSMysmZXVsdaRc82pmeZLDlKPLJ2hi6cisjm0uqdP0sjEeJ0KhowDAU2WhmL40ZrH+c+LHNb50hOk4w1IXqdQ3xl2kL41ZrPJQzGiWaaWj9aOJn1JTtNZoDrfCVkiXjXqfLmya73qtyaWjXM0+nFl/ousMJi1ymX/yQb4tgGCjAMAz40tH6KeTPq0Ftcfn7etoubCg9nhdN+UyYwVmVEmjvj3ho76/czIcFzcv1HmNp7paoyZS4er46WVjNKVAL4LVkXK9o+YYV2vUufz5ofhQAOCJRXVzdN3kz2l8abPpKJ4YXdKon0z6tGZXTsnreasj5bpm4qWqjVTm9bz58PHmRTqp+qisj+/LJFxnWFT3NtdrmHB67WyVWO5GtuKZpEdpUCwoAHBtSeNcXT76XNd/QflNRahU3x7/UZ1WMzMv57Nk6fOjPqAR0bq8nC/fQpalL44+X80l2f3+WhM7XQ+xza89TmWGH+9k44xa948vNvAtALwBBQBZC1shXT76PF3ScqbpKDkTscK6cswFmlub+wGys+pPdPUJuRBUhkv1xdGLs3pEtDfdrQ2JHa7OXxaKFdww4DHlE10/jopnElrTt8mbQCgaFABkJWRZ+vKYJVpUV9iDVUMRtkL68pglmlN1RM7OURUu10eaF+ZsfT+ZWTEp60L1YOdy1+cvtGFAt8N/krS063llZHuQBsWEAoCsfLrlHM0tsE9SboQV0lVjL8zZENlFI96lmnBwhrQubTlL0Sy2f36oa6XrzYUKaRjQi+E/SXqgo6D3q0GOUAAwbBeNWKCzG7z5bnchiYWiunrchz0f0KuOlOvMAh1Oy1ZTpEYLamcP+7g+O6nHut2/4KZQhgG9GP57qX+TNqWC83ZEDB0FAMMyt2aWPjxigekYxjRFa/WlMed7+jXH99afpFIPX91bKN6f5dcC7+t0/2m2UIYBvRj+49M/DqW4xraRU6NKGnXF6PPydr6EndK2VJv2DHYqnkkq6Qy86fZvzIqqKlKuqlCZGqM1Gh9rzvmLck6onKaz69+uuzqecr2WJUvvyuKT8OG0D/ZobWKL2tI9nuzFH1FYtdFKjSsZoSllozwrP2NjIzS9bKzWJbYO67hX+jdrQ3KHJpeOyvrcZaGY5tbM1P2dz2W9Rq55M/yX1GO8EhiHQAHAkJRYEV019oM5/dSUdjJ6rnedlsdf1Yt9rdqa2jPsNcpCMU0tG60TKqdpft1xaorU5CCp9LGWRXo2vtb12wSnlY3RqJIGTzKt6d+s3+x+UKv7NuZsz/emaK2WNM7VooYTFfbgBuLcmpnDLgCS9EDHc/rMqHNcnfus+jm+LgDeDP+tUMoe9CANihEFAENycfPCnA1O7R7o1J/a/66Hu1eqJ+3urXwJO6VVfa1a1deq3+35q46tmKIPjpivY8oneBP2n2KhqP615WxdveVGV+vMrvJmo6Fb9z6i3+35q2wnty972TvYpet2/kWP9azS18de5Hq3wtlV06Rd9w77uIe6VurSlrNcPTrZNwy4PrE96zVyheE/5AMzAHhL40ubdV7jOzxftyPdqx9uv10fffWH+kv7E64v/m+UcWytiL+qL7Zer6u33KjtA22ern9S9VE63uWLemaWT3ad4462x/Sb3Q/m/OL/eqv6WvX1Lb/VoJN2tc742AjVhIc/VFnsw4AM/yEfKAA4LEuWLhv1Pk9u9+7jyNFd7U/pY6/+SEs7VyijjGdrH8pTPWv06fX/n5Z1rfB03X9pzu71rPtMKm1xdfzG1C7dsPsBV2tka23/Fv1+70Ou1rBkaXKWb7gr5mFAhv+QDxQAHNbc2lk6pnyiZ+v1Zvp19eab9LOdd6rPzu/e5El7QP+17Xb9ePsdyjjelI7pZWN1YpYbBFWGS11/pfD3ux9SxjG3wcuf255Q3OUe/aNLs5uB2DcM6Ma+YUA/YfgP+UIBwCFZsvTBxnmerbd7oFOf2/BzPd27xrM1s/Fg53J9f+utnu2MtqRpblbHNUXcveo3ZQ/q2fhaV2u4lbQH9FzvOldruPk5PNDhfojvrPo5rtfwEsN/yBcKAA7plJoZnr3db3Nyt65o/bl2ePwcPluP96zWNVtv9WRa/ujyCTqyfPywjyuPlLo675bUHl/8Jf9a0t0QnZtb8MW2MyDDf8gnCgAOaYlHn/73prt11ebfqCPd68l6Xvlb9yr9X9vjnqy1OItNbWIuh7y60nFXx3ul02WO8nD2k/zFNgzI8B/yiQKAgzqyfLymefCpKGGn9LWNv9LewS4PUnnvhl0PaE3/ZtfrnFQ1Q43R6mEdY7n845eP4cmhsF3PILjbWKiYhgEZ/kM+UQBwUKfXHufJOtdu/4u2pPZ6slYuZGTrp9v/5HqQLmRZOrU6v8NkXm5HXMiKZRiQ4T/kGwUAbxK1wjrNgzf9Pd6zWg91r/QgUW5tSu3W0k73Xw+cWj68OyYJO+XqfEF8f8ChFMMwIMN/yDcKAN7kxKojVRkuc7VGwk7pf3bc41Gi3Ltx71INuNzUpi5cNaxf35Nxt/FRU9Tdtwi84vbuieMFK0FNAAAXKElEQVTBBkaFPgzI8B9MoADgTU6omup6jTvaHtfedLcHafKjfbBHD3W5u1sRt4d3Qe91ufPhqJIGNQxz7iAXulwOd3oxHFrow4AM/8EECgDe5NgKd/vTJ+0B3d3u/k15+XZH22OuttNdnxjec+i4nXC9IdGCGm/fJJiNTak9rn4f2bz06WAKeRiQ4T+YQAHAAZoiNa7fTvfXzhXqzvR5lCh/tqX26pneV7I61nYcPdHz8rCOyTi2WpO7sjrfPuc1vkMVIXf7CbjVm+nX6r5NWR2bka2ne73ZzKhQhwEZ/oMpFAAc4OhK99v+Lut63oMkZvxq9/1ZveDmse5V2pbFtx1e7t807GNerzZSqc+NOtfVGl74495HszrurvYn1etyFuL1CnEYkOE/mEIBwAHGl7jb+W/HQHtW73f3i22pvbpp97JhHbN3sEs/33lXVufzYg+CubWz9PGWRUa/Fvh832u6t+PpYR2zObl72D/rt1Jow4AM/8EkCgAOMKa00dXxL/St9yiJOX9se1S37H14SNsE7x7o1Fc2/TrrRx4v9rV68mKiDzS+U/8x/mLVuXy5kBs/23mX7ut4Zki/dkNyh67a/BvPXwhVaMOADP/BJAoADjCmxF0BeLGv1aMkZv1u91/1lU2/0vrEwfe5T9mD+lPb4/rMhmuzuvW/T1c6rmdcvkxnn5OqjtTvpl2pT408W+NiTZ6sORwZx9ZPd/xZ39pys7Yf4p0P8UxSN+9Zpis2/Dxnu0MW0jAgw38wyV31RNEZ6XIAcKPLoTY/eSG+QZ+JX6vxpc2aXjZG9ZFqpewBbR9o16q+Vte3mvd5oPNZnVx9lCdrxUJRva/hFL2v4RSt7t+o+zqe1d+7V7ve42A4nuh5SU/0vKQpZaN1ZPlY1Ueq1ZtJaFNyl17q25jzLPuGASeXjsp6jX3DgPd3up8pOBSG/2AaBQD7hRV2tbtcxrG1M9XuYSJ/2Jzcrc3J3N1iXR5/VXsHuzzf2OeY8ok6pnyiPtVytpZ1rdD9nc/mdVvm9Ynth7yDkmsPdDynz4w6x9UaZ9XPyWkBYPgPpvEIAPuVuXgrm/SPr4Pl85Nmscg4tm7cszRn61dHynVe46n65dQv6LrJl2lR3RzFQtGcnc8P/D4MyPAf/IACgP3cPvPsd7m3fZAt63pe6xLbcn6eqWWjdfnoc3XL9Kt0+ehzNTHWkvNzmuDVMOBZORoGZPgPfkABwH5lLj8Vpjx6Jh5EtuPoFzvvHtI3D7xQGS7Voro5un7qFUV7V8CLYcB35WgYkOE/+AEFAPtZlrv/Hew8XbyK1Sv9m/Wntr/n/bzFelfArzsDMvwHv6AAAD7y69336/n4a0bOXYx3Bfy4MyDDf/ALCgDgIxnH1jXb/piz78gP1b67AjdP+6o+2fJuI/sKeMFvw4AM/8FPKACAz3Sl4/rixv/RjgHzX6ks9G8Q+G0YkOE/+AkFAPChXQOd+kLr9b76i75QZwX8NAzI8B/8hAIA+FRHuldXbvylVvtse+XXzwr8cNInNb/2ONefanPJL8OADP/BbygAgI91peP68qZf6le77svqNcW5dkz5RF05ZoluPuIrWtI0Ly/752fDD8OADP/BbygAgM/ZjqPb2x7TZeuv08t9m0zHOaiacKUuaT5DN02/Uhc2zffdHQHTw4AM/8GPKABAgdiY2qXPb7xeX2i9Xs/0vmI6zkFVhct1cfNC/WzK5zQ1R9voZsP0MCDDf/AjCgBQYF7q36RvbP6dvtB6vR7tetGXjwbGxUbop5M/oyVNc2XJMh1HktlhQIb/4Ef+uk8HYMhe6t+kl/o3qXJnqd5ZPUvnNJ6sCbFm07H2CyukS5rPVEtJna7d8RfZjtmdIk29JpjhP/gVdwCAAhfPJHVf5zP65Gs/0Wc3XKv7Op/x1aDYoro5unLMBQr74K8bb4YBh/dpnuE/+JX5P5EAPPNaYrt+uv3P+vC6H+iXu+7T9oE205EkSXNrZunzY95vOoZHw4BjhzwMyPAf/IwCABSh7kyf7mh7TJe8+kPf3BVYUHu83ttwktEM+R4GZPgPfkYBAIqcn+4K/OvIszWjYoKx80vSvZ3PuF5jqMOAXgz/3c+nf+QIBQD7OY7t6viQT6a9cXB+uCsQVkhfHL1YUSuc1/O+3tr+LXnZGdCr4b/HGf5DjlAAsF/Sdvd1slioxKMkyLV9dwU+tO67+un2P+f1FvOokgad3XBy3s53MPkYBmT4D35HAcB+CTvl6ni/bgOLQ9v3DYJ/fe2/9eWNv9Sj3fnZV+DCpnepJlyR8/McSq6HARn+QyGgAGC//kzS1fHV4XKjt3aRPUeOXuzboO9v/YMuWPudnN8VqAyX6t0u99Z3I9fDgAz/oRCwERD2y8hWyh7M+n3vYSukUbEGbU7u8TiZWaNLGnVM5UTVhCuUsFPalmzTqv5WpZ1MTs7XGK3WMRWT1BipVtqxtX2gTS/2bcjbreB9dwXu73xWMysmaVH9iTqleoaiHu/vf2bd23Rr2yPGNgi6t/MZLaw73tUa76o9Tr/adf+b7p4x/IdCQAHAAXYOdrjaTW5CrKVoCsCsism6tOVMTS8b+6Z/152J64HO5bp1zyPqd/noZJ/pZWN0cfNCHV859U3b5ybslO7ueFq37HnY9aOaodp3V+DFvg2qCVfq9LrZWlR/okaXNHqyfnNJnY6tmKLn4695st5w7RsG9HpnQIb/UCh4BIADbEvudXX8rIpJHiUx68Km+bpm4scOevGX/vH2uyWNc3X9lCs0Jtbk+nxLGufqJ5M+pRMqpx107/yyUEznN56mn025zLML8HB0Z+K6o+0xfey1H+l7W29RR7rXk3Xn1RzryTrZysUwIMN/KBQUABxg24C7AnBs5RSPkpjzgcZ36uLmhUN6iU1zSZ2umfBx1UYqsz7fBU3zdEnLmQoPYX5idEmjfjDxUlfnc8N2HP2te5U+tf6nrr9KJ0kzKsZ7kCp7Xg8DMvyHQkIBwAE2p9zdvh9d0uir18AO17hYky5pPmNYxzRGq/XZUedkdb4pZaN18YgFwzpmRLROnxj57qzO55WudFxXbbpB7YM9rtYZVdJgrMxI3g8DMvyHQkIBwAFW9210vcaC2tkeJDHj4uaFQ/ok/kbvqD46q+e+H2ycl9X55tccq6Zo7bCP81JnOq7/3XWvqzUsWTryEI9Z8sXLnQEZ/kMhoQDgAHsHu7RjoN3VGgvrTlBluNSjRPkzqqRBJ1fNyOpYS5ZOrh7esaWhEp1YfUTW5ztlmOfLhcd6Vmn3QKerNZpKzBaZtf1btDG509UaZaGYPjvqHA+G/xIM/yFvKAB4kxf7Wl0dXx6K6Zx6szu9ZeP9jacqbGX/R2JibOSwfn1LtM7V7eKxHgwfumU7jp6Jr3W1hskNgfa5z4NP3V7c+Vra9TzDf8gbCgDeZEXvq67X+EDTaaqPVHmQJj9qI5U6vdbdd8KrImXD+vV1UXc/nzqf/Hw3Jd09r66KlHuUJHteDAN6geE/5BMFAG/yTO8rirvcFbA8FNMnW97jUaLcu3jEgqw3QNqnMx0f1q8PufzjF7b88fKlPjvh6vjykPnHRV4NA7rB8B/yjQKANxlw0nqsZ5XrdebWztJpb/HGND8YGxuhM4f4fvfDWZ9w/7W4guRyIz9/1BhvhgHdYPgP+UYBwEE91Pm8J+tcMfr9RjauGaqwFdLlo96X1ST+6zly9LjhT5Bwx4vXBGeLnf9gAgUAB/Vy/2a1upyMlv7xKOA7Ez6qOoPf9T6ci0ecrmM82L3wmd5XtHewa1jHOLJdndPtIwSvhFwMTkqubyB4youdAbPBzn8wwR9/g8B3HDm6de8jnqw1qqRB351wiWrC/ioBp1TP0PmNcz1Z6469jw/7mJTL1+7W+KRU1UXcTfEnM+aH7/YxNQzI8B9MoADgkB7vWa1tKXdbA+8zuXSUfjr50xpV0uDJem7NqTpCXx37QYU8GKRbl9im1f3D30CpP+PupT7jYk2+eP3yRBcv05GkfsfdwKmXTAwDMvwHUygAOCTbcfQHj+4CSNLIknr9ZNKndHzlNM/WzMb82uP0H+Mv9uz1trfufTir49oGu12dtywU0wmGf5axUFRzKrPbzGiftgF3Pwev5XsYkOE/mEIBwGE91LVSL/dt8my92kilvjP+o/pEy3tUFop5tu5QlFgRXT7qXF05ZonCHv2vvz6xXU/1vJLVsb2ZfnVn+lyd/8IRCzy5i5Gt99afpGqX3+N3+wIqr+VzGJDhP5hEAcBhOXJ07c47lXEynq0Zsiy9v/Ed+uW0z2t+7XGudt8bquMrp+m6yZdpUf0cT9e9cc9SOS7G2DYmdrk6/9Sy0bqwaXgvE/LKlLLR+vCI012t4cjRxqS7n0Eu5GsYkOE/mEQBwFvamNypO9uf9HzdpkiNrhyzRL+c+nktqjtR5R7fEbBkaWbFJP1gwsf0vQmXaHxps6frP9u7Vs/0utsGd1XfBtc5LhwxX0ua5g3p9cVeOaJsrL49/iOuN0/amto77A2U8iFfw4AM/8Ekbx6Couj9ds9fdVzVVE2MtXi+9uiSRl0++jz968iz9XTvK1oeX6cX4q3aMzj8l8xErbCmlI3RCZVTtaD2eLWU1HmeV/rHZkm/2Hm363VW9m3QxS7XsGTpkuYzdGzlJP1214Nal9jmOteh1IQr9YGmU3VuwymezFC84EEByoV9w4AL69xtD304DP/BNAoAhiRlD+q7W27RtZM/k7Nn97FQVKfVzNy/e2BPul/bBvZqx0C7UvaA4vbBp8WrwxWqDperMVqtyaWjFMnDZPxvdj/o+q2JkvRK/xbtHuhUswdFZXbFVM2ePFU7Btq1pn+zutJxZVzuNbBPVbhMY2PNOqpsnKePbB7tftGztbx2b+czOS0ADP/BNAoAhmxrao+u23GnvjTm/LycrzpSrqMi43VU+fi8nG+oVsbX6y/tf/dkLUeOHupeqQ81zfdkPekf+y745euWh7NjoF1r+jabjnFI+4YBJ7v8muPBMPwHP2AGAMOyrOt5zzYIKkQd6V791/bbZDve7V93Z/uTGnC5KVAh+nP7310NUOZDroYBGf6DH1AAMGy/3f1X3d9pZstUkwactK7efKPaB3s8XbcrHdeyzhWerul3nem4HuxcbjrGW8rVMCDDf/ADCgCGzZGja3f8WU/2rDEdJW8yTkbf33qL1iW25mT93+1Z6voVzIXkht33F8Qn4FzsDMjwH/yCAoCsZBxb39lys5Z1efPWQD+zHUc/2f5/OS08Xem4bt6zNGfr+8kr/Zu11KO3TeaD1zsDMvwHv6AAIGsZ2frhttv1x7ZHTUfJmYyT0Y933KGleSg6d3Y8qefjr+X8PCYl7JR+uP0O3z/7fz0vdwZk+A9+QgGAK44c3bDrAf1sx51Ke7hboB8k7JSu3nKTlubp+bztOLpm2x89nzHwC0f/uJPi1Qum8smrYUCG/+AnFAB44q6Op3R56889+W68H+wYaNcVG36uZ13u9DdcXem4vrbp14pnEnk9bz78ZveD+lv3KtMxsuLVMCDDf/ATCgA8sz6xXZ9df60e7fLv5i5D8Wj3i7psw7XGBrU2pXbr6s2/U7/t7nXBfnJ722P6495HTcfImhfDgAz/wW8oAPBUn53U97f9QV/d9GttH2gzHWdYujN9+sG2W/X9rX8wPpG/un+TPr/hF2or8McBjhzdtGeZfrXrPtNRXHM7DMjwH/yGAoCceD7+mj752k/02z0Pqu8QW/j6RcaxdXf707r01R/pka4XTMfZb2Nql67Y8DOt7t9kOkpW+uykvrvlFt28Z5npKJ5Y279F6xPbszq2OxNn+A++k/tN03Oo7uIZpU46/BXTOXBwthy91LdJd7U/pa50XJPLRqssVGI61n624+jx3tX67tZbtKxrhQYc/w1n9dspPdS5UrZsHVk+Pi+vTvbCc73r9O+bf6tXEltMR/FURzquebWzhn3c7/Ys1Ut9G3OQCOZY93f/YVVB39bhXQDIuYSd0p/bn9D9nc9pQe1snV47W0eUjzOWJ55JamnXCt3d/lRBPKbIKKOb9zykh7pW6uMti3RS1QyFrPy9+nc4tqb26Ne7H9BTRbpJ1NO9a3Rf57NaVHfikI95vu813dn+RA5TAdmhACBvkvaA7ul4Wvd0PK3RJY16V91svb3qCE2Mjcz5BW3ASeu53nV6rHuVnupdU5Bfxdo50KFvbblZ40ub9YGGd+rUmqNz9mbG4XDk6KX+zfpL+9/1ZM/Lnr4nwY+u2/EXWbJ0Vt3b3vLXPte7Tt/deosyjjdvZQS85M+PEUM0aenimkyypMt0DrhTE67QzIpJmlkxSRPLRmpcrFE14UpXa3al42pN7tLaxBat6mvVmv7NBXnRP5xYKKqTqo7SCZXTNLNikievFB6qhJ3S6r6NeqFvgx7vfkl7Bjvzdm6/OLn6KH14xOmaVDryTf9u50CHbtv7qB7oeq7oC1FwWZdtPvvm60yncIMCAF+qDJdpTKxJ1eFylYVKVBEqU1m4RJGDjK302gnZstU12Ke2dLf2DnSrOxM3kNqsqnC5Rsca1RytVUWoTBXhmEIezfn2O0klMwNqT/do+0C79g52cWH7p/GlIzS1dKxqImWKZ5JqTe7UhuQOfj5Fr/ALAI8A4EvxTEJr+4trgCzXejP9Wtu/RWvFzy2fNif3aHNyj+kYwLAVxkgxAADwFAUAAIAAogAAABBAFAAAAAKIAgAAQABRAAAACCAKAAAAAUQBAAAggCgAAAAEEAUAAIAAogAAABBAFAAAAAKIAgAAQABRAAAACKCCLgDR/irbdAYAQAA5TsFffwq6AKxL9fZLckznAAAEiyOn13QGtwq6AOj82zOS+k3HAAAES8gKUQB8YKvpAACAYHGkLaYzuFXwBcCSXjWdAQAQLKV2yWumM7hV8AVAll4wHQEAECjr151zA48ATHPs0N9MZwAABMojpgN4oeALQCaZfEpS3HQOAEAwOI61zHQGLxR8Adh2/u0JOfqL6RwAgEDoS8Wse02H8ELBFwBJchzrRtMZAADFz7F0++4zbuozncMLRVEAtpxz81LJWmk6BwCgqDm2pR+bDuGVoigAkmTJucZ0BgBA8XIs3bXt3b9fbTqHV4qmAGx6z+9vcxw9ZjoHAKAoDYQz1pWmQ3ipaAqALDmWk7lCUtp0FABAcXGkH2085+Z1pnN4qXgKgKTN59y60pK+YToHAKCorCgJd3zTdAivFVUBkKRNK6ZeI+l+0zkAAEWh0w6nl6xfdH/KdBCvWaYD5MKouz9RHlXfMkknmc4CAChYSduyFm59z82Pmw6SC0V3B0CSdpz9v/2RwdD7JGuV6SwAgIKUcBwtLtaLv1SkdwD2abptcWVFefRPjmOdbjoLAKBgdNmW9d5ivvhLRV4AJEmPzI1MiI/5d0fO11WkdzwAAJ5ZkbGtC7adc/N600FyrfgLwD+Nv+eid0vOdXI0wXQWAIDfOCk5+lFlcvCbL59/+4DpNPkQmAIgSWNuW1wWKot+2ZL1b5JqTOcBABjnSM6d4VDkytZ33/iq6TD5FKgCsM+U+y6sHrCdT8mxLrWkqabzAADyrkfSHY5j/3jLe//wsukwJgSyALzehHs/PMexM++WQvMk+22SFTOdCQCQE+ssx/qbbTlL7cTAvdvOvz1hOpBJgS8AB7htcXhceXR82LGmZCynRo5VK8vhZwQABchyrLhtWfGwZW8ZsCtf3XH2//abzgQAAAAAAAAAAAAAAAAAAAAAAAAAAAAAAAAAAAAAAAAAAAAAAAAAAAAAAAAAAAAAAAAAAAAAAAAAAAAAAAAAAAAAAAAAAAAAAAAAAAAAAAAAAAAAAAAAAAAAAAAAAAAAAAAAAAAAAAAAAAAAAAAAAAAAAAAAAAAAQLb+H5mM75202YbjAAAAAElFTkSuQmCC;" vertex="1" parent="1">
          <mxGeometry x="251" y="330" width="72" height="72" as="geometry" />
        </mxCell>
        <mxCell id="ckpoAZdv2tJWgA7Kn1el-4" style="edgeStyle=orthogonalEdgeStyle;rounded=0;orthogonalLoop=1;jettySize=auto;html=1;entryX=0;entryY=0.5;entryDx=0;entryDy=0;" edge="1" parent="1" source="ckpoAZdv2tJWgA7Kn1el-3" target="eFz6Z1lDjVqoyxP0B4Vr-7">
          <mxGeometry relative="1" as="geometry" />
        </mxCell>
        <mxCell id="ckpoAZdv2tJWgA7Kn1el-3" value="pharmacy_otc_sales_data_3" style="shape=image;verticalLabelPosition=bottom;labelBackgroundColor=default;verticalAlign=top;aspect=fixed;imageAspect=0;image=data:image/png,iVBORw0KGgoAAAANSUhEUgAAAgAAAAIACAYAAAD0eNT6AAAACXBIWXMAAA7DAAAOwwHHb6hkAAAAGXRFWHRTb2Z0d2FyZQB3d3cuaW5rc2NhcGUub3Jnm+48GgAAIABJREFUeJzt3XmcHHW9/f9TvUzPvk9msu8JEEggIBEQSWIIEEUEDUFBroLLdUG4bqhcvbjLvS7XH6jcq6ICIgJXZQcTFkH2hEACIYFksu+zT89090x31fcPTX4EkjDTVd2f6q7X8z8epD51MpDU6ap3f0oCAAAAAAAAAAAAAAAAAAAAAAAAAAAAAAAAAAAAAAAAAAAAAAAAAAAAAAAAAAAAAAAAAAAAAAAAAAAAAAAAAAAAAAAAAAAAAAAAAAAAAAAAAAAAAAAAAAAAAAAAAAAAAAAAAAAAAAAAAAAAAAAAAAAAAAAAABQwy3QA5M7WrVvLOm271HQOIIgG9qbtE06Y3G06B3AoFIAC5zhOaG3rthlWSPNk6W1yNF3SBEkNkkJm0wHB1dET197OHicaCveXxqLLwqX6t9NmzdpoOhewDwWgQK1t3T7dseyPWNKHJI0znQfAgTp64trd1rX/n8PhkF1ZWXrN/BNmfc1gLGA/CkCBWbNpx+ywk7nKkd4nPuEDvvXGAiBJliVVV5T/Yv6cWZ82FAvYjwJQIF7Ztq0hNOh8z5E+Ji78gO8drADs01BT+bl3nnDMtXmOBByAC0kBWLtp2zxr0FnlSJ8Q/82AgtcV7//vZStWzzSdA8HGxcTnXtm47atynGWSRpnOAsAbmYwdGkwkH1m+fHnUdBYEFwXApxzHsda1bvuhJed74r8TUHSSqXR9dzpyr+kcCC4uLD61btO2nziW8wXTOQDkTm9/8vS/LX+ZP+cwggLgQ2tbt3xd0uWmcwDILcdx1BOPX/Pwsy/PMJ0FwUMB8JlXNm45Q5Z1tekcAPIjnbHDqYHE4y+//HKJ6SwIFgqAj6xubW22ZN0o/rsAgZJMDdbt6h28x3QOBAsXGh+JWJH/lDTCdA4A+cc8APKNAuATr2zadpIl68OmcwAwg3kA5BsFwCcsx/mG2JkRCDTmAZBPFAAfWNe6bZakM0znAGAe8wDIFwqAH4Scj4lP/wD+iXkA5AMFwLDly5dHHUdLTOcA4B/MAyAfKACGVdU1zZHUZDoHAH9hHgC5RgEwzLGsuaYzAPAn5gGQSxQAw6yQNcd0BgD+1dufPP2R5166wnQOFB8KgGGOo+mmMwDwL8dx1NvX96NlK1bPNJ0FxYUCYJDjOCFJE0znAOBvmYwdGkwkH1m+fHnUdBYUDwqAQevXr6+UxB9oAG8pmUrXd6cj95rOgeJBATAoE4tVms4AoHAwDwAvUQAMstMRPv0DGDLmAeAlCgAAFJB/zAOkHmV/ALhFAQCAAsP+APACBQAAChDvC4BbFAAAKECO46g7Hv9P5gGQLQoAABQo5gHgBgUAAAoY8wDIFgUAAAoc8wDIBgUAAAoc8wDIBgUAAIoA8wAYLgoAABQJ5gEwHBQAACgizANgqCgAAFBEmAfAUFEAAKDIMA+AoaAAAEARYh4Ab4UCAABFinkAHA4FAACKFPMAOBwKAAAUMeYBcCgUAAAocswD4GAoAAAQAMwD4I0oAAAQAMwD4I0oAAAQEMwD4PUoAAAQIMwDYB8KAAAEDPMAkCgAABA4zANAogAAQCAxDwAKAAAEFPMAwUYBAIAAYx4guCgAABBgzAMEFwUAAAIuk7FD6cTgI4884kRMZ0H+UAAAAEqkUvV2+Yv3ms6B/KEAAAAkSb19yYXMAwQHBQAAIIl5gKChAAAA9mMeIDgoAACAAzAPEAwUAADAmzAPUPwoAACAN2EeoPhRAAAAB8U8QHGjAAAADol5gOJFAQAAHBbzAMWJAgAAOCzmAYoTBQAA8JaYByg+FAAAwJAwD1BcKAAAgCFjHqB4UAAAAEPGPEDxoAAAAIaFeYDiQAEAAAwb8wCFjwIAAMgK8wCFjQIAAMgK8wCFjQIAAMga8wCFiwIAAHCFeYDCRAEAALjGPEDhoQAAAFxjHqDwUAAAAJ5gHqCwUAAAAJ5hHqBwUAAAIAcs0wEM6oknFz6+fM3lpnPg8CgAAJADlhXkCuCoM977Y+YB/I0CAAA5EAp0AWAeoBBQAAAgB8LhsOkIxjEP4G8UAADIgZIoH3wl9gfwMwoAAORAJByWFQr2YwDpH/sD9MT7rnn4hRdmmM6CA1EAACAHLEsqj5WYjuEL6UwmPBC3H2MewF8oAACQIxWlMdMRfIN5AP+hAABAjlRVlpuO4CvMA/gLBQAAcqQkGlFpSdR0DN/gfQH+QgEAgByqq6k0HcFX2B/APygAAJBDNVUVikS41r0e8wD+QAEAgByyJDXVVZmO4Tu8L8A8CgAA5FhNZYXK+ErgG/C+ANMoAACQY5YljWyqC/z7Ad4ok7FDmeTAw8wDmEEBAIA8iJVE1dxQYzqG7/QnBxqYBzCDOmrQmtYd40NWZpPpHH6UsgfVlu5WfyZlOgoOIWKFVBepUk2kQhZ/lQzZrrZOdfb0mY7hM5Yaa6qvOPWEo35qOkmQ8KfWIArAgQactO7teFrLulZqfWK76TgYoupIueZUHanzG0/TuNgI03F8z3Ec7djTqZ6+ftNRfCUSDmcqaktmzT/22JdNZwkKCoBBFID/38bkTn1zy03aOdBhOgqyFFZYHxoxXxeOmM8dgbfgOI52t3Wps5c7Aa9XFot1xAaPa543z0qbzhIEzADAuNbkTv1b6/Vc/AtcRhndtGepfrHjbtNRfM+yLLU01amxrloWg4H7sT9AflEAYFTKHtQ3t9yohM2z/mJxZ8eTerT7RdMxCkJTXbXGtTQqEgmbjuIbPfHEwr+tWLPEdI4goADAqHs6ntaugU7TMeCxG3Y/oIxs0zEKQnlZTJPHNqu+ppIHJ/+USCSuM50hCCgAMGpp5wrTEZADuwc6tSreajpGwQhZITU31GryuJGqq64I/H4BidRA49MrVh1vOkexowDAmHgmoY2pXaZjIEde6t9oOkLBiUbCamms09TxI9XSVKfyspiC2gUSti4ynaHYsfsSjGkf7DUdATnUlu4xHaFghUIh1VVVqK6qQo7tqD+VUiqVVmpwUIPpjBzHke0U9yOWcMhqMJ2h2FEAYEwsxHvSi1lM/Pf1ghWyVFFWqooy00nyy5LWmM5Q7HgEAGMaolUqseigxWpkrN50BACHQQGAMVErouMqp5iOgRw5seoI0xEAHAYFAEYtbnyn6QjIgbdXHaXRJY2mYwA4DAoAjDqmYpLm1x5nOgY8VBku1SdGLjIdA8BboADAuCtGnadjKyebjgEPlIViumrchXz6BwoABQDGxUJRfW/CpbqgaR5DgQXsqPLx+u/Jn9bsiqmmowAYAv62hS+EFdJHm8/Qe+tP0mM9q7W6b6M60r1KO7wUzM+qwxUaF2vSSdVHaVYFd3GAQkIBgK80RKt1bsMpOrfhFNNRAKCo8QgAAIAAogAAABBAFAAAAAKIAgAAQABRAAAACCAKAAAAAUQBAAAggCgAAAAEEAUAAIAAogAAABBAFAAAAAKIAgAAQABRAAAACCAKAAAAAUQBAAAggCgAAAAEEAUAAIAAogAAABBAFAAAAAKIAgAAQABRAAAACCAKAAAAAUQBAAAggCgAAAAEEAUAAIAAogAAABBAFAAAAAKIAgAAQABRAAAACCAKAAAAARQxHQA4mI50rzoGe+SYDgLkUEW4VM0ldQrzWQwGUADgGwk7pTvaHtfDXSu1Y6DddBwgLypCpZpTfaQuaJyn8aUjTMdBgFAA4Atr+7fom1tuUke613QUIK/67KQe7lqpv3W/qH8ZsVDnN50mS5bpWAgA7jvBuLWJrfrypl9y8UegZRxbN+x+QL/d/VfTURAQFAAYlbBT+vaWm5SyB01HAXzhj3sf1fL4q6ZjIAAoADDqzvYn1TbYYzoG4BuOHP1q1/2mYyAAKAAwalnXStMRAN/ZmNyp1uRO0zFQ5CgAMKY306+tqT2mYwC+9HLfZtMRUOQoADCmY5ChP+BQ2jPdpiOgyFEAYExpqMR0BMC3yqyY6QgochQAGNMQrVYsFDUdA/ClUbEG0xFQ5CgAMCZihXV85VTTMQDfiVphHV85zXQMFDkKAIxa0jSPXc+AN3hP/dtVHuIRAHKLAgCjjigbq7PqTjQdA/CNlpI6XTjiXaZjIAAoADDuM6Peq5OqjzIdAzCuKVKjb437qKrC5aajIAAoADAuYoX1jbEf1qUtZ6kiVGo6DpB3liydVjNT1065jDcCIm94GyB8IWRZOr/xNC2qO1FP967Rqr6N6kj3KmPbpqMBOVMTrdDEWLNOrp6hsTEu/MgvCgB8pTJcpgW1x2tB7fGmowBAUeMRAAAAAUQBAAAggCgAAAAEEAUAAIAAogAAABBAFAAAAAKIAgAAQABRAAAACCAKAAAAAUQBAAAggCgAAAAEEAUAAIAAogAAABBAFAAAAAKIAgAAQABRAAAACCAKAAAAAUQBAAAggCgAAAAEEAUAAIAAogAAABBAFAAAAAKIAgAAQABRAAAACCAKAAAAAUQBAAAggCgAAAAEEAUAAIAAogAAABBAFAAAAAIoYjoA8Ea242j7wF51puNKK2M6DpAz1aFyjY41qiwUMx0FAUQBgG90Z+K6de/f9HDXSnWl46bjAHkRtcKaXTlNF46Yr+llY03HQYBQAOALK+Pr9d2tt6g30286CpBXg05Gz/S+omd71+r8ptP0kRFnKGRZpmMhAJgBgHGr+lp11aYbuPgj0Bw5+uPeR3X9zrtNR0FAUABgVDyT1He23KKMbNNRAF+4s+NJPdHzsukYCAAKAIz6c/vj6s7wvB94vRt2PyBHjukYKHIUABj1cNeLpiMAvrMttVfrEztMx0CRowDAmO5Mn3YMtJmOAfjSmsRm0xFQ5CgAMKZrkFv/wKF0DPaajoAiRwGAMeVhNj8BDqUiXGo6AoocBQDG1Eer2QENOIQxJU2mI6DIUQBgTFghnVg13XQMwHdioahmV04xHQNFjgIAoy5omseuZ8AbvK/hFJWGSkzHQJGjAMCoSaUjdW7DKaZjAL4xLtakDzbNMx0DAUABgHGXNi/SgtrZpmMAxo0qadS3xn+U2RjkBS8DgnFhK6QvjTlfMyrG63e7l/ImQAROWGGdUXeCLm05U5XhMtNxEBA8fH2D5v9aWKGEPSlk23WOpQpJlbk611FN0yt/ftbXbsjV+oUoZQ9qRfw1vdTfqvZ0r2yb7VBRvKoi5ZoYa9Hba45UU6TGdBxfsaSvTp849gemcxSzwN8BaLl67oSQQu9xZJ0maY76Mv98IbclK8fXntfaNmzP7RkKTywU1cnVR+nk6qNMRwGAohbIAjDj6sUl7VbHBy1HH5N0imPsTgjj7wAAM4JVAG5bHG55pfMTHU7HVy1HY03HsSgAAABDAlMAmr81b05oTcf1ko41nWUfixkMAIAhQfgaoDXym++6PGyHHpePLv6SZFlWEH7+AAAfKuo7ABOunluaUvgWOTrXj7PkIStEAQAAGFG0BaDxmlOqUonwXZLmms5yKCHuAAAADCnOC9D/HB+NJkpvl48v/pJkWaGw6QwAgGAqygIwcmftdZLOMJ3jrYS5AwAAMKToLkCjvrngHEmfMJ1jKMJWuGgfwQAA/K2oCsCoq+c2Oo79S9M5hioUClEAAABGFFUBsBX5D8lqMp1jqELMAAAADCmaAjDm6rlTQnI+aTrHcFhiBgAAYEbR3ILOKPxFSVHTOQAAKARF8Ql0zNVn1Eu6yHQOAAAKRVEUANvKXCipwnQOAAAKRXEUAMf5oOkMAAAUkoIvAE1Xz22xpLebzgEAQCEp+AIQtULzxGt1AQAYloIvAHJ0qukIAAAUmoIvAI6so01nAACg0BR8AZA03XQAAAAKTaEXAEtSg+kQAAAUmoIuAM3/tbBcEvvpAwAwTAVdAHb3DaQkOaZzAABQaAq6AOjqR9OS+k3HAACg0BR2AXBkSWo3HQMAgEJT0AVg0rLF1VZ5lE2AAAAYpoIuAJIUqioZazoDAACFpuALgFURNR0BAICCU/gFoDomy+IpAAAAw1H4BSBsyarkLgAAAMNR8AVAkkKNZaYjAABQUIqjANSVyooUxW8FAIC8KI6rpmUp1FxhOgUAAAWjOAqApHBzuaxo0fx2AADIqeK5YlqWwmOrTacAAKAgFE8B0D9mAUJ1paZjAADge0VVACQpMr5aivGGYAAADqfoCoDCIUWn1Enh4vutAQDglaK8SlqlEUWn10sRdggEAOBgirIASJJVFlF0WgPfDAAA4CCK+upolUUUPaJBIV4YBADAAYq6AEiSSsIKT69XuKVC4okAAACSglAAJFmWpfDoKkWPbFSoqsR0nNdxTAcAAARUIArAPlZZRJFp9YpOq5flgyKQtjMDpjMAAIIpYjqACVZViaJV9XIGMrLbk7J7klJfWo6T30/kqcxgQpL5JgIACJxAFoB9rJKwwiMrFB5ZIdmO7MSglEzLSdlSxj54IXCUVtrZ4dh2hzLqk2w76wClEefWtkeayqzYyGgoXOvitwIARSHj2ImEM7B7bf+WcePu+dAnsl7IVsJSqN+xnK5IKLy1rrl044oT/nfQw6gFr6DH4iYtXVyTSZZ0mc4BAPC9tGStseQ8ajtaWpUc+OvL598e6MewFAAAQBB1SPpDxrb+e9s5N683HcYECgAAIMgyknW7HOtrm99700bTYfIpUN8CAADgDcKSc4Es++Xx91z0dT0yNzCzcRQAAACkMjnOtybERz857p4PTTIdJh8oAAAA/JMjvc1yrGcm3v2hE01nyTUKAAAAB2q0ZT007p4PLTAdJJcoAAAAvFml5Vh3jr/nopNNB8kVCgAAAAdXLse5c8KfL5hgOkguUAAAADi0RkXCt824bXHRbdtOAQAA4DAc6W195SVXmc7hNQoAAABvwXGcKyfde/E00zm8RAEAAOAtWbGMnf6e6RReogAAADAk1nnj7vrgDNMpvEIBAABgaCzLsq4wHcIrFAAAAIbMOn/MbYvLTKfwAgUAAIChqw6XxhaZDuEFCgAAAMPghJzTTWfwAgUAAIBhsBxnnukMXqAAAAAwLNbUptsWV5pO4RYFAACA4bHKY+GppkO4RQEAAGCYrFBkvOkMblEAAAAYJtuxq0xncIsCAADAMIVCYgYAAICgcZxQ2HQGtygAAAAEEAUAAIAAogAAABBAFAAAAAKIAgAAQABRAAAACCAKAAAAAUQBAAAggCgAAAAEEAUAAIAAogAAABBAFAAAAAKIAgAAQABRAAAACKCI6QDAwcRCUY2KNqg2WqlSK6pYuETlVulBf61t2epPpxS3+9We7tGegW4l7FSeE5sXC0U1uqRRLSV1KrNiioVKPFs7o4wSmQF1pHu0NdWm7kzcs7Xdqo9U6cjy8aoJl6vPTmpTarc2J3ebjpU3I0vqNal0pGrCleqzE3otsV07BtpNx0IBoADAuLJQTDMrJmlWxSRNLB2pMbEGNUVrZcnKes3dA51qTe3Sq/1b9ULfBq3r36aMMh6mNi9ihfW2quk6vmKaZlZM0rjSJlc/s+HozsS1Or5JL/Sv19+7X1JnOv+FYGbFJF3cfLqOLp/wpt/39oE2/WHPw3qoe6Vsx8l7tnyYU3WELhpxuqaVjX7Tv9uY3Knf73lYj/esNpAMhSI/f1vkyKSli2syyZIu0zkwfCOidVpQe5zmVB+pqaWjFLbCOT1fwk7pmZ61eqxnlZ7rXacBJ53T8+XSyJJ6nddwqubVzlJVuNx0HGUcWyv71usv7U9oee+rcpTbC27IsvSREQt1ftPctyw8z/S+ou9vvbWo7giFFdJnR5+jRXVz3vLXPty1Uj/Z/n8F/f+7f1mXbT775utMp3CDAoC8KbEiOq12lhbWHq+jyycqZJn5368706cHO5fr3o6ntWug00iGbDRFanRJy5k6rWaWwpY/x3c2JHfoV7vu0/Px9Tk7x0ebz9AFTfOG/Ouf73tN/77xt0VzB+jy0ecO6eK/z9+7X9J3tv4+58UseAq/AOT2Y1eO1V08o9RJh79iOgcOrzRUorPr366vjb1QC2pnq7mkTpahi/++PDPKJ+ic+lM0oaxZrYmd6s30G8vzVkKWpfc3vlNfH3eRppaNMVachqI+UqUFtbM1MdaiVf2tStoDnq5/dPkEfX7MB4b1qGNkSYP67ZTW9G/2NIsJJ1UfpY+3vHtYx4wrHaFdAx1qTe7MUaqgsu7v/sOqZ02ncIMZAORMWCG9v/FULW48TdUR87eq3yhkWXpn9UydUn207mx7QjftWaZ+n90qro1U6ktjztcJldNMRxmWd9QcrWMqJ+g/t96m5fFXPVv3ohELsppzWNI4V/d2PFPQjwIsWfqXEadndeyHR5yuZV0ruQuAA/jzPiIK3syKSfrFlCt0actZvrz4v15YIZ3XeKpumPYlnVJ9tOk4+42LNem6yZ8tuIv/PjXhSn1r/Ef0nvq3e7JebaRSMysmZXVsdaRc82pmeZLDlKPLJ2hi6cisjm0uqdP0sjEeJ0KhowDAU2WhmL40ZrH+c+LHNb50hOk4w1IXqdQ3xl2kL41ZrPJQzGiWaaWj9aOJn1JTtNZoDrfCVkiXjXqfLmya73qtyaWjXM0+nFl/ousMJi1ymX/yQb4tgGCjAMAz40tH6KeTPq0Ftcfn7etoubCg9nhdN+UyYwVmVEmjvj3ho76/czIcFzcv1HmNp7paoyZS4er46WVjNKVAL4LVkXK9o+YYV2vUufz5ofhQAOCJRXVzdN3kz2l8abPpKJ4YXdKon0z6tGZXTsnreasj5bpm4qWqjVTm9bz58PHmRTqp+qisj+/LJFxnWFT3NtdrmHB67WyVWO5GtuKZpEdpUCwoAHBtSeNcXT76XNd/QflNRahU3x7/UZ1WMzMv57Nk6fOjPqAR0bq8nC/fQpalL44+X80l2f3+WhM7XQ+xza89TmWGH+9k44xa948vNvAtALwBBQBZC1shXT76PF3ScqbpKDkTscK6cswFmlub+wGys+pPdPUJuRBUhkv1xdGLs3pEtDfdrQ2JHa7OXxaKFdww4DHlE10/jopnElrTt8mbQCgaFABkJWRZ+vKYJVpUV9iDVUMRtkL68pglmlN1RM7OURUu10eaF+ZsfT+ZWTEp60L1YOdy1+cvtGFAt8N/krS063llZHuQBsWEAoCsfLrlHM0tsE9SboQV0lVjL8zZENlFI96lmnBwhrQubTlL0Sy2f36oa6XrzYUKaRjQi+E/SXqgo6D3q0GOUAAwbBeNWKCzG7z5bnchiYWiunrchz0f0KuOlOvMAh1Oy1ZTpEYLamcP+7g+O6nHut2/4KZQhgG9GP57qX+TNqWC83ZEDB0FAMMyt2aWPjxigekYxjRFa/WlMed7+jXH99afpFIPX91bKN6f5dcC7+t0/2m2UIYBvRj+49M/DqW4xraRU6NKGnXF6PPydr6EndK2VJv2DHYqnkkq6Qy86fZvzIqqKlKuqlCZGqM1Gh9rzvmLck6onKaz69+uuzqecr2WJUvvyuKT8OG0D/ZobWKL2tI9nuzFH1FYtdFKjSsZoSllozwrP2NjIzS9bKzWJbYO67hX+jdrQ3KHJpeOyvrcZaGY5tbM1P2dz2W9Rq55M/yX1GO8EhiHQAHAkJRYEV019oM5/dSUdjJ6rnedlsdf1Yt9rdqa2jPsNcpCMU0tG60TKqdpft1xaorU5CCp9LGWRXo2vtb12wSnlY3RqJIGTzKt6d+s3+x+UKv7NuZsz/emaK2WNM7VooYTFfbgBuLcmpnDLgCS9EDHc/rMqHNcnfus+jm+LgDeDP+tUMoe9CANihEFAENycfPCnA1O7R7o1J/a/66Hu1eqJ+3urXwJO6VVfa1a1deq3+35q46tmKIPjpivY8oneBP2n2KhqP615WxdveVGV+vMrvJmo6Fb9z6i3+35q2wnty972TvYpet2/kWP9azS18de5Hq3wtlV06Rd9w77uIe6VurSlrNcPTrZNwy4PrE96zVyheE/5AMzAHhL40ubdV7jOzxftyPdqx9uv10fffWH+kv7E64v/m+UcWytiL+qL7Zer6u33KjtA22ern9S9VE63uWLemaWT3ad4462x/Sb3Q/m/OL/eqv6WvX1Lb/VoJN2tc742AjVhIc/VFnsw4AM/yEfKAA4LEuWLhv1Pk9u9+7jyNFd7U/pY6/+SEs7VyijjGdrH8pTPWv06fX/n5Z1rfB03X9pzu71rPtMKm1xdfzG1C7dsPsBV2tka23/Fv1+70Ou1rBkaXKWb7gr5mFAhv+QDxQAHNbc2lk6pnyiZ+v1Zvp19eab9LOdd6rPzu/e5El7QP+17Xb9ePsdyjjelI7pZWN1YpYbBFWGS11/pfD3ux9SxjG3wcuf255Q3OUe/aNLs5uB2DcM6Ma+YUA/YfgP+UIBwCFZsvTBxnmerbd7oFOf2/BzPd27xrM1s/Fg53J9f+utnu2MtqRpblbHNUXcveo3ZQ/q2fhaV2u4lbQH9FzvOldruPk5PNDhfojvrPo5rtfwEsN/yBcKAA7plJoZnr3db3Nyt65o/bl2ePwcPluP96zWNVtv9WRa/ujyCTqyfPywjyuPlLo675bUHl/8Jf9a0t0QnZtb8MW2MyDDf8gnCgAOaYlHn/73prt11ebfqCPd68l6Xvlb9yr9X9vjnqy1OItNbWIuh7y60nFXx3ul02WO8nD2k/zFNgzI8B/yiQKAgzqyfLymefCpKGGn9LWNv9LewS4PUnnvhl0PaE3/ZtfrnFQ1Q43R6mEdY7n845eP4cmhsF3PILjbWKiYhgEZ/kM+UQBwUKfXHufJOtdu/4u2pPZ6slYuZGTrp9v/5HqQLmRZOrU6v8NkXm5HXMiKZRiQ4T/kGwUAbxK1wjrNgzf9Pd6zWg91r/QgUW5tSu3W0k73Xw+cWj68OyYJO+XqfEF8f8ChFMMwIMN/yDcKAN7kxKojVRkuc7VGwk7pf3bc41Gi3Ltx71INuNzUpi5cNaxf35Nxt/FRU9Tdtwi84vbuieMFK0FNAAAXKElEQVTBBkaFPgzI8B9MoADgTU6omup6jTvaHtfedLcHafKjfbBHD3W5u1sRt4d3Qe91ufPhqJIGNQxz7iAXulwOd3oxHFrow4AM/8EECgDe5NgKd/vTJ+0B3d3u/k15+XZH22OuttNdnxjec+i4nXC9IdGCGm/fJJiNTak9rn4f2bz06WAKeRiQ4T+YQAHAAZoiNa7fTvfXzhXqzvR5lCh/tqX26pneV7I61nYcPdHz8rCOyTi2WpO7sjrfPuc1vkMVIXf7CbjVm+nX6r5NWR2bka2ne73ZzKhQhwEZ/oMpFAAc4OhK99v+Lut63oMkZvxq9/1ZveDmse5V2pbFtx1e7t807GNerzZSqc+NOtfVGl74495HszrurvYn1etyFuL1CnEYkOE/mEIBwAHGl7jb+W/HQHtW73f3i22pvbpp97JhHbN3sEs/33lXVufzYg+CubWz9PGWRUa/Fvh832u6t+PpYR2zObl72D/rt1Jow4AM/8EkCgAOMKa00dXxL/St9yiJOX9se1S37H14SNsE7x7o1Fc2/TrrRx4v9rV68mKiDzS+U/8x/mLVuXy5kBs/23mX7ut4Zki/dkNyh67a/BvPXwhVaMOADP/BJAoADjCmxF0BeLGv1aMkZv1u91/1lU2/0vrEwfe5T9mD+lPb4/rMhmuzuvW/T1c6rmdcvkxnn5OqjtTvpl2pT408W+NiTZ6sORwZx9ZPd/xZ39pys7Yf4p0P8UxSN+9Zpis2/Dxnu0MW0jAgw38wyV31RNEZ6XIAcKPLoTY/eSG+QZ+JX6vxpc2aXjZG9ZFqpewBbR9o16q+Vte3mvd5oPNZnVx9lCdrxUJRva/hFL2v4RSt7t+o+zqe1d+7V7ve42A4nuh5SU/0vKQpZaN1ZPlY1Ueq1ZtJaFNyl17q25jzLPuGASeXjsp6jX3DgPd3up8pOBSG/2AaBQD7hRV2tbtcxrG1M9XuYSJ/2Jzcrc3J3N1iXR5/VXsHuzzf2OeY8ok6pnyiPtVytpZ1rdD9nc/mdVvm9Ynth7yDkmsPdDynz4w6x9UaZ9XPyWkBYPgPpvEIAPuVuXgrm/SPr4Pl85Nmscg4tm7cszRn61dHynVe46n65dQv6LrJl2lR3RzFQtGcnc8P/D4MyPAf/IACgP3cPvPsd7m3fZAt63pe6xLbcn6eqWWjdfnoc3XL9Kt0+ehzNTHWkvNzmuDVMOBZORoGZPgPfkABwH5lLj8Vpjx6Jh5EtuPoFzvvHtI3D7xQGS7Voro5un7qFUV7V8CLYcB35WgYkOE/+AEFAPtZlrv/Hew8XbyK1Sv9m/Wntr/n/bzFelfArzsDMvwHv6AAAD7y69336/n4a0bOXYx3Bfy4MyDDf/ALCgDgIxnH1jXb/piz78gP1b67AjdP+6o+2fJuI/sKeMFvw4AM/8FPKACAz3Sl4/rixv/RjgHzX6ks9G8Q+G0YkOE/+AkFAPChXQOd+kLr9b76i75QZwX8NAzI8B/8hAIA+FRHuldXbvylVvtse+XXzwr8cNInNb/2ONefanPJL8OADP/BbygAgI91peP68qZf6le77svqNcW5dkz5RF05ZoluPuIrWtI0Ly/752fDD8OADP/BbygAgM/ZjqPb2x7TZeuv08t9m0zHOaiacKUuaT5DN02/Uhc2zffdHQHTw4AM/8GPKABAgdiY2qXPb7xeX2i9Xs/0vmI6zkFVhct1cfNC/WzK5zQ1R9voZsP0MCDDf/AjCgBQYF7q36RvbP6dvtB6vR7tetGXjwbGxUbop5M/oyVNc2XJMh1HktlhQIb/4Ef+uk8HYMhe6t+kl/o3qXJnqd5ZPUvnNJ6sCbFm07H2CyukS5rPVEtJna7d8RfZjtmdIk29JpjhP/gVdwCAAhfPJHVf5zP65Gs/0Wc3XKv7Op/x1aDYoro5unLMBQr74K8bb4YBh/dpnuE/+JX5P5EAPPNaYrt+uv3P+vC6H+iXu+7T9oE205EkSXNrZunzY95vOoZHw4BjhzwMyPAf/IwCABSh7kyf7mh7TJe8+kPf3BVYUHu83ttwktEM+R4GZPgPfkYBAIqcn+4K/OvIszWjYoKx80vSvZ3PuF5jqMOAXgz/3c+nf+QIBQD7OY7t6viQT6a9cXB+uCsQVkhfHL1YUSuc1/O+3tr+LXnZGdCr4b/HGf5DjlAAsF/Sdvd1slioxKMkyLV9dwU+tO67+un2P+f1FvOokgad3XBy3s53MPkYBmT4D35HAcB+CTvl6ni/bgOLQ9v3DYJ/fe2/9eWNv9Sj3fnZV+DCpnepJlyR8/McSq6HARn+QyGgAGC//kzS1fHV4XKjt3aRPUeOXuzboO9v/YMuWPudnN8VqAyX6t0u99Z3I9fDgAz/oRCwERD2y8hWyh7M+n3vYSukUbEGbU7u8TiZWaNLGnVM5UTVhCuUsFPalmzTqv5WpZ1MTs7XGK3WMRWT1BipVtqxtX2gTS/2bcjbreB9dwXu73xWMysmaVH9iTqleoaiHu/vf2bd23Rr2yPGNgi6t/MZLaw73tUa76o9Tr/adf+b7p4x/IdCQAHAAXYOdrjaTW5CrKVoCsCsism6tOVMTS8b+6Z/152J64HO5bp1zyPqd/noZJ/pZWN0cfNCHV859U3b5ybslO7ueFq37HnY9aOaodp3V+DFvg2qCVfq9LrZWlR/okaXNHqyfnNJnY6tmKLn4695st5w7RsG9HpnQIb/UCh4BIADbEvudXX8rIpJHiUx68Km+bpm4scOevGX/vH2uyWNc3X9lCs0Jtbk+nxLGufqJ5M+pRMqpx107/yyUEznN56mn025zLML8HB0Z+K6o+0xfey1H+l7W29RR7rXk3Xn1RzryTrZysUwIMN/KBQUABxg24C7AnBs5RSPkpjzgcZ36uLmhUN6iU1zSZ2umfBx1UYqsz7fBU3zdEnLmQoPYX5idEmjfjDxUlfnc8N2HP2te5U+tf6nrr9KJ0kzKsZ7kCp7Xg8DMvyHQkIBwAE2p9zdvh9d0uir18AO17hYky5pPmNYxzRGq/XZUedkdb4pZaN18YgFwzpmRLROnxj57qzO55WudFxXbbpB7YM9rtYZVdJgrMxI3g8DMvyHQkIBwAFW9210vcaC2tkeJDHj4uaFQ/ok/kbvqD46q+e+H2ycl9X55tccq6Zo7bCP81JnOq7/3XWvqzUsWTryEI9Z8sXLnQEZ/kMhoQDgAHsHu7RjoN3VGgvrTlBluNSjRPkzqqRBJ1fNyOpYS5ZOrh7esaWhEp1YfUTW5ztlmOfLhcd6Vmn3QKerNZpKzBaZtf1btDG509UaZaGYPjvqHA+G/xIM/yFvKAB4kxf7Wl0dXx6K6Zx6szu9ZeP9jacqbGX/R2JibOSwfn1LtM7V7eKxHgwfumU7jp6Jr3W1hskNgfa5z4NP3V7c+Vra9TzDf8gbCgDeZEXvq67X+EDTaaqPVHmQJj9qI5U6vdbdd8KrImXD+vV1UXc/nzqf/Hw3Jd09r66KlHuUJHteDAN6geE/5BMFAG/yTO8rirvcFbA8FNMnW97jUaLcu3jEgqw3QNqnMx0f1q8PufzjF7b88fKlPjvh6vjykPnHRV4NA7rB8B/yjQKANxlw0nqsZ5XrdebWztJpb/HGND8YGxuhM4f4fvfDWZ9w/7W4guRyIz9/1BhvhgHdYPgP+UYBwEE91Pm8J+tcMfr9RjauGaqwFdLlo96X1ST+6zly9LjhT5Bwx4vXBGeLnf9gAgUAB/Vy/2a1upyMlv7xKOA7Ez6qOoPf9T6ci0ecrmM82L3wmd5XtHewa1jHOLJdndPtIwSvhFwMTkqubyB4youdAbPBzn8wwR9/g8B3HDm6de8jnqw1qqRB351wiWrC/ioBp1TP0PmNcz1Z6469jw/7mJTL1+7W+KRU1UXcTfEnM+aH7/YxNQzI8B9MoADgkB7vWa1tKXdbA+8zuXSUfjr50xpV0uDJem7NqTpCXx37QYU8GKRbl9im1f3D30CpP+PupT7jYk2+eP3yRBcv05GkfsfdwKmXTAwDMvwHUygAOCTbcfQHj+4CSNLIknr9ZNKndHzlNM/WzMb82uP0H+Mv9uz1trfufTir49oGu12dtywU0wmGf5axUFRzKrPbzGiftgF3Pwev5XsYkOE/mEIBwGE91LVSL/dt8my92kilvjP+o/pEy3tUFop5tu5QlFgRXT7qXF05ZonCHv2vvz6xXU/1vJLVsb2ZfnVn+lyd/8IRCzy5i5Gt99afpGqX3+N3+wIqr+VzGJDhP5hEAcBhOXJ07c47lXEynq0Zsiy9v/Ed+uW0z2t+7XGudt8bquMrp+m6yZdpUf0cT9e9cc9SOS7G2DYmdrk6/9Sy0bqwaXgvE/LKlLLR+vCI012t4cjRxqS7n0Eu5GsYkOE/mEQBwFvamNypO9uf9HzdpkiNrhyzRL+c+nktqjtR5R7fEbBkaWbFJP1gwsf0vQmXaHxps6frP9u7Vs/0utsGd1XfBtc5LhwxX0ua5g3p9cVeOaJsrL49/iOuN0/amto77A2U8iFfw4AM/8Ekbx6Couj9ds9fdVzVVE2MtXi+9uiSRl0++jz968iz9XTvK1oeX6cX4q3aMzj8l8xErbCmlI3RCZVTtaD2eLWU1HmeV/rHZkm/2Hm363VW9m3QxS7XsGTpkuYzdGzlJP1214Nal9jmOteh1IQr9YGmU3VuwymezFC84EEByoV9w4AL69xtD304DP/BNAoAhiRlD+q7W27RtZM/k7Nn97FQVKfVzNy/e2BPul/bBvZqx0C7UvaA4vbBp8WrwxWqDperMVqtyaWjFMnDZPxvdj/o+q2JkvRK/xbtHuhUswdFZXbFVM2ePFU7Btq1pn+zutJxZVzuNbBPVbhMY2PNOqpsnKePbB7tftGztbx2b+czOS0ADP/BNAoAhmxrao+u23GnvjTm/LycrzpSrqMi43VU+fi8nG+oVsbX6y/tf/dkLUeOHupeqQ81zfdkPekf+y745euWh7NjoF1r+jabjnFI+4YBJ7v8muPBMPwHP2AGAMOyrOt5zzYIKkQd6V791/bbZDve7V93Z/uTGnC5KVAh+nP7310NUOZDroYBGf6DH1AAMGy/3f1X3d9pZstUkwactK7efKPaB3s8XbcrHdeyzhWerul3nem4HuxcbjrGW8rVMCDDf/ADCgCGzZGja3f8WU/2rDEdJW8yTkbf33qL1iW25mT93+1Z6voVzIXkht33F8Qn4FzsDMjwH/yCAoCsZBxb39lys5Z1efPWQD+zHUc/2f5/OS08Xem4bt6zNGfr+8kr/Zu11KO3TeaD1zsDMvwHv6AAIGsZ2frhttv1x7ZHTUfJmYyT0Y933KGleSg6d3Y8qefjr+X8PCYl7JR+uP0O3z/7fz0vdwZk+A9+QgGAK44c3bDrAf1sx51Ke7hboB8k7JSu3nKTlubp+bztOLpm2x89nzHwC0f/uJPi1Qum8smrYUCG/+AnFAB44q6Op3R56889+W68H+wYaNcVG36uZ13u9DdcXem4vrbp14pnEnk9bz78ZveD+lv3KtMxsuLVMCDDf/ATCgA8sz6xXZ9df60e7fLv5i5D8Wj3i7psw7XGBrU2pXbr6s2/U7/t7nXBfnJ722P6495HTcfImhfDgAz/wW8oAPBUn53U97f9QV/d9GttH2gzHWdYujN9+sG2W/X9rX8wPpG/un+TPr/hF2or8McBjhzdtGeZfrXrPtNRXHM7DMjwH/yGAoCceD7+mj752k/02z0Pqu8QW/j6RcaxdXf707r01R/pka4XTMfZb2Nql67Y8DOt7t9kOkpW+uykvrvlFt28Z5npKJ5Y279F6xPbszq2OxNn+A++k/tN03Oo7uIZpU46/BXTOXBwthy91LdJd7U/pa50XJPLRqssVGI61n624+jx3tX67tZbtKxrhQYc/w1n9dspPdS5UrZsHVk+Pi+vTvbCc73r9O+bf6tXEltMR/FURzquebWzhn3c7/Ys1Ut9G3OQCOZY93f/YVVB39bhXQDIuYSd0p/bn9D9nc9pQe1snV47W0eUjzOWJ55JamnXCt3d/lRBPKbIKKOb9zykh7pW6uMti3RS1QyFrPy9+nc4tqb26Ne7H9BTRbpJ1NO9a3Rf57NaVHfikI95vu813dn+RA5TAdmhACBvkvaA7ul4Wvd0PK3RJY16V91svb3qCE2Mjcz5BW3ASeu53nV6rHuVnupdU5Bfxdo50KFvbblZ40ub9YGGd+rUmqNz9mbG4XDk6KX+zfpL+9/1ZM/Lnr4nwY+u2/EXWbJ0Vt3b3vLXPte7Tt/deosyjjdvZQS85M+PEUM0aenimkyypMt0DrhTE67QzIpJmlkxSRPLRmpcrFE14UpXa3al42pN7tLaxBat6mvVmv7NBXnRP5xYKKqTqo7SCZXTNLNikievFB6qhJ3S6r6NeqFvgx7vfkl7Bjvzdm6/OLn6KH14xOmaVDryTf9u50CHbtv7qB7oeq7oC1FwWZdtPvvm60yncIMCAF+qDJdpTKxJ1eFylYVKVBEqU1m4RJGDjK302gnZstU12Ke2dLf2DnSrOxM3kNqsqnC5Rsca1RytVUWoTBXhmEIezfn2O0klMwNqT/do+0C79g52cWH7p/GlIzS1dKxqImWKZ5JqTe7UhuQOfj5Fr/ALAI8A4EvxTEJr+4trgCzXejP9Wtu/RWvFzy2fNif3aHNyj+kYwLAVxkgxAADwFAUAAIAAogAAABBAFAAAAAKIAgAAQABRAAAACCAKAAAAAUQBAAAggCgAAAAEEAUAAIAAogAAABBAFAAAAAKIAgAAQABRAAAACKCCLgDR/irbdAYAQAA5TsFffwq6AKxL9fZLckznAAAEiyOn13QGtwq6AOj82zOS+k3HAAAES8gKUQB8YKvpAACAYHGkLaYzuFXwBcCSXjWdAQAQLKV2yWumM7hV8AVAll4wHQEAECjr151zA48ATHPs0N9MZwAABMojpgN4oeALQCaZfEpS3HQOAEAwOI61zHQGLxR8Adh2/u0JOfqL6RwAgEDoS8Wse02H8ELBFwBJchzrRtMZAADFz7F0++4zbuozncMLRVEAtpxz81LJWmk6BwCgqDm2pR+bDuGVoigAkmTJucZ0BgBA8XIs3bXt3b9fbTqHV4qmAGx6z+9vcxw9ZjoHAKAoDYQz1pWmQ3ipaAqALDmWk7lCUtp0FABAcXGkH2085+Z1pnN4qXgKgKTN59y60pK+YToHAKCorCgJd3zTdAivFVUBkKRNK6ZeI+l+0zkAAEWh0w6nl6xfdH/KdBCvWaYD5MKouz9RHlXfMkknmc4CAChYSduyFm59z82Pmw6SC0V3B0CSdpz9v/2RwdD7JGuV6SwAgIKUcBwtLtaLv1SkdwD2abptcWVFefRPjmOdbjoLAKBgdNmW9d5ivvhLRV4AJEmPzI1MiI/5d0fO11WkdzwAAJ5ZkbGtC7adc/N600FyrfgLwD+Nv+eid0vOdXI0wXQWAIDfOCk5+lFlcvCbL59/+4DpNPkQmAIgSWNuW1wWKot+2ZL1b5JqTOcBABjnSM6d4VDkytZ33/iq6TD5FKgCsM+U+y6sHrCdT8mxLrWkqabzAADyrkfSHY5j/3jLe//wsukwJgSyALzehHs/PMexM++WQvMk+22SFTOdCQCQE+ssx/qbbTlL7cTAvdvOvz1hOpBJgS8AB7htcXhceXR82LGmZCynRo5VK8vhZwQABchyrLhtWfGwZW8ZsCtf3XH2//abzgQAAAAAAAAAAAAAAAAAAAAAAAAAAAAAAAAAAAAAAAAAAAAAAAAAAAAAAAAAAAAAAAAAAAAAAAAAAAAAAAAAAAAAAAAAAAAAAAAAAAAAAAAAAAAAAAAAAAAAAAAAAAAAAAAAAAAAAAAAAAAAAAAAAAAAAAAAAAAAQLb+H5mM75202YbjAAAAAElFTkSuQmCC;" vertex="1" parent="1">
          <mxGeometry x="251" y="457" width="72" height="72" as="geometry" />
        </mxCell>
      </root>
    </mxGraphModel>
  </diagram>
</mxfile>
